<?xml version="1.0" encoding="utf-8"?>
<!-- Generator: Adobe Illustrator 21.0.0, SVG Export Plug-In . SVG Version: 6.00 Build 0)  -->
<svg version="1.1" id="Layer_1" xmlns="http://www.w3.org/2000/svg" xmlns:xlink="http://www.w3.org/1999/xlink" x="0px" y="0px"
	 viewBox="0 0 40 40" style="enable-background:new 0 0 40 40;" xml:space="preserve">
<style type="text/css">
	.st0{fill:#F49D00;}
	.st1{fill:#FFFFFF;}
	.st2{fill:#EF7C00;}
	.st3{fill:#FFFFFF;stroke:#EF7C00;stroke-miterlimit:10;}
	.st4{fill:none;stroke:#EF7C00;stroke-miterlimit:10;}
	.st5{fill:#FFFFFF;stroke:#EF7C00;stroke-width:1.2;stroke-miterlimit:10;}
	.st6{fill:none;stroke:#EF7C00;stroke-width:0.8;stroke-miterlimit:10;}
	.st7{fill:#EF7C00;stroke:#EF7C00;stroke-width:1.5;stroke-miterlimit:10;}
	.st8{fill:#EF7C00;stroke:#EF7C00;stroke-width:0.4;stroke-miterlimit:10;}
	.st9{fill:#D81922;}
	.st10{clip-path:url(#SVGID_2_);}
	.st11{fill:#EF7C00;stroke:#EF7C00;stroke-miterlimit:10;}
	.st12{fill:#EF7C00;stroke:#EF7C00;stroke-width:0.8;stroke-miterlimit:10;}
	.st13{fill:#EF7C00;stroke:#EF7C00;stroke-width:0.2;stroke-miterlimit:10;}
	.st14{fill:#FFFFFF;stroke:#FFFFFF;stroke-width:0.3;stroke-miterlimit:10;}
	.st15{fill:#EF7C00;stroke:#EF7C00;stroke-width:0.3;stroke-miterlimit:10;}
	.st16{fill:#EF7C00;stroke:#EF7C00;stroke-width:0.5;stroke-miterlimit:10;}
	.st17{clip-path:url(#SVGID_4_);}
	.st18{clip-path:url(#SVGID_6_);}
	.st19{clip-path:url(#SVGID_8_);}
</style>
<g>
	<g>
		<path class="st2" d="M27.8,8.1c0.4,0,0.9,0,1.3,0c0,0,0.1,0.1,0.1,0.1c0.3,0.4,0.6,0.7,0.9,1.1c0.1,0.1,0.2,0.2,0.3,0.1
			c0.4,0,0.9,0,1.3,0c-0.4-1.3-0.8-2.5-1.2-3.8c0.5,0,0.9,0,1.3,0c0,0,0.1,0.1,0.1,0.1c0.7,1.1,1.4,2.2,2,3.4
			c0.1,0.2,0.3,0.3,0.5,0.3c1,0,2,0,3,0c0.3,0,0.6,0.1,0.9,0.2c0.5,0.2,0.7,0.7,0.5,1.2c-0.1,0.4-0.5,0.5-0.8,0.6
			c-0.2,0-0.4,0.1-0.6,0.1c-1,0-2.1,0-3.1,0c-0.1,0-0.2,0-0.2,0.1c-0.7,1.2-1.4,2.4-2.1,3.5c-0.1,0.1-0.1,0.1-0.2,0.1
			c-0.4,0-0.8,0-1.2,0c0.4-1.3,0.8-2.5,1.2-3.8c0,0-0.1,0-0.1,0c-0.4,0-0.9,0-1.3,0c-0.1,0-0.2,0-0.2,0.1c-0.3,0.4-0.6,0.8-0.9,1.2
			c-0.1,0.1-0.1,0.1-0.2,0.1c-0.4,0-0.8,0-1.2,0c0.1-0.3,0.2-0.6,0.3-0.8c0.2-0.5,0.3-1,0.5-1.5c0-0.1,0-0.2,0-0.3
			c-0.2-0.7-0.4-1.4-0.7-2.1C27.9,8.2,27.9,8.1,27.8,8.1z"/>
		<g>
			<path class="st2" d="M10.3,38.3h-1c-0.1,0-0.2-0.1-0.2-0.2V15.6c0-0.1,0.1-0.2,0.2-0.2h1c0.1,0,0.2,0.1,0.2,0.2v22.6
				C10.5,38.2,10.4,38.3,10.3,38.3z"/>
			<circle class="st5" cx="16.7" cy="5.5" r="3.8"/>
			<polygon class="st5" points="2,4.8 17.7,4.8 9.9,15.9 			"/>
		</g>
		<path class="st2" d="M26.6,9.6c-1.2,0-2.4,0-3.6,0c-0.5,0-0.9-0.3-0.9-0.5c0-0.3,0.4-0.5,0.9-0.5c0.9,0,1.8,0,2.8,0
			c0.1,0,0.3,0.1,0.3,0.1C26.3,8.9,26.4,9.2,26.6,9.6z"/>
		<path class="st2" d="M26,11.4c-0.1,0.3-0.2,0.6-0.3,0.9c0,0.1-0.1,0.1-0.2,0.1c-0.5,0-1,0-1.5,0c-0.3,0-0.6-0.2-0.6-0.5
			c0-0.3,0.2-0.5,0.5-0.5C24.7,11.4,25.3,11.4,26,11.4z"/>
		<rect x="7.4" y="37.4" class="st2" width="4.9" height="0.9"/>
	</g>
	<g>
		<g>
			<g>
				<path class="st2" d="M12.5,29.6c-1.7,0-3.3,0-5,0c-1.4,0-2.2-0.8-2.2-2.2c0-3.7,0-7.3,0-11c0-1.1,0.6-1.9,1.6-2.1
					c0.2-0.1,0.5-0.1,0.7-0.1c6.4,0,12.8,0,19.2,0c1.3,0,2.2,0.9,2.2,2.2c0,3.7,0,7.3,0,11c0,1.4-0.9,2.2-2.2,2.2
					c-4.1,0-8.2,0-12.3,0c-0.2,0-0.4,0-0.6,0c0,0.1,0,0.2,0,0.3c0,1.2,0,2.4,0,3.6c0,0.6,0.2,0.8,0.9,0.8c6.4,0,12.8,0,19.1,0
					c0.6,0,0.9-0.3,0.9-0.8c0-1.7,0-3.4,0-5.2c0-0.1,0-0.2,0-0.3c-1.7,0-4.3,0-6,0c0-0.5,0-0.9,0-1.4c1.7,0,4.2,0,6,0
					c0-0.6,0-1.1,0-1.7c-1.7,0-4.3,0-6,0c0-0.5,0-0.9,0-1.4c1.7,0,4.3,0,6,0c0-0.5,0-0.9,0-1.3c0-0.4-0.3-0.6-0.8-0.6
					c-1.3,0-2.6,0-3.9,0c-0.1,0-1.2,0-1.3,0c0-0.5,0-0.9,0-1.4c0.1,0,1.1,0,1.3,0c1.3,0,2.6,0,3.9,0c1.3,0,2.1,0.9,2.1,2.1
					c0,3.7,0,7.4,0,11.1c0,1.3-0.8,2.2-2.2,2.2c-6.4,0-12.8,0-19.2,0c-1.3,0-2.2-0.9-2.2-2.2c0-1.2,0-2.4,0-3.6
					C12.5,29.9,12.5,29.8,12.5,29.6z M17.1,15.6L17.1,15.6c-3.2,0-6.4,0-9.6,0c-0.6,0-0.8,0.3-0.8,0.8c0,3.6,0,7.3,0,10.9
					c0,0.6,0.2,0.9,0.9,0.9c6.4,0,12.8,0,19.2,0c0.6,0,0.8-0.2,0.8-0.8c0-3.7,0-7.3,0-11c0-0.6-0.2-0.8-0.9-0.8
					C23.5,15.6,20.3,15.6,17.1,15.6z"/>
				<path class="st1" d="M27.5,16.4c0-0.6-0.2-0.8-0.9-0.8c-3.2,0-6.4,0-9.5,0v0c-3.2,0-6.4,0-9.6,0c-0.6,0-0.8,0.3-0.8,0.8
					c0,3.6,0,7.3,0,10.9c0,0.6,0.2,0.9,0.9,0.9c6.4,0,12.8,0,19.2,0c0.6,0,0.8-0.2,0.8-0.8C27.5,23.8,27.5,20.1,27.5,16.4z"/>
				<path class="st2" d="M11.1,17.9c0.4,0,0.8,0,1.2,0c0.6,0,1,0.4,1,1c0,0.4,0,0.8,0,1.3c0,0.6-0.4,1-1,1c-0.8,0-1.6,0-2.5,0
					c-0.6,0-1-0.4-1-1c0-0.4,0-0.8,0-1.2c0-0.6,0.4-1,1-1C10.3,17.9,10.7,17.9,11.1,17.9z M12.3,18.9c-0.8,0-1.6,0-2.5,0
					c0,0.4,0,0.8,0,1.2c0.8,0,1.6,0,2.5,0C12.3,19.7,12.3,19.3,12.3,18.9z"/>
				<path class="st2" d="M12.5,18.7c0,0.6,0,1.1,0,1.7c-1,0-1.9,0-2.8,0c0-0.6,0-1.1,0-1.7C10.6,18.7,11.6,18.7,12.5,18.7z"/>
			</g>
		</g>
		<rect x="28.7" y="24.7" class="st2" width="6.2" height="2.4"/>
		<g>
			<g>
				<path class="st2" d="M9.5,24.4l0.2-0.4H10l-0.4,0.6l0.4,0.6H9.7l-0.2-0.4l-0.2,0.4H8.9l0.4-0.6l-0.4-0.6h0.4L9.5,24.4z"/>
				<path class="st2" d="M10.7,24.4l0.2-0.4h0.4l-0.4,0.6l0.4,0.6h-0.4l-0.2-0.4l-0.2,0.4h-0.4l0.4-0.6l-0.4-0.6h0.4L10.7,24.4z"/>
				<path class="st2" d="M11.8,24.4l0.2-0.4h0.4l-0.4,0.6l0.4,0.6h-0.4l-0.2-0.4l-0.2,0.4h-0.4l0.4-0.6l-0.4-0.6h0.4L11.8,24.4z"/>
				<path class="st2" d="M13,24.4l0.2-0.4h0.4l-0.4,0.6l0.4,0.6h-0.4L13,24.9l-0.2,0.4h-0.4l0.4-0.6l-0.4-0.6h0.4L13,24.4z"/>
				<path class="st2" d="M14.2,24.4l0.2-0.4h0.4l-0.4,0.6l0.4,0.6h-0.4l-0.2-0.4L14,25.3h-0.4l0.4-0.6l-0.4-0.6H14L14.2,24.4z"/>
				<path class="st2" d="M15.4,24.4l0.2-0.4H16l-0.4,0.6l0.4,0.6h-0.4l-0.2-0.4l-0.2,0.4h-0.4l0.4-0.6l-0.4-0.6h0.4L15.4,24.4z"/>
			</g>
			<g>
				<path class="st2" d="M17.1,24.4l0.2-0.4h0.4l-0.4,0.6l0.4,0.6h-0.4l-0.2-0.4l-0.2,0.4h-0.4l0.4-0.6l-0.4-0.6h0.4L17.1,24.4z"/>
				<path class="st2" d="M18.3,24.4l0.2-0.4h0.4l-0.4,0.6l0.4,0.6h-0.4l-0.2-0.4l-0.2,0.4h-0.4l0.4-0.6l-0.4-0.6h0.4L18.3,24.4z"/>
				<path class="st2" d="M19.5,24.4l0.2-0.4H20l-0.4,0.6l0.4,0.6h-0.4l-0.2-0.4l-0.2,0.4h-0.4l0.4-0.6l-0.4-0.6h0.4L19.5,24.4z"/>
				<path class="st2" d="M20.7,24.4l0.2-0.4h0.4l-0.4,0.6l0.4,0.6h-0.4l-0.2-0.4l-0.2,0.4h-0.4l0.4-0.6l-0.4-0.6h0.4L20.7,24.4z"/>
			</g>
			<g>
				<path class="st2" d="M23.1,24.4l0.2-0.4h0.4l-0.4,0.6l0.4,0.6h-0.4l-0.2-0.4l-0.2,0.4h-0.4l0.4-0.6l-0.4-0.6h0.4L23.1,24.4z"/>
				<path class="st2" d="M24.2,24.4l0.2-0.4h0.4l-0.4,0.6l0.4,0.6h-0.4l-0.2-0.4L24,25.3h-0.4l0.4-0.6l-0.4-0.6H24L24.2,24.4z"/>
			</g>
		</g>
	</g>
</g>
</svg>
