<?xml version="1.0" encoding="utf-8"?>
<!-- Generator: Adobe Illustrator 21.0.0, SVG Export Plug-In . SVG Version: 6.00 Build 0)  -->
<svg version="1.1" id="Layer_1" xmlns="http://www.w3.org/2000/svg" xmlns:xlink="http://www.w3.org/1999/xlink" x="0px" y="0px"
	 viewBox="0 0 40 40" style="enable-background:new 0 0 40 40;" xml:space="preserve">
<style type="text/css">
	.st0{fill:#F49D00;}
	.st1{fill:#FFFFFF;}
	.st2{fill:#EF7C00;}
	.st3{fill:#FFFFFF;stroke:#EF7C00;stroke-miterlimit:10;}
	.st4{fill:none;stroke:#EF7C00;stroke-miterlimit:10;}
	.st5{fill:#FFFFFF;stroke:#EF7C00;stroke-width:1.2;stroke-miterlimit:10;}
	.st6{fill:none;stroke:#EF7C00;stroke-width:0.8;stroke-miterlimit:10;}
	.st7{fill:#EF7C00;stroke:#EF7C00;stroke-width:1.5;stroke-miterlimit:10;}
	.st8{fill:#EF7C00;stroke:#EF7C00;stroke-width:0.4;stroke-miterlimit:10;}
	.st9{fill:#D81922;}
	.st10{clip-path:url(#SVGID_2_);}
	.st11{fill:#EF7C00;stroke:#EF7C00;stroke-miterlimit:10;}
	.st12{fill:#EF7C00;stroke:#EF7C00;stroke-width:0.8;stroke-miterlimit:10;}
	.st13{fill:#EF7C00;stroke:#EF7C00;stroke-width:0.2;stroke-miterlimit:10;}
	.st14{fill:#FFFFFF;stroke:#FFFFFF;stroke-width:0.3;stroke-miterlimit:10;}
	.st15{fill:#EF7C00;stroke:#EF7C00;stroke-width:0.3;stroke-miterlimit:10;}
	.st16{fill:#EF7C00;stroke:#EF7C00;stroke-width:0.5;stroke-miterlimit:10;}
	.st17{clip-path:url(#SVGID_4_);}
	.st18{clip-path:url(#SVGID_6_);}
	.st19{clip-path:url(#SVGID_8_);}
</style>
<g>
	<g>
		<defs>
			<rect id="SVGID_5_" x="10.2" y="15.3" width="29.5" height="19.3"/>
		</defs>
		<clipPath id="SVGID_2_">
			<use xlink:href="#SVGID_5_"  style="overflow:visible;"/>
		</clipPath>
		<g class="st10">
			<g>
				<g>
					<path class="st2" d="M19.2,34.7c-2.1,0-4.2,0-6.2,0c-1.7,0-2.8-1.1-2.8-2.8c0-4.6,0-9.2,0-13.8c0-1.4,0.7-2.4,2-2.7
						c0.3-0.1,0.6-0.1,0.9-0.1c8,0,16.1,0,24.1,0c1.6,0,2.7,1.1,2.7,2.7c0,4.6,0,9.2,0,13.8c0,1.7-1.1,2.8-2.8,2.8
						c-5.1,0-10.3,0-15.4,0c-0.2,0-0.4,0-0.7,0c0,0.2,0,0.3,0,0.4c0,1.5,0,3,0,4.5c0,0.8,0.3,1.1,1.1,1.1c8,0,16.1,0,24.1,0
						c0.8,0,1.1-0.3,1.1-1.1c0-2.2,0-4.3,0-6.5c0-0.1,0-0.2,0-0.4c-2.1,0-5.4,0-7.5,0c0-0.6,0-1.1,0-1.7c2.1,0,5.3,0,7.5,0
						c0-0.7,0-1.4,0-2.2c-2.1,0-5.4,0-7.5,0c0-0.6,0-1.1,0-1.7c2.1,0,5.4,0,7.5,0c0-0.6,0-1.1,0-1.6c0-0.5-0.4-0.8-1-0.8
						c-1.6,0-3.2,0-4.9,0c-0.2,0-1.4,0-1.7,0c0-0.6,0-1.1,0-1.7c0.2,0,1.4,0,1.6,0c1.7,0,3.3,0,5,0c1.6,0,2.7,1.1,2.7,2.7
						c0,4.6,0,9.3,0,13.9c0,1.7-1.1,2.7-2.8,2.8c-8.1,0-16.1,0-24.2,0c-1.6,0-2.7-1.1-2.7-2.7c0-1.5,0-3.1,0-4.6
						C19.2,35,19.2,34.8,19.2,34.7z M25.1,17C25.1,17,25.1,17,25.1,17c-4,0-8.1,0-12.1,0c-0.7,0-1.1,0.3-1.1,1c0,4.6,0,9.2,0,13.8
						c0,0.8,0.3,1.1,1.1,1.1c8,0,16.1,0,24.1,0c0.7,0,1-0.3,1-1c0-4.6,0-9.2,0-13.8c0-0.8-0.3-1.1-1.1-1.1C33.1,17,29.1,17,25.1,17z
						"/>
					<path class="st1" d="M38.1,18.1c0-0.8-0.3-1.1-1.1-1.1c-4,0-8,0-12,0c0,0,0,0,0,0c-4,0-8.1,0-12.1,0c-0.7,0-1.1,0.3-1.1,1
						c0,4.6,0,9.2,0,13.8c0,0.8,0.3,1.1,1.1,1.1c8,0,16.1,0,24.1,0c0.7,0,1-0.3,1-1C38.1,27.3,38.1,22.7,38.1,18.1z"/>
					<path class="st2" d="M17.5,19.9c0.5,0,1,0,1.5,0c0.7,0,1.3,0.5,1.3,1.2c0,0.5,0,1.1,0,1.6c0,0.7-0.5,1.2-1.3,1.2
						c-1,0-2.1,0-3.1,0c-0.7,0-1.2-0.5-1.3-1.2c0-0.5,0-1,0-1.6c0-0.7,0.5-1.2,1.3-1.2C16.5,19.9,17,19.9,17.5,19.9z M19.1,21.2
						c-1.1,0-2.1,0-3.1,0c0,0.5,0,1,0,1.5c1,0,2.1,0,3.1,0C19.1,22.2,19.1,21.7,19.1,21.2z"/>
					<path class="st2" d="M19.3,20.9c0,0.7,0,1.4,0,2.1c-1.2,0-2.4,0-3.6,0c0-0.7,0-1.4,0-2.1C16.9,20.9,18.1,20.9,19.3,20.9z"/>
				</g>
			</g>
			<rect x="39.6" y="28.4" class="st2" width="7.8" height="3"/>
			<g>
				<g>
					<path class="st2" d="M15.4,28.1l0.3-0.5h0.4l-0.4,0.8l0.5,0.8h-0.4l-0.3-0.5l-0.3,0.5h-0.4l0.5-0.8l-0.4-0.8h0.4L15.4,28.1z"/>
					<path class="st2" d="M16.9,28.1l0.3-0.5h0.4l-0.4,0.8l0.5,0.8h-0.4l-0.3-0.5l-0.3,0.5h-0.4l0.5-0.8l-0.4-0.8h0.4L16.9,28.1z"/>
					<path class="st2" d="M18.4,28.1l0.3-0.5h0.4l-0.4,0.8l0.5,0.8h-0.4l-0.3-0.5l-0.3,0.5h-0.4l0.5-0.8l-0.4-0.8h0.4L18.4,28.1z"/>
					<path class="st2" d="M19.9,28.1l0.3-0.5h0.4l-0.4,0.8l0.5,0.8h-0.4l-0.3-0.5l-0.3,0.5h-0.4l0.5-0.8l-0.4-0.8h0.4L19.9,28.1z"/>
					<path class="st2" d="M21.4,28.1l0.3-0.5h0.4l-0.4,0.8l0.5,0.8h-0.4l-0.3-0.5l-0.3,0.5h-0.4l0.5-0.8l-0.4-0.8h0.4L21.4,28.1z"/>
					<path class="st2" d="M22.9,28.1l0.3-0.5h0.4l-0.4,0.8l0.5,0.8h-0.4l-0.3-0.5l-0.3,0.5h-0.4l0.5-0.8l-0.4-0.8h0.4L22.9,28.1z"/>
				</g>
				<g>
					<path class="st2" d="M25,28.1l0.3-0.5h0.4l-0.4,0.8l0.5,0.8h-0.4L25,28.7l-0.3,0.5h-0.4l0.5-0.8l-0.4-0.8h0.4L25,28.1z"/>
					<path class="st2" d="M26.5,28.1l0.3-0.5h0.4l-0.4,0.8l0.5,0.8h-0.4l-0.3-0.5l-0.3,0.5h-0.4l0.5-0.8l-0.4-0.8h0.4L26.5,28.1z"/>
					<path class="st2" d="M28,28.1l0.3-0.5h0.4l-0.4,0.8l0.5,0.8h-0.4L28,28.7l-0.3,0.5h-0.4l0.5-0.8l-0.4-0.8h0.4L28,28.1z"/>
					<path class="st2" d="M29.5,28.1l0.3-0.5h0.4l-0.4,0.8l0.5,0.8h-0.4l-0.3-0.5l-0.3,0.5h-0.4l0.5-0.8l-0.4-0.8h0.4L29.5,28.1z"/>
				</g>
				<g>
					<path class="st2" d="M32.5,28.1l0.3-0.5h0.4l-0.4,0.8l0.5,0.8h-0.4l-0.3-0.5l-0.3,0.5h-0.4l0.5-0.8l-0.4-0.8h0.4L32.5,28.1z"/>
					<path class="st2" d="M34,28.1l0.3-0.5h0.4l-0.4,0.8l0.5,0.8h-0.4L34,28.7l-0.3,0.5h-0.4l0.5-0.8l-0.4-0.8h0.4L34,28.1z"/>
				</g>
			</g>
		</g>
	</g>
	<g>
		<defs>
			<rect id="SVGID_7_" x="0.3" y="5.4" width="29.5" height="19.3"/>
		</defs>
		<clipPath id="SVGID_4_">
			<use xlink:href="#SVGID_7_"  style="overflow:visible;"/>
		</clipPath>
		<g class="st17">
			<g>
				<g>
					<path class="st2" d="M9.4,24.8c-2.1,0-4.2,0-6.2,0c-1.7,0-2.8-1.1-2.8-2.8c0-4.6,0-9.2,0-13.8c0-1.4,0.7-2.4,2-2.7
						c0.3-0.1,0.6-0.1,0.9-0.1c8,0,16.1,0,24.1,0c1.6,0,2.7,1.1,2.7,2.7c0,4.6,0,9.2,0,13.8c0,1.7-1.1,2.8-2.8,2.8
						c-5.1,0-10.3,0-15.4,0c-0.2,0-0.4,0-0.7,0c0,0.2,0,0.3,0,0.4c0,1.5,0,3,0,4.5c0,0.8,0.3,1.1,1.1,1.1c8,0,16.1,0,24.1,0
						c0.8,0,1.1-0.3,1.1-1.1c0-2.2,0-4.3,0-6.5c0-0.1,0-0.2,0-0.4c-2.1,0-5.4,0-7.5,0c0-0.6,0-1.1,0-1.7c2.1,0,5.3,0,7.5,0
						c0-0.7,0-1.4,0-2.2c-2.1,0-5.4,0-7.5,0c0-0.6,0-1.1,0-1.7c2.1,0,5.4,0,7.5,0c0-0.6,0-1.1,0-1.6c0-0.5-0.4-0.8-1-0.8
						c-1.6,0-3.2,0-4.9,0c-0.2,0-1.4,0-1.7,0c0-0.6,0-1.1,0-1.7c0.2,0,1.4,0,1.6,0c1.7,0,3.3,0,5,0c1.6,0,2.7,1.1,2.7,2.7
						c0,4.6,0,9.3,0,13.9c0,1.7-1.1,2.7-2.8,2.8c-8.1,0-16.1,0-24.2,0c-1.6,0-2.7-1.1-2.7-2.7c0-1.5,0-3.1,0-4.6
						C9.4,25.1,9.4,25,9.4,24.8z M15.2,7.1C15.2,7.1,15.2,7.1,15.2,7.1c-4,0-8.1,0-12.1,0C2.4,7.1,2,7.5,2,8.2c0,4.6,0,9.2,0,13.8
						c0,0.8,0.3,1.1,1.1,1.1c8,0,16.1,0,24.1,0c0.7,0,1-0.3,1-1c0-4.6,0-9.2,0-13.8c0-0.8-0.3-1.1-1.1-1.1
						C23.2,7.1,19.2,7.1,15.2,7.1z"/>
					<path class="st1" d="M28.3,8.2c0-0.8-0.3-1.1-1.1-1.1c-4,0-8,0-12,0c0,0,0,0,0,0c-4,0-8.1,0-12.1,0C2.4,7.1,2,7.5,2,8.2
						c0,4.6,0,9.2,0,13.8c0,0.8,0.3,1.1,1.1,1.1c8,0,16.1,0,24.1,0c0.7,0,1-0.3,1-1C28.3,17.4,28.3,12.8,28.3,8.2z"/>
					<path class="st2" d="M7.7,10.1c0.5,0,1,0,1.5,0c0.7,0,1.3,0.5,1.3,1.2c0,0.5,0,1.1,0,1.6c0,0.7-0.5,1.2-1.3,1.2
						c-1,0-2.1,0-3.1,0c-0.7,0-1.2-0.5-1.3-1.2c0-0.5,0-1,0-1.6c0-0.7,0.5-1.2,1.3-1.2C6.6,10.1,7.1,10.1,7.7,10.1z M9.2,11.3
						c-1.1,0-2.1,0-3.1,0c0,0.5,0,1,0,1.5c1,0,2.1,0,3.1,0C9.2,12.4,9.2,11.9,9.2,11.3z"/>
					<path class="st2" d="M9.4,11c0,0.7,0,1.4,0,2.1c-1.2,0-2.4,0-3.6,0c0-0.7,0-1.4,0-2.1C7,11,8.2,11,9.4,11z"/>
				</g>
			</g>
			<rect x="29.8" y="18.6" class="st2" width="7.8" height="3"/>
			<g>
				<g>
					<path class="st2" d="M5.6,18.3l0.3-0.5h0.4l-0.4,0.8l0.5,0.8H5.9l-0.3-0.5l-0.3,0.5H4.9l0.5-0.8l-0.4-0.8h0.4L5.6,18.3z"/>
					<path class="st2" d="M7.1,18.3l0.3-0.5h0.4l-0.4,0.8l0.5,0.8H7.4l-0.3-0.5l-0.3,0.5H6.4l0.5-0.8l-0.4-0.8h0.4L7.1,18.3z"/>
					<path class="st2" d="M8.6,18.3l0.3-0.5h0.4l-0.4,0.8l0.5,0.8H8.8l-0.3-0.5l-0.3,0.5H7.8l0.5-0.8l-0.4-0.8h0.4L8.6,18.3z"/>
					<path class="st2" d="M10.1,18.3l0.3-0.5h0.4l-0.4,0.8l0.5,0.8h-0.4l-0.3-0.5l-0.3,0.5H9.3l0.5-0.8l-0.4-0.8h0.4L10.1,18.3z"/>
					<path class="st2" d="M11.6,18.3l0.3-0.5h0.4l-0.4,0.8l0.5,0.8h-0.4l-0.3-0.5l-0.3,0.5h-0.4l0.5-0.8l-0.4-0.8h0.4L11.6,18.3z"/>
					<path class="st2" d="M13.1,18.3l0.3-0.5h0.4l-0.4,0.8l0.5,0.8h-0.4l-0.3-0.5l-0.3,0.5h-0.4l0.5-0.8l-0.4-0.8h0.4L13.1,18.3z"/>
				</g>
				<g>
					<path class="st2" d="M15.2,18.3l0.3-0.5h0.4l-0.4,0.8l0.5,0.8h-0.4l-0.3-0.5l-0.3,0.5h-0.4l0.5-0.8l-0.4-0.8h0.4L15.2,18.3z"/>
					<path class="st2" d="M16.7,18.3l0.3-0.5h0.4l-0.4,0.8l0.5,0.8h-0.4l-0.3-0.5l-0.3,0.5h-0.4l0.5-0.8L16,17.8h0.4L16.7,18.3z"/>
					<path class="st2" d="M18.2,18.3l0.3-0.5h0.4l-0.4,0.8l0.5,0.8h-0.4l-0.3-0.5l-0.3,0.5h-0.4l0.5-0.8l-0.4-0.8h0.4L18.2,18.3z"/>
					<path class="st2" d="M19.7,18.3l0.3-0.5h0.4l-0.4,0.8l0.5,0.8h-0.4l-0.3-0.5l-0.3,0.5h-0.4l0.5-0.8L19,17.8h0.4L19.7,18.3z"/>
				</g>
				<g>
					<path class="st2" d="M22.7,18.3l0.3-0.5h0.4l-0.4,0.8l0.5,0.8H23l-0.3-0.5l-0.3,0.5H22l0.5-0.8L22,17.8h0.4L22.7,18.3z"/>
					<path class="st2" d="M24.2,18.3l0.3-0.5h0.4l-0.4,0.8l0.5,0.8h-0.4l-0.3-0.5l-0.3,0.5h-0.4l0.5-0.8l-0.4-0.8h0.4L24.2,18.3z"/>
				</g>
			</g>
		</g>
	</g>
</g>
</svg>
