<?xml version="1.0" encoding="utf-8"?>
<!-- Generator: Adobe Illustrator 21.0.0, SVG Export Plug-In . SVG Version: 6.00 Build 0)  -->
<svg version="1.1" id="Layer_1" xmlns="http://www.w3.org/2000/svg" xmlns:xlink="http://www.w3.org/1999/xlink" x="0px" y="0px"
	 viewBox="0 0 40 40" style="enable-background:new 0 0 40 40;" xml:space="preserve">
<style type="text/css">
	.st0{fill:#EF7C00;}
	.st1{fill:#FFFFFF;stroke:#EF7C00;stroke-miterlimit:10;}
	.st2{fill:#FFFFFF;stroke:#EF7C00;stroke-width:1.2;stroke-miterlimit:10;}
	.st3{fill:#EF7C00;stroke:#EF7C00;stroke-width:1.5;stroke-miterlimit:10;}
	.st4{fill:#FFFFFF;}
	.st5{fill:#D81922;}
	.st6{clip-path:url(#SVGID_2_);}
	.st7{fill:#EF7C00;stroke:#EF7C00;stroke-miterlimit:10;}
	.st8{fill:#EF7C00;stroke:#EF7C00;stroke-width:0.8;stroke-miterlimit:10;}
	.st9{fill:#EF7C00;stroke:#EF7C00;stroke-width:0.2;stroke-miterlimit:10;}
	.st10{fill:#FFFFFF;stroke:#FFFFFF;stroke-width:0.3;stroke-miterlimit:10;}
	.st11{fill:#EF7C00;stroke:#EF7C00;stroke-width:0.5;stroke-miterlimit:10;}
	.st12{fill:#EF7C00;stroke:#EF7C00;stroke-width:0.4;stroke-miterlimit:10;}
	.st13{clip-path:url(#SVGID_4_);}
	.st14{fill:#EF7C00;stroke:#EF7C00;stroke-width:0.3;stroke-miterlimit:10;}
	.st15{clip-path:url(#SVGID_6_);}
	.st16{clip-path:url(#SVGID_8_);}
	.st17{fill:none;stroke:#EF7C00;stroke-width:0.8;stroke-miterlimit:10;}
</style>
<g>
	<path class="st0" d="M17.3,19.3c0.8,0,1.7,0,2.5,0c0.1,0,0.2,0.1,0.2,0.2c0.6,0.7,1.1,1.4,1.7,2.1c0.1,0.2,0.3,0.3,0.6,0.3
		c0.8,0,1.7,0,2.5,0c-0.8-2.4-1.5-4.8-2.3-7.2c0.9,0,1.7,0,2.5,0c0.1,0,0.2,0.1,0.3,0.2c1.3,2.1,2.6,4.2,3.8,6.4
		c0.3,0.4,0.5,0.6,1,0.6c1.9,0,3.8,0,5.7,0c0.6,0,1.2,0.1,1.8,0.4c0.9,0.5,1.3,1.4,1,2.4c-0.3,0.7-0.9,1-1.6,1.2
		c-0.4,0.1-0.8,0.1-1.2,0.1c-2,0-4,0-6,0c-0.2,0-0.3,0.1-0.5,0.3c-1.3,2.2-2.7,4.5-4,6.7c-0.1,0.2-0.2,0.3-0.4,0.3
		c-0.7,0-1.5,0-2.3,0c0.8-2.4,1.5-4.8,2.3-7.2c-0.1,0-0.2,0-0.2,0c-0.8,0-1.6,0-2.4,0c-0.1,0-0.3,0.1-0.4,0.2
		c-0.6,0.7-1.1,1.5-1.7,2.2c-0.1,0.2-0.2,0.2-0.4,0.2c-0.8,0-1.5,0-2.3,0c0.2-0.6,0.3-1.1,0.5-1.6c0.3-0.9,0.6-1.8,0.9-2.8
		c0-0.1,0-0.3,0-0.5c-0.4-1.4-0.8-2.7-1.3-4.1C17.4,19.5,17.3,19.5,17.3,19.3z"/>
	<path class="st0" d="M16.3,22.7c-0.8,0-1.5,0-2.2,0c-0.3,0-0.6-0.3-0.6-0.6c0-0.3,0.2-0.5,0.6-0.6c0.6,0,1.1,0,1.7,0
		c0.1,0,0.2,0.1,0.2,0.1C16.1,21.9,16.2,22.3,16.3,22.7z"/>
	<path class="st0" d="M16.3,25.6c-0.1,0.4-0.2,0.7-0.3,1c0,0.1-0.1,0.1-0.2,0.1c-0.6,0-1.1,0-1.7,0c-0.3,0-0.6-0.3-0.6-0.6
		c0-0.3,0.2-0.6,0.6-0.6C14.8,25.6,15.6,25.6,16.3,25.6z"/>
	<path class="st0" d="M14.8,31.2H5c-0.3,0-0.5-0.2-0.5-0.5v-0.1C4.4,30.2,4.7,30,5,30h9.8c0.3,0,0.5,0.2,0.5,0.5v0.1
		C15.4,30.9,15.1,31.2,14.8,31.2z"/>
	<g>
		<path class="st0" d="M10.4,30.6H9.4c-0.1,0-0.2-0.1-0.2-0.2v-8.5c0-0.1,0.1-0.2,0.2-0.2h1.1c0.1,0,0.2,0.1,0.2,0.2v8.5
			C10.6,30.5,10.5,30.6,10.4,30.6z"/>
		<circle class="st2" cx="17.3" cy="11" r="4.2"/>
		<polygon class="st2" points="1.4,10.3 18.4,10.3 9.9,22.3 		"/>
	</g>
</g>
</svg>
