<?xml version="1.0" encoding="utf-8"?>
<!-- Generator: Adobe Illustrator 21.0.0, SVG Export Plug-In . SVG Version: 6.00 Build 0)  -->
<svg version="1.1" id="Layer_1" xmlns="http://www.w3.org/2000/svg" xmlns:xlink="http://www.w3.org/1999/xlink" x="0px" y="0px"
	 viewBox="0 0 40 40" style="enable-background:new 0 0 40 40;" xml:space="preserve">
<style type="text/css">
	.st0{fill:#F49D00;}
	.st1{fill:#FFFFFF;}
	.st2{fill:#EF7C00;}
	.st3{fill:#FFFFFF;stroke:#EF7C00;stroke-miterlimit:10;}
	.st4{fill:none;stroke:#EF7C00;stroke-miterlimit:10;}
	.st5{fill:#FFFFFF;stroke:#EF7C00;stroke-width:1.2;stroke-miterlimit:10;}
	.st6{fill:none;stroke:#EF7C00;stroke-width:0.8;stroke-miterlimit:10;}
	.st7{fill:#EF7C00;stroke:#EF7C00;stroke-width:1.5;stroke-miterlimit:10;}
	.st8{fill:#EF7C00;stroke:#EF7C00;stroke-width:0.4;stroke-miterlimit:10;}
	.st9{fill:#D81922;}
	.st10{clip-path:url(#SVGID_2_);}
	.st11{fill:#EF7C00;stroke:#EF7C00;stroke-miterlimit:10;}
	.st12{fill:#EF7C00;stroke:#EF7C00;stroke-width:0.8;stroke-miterlimit:10;}
	.st13{fill:#EF7C00;stroke:#EF7C00;stroke-width:0.2;stroke-miterlimit:10;}
	.st14{fill:#FFFFFF;stroke:#FFFFFF;stroke-width:0.3;stroke-miterlimit:10;}
	.st15{fill:#EF7C00;stroke:#EF7C00;stroke-width:0.3;stroke-miterlimit:10;}
	.st16{fill:#EF7C00;stroke:#EF7C00;stroke-width:0.5;stroke-miterlimit:10;}
	.st17{clip-path:url(#SVGID_4_);}
	.st18{clip-path:url(#SVGID_6_);}
	.st19{clip-path:url(#SVGID_8_);}
</style>
<g>
	<g>
		<path class="st8" d="M9.3,15.6c0-0.9,0-1.9,0-2.8c0-0.1,0-0.1,0.1-0.1c2.2-0.4,4.4-0.8,6.6-1.2c0.2,0,0.3,0,0.5,0.1
			c1.7,0.3,3.5,0.7,5.2,1c0.3,0.1,0.7,0.1,1,0.2c0.1,0,0.1,0.1,0.1,0.1c0,1.7,0,3.4,0,5.1c0,0.1,0,0.1,0,0.2c0,1.1-0.2,2.2-0.5,3.3
			c-0.5,1.8-1.3,3.5-2.4,4.9c-1,1.3-2.1,2.4-3.5,3.3c-0.1,0.1-0.2,0.1-0.3,0.2c0,0-0.1,0-0.1,0c-1.1-0.7-2.1-1.5-2.9-2.4
			c-1.3-1.5-2.3-3.2-3-5.1c-0.4-1.2-0.7-2.3-0.8-3.6c0-0.3,0-0.5,0-0.8C9.3,17.1,9.3,16.4,9.3,15.6z M16.3,15.7
			c-1.3,0-2.4,0.1-3.4,0.3c-0.9,0.2-1.8,0.4-2.7,0.7c-0.1,0-0.1,0-0.1,0.1c0,0.8,0,1.6,0.1,2.3c0.2,1.3,0.5,2.6,1.1,3.9
			c1,2.4,2.6,4.3,4.7,5.7c0.1,0,0.1,0.1,0.2,0c1-0.7,1.9-1.5,2.6-2.4c1.2-1.5,2.1-3.2,2.7-5c0.3-0.9,0.5-1.8,0.5-2.7
			c0-0.6,0-1.3,0.1-1.9c0-0.1,0-0.1-0.1-0.1C19.9,16.1,18,15.7,16.3,15.7z M10.1,15.9c4-1.3,7.9-1.3,11.9,0c0,0,0,0,0,0
			c0-0.3,0-0.6,0-0.9c0,0,0-0.1-0.1-0.1c-0.2,0-0.4-0.1-0.6-0.1c-1.6-0.3-3.3-0.6-4.9-0.9c-0.1,0-0.3,0-0.5,0c-0.1,0-0.3,0-0.4,0.1
			c-1.4,0.3-2.9,0.5-4.3,0.8c-0.4,0.1-0.7,0.1-1.1,0.2c0,0-0.1,0-0.1,0.1C10.1,15.3,10.1,15.6,10.1,15.9z M21.9,14.2
			c0-0.2,0-0.4,0-0.7c0-0.1,0-0.1-0.1-0.1c-1.8-0.3-3.6-0.7-5.5-1c-0.2,0-0.3-0.1-0.5,0c-1.4,0.3-2.9,0.5-4.3,0.8
			c-0.5,0.1-0.9,0.2-1.4,0.3c0,0-0.1,0-0.1,0.1c0,0.2,0,0.5,0,0.7c0.2,0,0.4-0.1,0.7-0.1c1.5-0.3,3-0.6,4.5-0.8
			c0.4-0.1,0.8-0.2,1.3-0.1c0.1,0,0.1,0,0.2,0c1.4,0.3,2.9,0.5,4.3,0.8C21.3,14,21.6,14.1,21.9,14.2z"/>
		<path class="st1" d="M16.3,15.7c1.7,0,3.7,0.3,5.6,1c0,0,0.1,0,0.1,0.1c0,0.6,0,1.3-0.1,1.9c-0.1,0.9-0.3,1.8-0.5,2.7
			c-0.5,1.9-1.4,3.5-2.7,5c-0.8,0.9-1.7,1.7-2.6,2.4c-0.1,0-0.1,0-0.2,0c-2.1-1.5-3.7-3.4-4.7-5.7c-0.5-1.2-0.9-2.5-1.1-3.9
			c-0.1-0.8-0.1-1.6-0.1-2.3c0-0.1,0-0.1,0.1-0.1c0.9-0.3,1.8-0.6,2.7-0.7C13.9,15.8,14.9,15.7,16.3,15.7z M17.6,19
			c-0.1-0.1-0.2-0.2-0.3-0.3c-0.1-0.1-0.2-0.2-0.4-0.3c0.2,0,0.4,0,0.5,0c0,0,0,0,0,0c-0.2-0.1-0.4-0.2-0.5-0.4
			c0.1-0.1,0.2-0.1,0.3-0.1c0,0,0,0,0,0c-0.2,0-0.4-0.1-0.6-0.3c0,0-0.1-0.1-0.1-0.1c-0.1,0-0.2-0.2-0.3-0.3c0,0,0-0.1-0.1-0.1
			c-0.1,0.1-0.2,0.2-0.2,0.4c0,0,0,0,0,0c-0.2,0-0.4,0.1-0.5,0.3c0,0-0.1,0.1-0.1,0.1c-0.2,0.1-0.4,0.1-0.6,0.1
			c-0.2,0-0.3,0.1-0.3,0.2c-0.1,0.2,0,0.4,0.2,0.4c0.1,0,0.1,0,0.2-0.1c0.1-0.1,0.3-0.1,0.4,0c0.1,0,0.2,0.1,0.3,0.1
			c0.2,0,0.3,0,0.4-0.1c0-0.1,0.1-0.1,0.1-0.2c0,0.3-0.2,0.5-0.5,0.5c-0.1,0.4-0.3,0.8-0.4,1.2c-0.1,0.2-0.2,0.4-0.4,0.5
			c-0.3,0.2-0.6,0.3-1,0.4c-0.1,0-0.2,0.1-0.2,0.2c0,0.1,0,0.1,0,0.2c0.1,0.3,0.1,0.6,0.2,1c0,0,0,0.1,0.1,0.1
			c0.1,0,0.1,0.1,0.1,0.2c0,0.2,0.1,0.3,0.2,0.5c0.1-0.2,0.2-0.3,0.3-0.5c0-0.1,0.1-0.2,0-0.2c-0.1-0.1-0.2-0.1-0.2-0.3
			c0-0.2-0.1-0.3-0.2-0.5c0,0,0-0.1,0-0.1c0.2,0,0.4,0,0.5,0c0.1,0,0.2,0,0.2,0.1c0.1,0.1,0.1,0.2,0.2,0.3c0.3,0.3,0.6,0.6,1,0.9
			c0.2-0.2,0.3-0.3,0.6-0.3c-0.1,0-0.1,0-0.1,0c-0.2,0.1-0.4,0.2-0.4,0.4c-0.1,0.3-0.1,0.6,0,0.9c0.1,0.2,0.2,0.3,0.2,0.5
			c0.1,0.1,0,0.3-0.1,0.4c-0.1,0.1-0.2,0.2-0.2,0.4c0,0.2-0.1,0.2-0.2,0.3c-0.1,0.1-0.2,0.2-0.2,0.3c0,0,0,0.1-0.1,0.2
			c0.2,0,0.4,0,0.6,0c0.2,0,0.2,0,0.3-0.2c0,0,0,0,0,0c0,0,0,0,0.1,0c0.2,0,0.2,0,0.3-0.2c0.1-0.2,0.2-0.5,0.3-0.7
			c0.1-0.1,0-0.1,0-0.2c-0.1-0.1-0.1-0.2-0.1-0.3c0-0.2,0.1-0.4,0.2-0.5c0.2-0.2,0.5-0.4,0.7-0.6c0,0,0.1,0,0.1,0
			c0.5,0,0.8-0.2,0.9-0.6c0.1-0.3,0.1-0.7,0.2-1.1c-0.1,0.1-0.1,0.1-0.2,0.2c0,0-0.1,0-0.1,0c0,0,0-0.1,0-0.1c0-0.3,0.1-0.5,0.2-0.8
			c0,0,0-0.1,0-0.1c-0.2,0.1-0.4,0.3-0.4,0.5c-0.1-0.3,0-0.5,0.1-0.8c-0.1,0.1-0.2,0.2-0.2,0.3c0,0.1-0.1,0.3-0.1,0.5
			c0,0.4,0,0.7,0,1.1c0,0.2,0,0.3-0.1,0.5c0,0-0.1,0-0.1,0c0,0,0,0,0-0.1c0-0.3-0.2-0.5-0.4-0.7c-0.2-0.1-0.3-0.3-0.5-0.4
			c-0.3-0.2-0.5-0.4-0.6-0.7c0-0.1,0-0.2,0-0.2c0.2,0.1,0.4,0.1,0.5,0.1c-0.2-0.1-0.3-0.2-0.4-0.3c0.1,0,0.3,0.1,0.4,0.1
			c0.1,0,0.2,0,0.4,0c0,0,0,0,0,0c-0.2-0.1-0.5-0.3-0.7-0.5c0.2,0.1,0.4,0.1,0.7,0.1c-0.2-0.1-0.5-0.2-0.6-0.5
			c0.2,0.1,0.4,0.1,0.7,0c-0.3-0.1-0.5-0.3-0.6-0.5c0,0,0,0,0,0C17.1,18.9,17.3,18.9,17.6,19z M14.9,24.4c0,0,0,0.1,0.1,0.1
			c0.1,0.1,0.2,0.1,0.2,0c0.2-0.2,0.5-0.2,0.8-0.3c0.1,0,0.2-0.1,0.1-0.2c-0.3-0.3-0.3-0.7-0.2-1.1c0,0,0-0.1,0-0.1
			c-0.1-0.1-0.2-0.2-0.3-0.3c0,0.1,0,0.1,0,0.1c0,0.3,0,0.6,0,0.9c0,0.1,0,0.2-0.1,0.2c-0.2,0-0.3,0-0.5,0c-0.1,0-0.2,0-0.2,0.1
			c0,0,0,0-0.1,0c0,0-0.1,0-0.1,0c-0.2,0-0.4,0-0.5,0.2c0.2,0.1,0.3,0.3,0.5,0.4C14.7,24.5,14.7,24.5,14.9,24.4
			C14.9,24.4,14.9,24.4,14.9,24.4z M14.3,19.7c0.1,0.2,0.3,0.3,0.4,0.5c0,0,0.1,0.1,0.1,0c0.1-0.1,0.2-0.2,0.3-0.4c0,0,0-0.1,0-0.1
			c-0.2-0.2-0.4-0.4-0.6-0.6c-0.1-0.1-0.2-0.1-0.3,0c-0.2,0.2-0.5,0.4-0.7,0.6c0,0-0.1,0.1-0.1,0.1c0,0.1-0.1,0.1-0.1,0.1
			c-0.2,0.1-0.3,0.2-0.4,0.3c0,0,0.1,0,0.1,0.1c0.1,0,0.2,0.1,0.3,0.1c0.2,0.1,0.2,0,0.3-0.2c0-0.1,0-0.2,0.2-0.2c0,0,0.1,0,0.1-0.1
			C14,20,14.1,19.9,14.3,19.7z"/>
		<path class="st1" d="M10.1,15.9c0-0.3,0-0.6,0-0.9c0,0,0.1-0.1,0.1-0.1c0.4-0.1,0.7-0.1,1.1-0.2c1.4-0.3,2.9-0.5,4.3-0.8
			c0.1,0,0.3-0.1,0.4-0.1c0.2,0,0.3,0,0.5,0c1.6,0.3,3.3,0.6,4.9,0.9c0.2,0,0.4,0.1,0.6,0.1c0,0,0.1,0,0.1,0.1c0,0.3,0,0.6,0,0.9
			c0,0,0,0,0,0C18,14.6,14,14.6,10.1,15.9z"/>
		<path class="st1" d="M21.9,14.2C21.6,14.1,21.3,14,21,14c-1.4-0.3-2.9-0.5-4.3-0.8c-0.1,0-0.2,0-0.2,0c-0.4-0.1-0.8,0-1.3,0.1
			c-1.5,0.3-3,0.6-4.5,0.8c-0.2,0-0.4,0.1-0.7,0.1c0-0.3,0-0.5,0-0.8c0,0,0.1-0.1,0.1-0.1c0.5-0.1,1-0.1,1.4-0.2
			c1.4-0.3,2.9-0.5,4.3-0.8c0.2,0,0.3,0,0.5,0c1.8,0.3,3.6,0.7,5.5,1c0.1,0,0.1,0,0.1,0.1C21.9,13.7,21.9,13.9,21.9,14.2z"/>
		<path class="st2" d="M17.6,19c-0.2,0-0.4-0.1-0.6-0.1c0,0,0,0,0,0c0.2,0.2,0.4,0.4,0.6,0.5c-0.2,0.1-0.4,0.1-0.7,0
			c0.1,0.3,0.3,0.4,0.6,0.5c-0.3,0.1-0.5,0-0.7-0.1c0.2,0.2,0.4,0.4,0.7,0.5c0,0,0,0,0,0c-0.1,0-0.2,0-0.4,0c-0.1,0-0.2-0.1-0.4-0.1
			c0.1,0.1,0.3,0.2,0.4,0.3c-0.2,0-0.4,0-0.5-0.1c0,0.1,0,0.2,0,0.2c0.1,0.3,0.3,0.5,0.6,0.7c0.2,0.1,0.3,0.2,0.5,0.4
			c0.2,0.2,0.4,0.4,0.4,0.7c0,0,0,0.1,0,0.1c0,0,0.1,0,0.1,0c0.1-0.2,0.1-0.3,0.1-0.5c0-0.4,0-0.7,0-1.1c0-0.2,0-0.3,0.1-0.5
			c0-0.1,0.1-0.2,0.2-0.3c-0.1,0.2-0.2,0.5-0.1,0.8c0.1-0.2,0.2-0.4,0.4-0.5c0,0.1,0,0.1,0,0.1c-0.1,0.2-0.2,0.5-0.2,0.8
			c0,0,0,0.1,0,0.1c0,0,0.1,0,0.1,0c0.1,0,0.1-0.1,0.2-0.2c-0.1,0.4-0.1,0.7-0.2,1.1c-0.1,0.5-0.5,0.7-0.9,0.6c0,0-0.1,0-0.1,0
			c-0.2,0.2-0.5,0.4-0.7,0.6c-0.1,0.1-0.3,0.3-0.2,0.5c0,0.1,0.1,0.2,0.1,0.3c0,0.1,0,0.1,0,0.2c-0.2,0.2-0.3,0.4-0.3,0.7
			c-0.1,0.2-0.1,0.2-0.3,0.2c0,0,0,0-0.1,0c0,0,0,0,0,0c0,0.2,0,0.2-0.3,0.2c-0.2,0-0.4,0-0.6,0c0-0.1,0.1-0.1,0.1-0.2
			c0.1-0.1,0.2-0.2,0.2-0.3c0.1-0.1,0.2-0.1,0.2-0.3c0-0.1,0.1-0.2,0.2-0.4c0.1-0.1,0.1-0.3,0.1-0.4c-0.1-0.2-0.1-0.3-0.2-0.5
			c-0.1-0.3-0.1-0.6,0-0.9c0.1-0.2,0.2-0.3,0.4-0.4c0,0,0.1,0,0.1,0c-0.3,0-0.4,0.1-0.6,0.3c-0.4-0.2-0.7-0.5-1-0.9
			c-0.1-0.1-0.2-0.2-0.2-0.3c-0.1-0.1-0.1-0.1-0.2-0.1c-0.2,0-0.3,0-0.5,0c0,0,0,0.1,0,0.1c0.1,0.2,0.1,0.3,0.2,0.5
			c0,0.2,0.1,0.3,0.2,0.3c0.1,0,0.1,0.1,0,0.2c-0.1,0.2-0.2,0.3-0.3,0.5c-0.1-0.1-0.2-0.3-0.2-0.5c0-0.1,0-0.2-0.1-0.2
			c0,0-0.1-0.1-0.1-0.1c-0.1-0.3-0.2-0.6-0.2-1c0-0.1,0-0.1,0-0.2c0-0.1,0.1-0.2,0.2-0.2c0.4,0,0.7-0.2,1-0.4
			c0.2-0.1,0.3-0.3,0.4-0.5c0.1-0.4,0.3-0.8,0.4-1.2c0.3-0.1,0.5-0.2,0.5-0.5c-0.1,0.1-0.1,0.1-0.1,0.2c-0.1,0.1-0.3,0.2-0.4,0.1
			c-0.1,0-0.2-0.1-0.3-0.1c-0.1-0.1-0.3-0.1-0.4,0c-0.1,0-0.1,0.1-0.2,0.1c-0.2,0-0.3-0.2-0.2-0.4c0-0.1,0.2-0.2,0.3-0.2
			c0.2,0,0.4-0.1,0.6-0.1c0,0,0.1,0,0.1-0.1c0.1-0.2,0.3-0.3,0.5-0.3c0,0,0,0,0,0c0-0.1,0-0.3,0.2-0.4c0,0.1,0,0.1,0.1,0.1
			c0.1,0.1,0.1,0.2,0.3,0.3c0,0,0.1,0,0.1,0.1c0.2,0.2,0.3,0.3,0.6,0.3c0,0,0,0,0,0c-0.1,0-0.2,0.1-0.3,0.1c0.2,0.1,0.4,0.2,0.5,0.4
			c0,0,0,0,0,0c-0.2,0-0.3,0-0.5,0c0.1,0.1,0.3,0.2,0.4,0.3C17.4,18.8,17.5,18.9,17.6,19z"/>
		<path class="st2" d="M14.9,24.4C14.9,24.4,14.9,24.4,14.9,24.4c-0.2,0.2-0.2,0.2-0.4,0.1c-0.2-0.1-0.3-0.3-0.5-0.4
			c0.2-0.1,0.3-0.2,0.5-0.2c0,0,0.1,0,0.1,0c0,0,0.1,0,0.1,0c0.1-0.1,0.1-0.1,0.2-0.1c0.2,0,0.3,0,0.5,0c0.1,0,0.1-0.1,0.1-0.2
			c0-0.3,0-0.6,0-0.9c0,0,0-0.1,0-0.1c0.1,0.1,0.2,0.2,0.3,0.3c0,0,0,0,0,0.1c-0.1,0.4-0.1,0.8,0.2,1.1c0.1,0.1,0,0.2-0.1,0.2
			c-0.3,0-0.6,0.1-0.8,0.3c-0.1,0.1-0.2,0-0.2,0C15,24.4,14.9,24.4,14.9,24.4z"/>
		<path class="st2" d="M14.3,19.7c-0.1,0.1-0.3,0.3-0.4,0.4c0,0-0.1,0.1-0.1,0.1c-0.1,0-0.1,0.1-0.2,0.2c-0.1,0.2-0.1,0.2-0.3,0.2
			c-0.1,0-0.2-0.1-0.3-0.1c0,0-0.1,0-0.1-0.1c0.1-0.2,0.3-0.3,0.4-0.3c0.1,0,0.1-0.1,0.1-0.1c0,0,0-0.1,0.1-0.1
			c0.2-0.2,0.5-0.4,0.7-0.6c0.1-0.1,0.2-0.1,0.3,0c0.2,0.2,0.4,0.4,0.6,0.6c0,0,0,0.1,0,0.1c-0.1,0.1-0.2,0.2-0.3,0.4
			c0,0-0.1,0-0.1,0C14.5,20.1,14.4,19.9,14.3,19.7z"/>
	</g>
	<g>
		<g>
			<path class="st2" d="M40,34.4c0,0.1-0.1,0.3-0.1,0.4c-0.3,1-1.2,1.7-2.3,1.7c-11.8,0-23.5,0-35.3,0c-1.3,0-2-0.7-2.4-1.8
				c0-0.9,0-1.7,0-2.6c0.2-0.4,0.6-0.6,1.1-0.6c5.5,0,11.1,0,16.6,0c0.8,0,1,0.2,1.1,1.2c0.8,0,1.6,0,2.4,0c0,0,0,0,0-0.1
				c0-1,0.5-1.1,1.2-1.1c5.5,0,10.9,0,16.4,0c0.6,0,1,0.2,1.2,0.8C40,32.9,40,33.6,40,34.4z M38.3,33.2c-0.1,0-0.1,0-0.2,0
				c-5,0-10,0-15,0c-0.1,0-0.3,0.1-0.4,0.2c-0.3,0.6-0.8,1-1.5,1c-0.8,0-1.6,0-2.4,0c-0.7,0-1.3-0.3-1.6-0.9
				c-0.1-0.2-0.3-0.3-0.5-0.3c-4.9,0-9.8,0-14.6,0c-0.1,0-0.3,0-0.4,0c0,0.1-0.1,0.1-0.1,0.1c0,0.3,0,0.6,0,0.9
				c0,0.6,0.1,0.6,0.7,0.6c10.4,0,20.8,0,31.2,0c1.4,0,2.9,0,4.3,0c0.4,0,0.5-0.1,0.5-0.5C38.3,33.9,38.3,33.5,38.3,33.2z"/>
			<path class="st2" d="M20,8c4.8,0,9.7,0,14.5,0c1.1,0,2.1,1,2.1,2.1c0,6.2,0,12.4,0,18.6c0,0.6-0.3,1-0.8,1c-0.5,0-0.8-0.4-0.8-1
				c0-6.2,0-12.3,0-18.5c0-0.4-0.1-0.6-0.5-0.6c-1.7,0-3.3,0-5,0c-8,0-16,0-23.9,0C5,9.7,5,9.7,5,10.3c0,6.1,0,12.2,0,18.3
				c0,0.7-0.3,1.1-0.8,1.1c-0.6,0-0.8-0.4-0.8-1.2c0-6.1,0-12.2,0-18.2C3.3,9.1,4.4,8,5.6,8C10.4,8.1,15.2,8,20,8z"/>
			<path class="st1" d="M38.8,33.1c0,0.4,0,0.8,0,1.1c0,0.4-0.1,0.5-0.5,0.5c-1.5,0-2.9,0-4.4,0c-10.7,0-21.3,0-32,0
				c-0.6,0-0.7-0.1-0.7-0.7c0-0.3,0-0.6,0-0.9c0,0,0,0,0.1-0.1c0.1,0,0.3,0,0.4,0c5,0,10,0,15,0c0.3,0,0.4,0.1,0.5,0.3
				c0.3,0.6,0.9,1,1.6,1c0.8,0,1.6,0,2.4,0c0.7,0,1.2-0.4,1.5-1c0.1-0.1,0.2-0.3,0.4-0.3c5.1,0,10.3,0,15.4,0
				C38.6,33.1,38.7,33.1,38.8,33.1z"/>
			<path class="st1" d="M13.3,21c-0.5,0-1,0-1.4,0c0.2-0.6,0.5-1.1,0.7-1.7C12.8,19.9,13.1,20.5,13.3,21z"/>
		</g>
		<g>
			<path class="st2" d="M25.1,10.3c0.4-0.5,0.8-1.1,1.2-1.6c0.1-0.2,0.2-0.3,0.2-0.6c-0.1-0.6-0.1-1.2-0.2-1.8
				c0-0.1,0.1-0.2,0.2-0.2c0.6-0.2,1.2-0.4,1.8-0.6c0.1,0,0.2-0.1,0.3-0.2c0.3-0.5,0.7-1.1,1-1.6c0.1-0.1,0.1-0.2,0.3-0.1
				c0.6,0.2,1.2,0.4,1.8,0.6c0.1,0.1,0.3,0.1,0.4,0c0.6-0.2,1.2-0.5,1.7-0.7c0.1-0.1,0.2,0,0.3,0.1c0.4,0.5,0.7,1,1.1,1.6
				c0.1,0.1,0.2,0.2,0.3,0.2c0.6,0.2,1.2,0.3,1.8,0.5c0.1,0,0.2,0.1,0.2,0.2c0,0.6,0,1.3,0,1.9c0,0.1,0,0.2,0.1,0.3
				c0.4,0.5,0.8,1,1.2,1.4c0.1,0.1,0.1,0.2,0,0.4c-0.4,0.5-0.7,1-1.1,1.4c-0.1,0.1-0.1,0.3-0.1,0.4c0.1,0.6,0.1,1.2,0.1,1.8
				c0,0.2,0,0.2-0.2,0.3c-0.6,0.2-1.2,0.4-1.8,0.5c-0.1,0-0.2,0.1-0.3,0.2c-0.3,0.5-0.7,1.1-1,1.6c-0.1,0.1-0.2,0.2-0.3,0.1
				c-0.6-0.2-1.2-0.4-1.8-0.6c-0.1,0-0.3,0-0.4,0c-0.6,0.2-1.2,0.5-1.8,0.7c-0.1,0.1-0.2,0-0.3-0.1c-0.4-0.5-0.7-1-1.1-1.6
				c-0.1-0.1-0.2-0.2-0.3-0.2c-0.6-0.2-1.2-0.3-1.8-0.4c-0.2,0-0.2-0.1-0.2-0.3c0-0.6,0-1.3,0-1.9c0-0.1,0-0.2-0.1-0.3
				c-0.4-0.5-0.8-0.9-1.2-1.4C25.2,10.5,25.1,10.4,25.1,10.3z M35.1,7.3c0-0.1,0-0.2-0.1-0.2c-0.1-0.2-0.4-0.2-0.6,0
				c-1,1.1-2.1,2.2-3.1,3.3c-0.7,0.8-1.5,1.5-2.2,2.3c-0.2,0.2-0.2,0.4-0.1,0.6c0.2,0.2,0.4,0.1,0.6-0.1c1.8-1.9,3.5-3.7,5.3-5.6
				C35,7.5,35,7.4,35.1,7.3z M28.6,8.2c0,0.9,0.7,1.6,1.6,1.5c0.9,0,1.6-0.7,1.5-1.6c0-0.8-0.7-1.5-1.6-1.5
				C29.2,6.6,28.5,7.3,28.6,8.2z M35.2,12.1c0-0.9-0.7-1.5-1.6-1.5c-0.9,0-1.5,0.8-1.5,1.6c0,0.9,0.7,1.6,1.6,1.5
				C34.6,13.7,35.2,13,35.2,12.1z"/>
			<path class="st1" d="M35.1,7.3C35,7.4,35,7.5,34.9,7.6c-1.8,1.9-3.5,3.7-5.3,5.6c-0.2,0.2-0.4,0.2-0.6,0.1
				c-0.2-0.2-0.1-0.4,0.1-0.6c0.7-0.8,1.5-1.5,2.2-2.3c1-1.1,2.1-2.2,3.1-3.3c0.2-0.2,0.5-0.2,0.6,0C35,7.2,35,7.3,35.1,7.3z"/>
			<path class="st1" d="M28.6,8.2c0-0.9,0.7-1.6,1.5-1.6c0.8,0,1.6,0.7,1.6,1.5c0,0.9-0.7,1.6-1.5,1.6C29.3,9.7,28.6,9.1,28.6,8.2z
				 M30.1,7.3c-0.5,0-0.8,0.4-0.8,0.9c0,0.5,0.4,0.8,0.9,0.8C30.6,9,31,8.6,31,8.1C31,7.7,30.6,7.3,30.1,7.3z"/>
			<path class="st1" d="M35.2,12.1c0,0.9-0.6,1.6-1.5,1.6c-0.9,0-1.6-0.7-1.6-1.5c0-0.8,0.7-1.6,1.5-1.6
				C34.5,10.6,35.2,11.2,35.2,12.1z M34.5,12.1c0-0.5-0.4-0.8-0.9-0.8c-0.5,0-0.9,0.4-0.8,0.9c0,0.5,0.4,0.8,0.9,0.8
				C34.1,13,34.5,12.6,34.5,12.1z"/>
			<path class="st2" d="M30.1,7.3c0.5,0,0.9,0.4,0.9,0.8C31,8.6,30.6,9,30.1,9c-0.5,0-0.9-0.4-0.9-0.8C29.3,7.7,29.6,7.3,30.1,7.3z"
				/>
			<path class="st2" d="M34.5,12.1c0,0.5-0.4,0.9-0.8,0.9c-0.5,0-0.9-0.4-0.9-0.8c0-0.5,0.4-0.9,0.8-0.9
				C34.1,11.3,34.5,11.7,34.5,12.1z"/>
		</g>
	</g>
</g>
</svg>
