<?xml version="1.0" encoding="utf-8"?>
<!-- Generator: Adobe Illustrator 21.0.0, SVG Export Plug-In . SVG Version: 6.00 Build 0)  -->
<svg version="1.1" id="Layer_1" xmlns="http://www.w3.org/2000/svg" xmlns:xlink="http://www.w3.org/1999/xlink" x="0px" y="0px"
	 viewBox="0 0 40 40" style="enable-background:new 0 0 40 40;" xml:space="preserve">
<style type="text/css">
	.st0{fill:#F49D00;}
	.st1{fill:#FFFFFF;}
	.st2{fill:#EF7C00;}
	.st3{fill:#FFFFFF;stroke:#EF7C00;stroke-miterlimit:10;}
	.st4{fill:none;stroke:#EF7C00;stroke-miterlimit:10;}
	.st5{fill:#FFFFFF;stroke:#EF7C00;stroke-width:1.2;stroke-miterlimit:10;}
	.st6{fill:none;stroke:#EF7C00;stroke-width:0.8;stroke-miterlimit:10;}
	.st7{fill:#EF7C00;stroke:#EF7C00;stroke-width:1.5;stroke-miterlimit:10;}
	.st8{fill:#EF7C00;stroke:#EF7C00;stroke-width:0.4;stroke-miterlimit:10;}
	.st9{fill:#D81922;}
	.st10{clip-path:url(#SVGID_2_);}
	.st11{fill:#EF7C00;stroke:#EF7C00;stroke-miterlimit:10;}
	.st12{fill:#EF7C00;stroke:#EF7C00;stroke-width:0.8;stroke-miterlimit:10;}
	.st13{fill:#EF7C00;stroke:#EF7C00;stroke-width:0.2;stroke-miterlimit:10;}
	.st14{fill:#FFFFFF;stroke:#FFFFFF;stroke-width:0.3;stroke-miterlimit:10;}
	.st15{fill:#EF7C00;stroke:#EF7C00;stroke-width:0.3;stroke-miterlimit:10;}
	.st16{fill:#EF7C00;stroke:#EF7C00;stroke-width:0.5;stroke-miterlimit:10;}
	.st17{clip-path:url(#SVGID_4_);}
	.st18{clip-path:url(#SVGID_6_);}
	.st19{clip-path:url(#SVGID_8_);}
</style>
<g>
	<g>
		<path class="st2" d="M29.1,3.1c-0.7-0.1-1.5-0.3-2.2-0.4C23.2,2,19.4,1.3,15.7,0.6c-0.3-0.1-0.7-0.2-1-0.1C10,1.3,5.3,2.2,0.6,3.1
			c-0.2,0-0.2,0.1-0.2,0.3c0,2,0,4,0,6c0,1.6,0,3.3,0,4.9c0,0.6,0,1.1,0.1,1.7c0.2,2.6,0.8,5.2,1.6,7.6c1.4,4,3.4,7.7,6.3,10.8
			c1.8,2,3.9,3.7,6.3,5.2c0.1,0,0.2,0,0.3,0c0.2-0.1,0.4-0.3,0.6-0.4c2.9-1.9,5.4-4.2,7.4-7c2.4-3.2,4.1-6.7,5.1-10.6
			c0.6-2.3,1-4.6,1.1-7c0-0.1,0-0.2,0-0.3c0-3.6,0-7.2,0-10.8C29.2,3.2,29.3,3.1,29.1,3.1z M27.4,16c-0.1,1.9-0.6,3.8-1.1,5.7
			c-1.2,4-3,7.6-5.7,10.8c-1.6,2-3.5,3.6-5.7,5.1c-0.2,0.1-0.2,0.1-0.4,0C10,34.4,6.7,30.3,4.5,25.2c-1.1-2.7-1.9-5.4-2.3-8.3
			c-0.2-1.7-0.2-3.3-0.2-5c0-0.2,0.1-0.2,0.2-0.2c1.9-0.7,3.8-1.2,5.8-1.5c2.2-0.4,4.4-0.6,7.3-0.6c3.7,0,7.9,0.7,11.9,2.1
			c0.1,0,0.2,0.1,0.2,0.2C27.5,13.3,27.5,14.6,27.4,16z M2.1,9.9c0-0.6,0-1.3,0-1.9c0,0,0.1-0.1,0.2-0.1C3,7.7,3.8,7.6,4.6,7.4
			c3.1-0.6,6.1-1.1,9.2-1.7c0.3-0.1,0.6-0.1,0.9-0.2c0.3,0,0.6,0,1,0.1c3.5,0.6,7,1.3,10.5,2c0.4,0.1,0.9,0.2,1.3,0.3
			c0.1,0,0.2,0.1,0.2,0.2c0,0.6,0,1.2,0,1.9c0,0,0,0,0,0.1C19.1,7.2,10.6,7.2,2.1,9.9z M27.5,6.2c-0.7-0.1-1.4-0.3-2-0.4
			c-3.1-0.6-6.1-1.1-9.2-1.7c-0.2,0-0.3,0-0.5-0.1c-0.9-0.3-1.8-0.1-2.7,0.1C9.9,4.7,6.7,5.3,3.5,5.9C3,6,2.6,6.1,2.1,6.2
			c0-0.5,0-1.1,0-1.6c0,0,0.1-0.1,0.2-0.1c1-0.2,2-0.4,3-0.6c3.1-0.6,6.1-1.1,9.2-1.7c0.4-0.1,0.7,0,1.1,0.1
			c3.9,0.7,7.8,1.5,11.7,2.2c0.2,0,0.3,0.1,0.3,0.3C27.5,5.2,27.5,5.7,27.5,6.2z"/>
		<path class="st1" d="M15.4,9.6c3.7,0,7.9,0.7,11.9,2.1c0.1,0,0.2,0.1,0.2,0.2c0,1.3,0,2.7-0.1,4c-0.1,1.9-0.6,3.8-1.1,5.7
			c-1.2,4-3,7.6-5.7,10.8c-1.6,2-3.5,3.6-5.7,5.1c-0.2,0.1-0.2,0.1-0.4,0C10,34.4,6.7,30.3,4.5,25.2c-1.1-2.7-1.9-5.4-2.3-8.3
			c-0.2-1.7-0.2-3.3-0.2-5c0-0.2,0.1-0.2,0.2-0.2c1.9-0.7,3.8-1.2,5.8-1.5C10.3,9.8,12.5,9.6,15.4,9.6z M18.2,16.5
			c-0.1-0.3-0.4-0.5-0.6-0.7c-0.3-0.2-0.5-0.4-0.8-0.6c0.4,0,0.8,0,1.1,0c0,0,0,0,0-0.1c-0.4-0.3-0.8-0.5-1.1-0.8
			c0.3-0.1,0.5-0.2,0.7-0.3c0,0,0,0,0-0.1c-0.5,0-0.9-0.3-1.3-0.6c-0.1-0.1-0.1-0.1-0.2-0.1c-0.3-0.1-0.4-0.3-0.5-0.6
			c-0.1-0.1-0.1-0.2-0.2-0.3c-0.3,0.2-0.3,0.5-0.4,0.8c0,0-0.1,0-0.1,0c-0.5,0-0.9,0.2-1.1,0.6c0,0.1-0.1,0.1-0.2,0.2
			c-0.4,0.1-0.8,0.2-1.2,0.3c-0.3,0.1-0.6,0.2-0.7,0.5c-0.2,0.5-0.1,0.9,0.5,1c0.1,0,0.3,0,0.4-0.1c0.3-0.2,0.6-0.1,0.9,0
			c0.2,0.1,0.5,0.2,0.7,0.3c0.4,0.1,0.7,0,0.9-0.3c0.1-0.1,0.2-0.2,0.3-0.4c0,0.7-0.3,1-1,1.2c-0.3,0.8-0.6,1.7-0.9,2.5
			c-0.2,0.5-0.5,0.8-0.9,1.1c-0.6,0.4-1.4,0.7-2.1,0.8c-0.2,0-0.4,0.1-0.4,0.4c0,0.1,0,0.2,0,0.4c0.2,0.7,0.3,1.4,0.5,2.1
			c0,0.1,0.1,0.2,0.1,0.2c0.3,0.1,0.3,0.3,0.3,0.5c0.1,0.4,0.2,0.7,0.5,1c0.2-0.4,0.4-0.7,0.6-1.1c0.1-0.2,0.1-0.4-0.1-0.4
			c-0.3-0.1-0.5-0.3-0.5-0.7c0-0.3-0.2-0.7-0.3-1c0-0.1,0-0.2,0-0.3c0.4,0,0.8,0,1.2,0c0.2,0,0.3,0,0.4,0.2c0.1,0.2,0.3,0.4,0.5,0.6
			c0.6,0.7,1.3,1.4,2.1,1.9c0.3-0.3,0.7-0.6,1.3-0.6c-0.1,0-0.2,0.1-0.3,0.1c-0.4,0.1-0.8,0.4-1,0.9c-0.3,0.6-0.2,1.2,0.1,1.8
			c0.2,0.4,0.3,0.7,0.5,1.1c0.1,0.3,0.1,0.6-0.1,0.9c-0.2,0.2-0.4,0.5-0.5,0.8c-0.1,0.3-0.3,0.4-0.5,0.6c-0.2,0.2-0.4,0.4-0.5,0.6
			c-0.1,0.1-0.1,0.2-0.2,0.4c0.5,0,0.9,0,1.3,0c0.4,0,0.5-0.1,0.5-0.5c0,0,0-0.1,0-0.1c0,0,0.1,0,0.1,0c0.4,0.1,0.5,0,0.6-0.3
			c0.2-0.5,0.4-1,0.7-1.4c0.1-0.1,0.1-0.2,0-0.4c-0.1-0.2-0.3-0.5-0.3-0.7c-0.1-0.4,0.2-0.8,0.5-1c0.5-0.4,1-0.9,1.5-1.4
			c0.1-0.1,0.2-0.1,0.3-0.1c1,0.1,1.8-0.4,2-1.4c0.2-0.7,0.3-1.5,0.4-2.3c-0.2,0.1-0.3,0.2-0.4,0.3c-0.1,0.1-0.2,0.1-0.2,0.1
			c0-0.1-0.1-0.2-0.1-0.2c0-0.6,0.2-1.1,0.4-1.6c0-0.1,0.1-0.1,0.1-0.3c-0.4,0.3-0.8,0.6-0.9,1.1c-0.2-0.6,0-1.1,0.2-1.6
			c-0.3,0.1-0.5,0.3-0.5,0.6c-0.1,0.3-0.2,0.7-0.2,1c0,0.8,0,1.6-0.1,2.4c0,0.4-0.1,0.7-0.3,1.1c0,0.1-0.1,0.1-0.2,0.1
			c0,0-0.1-0.1-0.1-0.1c0-0.6-0.3-1.1-0.8-1.5c-0.3-0.3-0.7-0.5-1.1-0.8c-0.6-0.4-1-0.8-1.3-1.4c-0.1-0.2-0.1-0.3-0.1-0.5
			c0.4,0.2,0.8,0.2,1.2,0.2c-0.3-0.3-0.6-0.5-0.9-0.7c0.3,0,0.5,0.1,0.8,0.1c0.3,0,0.5,0,0.8,0.1c0,0,0-0.1,0-0.1
			c-0.5-0.3-1-0.6-1.5-1.1c0.5,0.1,1,0.3,1.5,0.1c-0.5-0.3-1-0.5-1.3-1c0.5,0.1,0.9,0.1,1.4,0c-0.6-0.3-1-0.6-1.4-1.1
			c0,0,0-0.1,0-0.1C17.3,16.4,17.7,16.4,18.2,16.5z M12.5,28c0.1,0.1,0.1,0.2,0.1,0.3c0.1,0.2,0.3,0.2,0.5,0.1
			c0.5-0.4,1.1-0.5,1.7-0.6c0.3,0,0.4-0.3,0.3-0.5c-0.5-0.7-0.6-1.5-0.4-2.3c0,0,0-0.1,0-0.1c-0.2-0.2-0.4-0.3-0.6-0.5
			c0,0.1,0,0.2,0,0.2c0,0.6,0,1.3,0,1.9c0,0.2-0.1,0.3-0.3,0.3c-0.3,0-0.7,0-1,0c-0.2,0-0.3-0.1-0.4,0.1c0,0-0.1,0-0.1,0
			c-0.1,0-0.2,0-0.3,0c-0.4,0-0.8,0.1-1.1,0.4c0.3,0.3,0.7,0.6,1,0.9c0.3,0.2,0.4,0.2,0.6,0C12.4,28.1,12.5,28.1,12.5,28z
			 M11.1,18.1c0.3,0.4,0.6,0.7,0.8,1.1c0.1,0.1,0.1,0.1,0.2,0.1c0.2-0.3,0.5-0.5,0.7-0.8c0,0,0-0.1,0-0.2c-0.4-0.5-0.8-0.9-1.3-1.4
			c-0.3-0.3-0.4-0.2-0.6,0c-0.5,0.4-1,0.9-1.5,1.3c-0.1,0.1-0.1,0.2-0.2,0.2c0,0.1-0.1,0.2-0.2,0.2c-0.4,0.1-0.7,0.3-0.9,0.7
			c0.1,0,0.1,0.1,0.2,0.1c0.2,0.1,0.5,0.2,0.7,0.3c0.4,0.1,0.5,0.1,0.7-0.3c0.1-0.2,0.1-0.4,0.4-0.4c0.1,0,0.1-0.1,0.2-0.1
			C10.5,18.7,10.8,18.4,11.1,18.1z"/>
		<path class="st2" d="M18.2,16.5c-0.5-0.1-0.9-0.2-1.3-0.3c0,0,0,0.1,0,0.1c0.3,0.5,0.8,0.8,1.4,1.1c-0.5,0.1-0.9,0.1-1.4,0
			c0.2,0.6,0.7,0.8,1.3,1c-0.5,0.1-1,0-1.5-0.1c0.4,0.5,0.9,0.8,1.5,1.1c0,0,0,0.1,0,0.1c-0.3,0-0.5,0-0.8-0.1
			c-0.3,0-0.5-0.1-0.8-0.1c0.3,0.2,0.6,0.5,0.9,0.7c-0.4,0-0.8,0-1.2-0.2c0,0.2,0,0.3,0.1,0.5c0.2,0.6,0.7,1.1,1.3,1.4
			c0.4,0.2,0.7,0.5,1.1,0.8c0.5,0.4,0.8,0.9,0.8,1.5c0,0.1,0.1,0.1,0.1,0.1c0.1,0,0.1,0,0.2-0.1c0.2-0.3,0.3-0.7,0.3-1.1
			c0-0.8,0-1.6,0.1-2.4c0-0.3,0.1-0.7,0.2-1c0.1-0.2,0.3-0.4,0.5-0.6c-0.2,0.5-0.4,1-0.2,1.6c0.2-0.5,0.5-0.8,0.9-1.1
			c0,0.1-0.1,0.2-0.1,0.3c-0.2,0.5-0.4,1-0.4,1.6c0,0.1,0,0.2,0.1,0.2c0.1,0,0.2-0.1,0.2-0.1c0.1-0.1,0.2-0.2,0.4-0.3
			c-0.1,0.8-0.2,1.6-0.4,2.3c-0.2,1-1,1.5-2,1.4c-0.1,0-0.2,0-0.3,0.1c-0.5,0.4-1,0.9-1.5,1.4c-0.3,0.3-0.6,0.6-0.5,1
			c0,0.2,0.2,0.5,0.3,0.7c0.1,0.1,0.1,0.2,0,0.4c-0.4,0.4-0.6,0.9-0.7,1.4c-0.1,0.4-0.2,0.4-0.6,0.3c0,0-0.1,0-0.1,0
			c0,0,0,0.1,0,0.1c0,0.4-0.1,0.5-0.5,0.5c-0.4,0-0.8,0-1.3,0c0.1-0.2,0.1-0.3,0.2-0.4c0.2-0.2,0.3-0.4,0.5-0.6
			c0.2-0.2,0.4-0.2,0.5-0.6c0-0.3,0.3-0.5,0.5-0.8c0.2-0.3,0.2-0.6,0.1-0.9c-0.2-0.4-0.3-0.7-0.5-1.1c-0.3-0.6-0.3-1.2-0.1-1.8
			c0.2-0.4,0.5-0.7,1-0.9c0.1,0,0.2,0,0.3-0.1c-0.6,0-0.9,0.3-1.3,0.6c-0.8-0.5-1.5-1.1-2.1-1.9c-0.2-0.2-0.3-0.4-0.5-0.6
			c-0.1-0.2-0.2-0.2-0.4-0.2c-0.4,0-0.7,0-1.2,0c0,0.1,0,0.2,0,0.3c0.1,0.3,0.3,0.7,0.3,1c0,0.4,0.2,0.5,0.5,0.7
			c0.2,0.1,0.2,0.3,0.1,0.4c-0.2,0.3-0.4,0.7-0.6,1.1c-0.3-0.3-0.4-0.6-0.5-1c0-0.2-0.1-0.4-0.3-0.5c-0.1,0-0.1-0.1-0.1-0.2
			c-0.2-0.7-0.3-1.4-0.5-2.1c0-0.1,0-0.2,0-0.4c0-0.2,0.1-0.3,0.4-0.4c0.8-0.1,1.5-0.3,2.1-0.8c0.4-0.3,0.7-0.6,0.9-1.1
			c0.3-0.8,0.6-1.6,0.9-2.5c0.7-0.1,1.1-0.5,1-1.2c-0.1,0.1-0.2,0.3-0.3,0.4c-0.2,0.3-0.6,0.4-0.9,0.3c-0.2-0.1-0.5-0.2-0.7-0.3
			c-0.3-0.1-0.6-0.1-0.9,0c-0.1,0.1-0.3,0.1-0.4,0.1c-0.5,0-0.6-0.5-0.5-1c0.1-0.3,0.3-0.4,0.7-0.5c0.4-0.1,0.8-0.2,1.2-0.3
			c0.1,0,0.2-0.1,0.2-0.2c0.3-0.4,0.6-0.6,1.1-0.6c0,0,0.1,0,0.1,0c0-0.3,0.1-0.6,0.4-0.8c0.1,0.1,0.1,0.2,0.2,0.3
			c0.1,0.2,0.2,0.5,0.5,0.6c0.1,0,0.1,0.1,0.2,0.1c0.3,0.4,0.7,0.6,1.3,0.6c0,0,0,0,0,0.1c-0.2,0.1-0.4,0.2-0.7,0.3
			c0.4,0.3,0.8,0.5,1.1,0.8c0,0,0,0,0,0.1c-0.3,0-0.7,0-1.1,0c0.3,0.2,0.6,0.4,0.8,0.6C17.8,16.1,18,16.3,18.2,16.5z"/>
		<path class="st2" d="M12.5,28c-0.1,0-0.1,0.1-0.1,0.1c-0.3,0.2-0.4,0.3-0.6,0c-0.3-0.3-0.6-0.6-1-0.9c0.3-0.3,0.7-0.4,1.1-0.4
			c0.1,0,0.2,0,0.3,0c0,0,0.1,0,0.1,0c0.1-0.2,0.3-0.1,0.4-0.1c0.3,0,0.7,0,1,0c0.2,0,0.3-0.1,0.3-0.3c0-0.6,0-1.3,0-1.9
			c0-0.1,0-0.1,0-0.2c0.2,0.2,0.4,0.4,0.6,0.5c0,0,0,0.1,0,0.1c-0.2,0.8-0.1,1.6,0.4,2.3c0.2,0.2,0,0.5-0.3,0.5
			c-0.6,0.1-1.2,0.2-1.7,0.6c-0.1,0.1-0.4,0.1-0.5-0.1C12.6,28.2,12.6,28.1,12.5,28z"/>
		<path class="st2" d="M11.1,18.1c-0.3,0.3-0.6,0.6-0.9,0.8C10.1,19,10,19.1,10,19.1c-0.3,0-0.3,0.2-0.4,0.4C9.5,19.9,9.4,20,9,19.9
			c-0.2-0.1-0.5-0.2-0.7-0.3c-0.1,0-0.1-0.1-0.2-0.1c0.2-0.3,0.6-0.6,0.9-0.7c0.1,0,0.2-0.1,0.2-0.2c0-0.1,0.1-0.2,0.2-0.2
			c0.5-0.4,1-0.9,1.5-1.3c0.3-0.2,0.4-0.2,0.6,0c0.4,0.4,0.9,0.9,1.3,1.4c0,0,0,0.1,0,0.2c-0.2,0.3-0.4,0.5-0.7,0.8
			c-0.1,0.1-0.2,0-0.2-0.1C11.6,18.9,11.4,18.5,11.1,18.1z"/>
	</g>
	<path class="st13" d="M25.6,31.8c0.4-0.5,0.8-1.1,1.3-1.6c0.1-0.2,0.2-0.3,0.2-0.6c0-0.6-0.1-1.2-0.1-1.9c0-0.1,0.1-0.2,0.2-0.2
		c0.6-0.2,1.3-0.3,1.9-0.5c0.1,0,0.2-0.1,0.3-0.2c0.4-0.5,0.7-1.1,1.1-1.6c0.1-0.1,0.2-0.2,0.3-0.1c0.6,0.2,1.2,0.4,1.8,0.7
		c0.1,0.1,0.3,0.1,0.4,0c0.6-0.2,1.2-0.5,1.8-0.7c0.1-0.1,0.2,0,0.3,0.1c0.3,0.5,0.7,1.1,1.1,1.6c0.1,0.1,0.2,0.2,0.3,0.2
		c0.6,0.2,1.2,0.3,1.9,0.5c0.1,0,0.2,0.1,0.2,0.3c0,0.7-0.1,1.3-0.1,2c0,0.1,0,0.2,0.1,0.3c0.4,0.5,0.8,1,1.2,1.5
		c0.1,0.1,0.1,0.2,0,0.4c-0.4,0.5-0.8,1-1.2,1.4c-0.1,0.1-0.2,0.3-0.1,0.4c0,0.6,0.1,1.2,0.1,1.9c0,0.2,0,0.2-0.2,0.3
		c-0.6,0.2-1.2,0.3-1.9,0.5c-0.1,0-0.2,0.1-0.3,0.2c-0.4,0.5-0.7,1.1-1.1,1.6c-0.1,0.1-0.2,0.2-0.3,0.1c-0.6-0.2-1.2-0.5-1.8-0.7
		c-0.1,0-0.3,0-0.4,0c-0.6,0.2-1.2,0.4-1.8,0.7c-0.1,0.1-0.2,0-0.3-0.1c-0.3-0.5-0.7-1.1-1.1-1.6c-0.1-0.1-0.2-0.2-0.3-0.2
		c-0.6-0.2-1.2-0.3-1.8-0.5c-0.2,0-0.2-0.1-0.2-0.3c0-0.6,0.1-1.3,0.1-1.9c0-0.1,0-0.2-0.1-0.3c-0.4-0.5-0.8-1-1.2-1.4
		C25.7,32,25.6,31.9,25.6,31.8z M35.8,29.1c0-0.1,0-0.2-0.1-0.2c-0.1-0.2-0.4-0.2-0.6,0C34,29.9,33,31,31.9,32.1
		c-0.8,0.8-1.5,1.5-2.3,2.3c-0.2,0.2-0.2,0.4-0.1,0.6c0.2,0.2,0.4,0.1,0.6-0.1c1.8-1.8,3.7-3.7,5.5-5.5
		C35.7,29.3,35.8,29.2,35.8,29.1z M29.2,29.8c0,0.9,0.7,1.6,1.6,1.6c0.9,0,1.6-0.7,1.6-1.6c0-0.9-0.7-1.6-1.6-1.6
		C29.9,28.2,29.2,28.9,29.2,29.8z M35.8,33.9c0-0.9-0.7-1.6-1.6-1.6c-0.9,0-1.6,0.7-1.6,1.6c0,0.9,0.7,1.6,1.6,1.6
		C35.1,35.5,35.8,34.8,35.8,33.9z"/>
	<path class="st1" d="M35.8,29.1c-0.1,0.1-0.1,0.2-0.2,0.3c-1.8,1.9-3.7,3.7-5.5,5.5c-0.2,0.2-0.4,0.2-0.6,0.1
		c-0.2-0.2-0.1-0.4,0.1-0.6c0.8-0.8,1.5-1.5,2.3-2.3c1.1-1.1,2.2-2.2,3.2-3.2c0.2-0.2,0.5-0.2,0.6,0C35.8,28.9,35.8,29,35.8,29.1z"
		/>
	<path class="st1" d="M29.2,29.8c0-0.9,0.7-1.6,1.6-1.6c0.9,0,1.6,0.7,1.6,1.6c0,0.9-0.7,1.6-1.6,1.6C29.9,31.4,29.2,30.7,29.2,29.8
		z M30.8,28.9c-0.5,0-0.9,0.4-0.9,0.9c0,0.5,0.4,0.9,0.9,0.9c0.5,0,0.9-0.4,0.9-0.9C31.6,29.3,31.3,28.9,30.8,28.9z"/>
	<path class="st1" d="M35.8,33.9c0,0.9-0.7,1.6-1.6,1.6c-0.9,0-1.6-0.7-1.6-1.6c0-0.9,0.7-1.6,1.6-1.6C35.1,32.3,35.8,33,35.8,33.9z
		 M35.1,33.9c0-0.5-0.4-0.9-0.9-0.9c-0.5,0-0.9,0.4-0.9,0.9c0,0.5,0.4,0.9,0.9,0.9C34.7,34.8,35.1,34.4,35.1,33.9z"/>
	<path class="st2" d="M30.8,28.9c0.5,0,0.9,0.4,0.9,0.9c0,0.5-0.4,0.9-0.9,0.9c-0.5,0-0.9-0.4-0.9-0.9
		C29.9,29.3,30.3,28.9,30.8,28.9z"/>
	<path class="st2" d="M35.1,33.9c0,0.5-0.4,0.9-0.9,0.9c-0.5,0-0.9-0.4-0.9-0.9c0-0.5,0.4-0.9,0.9-0.9
		C34.7,33.1,35.1,33.5,35.1,33.9z"/>
</g>
</svg>
