<?xml version="1.0" encoding="utf-8"?>
<!-- Generator: Adobe Illustrator 21.0.0, SVG Export Plug-In . SVG Version: 6.00 Build 0)  -->
<svg version="1.1" id="Layer_1" xmlns="http://www.w3.org/2000/svg" xmlns:xlink="http://www.w3.org/1999/xlink" x="0px" y="0px"
	 viewBox="0 0 40 40" style="enable-background:new 0 0 40 40;" xml:space="preserve">
<style type="text/css">
	.st0{fill:#F49D00;}
	.st1{fill:#FFFFFF;}
	.st2{fill:#EF7C00;}
	.st3{fill:#FFFFFF;stroke:#EF7C00;stroke-miterlimit:10;}
	.st4{fill:none;stroke:#EF7C00;stroke-miterlimit:10;}
	.st5{fill:#FFFFFF;stroke:#EF7C00;stroke-width:1.2;stroke-miterlimit:10;}
	.st6{fill:none;stroke:#EF7C00;stroke-width:0.8;stroke-miterlimit:10;}
	.st7{fill:#EF7C00;stroke:#EF7C00;stroke-width:1.5;stroke-miterlimit:10;}
	.st8{fill:#EF7C00;stroke:#EF7C00;stroke-width:0.4;stroke-miterlimit:10;}
	.st9{fill:#D81922;}
	.st10{clip-path:url(#SVGID_2_);}
	.st11{fill:#EF7C00;stroke:#EF7C00;stroke-miterlimit:10;}
	.st12{fill:#EF7C00;stroke:#EF7C00;stroke-width:0.8;stroke-miterlimit:10;}
	.st13{fill:#EF7C00;stroke:#EF7C00;stroke-width:0.2;stroke-miterlimit:10;}
	.st14{fill:#FFFFFF;stroke:#FFFFFF;stroke-width:0.3;stroke-miterlimit:10;}
	.st15{fill:#EF7C00;stroke:#EF7C00;stroke-width:0.3;stroke-miterlimit:10;}
	.st16{fill:#EF7C00;stroke:#EF7C00;stroke-width:0.5;stroke-miterlimit:10;}
	.st17{clip-path:url(#SVGID_4_);}
	.st18{clip-path:url(#SVGID_6_);}
	.st19{clip-path:url(#SVGID_8_);}
</style>
<g>
	<g>
		<g>
			<path class="st2" d="M16.5,20.3c-0.6-0.1-1.2-0.3-1.8-0.4c0,0,0,0.1,0,0.1c0.5,0.6,1.1,1.1,1.8,1.4c-0.6,0.2-1.2,0.2-1.9,0
				c0.3,0.7,1,1,1.7,1.4c-0.7,0.2-1.3,0-2-0.2c0.5,0.7,1.2,1.1,1.9,1.5c0,0,0,0.1,0,0.1c-0.3,0-0.7,0-1-0.1
				c-0.3-0.1-0.7-0.2-1.1-0.2c0.4,0.3,0.8,0.6,1.2,1c-0.6,0-1,0-1.6-0.3c0,0.2,0,0.5,0.1,0.7c0.3,0.8,1,1.4,1.7,1.9
				c0.5,0.3,1,0.7,1.5,1.1c0.6,0.5,1,1.2,1.1,2c0,0.1,0.1,0.2,0.1,0.2c0.1,0,0.2-0.1,0.2-0.1c0.3-0.4,0.4-0.9,0.4-1.4
				c0-1.1,0-2.1,0.1-3.2c0-0.4,0.1-0.9,0.2-1.3c0.1-0.3,0.3-0.6,0.7-0.8c-0.3,0.7-0.6,1.4-0.3,2.2c0.2-0.7,0.7-1.1,1.2-1.5
				c-0.1,0.2-0.1,0.3-0.1,0.4c-0.3,0.7-0.5,1.4-0.5,2.2c0,0.1,0.1,0.2,0.1,0.3c0.1,0,0.2-0.1,0.3-0.1c0.2-0.1,0.3-0.2,0.5-0.4
				c-0.2,1.1-0.3,2.1-0.5,3.1c-0.3,1.3-1.3,2-2.7,1.9c-0.1,0-0.3,0-0.3,0.1c-0.7,0.6-1.3,1.2-2,1.8c-0.4,0.4-0.8,0.8-0.7,1.4
				c0.1,0.3,0.2,0.6,0.4,0.9c0.1,0.2,0.1,0.3,0,0.5c-0.5,0.5-0.7,1.2-1,1.9c-0.2,0.5-0.3,0.6-0.8,0.5c0,0-0.1,0-0.2,0
				c0,0,0,0.1,0,0.1c-0.1,0.6-0.1,0.7-0.7,0.7c-0.5,0-1.1,0-1.7,0c0.1-0.2,0.2-0.4,0.2-0.5c0.2-0.3,0.5-0.5,0.7-0.8
				c0.2-0.2,0.5-0.3,0.6-0.7c0.1-0.4,0.4-0.7,0.7-1c0.3-0.4,0.3-0.8,0.2-1.2c-0.2-0.5-0.4-1-0.6-1.5c-0.4-0.8-0.4-1.6-0.1-2.4
				c0.2-0.6,0.7-1,1.3-1.1c0.1,0,0.2-0.1,0.4-0.1c-0.8,0-1.2,0.4-1.7,0.8c-1.1-0.7-2-1.5-2.8-2.5c-0.2-0.3-0.4-0.5-0.6-0.8
				c-0.1-0.3-0.3-0.3-0.6-0.3c-0.5,0-1,0-1.5,0c0,0.1,0,0.2,0.1,0.3c0.1,0.4,0.4,0.9,0.4,1.3c0.1,0.5,0.3,0.7,0.7,0.9
				c0.3,0.1,0.2,0.4,0.1,0.6C8,31,7.7,31.5,7.4,31.9c-0.4-0.4-0.6-0.9-0.7-1.3c-0.1-0.3-0.1-0.6-0.4-0.7c-0.1,0-0.2-0.2-0.2-0.3
				c-0.2-0.9-0.4-1.8-0.6-2.8c0-0.2,0-0.3,0-0.5c0-0.3,0.2-0.4,0.5-0.5c1-0.1,2-0.5,2.8-1c0.5-0.4,1-0.8,1.2-1.4
				c0.4-1.1,0.8-2.2,1.2-3.3c1-0.2,1.4-0.7,1.4-1.6c-0.1,0.2-0.3,0.3-0.4,0.5c-0.3,0.4-0.7,0.5-1.2,0.4c-0.3-0.1-0.7-0.2-1-0.3
				c-0.4-0.2-0.8-0.2-1.2,0c-0.2,0.1-0.4,0.2-0.5,0.2c-0.7,0-0.9-0.6-0.6-1.3c0.1-0.4,0.4-0.6,0.9-0.7c0.6-0.1,1.1-0.2,1.7-0.4
				c0.1,0,0.2-0.1,0.3-0.2c0.4-0.5,0.9-0.8,1.5-0.8c0,0,0.1,0,0.1,0c0-0.4,0.1-0.8,0.5-1.1c0.1,0.2,0.1,0.3,0.2,0.4
				c0.2,0.3,0.3,0.7,0.7,0.8c0.1,0,0.2,0.1,0.2,0.2c0.5,0.5,1,0.9,1.7,0.9c0,0,0,0.1,0,0.1c-0.3,0.1-0.6,0.3-0.9,0.4
				c0.5,0.3,1,0.7,1.5,1c0,0,0,0.1,0,0.1c-0.5,0-0.9,0-1.5,0c0.4,0.3,0.8,0.5,1.1,0.8C16,19.7,16.4,20,16.5,20.3z"/>
			<path class="st2" d="M9,35.7c-0.1,0.1-0.1,0.1-0.2,0.2c-0.4,0.3-0.5,0.4-0.9,0c-0.5-0.4-0.9-0.8-1.3-1.2c0.5-0.4,1-0.5,1.5-0.5
				c0.1,0,0.3,0,0.4,0c0.1,0,0.2,0,0.2,0C8.8,33.9,9.1,34,9.3,34c0.4,0,0.9,0.1,1.3,0.1c0.3,0,0.4-0.2,0.4-0.5c0-0.9,0-1.7,0-2.6
				c0-0.1,0-0.2,0-0.3c0.3,0.3,0.6,0.5,0.8,0.7c0,0,0,0.1,0,0.2c-0.2,1.1-0.2,2.2,0.6,3.1c0.2,0.3,0,0.7-0.3,0.7
				c-0.8,0.1-1.6,0.2-2.3,0.7c-0.2,0.2-0.5,0.1-0.6-0.1C9.1,36,9,35.8,9,35.7z"/>
			<path class="st2" d="M7.1,22.5c-0.4,0.4-0.8,0.8-1.2,1.1c-0.1,0.1-0.2,0.2-0.3,0.2c-0.3,0-0.4,0.3-0.5,0.5
				C5,24.9,4.8,25,4.2,24.8c-0.3-0.1-0.6-0.3-0.9-0.4c-0.1,0-0.2-0.1-0.2-0.2c0.3-0.5,0.7-0.7,1.2-0.9c0.2-0.1,0.3-0.1,0.3-0.3
				c0-0.1,0.1-0.2,0.2-0.3c0.6-0.6,1.3-1.2,2-1.7c0.4-0.3,0.5-0.3,0.8,0c0.6,0.6,1.1,1.2,1.7,1.8c0,0,0,0.2,0,0.2
				c-0.3,0.3-0.6,0.7-0.9,1c-0.1,0.1-0.2,0-0.3-0.1C7.8,23.4,7.5,23,7.1,22.5z"/>
		</g>
	</g>
	<g>
		<path class="st2" d="M36.9,18.9c0,0.1,0,0.1,0,0.2c0,0-0.1,0-0.1,0c-1.1,0.7-2.3,1-3.6,1.2c-1.9,0.2-3.7-0.1-5.5-0.8
			c-0.9-0.4-1.8-0.8-2.7-1.2c-0.5-0.2-1-0.3-1.5-0.3c-2.1,0.1-3.9,0.8-5.5,2.3c-0.1,0.1-0.2,0.3-0.2,0.5c0.1,1.2,0.3,2.5,0.4,3.7
			c0.1,0.5,0.1,1,0.1,1.5c-0.3,0-0.6,0.1-0.9,0.1c-0.1-0.9-0.2-1.7-0.3-2.6c-0.2-1.6-0.3-3.1-0.5-4.7c-0.2-1.5-0.3-3.1-0.5-4.6
			c-0.2-1.9-0.4-3.9-0.6-5.8c-0.2-2.1-0.4-4.3-0.6-6.4c0-0.4-0.1-0.8-0.1-1.2c0-0.1,0-0.2,0-0.3c0.3,0,0.6,0,0.9,0
			c0,0.4,0.1,0.8,0.1,1.1c0,0,0.1,0,0.1,0c1.1-0.7,2.2-0.7,3.4-0.5c1.3,0.3,2.5,0.9,3.7,1.6c1,0.6,2,1.2,3,1.7
			c1.6,0.8,3.2,1.3,5,1.3c1.5,0,2.8-0.5,3.9-1.6c0,0,0,0,0.1,0c0,0,0,0.1,0,0.1c0.1,0.9,0.2,1.9,0.3,2.8c0.2,1.6,0.3,3.1,0.5,4.7
			c0.2,1.9,0.4,3.8,0.6,5.7C36.8,17.8,36.9,18.4,36.9,18.9z M23.2,11.6c0-0.1,0-0.2,0-0.3c-0.1-1-0.2-2-0.3-3c0-0.2-0.1-0.2-0.2-0.3
			c-0.7-0.3-1.5-0.5-2.2-0.6C19.1,7.3,18,7.6,17,8.3c-0.2,0.1-0.3,0.3-0.2,0.6c0.1,1,0.2,1.9,0.3,2.9c0,0.4,0.1,0.8,0.1,1.3
			C18.9,11.3,20.9,10.9,23.2,11.6z M30.3,15.3c-2.2-0.2-4.1-1-6-2.2c0,0.1,0,0.1,0,0.2c0.1,1.2,0.3,2.5,0.4,3.7
			c0,0.1,0.1,0.1,0.2,0.2c0.4,0.2,0.8,0.3,1.1,0.5c1,0.5,2,1,3.1,1.3c0.5,0.1,1,0.2,1.6,0.4C30.6,17.9,30.4,16.6,30.3,15.3z
			 M23.3,3.7c0,0.1,0,0.1,0,0.1c0.1,1.2,0.3,2.4,0.4,3.6c0,0.1,0.1,0.1,0.2,0.2c0.5,0.3,0.9,0.5,1.4,0.8C26.1,9,27,9.5,28,9.7
			c0.5,0.1,1.1,0.2,1.7,0.3c0-0.1,0-0.2,0-0.2c-0.1-1-0.2-1.9-0.3-2.9c0-0.5,0-0.5-0.5-0.6C27,5.9,25.4,5.1,23.8,4
			C23.6,4,23.5,3.9,23.3,3.7z M34.9,9.8c-1.3,0.7-2.7,1.1-4.2,1.1c0.1,1.2,0.2,2.3,0.4,3.5c0.4,0,0.7,0,1.1-0.1c1-0.1,2-0.4,3-0.9
			c0.1-0.1,0.2-0.2,0.2-0.3c-0.1-0.4-0.1-0.7-0.1-1.1C35.1,11.4,35,10.6,34.9,9.8z"/>
		<path class="st1" d="M23.2,11.6c-2.3-0.8-4.3-0.3-6,1.4c0-0.5-0.1-0.9-0.1-1.3c-0.1-1-0.2-1.9-0.3-2.9c0-0.3,0-0.4,0.2-0.6
			c1-0.7,2.2-0.9,3.4-0.8c0.8,0.1,1.5,0.3,2.2,0.6c0.1,0.1,0.2,0.1,0.2,0.3c0.1,1,0.2,2,0.3,3C23.2,11.4,23.2,11.5,23.2,11.6z"/>
		<path class="st1" d="M30.3,15.3c0.1,1.3,0.3,2.6,0.4,4c-0.6-0.1-1.1-0.2-1.6-0.4c-1.1-0.3-2.1-0.8-3.1-1.3
			c-0.4-0.2-0.8-0.3-1.1-0.5c-0.1,0-0.2-0.1-0.2-0.2c-0.1-1.2-0.3-2.5-0.4-3.7c0,0,0-0.1,0-0.2C26.2,14.3,28.1,15.1,30.3,15.3z"/>
		<path class="st1" d="M23.3,3.7C23.5,3.9,23.6,4,23.8,4c1.6,1,3.3,1.8,5.1,2.3c0.5,0.1,0.5,0.1,0.5,0.6c0.1,1,0.2,1.9,0.3,2.9
			c0,0,0,0.1,0,0.2c-0.6-0.1-1.1-0.2-1.7-0.3c-1-0.3-1.9-0.7-2.8-1.3c-0.5-0.3-0.9-0.5-1.4-0.8c-0.1,0-0.2-0.1-0.2-0.2
			c-0.1-1.2-0.3-2.4-0.4-3.6C23.3,3.8,23.3,3.8,23.3,3.7z"/>
		<path class="st1" d="M34.9,9.8c0.1,0.8,0.2,1.6,0.3,2.3c0,0.4,0.1,0.7,0.1,1.1c0,0.2,0,0.2-0.2,0.3c-0.9,0.5-1.9,0.8-3,0.9
			c-0.3,0-0.7,0-1.1,0.1c-0.1-1.2-0.2-2.3-0.4-3.5C32.3,10.9,33.6,10.5,34.9,9.8z"/>
	</g>
</g>
</svg>
