<?xml version="1.0" encoding="utf-8"?>
<!-- Generator: Adobe Illustrator 21.0.0, SVG Export Plug-In . SVG Version: 6.00 Build 0)  -->
<svg version="1.1" id="Layer_1" xmlns="http://www.w3.org/2000/svg" xmlns:xlink="http://www.w3.org/1999/xlink" x="0px" y="0px"
	 viewBox="0 0 40 40" style="enable-background:new 0 0 40 40;" xml:space="preserve">
<style type="text/css">
	.st0{fill:#F49D00;}
	.st1{fill:#FFFFFF;}
	.st2{fill:#EF7C00;}
	.st3{fill:#FFFFFF;stroke:#EF7C00;stroke-miterlimit:10;}
	.st4{fill:none;stroke:#EF7C00;stroke-miterlimit:10;}
	.st5{fill:#FFFFFF;stroke:#EF7C00;stroke-width:1.2;stroke-miterlimit:10;}
	.st6{fill:none;stroke:#EF7C00;stroke-width:0.8;stroke-miterlimit:10;}
	.st7{fill:#EF7C00;stroke:#EF7C00;stroke-width:1.5;stroke-miterlimit:10;}
	.st8{fill:#EF7C00;stroke:#EF7C00;stroke-width:0.4;stroke-miterlimit:10;}
	.st9{fill:#D81922;}
	.st10{clip-path:url(#SVGID_2_);}
	.st11{fill:#EF7C00;stroke:#EF7C00;stroke-miterlimit:10;}
	.st12{fill:#EF7C00;stroke:#EF7C00;stroke-width:0.8;stroke-miterlimit:10;}
	.st13{fill:#EF7C00;stroke:#EF7C00;stroke-width:0.2;stroke-miterlimit:10;}
	.st14{fill:#FFFFFF;stroke:#FFFFFF;stroke-width:0.3;stroke-miterlimit:10;}
	.st15{fill:#EF7C00;stroke:#EF7C00;stroke-width:0.3;stroke-miterlimit:10;}
	.st16{fill:#EF7C00;stroke:#EF7C00;stroke-width:0.5;stroke-miterlimit:10;}
	.st17{clip-path:url(#SVGID_4_);}
	.st18{clip-path:url(#SVGID_6_);}
	.st19{clip-path:url(#SVGID_8_);}
</style>
<g>
	<g>
		<path class="st15" d="M13.8,39.8c-1.2-0.4-1.6-1.2-1.6-2.4c0-2.4,0-4.8,0-7.2c0-0.3-0.1-0.5-0.3-0.6c-3.5-2.6-5.2-6.1-4.9-10.4
			c0.3-3.6,2-6.5,4.9-8.6c0.2-0.2,0.4-0.3,0.3-0.7c0-2.4,0-4.8,0-7.2c0-1.2,0.4-2,1.6-2.4c3.3,0,6.5,0,9.8,0
			c1.2,0.5,1.6,1.1,1.6,2.4c0,2.4,0,4.8,0,7.2c0,0.3,0.1,0.4,0.3,0.6c2,1.4,3.4,3.3,4.3,5.6c0,0.1,0.1,0.2,0.1,0.4
			c1.9,0.1,2.9,1.2,3.1,3.1c0.1,0.7,0,1.4-0.2,2.1c-0.5,1.4-1.4,2-2.8,2c0,0.1-0.1,0.2-0.1,0.3c-0.8,2.3-2.3,4.2-4.3,5.6
			c-0.2,0.2-0.3,0.3-0.3,0.6c0,2.4,0,4.8,0,7.2c0,1.2-0.4,2-1.6,2.4C20.4,39.8,17.1,39.8,13.8,39.8z M18.7,30.4
			c5.7,0,10.4-4.6,10.4-10.4c0-5.7-4.6-10.4-10.3-10.4C13,9.6,8.3,14.2,8.3,20C8.3,25.7,13,30.4,18.7,30.4z M13.6,30.5
			c0,2.5,0,4.9,0,7.2c0,0.5,0.3,0.7,0.8,0.7c2.9,0,5.7,0,8.6,0c0.7,0,0.9-0.2,0.9-0.9c0-2.2,0-4.4,0-6.6c0-0.1,0-0.3,0-0.4
			C20.4,32.1,17,32.1,13.6,30.5z M23.9,9.5c0-2.5,0-4.8,0-7.2c0-0.5-0.3-0.7-0.8-0.7c-2.9,0-5.7,0-8.6,0c-0.7,0-0.9,0.2-0.9,0.9
			c0,2.2,0,4.4,0,6.6c0,0.1,0,0.2,0,0.4C17,7.9,20.4,7.9,23.9,9.5z M30.2,17.8c0.3,1.5,0.3,3,0,4.5c0.9-0.1,1.5-1.1,1.4-2.4
			C31.6,18.7,31,17.8,30.2,17.8z"/>
		<path class="st1" d="M13.6,30.5c3.4,1.6,6.8,1.6,10.3,0c0,0.2,0,0.3,0,0.4c0,2.2,0,4.4,0,6.6c0,0.7-0.2,0.9-0.9,0.9
			c-2.9,0-5.7,0-8.6,0c-0.5,0-0.8-0.2-0.8-0.7C13.6,35.4,13.6,33,13.6,30.5z"/>
		<path class="st1" d="M23.9,9.5c-3.4-1.6-6.8-1.6-10.3,0c0-0.1,0-0.3,0-0.4c0-2.2,0-4.4,0-6.6c0-0.7,0.2-0.9,0.9-0.9
			c2.9,0,5.7,0,8.6,0c0.5,0,0.8,0.2,0.8,0.7C23.9,4.6,23.9,7,23.9,9.5z"/>
		<path class="st2" d="M30.2,17.8c0.8,0,1.4,0.9,1.4,2c0.1,1.3-0.5,2.4-1.4,2.4C30.5,20.8,30.5,19.3,30.2,17.8z"/>
		<path class="st1" d="M18.8,9.6C13,9.6,8.3,14.2,8.3,20c0,5.7,4.6,10.4,10.4,10.4c5.7,0,10.4-4.6,10.4-10.4
			C29.1,14.3,24.5,9.6,18.8,9.6z"/>
	</g>
	<g>
		<path class="st2" d="M22,14.9c-0.4-0.1-0.9-0.2-1.3-0.3c0,0,0,0.1,0,0.1c0.3,0.5,0.8,0.8,1.4,1.1c-0.5,0.1-0.9,0.1-1.4,0
			c0.2,0.6,0.7,0.8,1.3,1c-0.5,0.1-1,0-1.5-0.1c0.4,0.5,0.9,0.8,1.4,1.1c0,0,0,0.1,0,0.1c-0.3,0-0.5,0-0.8-0.1
			c-0.3,0-0.5-0.1-0.8-0.1c0.3,0.2,0.6,0.5,0.9,0.7c-0.4,0-0.8,0-1.2-0.2c0,0.2,0,0.3,0.1,0.5c0.2,0.6,0.7,1.1,1.3,1.4
			c0.4,0.2,0.7,0.5,1.1,0.8c0.5,0.4,0.8,0.9,0.8,1.5c0,0.1,0.1,0.1,0.1,0.1c0.1,0,0.1,0,0.2-0.1c0.2-0.3,0.3-0.7,0.3-1.1
			c0-0.8,0-1.6,0.1-2.4c0-0.3,0.1-0.7,0.2-1c0.1-0.2,0.3-0.4,0.5-0.6c-0.2,0.5-0.4,1-0.2,1.6c0.2-0.5,0.5-0.8,0.9-1.1
			c0,0.1-0.1,0.2-0.1,0.3c-0.2,0.5-0.4,1-0.4,1.6c0,0.1,0,0.2,0.1,0.2c0.1,0,0.2-0.1,0.2-0.1c0.1-0.1,0.2-0.2,0.4-0.3
			c-0.1,0.8-0.2,1.6-0.4,2.3c-0.2,1-1,1.5-2,1.4c-0.1,0-0.2,0-0.3,0.1c-0.5,0.4-1,0.9-1.5,1.4c-0.3,0.3-0.6,0.6-0.5,1
			c0,0.2,0.2,0.5,0.3,0.7c0.1,0.1,0.1,0.2,0,0.4c-0.4,0.4-0.6,0.9-0.7,1.4c-0.1,0.4-0.2,0.4-0.6,0.3c0,0-0.1,0-0.1,0
			c0,0,0,0.1,0,0.1c0,0.4-0.1,0.5-0.5,0.5c-0.4,0-0.8,0-1.3,0c0.1-0.2,0.1-0.3,0.2-0.4c0.2-0.2,0.3-0.4,0.5-0.6
			c0.2-0.2,0.4-0.2,0.5-0.5c0-0.3,0.3-0.5,0.5-0.8c0.2-0.3,0.2-0.6,0.1-0.9c-0.2-0.4-0.3-0.7-0.5-1.1c-0.3-0.6-0.3-1.2-0.1-1.8
			c0.2-0.4,0.5-0.7,1-0.9c0.1,0,0.2,0,0.3-0.1c-0.6,0-0.9,0.3-1.3,0.6c-0.8-0.5-1.5-1.1-2.1-1.9c-0.2-0.2-0.3-0.4-0.5-0.6
			c-0.1-0.2-0.2-0.2-0.4-0.2c-0.4,0-0.7,0-1.1,0c0,0.1,0,0.2,0,0.3c0.1,0.3,0.3,0.7,0.3,1c0,0.4,0.2,0.5,0.5,0.7
			c0.2,0.1,0.2,0.3,0.1,0.4c-0.2,0.3-0.4,0.7-0.6,1c-0.3-0.3-0.4-0.6-0.5-1c0-0.2-0.1-0.4-0.3-0.5c-0.1,0-0.1-0.1-0.1-0.2
			c-0.2-0.7-0.3-1.4-0.5-2.1c0-0.1,0-0.2,0-0.4c0-0.2,0.1-0.3,0.4-0.4c0.8-0.1,1.5-0.3,2.1-0.8c0.4-0.3,0.7-0.6,0.9-1.1
			c0.3-0.8,0.6-1.6,0.9-2.5c0.7-0.1,1-0.5,1-1.2c-0.1,0.1-0.2,0.3-0.3,0.4c-0.2,0.3-0.5,0.4-0.9,0.3c-0.2-0.1-0.5-0.2-0.7-0.3
			c-0.3-0.1-0.6-0.1-0.9,0c-0.1,0.1-0.3,0.1-0.4,0.1c-0.5,0-0.6-0.5-0.5-1c0.1-0.3,0.3-0.4,0.7-0.5c0.4-0.1,0.8-0.2,1.2-0.3
			c0.1,0,0.2-0.1,0.2-0.2c0.3-0.4,0.6-0.6,1.1-0.6c0,0,0.1,0,0.1,0c0-0.3,0.1-0.6,0.3-0.8c0.1,0.1,0.1,0.2,0.2,0.3
			c0.1,0.2,0.2,0.5,0.5,0.6c0.1,0,0.1,0.1,0.2,0.1c0.3,0.4,0.7,0.6,1.3,0.6c0,0,0,0,0,0.1c-0.2,0.1-0.4,0.2-0.7,0.3
			c0.4,0.3,0.8,0.5,1.1,0.8c0,0,0,0,0,0.1c-0.3,0-0.7,0-1.1,0c0.3,0.2,0.6,0.4,0.8,0.6C21.6,14.4,21.9,14.6,22,14.9z"/>
		<path class="st2" d="M16.4,26.3c-0.1,0-0.1,0.1-0.1,0.1c-0.3,0.2-0.4,0.3-0.6,0c-0.3-0.3-0.6-0.6-1-0.9c0.3-0.3,0.7-0.4,1.1-0.4
			c0.1,0,0.2,0,0.3,0c0,0,0.1,0,0.1,0c0.1-0.2,0.3-0.1,0.4-0.1c0.3,0,0.7,0,1,0c0.2,0,0.3-0.1,0.3-0.3c0-0.6,0-1.3,0-1.9
			c0-0.1,0-0.1,0-0.2c0.2,0.2,0.4,0.4,0.6,0.5c0,0,0,0.1,0,0.1c-0.2,0.8-0.1,1.6,0.4,2.3c0.2,0.2,0,0.5-0.3,0.5
			c-0.6,0.1-1.2,0.2-1.7,0.6c-0.1,0.1-0.4,0.1-0.5-0.1C16.5,26.5,16.4,26.4,16.4,26.3z"/>
		<path class="st2" d="M15,16.5c-0.3,0.3-0.6,0.6-0.9,0.8c-0.1,0.1-0.1,0.1-0.2,0.1c-0.3,0-0.3,0.2-0.4,0.4
			c-0.1,0.4-0.2,0.5-0.6,0.3c-0.2-0.1-0.5-0.2-0.7-0.3c-0.1,0-0.1-0.1-0.2-0.1c0.2-0.3,0.5-0.6,0.9-0.7c0.1,0,0.2-0.1,0.2-0.2
			c0-0.1,0.1-0.2,0.2-0.2c0.5-0.4,1-0.9,1.5-1.3c0.3-0.2,0.4-0.2,0.6,0c0.4,0.4,0.9,0.9,1.3,1.4c0,0,0,0.1,0,0.2
			c-0.2,0.3-0.4,0.5-0.7,0.8c-0.1,0.1-0.2,0-0.2,0C15.5,17.2,15.3,16.9,15,16.5z"/>
	</g>
</g>
</svg>
