<?xml version="1.0" encoding="utf-8"?>
<!-- Generator: Adobe Illustrator 21.0.0, SVG Export Plug-In . SVG Version: 6.00 Build 0)  -->
<svg version="1.1" id="Layer_1" xmlns="http://www.w3.org/2000/svg" xmlns:xlink="http://www.w3.org/1999/xlink" x="0px" y="0px"
	 viewBox="0 0 40 40" style="enable-background:new 0 0 40 40;" xml:space="preserve">
<style type="text/css">
	.st0{fill:#F49D00;}
	.st1{fill:#FFFFFF;}
	.st2{fill:#EF7C00;}
	.st3{fill:#FFFFFF;stroke:#EF7C00;stroke-miterlimit:10;}
	.st4{fill:none;stroke:#EF7C00;stroke-miterlimit:10;}
	.st5{fill:#FFFFFF;stroke:#EF7C00;stroke-width:1.2;stroke-miterlimit:10;}
	.st6{fill:none;stroke:#EF7C00;stroke-width:0.8;stroke-miterlimit:10;}
	.st7{fill:#EF7C00;stroke:#EF7C00;stroke-width:1.5;stroke-miterlimit:10;}
	.st8{fill:#EF7C00;stroke:#EF7C00;stroke-width:0.4;stroke-miterlimit:10;}
	.st9{fill:#D81922;}
	.st10{clip-path:url(#SVGID_2_);}
	.st11{fill:#EF7C00;stroke:#EF7C00;stroke-miterlimit:10;}
	.st12{fill:#EF7C00;stroke:#EF7C00;stroke-width:0.8;stroke-miterlimit:10;}
	.st13{fill:#EF7C00;stroke:#EF7C00;stroke-width:0.2;stroke-miterlimit:10;}
	.st14{fill:#FFFFFF;stroke:#FFFFFF;stroke-width:0.3;stroke-miterlimit:10;}
	.st15{fill:#EF7C00;stroke:#EF7C00;stroke-width:0.3;stroke-miterlimit:10;}
	.st16{fill:#EF7C00;stroke:#EF7C00;stroke-width:0.5;stroke-miterlimit:10;}
	.st17{clip-path:url(#SVGID_4_);}
	.st18{clip-path:url(#SVGID_6_);}
	.st19{clip-path:url(#SVGID_8_);}
</style>
<g>
	<g>
		<path class="st13" d="M24.5,12.8c0,0.3,0,0.6,0,1c0,0.1,0,0.1,0,0.2c-0.1,1.1-0.4,2.2-0.9,3.1c-1.3,2.4-3.3,3.9-6,4.4
			c-0.3,0.1-0.6,0.1-0.9,0.1c-0.3,0-0.6,0-1,0c0,0-0.1,0-0.1,0c-0.5-0.1-1-0.1-1.5-0.3c-3.1-0.8-5.5-3.4-6.1-6.6
			c-0.1-0.3-0.1-0.6-0.1-0.9c0-0.3,0-0.7,0-1c0-0.1,0-0.2,0-0.4c0.2-1.4,0.6-2.6,1.4-3.7c1.3-2,3.2-3.2,5.5-3.6
			C15.1,5,15.4,5,15.7,4.9c0.3,0,0.6,0,1,0C17,5,17.2,5,17.5,5c1.6,0.3,3,0.9,4.2,2c1.5,1.3,2.4,2.9,2.7,4.8
			C24.4,12.1,24.5,12.5,24.5,12.8z M22.3,8.6c-0.8,0.3-1.5,0.6-2.3,0.9c0.3,1.1,0.4,2.3,0.5,3.4c1.1,0,2.2,0,3.3,0
			C23.8,11.3,23.2,9.9,22.3,8.6z M11.9,12.9c0-1.2,0.2-2.3,0.5-3.5c-0.4-0.1-0.8-0.3-1.2-0.4c-0.4-0.1-0.7-0.3-1.1-0.5
			c-1,1.3-1.5,2.7-1.5,4.3C9.7,12.9,10.8,12.9,11.9,12.9z M22.3,17.9c0.9-1.3,1.5-2.7,1.5-4.3c-1.1,0-2.2,0-3.3,0
			c0,1.2-0.2,2.3-0.5,3.4C20.8,17.3,21.5,17.6,22.3,17.9z M11.9,13.6c-1.1,0-2.2,0-3.3,0c0.1,1.6,0.6,3.1,1.5,4.3
			c0.8-0.3,1.5-0.6,2.3-0.9C12,15.9,11.9,14.8,11.9,13.6z M13,9.6c-0.3,1.1-0.4,2.2-0.4,3.3c1.1,0,2.2,0,3.3,0c0-1,0-2,0-2.9
			C14.9,9.9,13.9,9.8,13,9.6z M16.5,12.9c1.1,0,2.2,0,3.3,0c0-1.1-0.2-2.2-0.4-3.3c-1,0.1-1.9,0.2-2.9,0.3
			C16.5,10.9,16.5,11.9,16.5,12.9z M13,16.9c1-0.1,1.9-0.2,2.9-0.3c0-1,0-2,0-2.9c-1.1,0-2.2,0-3.3,0C12.6,14.7,12.7,15.8,13,16.9z
			 M19.4,16.9c0.3-1.1,0.4-2.2,0.4-3.3c-1.1,0-2.2,0-3.3,0c0,1,0,2,0,2.9C17.5,16.7,18.4,16.8,19.4,16.9z M15.9,5.7
			C15.8,5.7,15.8,5.6,15.9,5.7c-0.1,0-0.1,0-0.2,0c-0.4,0.1-0.7,0.3-1,0.6c-0.6,0.6-1,1.3-1.4,2.1c-0.1,0.2-0.1,0.4-0.2,0.6
			c0.5,0.2,2.3,0.4,2.7,0.3C15.9,8,15.9,6.9,15.9,5.7z M13.2,17.6c0.3,0.8,0.6,1.5,1.1,2.2c0.3,0.4,0.7,0.8,1.2,1
			c0.1,0.1,0.3,0.1,0.4,0.2c0-1.2,0-2.4,0-3.6C14.9,17.3,14.1,17.4,13.2,17.6z M19.2,9C19.2,8.9,19.2,8.9,19.2,9
			c-0.2-0.8-0.5-1.5-1-2.1c-0.4-0.5-0.8-0.9-1.4-1.2c-0.1,0-0.2,0-0.3-0.1c0,1.2,0,2.4,0,3.6C17.4,9.2,18.3,9.1,19.2,9z M16.5,20.9
			c0.2,0,0.5-0.1,0.8-0.3c1-0.7,1.5-1.8,1.9-3c-0.9-0.2-1.8-0.3-2.7-0.3C16.5,18.5,16.5,19.7,16.5,20.9z M21.8,8.1
			c-1-1.1-2.2-1.8-3.6-2.2c0.4,0.4,0.7,0.9,1,1.4c0.2,0.5,0.5,1,0.7,1.5C20.5,8.6,21.2,8.4,21.8,8.1z M18.2,20.6
			c1.4-0.4,2.6-1.1,3.6-2.2c-0.3-0.2-1.7-0.7-2-0.8C19.5,18.8,19,19.8,18.2,20.6z M12.5,8.8c0.4-1.1,0.9-2.1,1.6-2.9
			c-1.4,0.4-2.6,1.1-3.6,2.2C11.2,8.4,11.8,8.6,12.5,8.8z M14.2,20.6c-0.8-0.8-1.3-1.9-1.6-2.9c-0.7,0.2-1.4,0.4-2,0.8
			C11.6,19.5,12.8,20.3,14.2,20.6z"/>
	</g>
	<g>
		<g>
			<path class="st2" d="M20.4,22.3c0.8,0,1.5,0,2.3,0c0.1,0,0.2,0.1,0.2,0.2c0.5,0.7,1,1.3,1.5,2c0.1,0.2,0.3,0.3,0.5,0.3
				c0.8,0,1.5,0,2.3,0c-0.7-2.2-1.4-4.4-2.1-6.6c0.8,0,1.5,0,2.3,0c0.1,0,0.2,0.1,0.2,0.2c1.2,2,2.4,3.9,3.5,5.9
				c0.2,0.4,0.5,0.5,0.9,0.5c1.7,0,3.5,0,5.2,0c0.6,0,1.1,0.1,1.7,0.4c0.9,0.4,1.2,1.3,0.9,2.2c-0.3,0.7-0.8,1-1.5,1.1
				c-0.4,0.1-0.8,0.1-1.1,0.1c-1.8,0-3.7,0-5.5,0c-0.2,0-0.3,0.1-0.4,0.2c-1.2,2.1-2.5,4.1-3.7,6.2c-0.1,0.2-0.2,0.2-0.4,0.2
				c-0.7,0-1.4,0-2.1,0c0.7-2.2,1.4-4.4,2.1-6.6c-0.1,0-0.1,0-0.2,0c-0.7,0-1.5,0-2.2,0c-0.1,0-0.3,0.1-0.3,0.2
				c-0.5,0.7-1.1,1.3-1.6,2c-0.1,0.1-0.2,0.2-0.4,0.2c-0.7,0-1.4,0-2.1,0c0.2-0.5,0.3-1,0.5-1.5c0.3-0.8,0.5-1.7,0.8-2.5
				c0-0.1,0-0.3,0-0.4c-0.4-1.3-0.8-2.5-1.2-3.8C20.4,22.5,20.4,22.4,20.4,22.3z"/>
			<path class="st2" d="M24.5,32.4c-0.4,0.3-0.8,0.6-1.2,0.9c-0.1,0.1-0.5,0.1-0.8,0.1c-6.7,0-13.4,0-20.1,0C1,33.4,0,33.2,0,32.9
				c0-0.3,1-0.5,2.3-0.5c7.3,0,14.6,0,21.8,0C24.2,32.4,24.3,32.4,24.5,32.4z"/>
			<path class="st2" d="M19.7,23.9c-0.7,0-1.4,0-2.1,0c-0.3,0-0.5-0.3-0.5-0.5c0-0.3,0.2-0.5,0.5-0.5c0.5,0,1.1,0,1.6,0
				c0.1,0,0.1,0.1,0.2,0.1C19.5,23.3,19.6,23.6,19.7,23.9z"/>
			<path class="st2" d="M19.7,29.2c-0.1,0.3-0.2,0.6-0.3,0.9c0,0.1-0.1,0.1-0.2,0.1c-0.5,0-1,0-1.5,0c-0.3,0-0.6-0.2-0.6-0.5
				c0-0.3,0.2-0.5,0.5-0.5C18.4,29.2,19,29.2,19.7,29.2z"/>
		</g>
		<g>
			<path class="st2" d="M10.9,32.5h-1c-0.1,0-0.2-0.1-0.2-0.2v-7.8c0-0.1,0.1-0.2,0.2-0.2h1c0.1,0,0.2,0.1,0.2,0.2v7.8
				C11.1,32.4,11,32.5,10.9,32.5z"/>
			<polygon class="st5" points="2.6,13.8 18.3,13.8 10.5,24.8 			"/>
		</g>
	</g>
</g>
</svg>
