<?xml version="1.0" encoding="utf-8"?>
<!-- Generator: Adobe Illustrator 21.0.0, SVG Export Plug-In . SVG Version: 6.00 Build 0)  -->
<svg version="1.1" id="Layer_1" xmlns="http://www.w3.org/2000/svg" xmlns:xlink="http://www.w3.org/1999/xlink" x="0px" y="0px"
	 viewBox="0 0 40 40" style="enable-background:new 0 0 40 40;" xml:space="preserve">
<style type="text/css">
	.st0{fill:#F49D00;}
	.st1{fill:#FFFFFF;}
	.st2{fill:#EF7C00;}
	.st3{fill:#FFFFFF;stroke:#EF7C00;stroke-miterlimit:10;}
	.st4{fill:none;stroke:#EF7C00;stroke-miterlimit:10;}
	.st5{fill:#FFFFFF;stroke:#EF7C00;stroke-width:1.2;stroke-miterlimit:10;}
	.st6{fill:none;stroke:#EF7C00;stroke-width:0.8;stroke-miterlimit:10;}
	.st7{fill:#EF7C00;stroke:#EF7C00;stroke-width:1.5;stroke-miterlimit:10;}
	.st8{fill:#EF7C00;stroke:#EF7C00;stroke-width:0.4;stroke-miterlimit:10;}
	.st9{fill:#D81922;}
	.st10{clip-path:url(#SVGID_2_);}
	.st11{fill:#EF7C00;stroke:#EF7C00;stroke-miterlimit:10;}
	.st12{fill:#EF7C00;stroke:#EF7C00;stroke-width:0.8;stroke-miterlimit:10;}
	.st13{fill:#EF7C00;stroke:#EF7C00;stroke-width:0.2;stroke-miterlimit:10;}
	.st14{fill:#FFFFFF;stroke:#FFFFFF;stroke-width:0.3;stroke-miterlimit:10;}
	.st15{fill:#EF7C00;stroke:#EF7C00;stroke-width:0.3;stroke-miterlimit:10;}
	.st16{fill:#EF7C00;stroke:#EF7C00;stroke-width:0.5;stroke-miterlimit:10;}
	.st17{clip-path:url(#SVGID_4_);}
	.st18{clip-path:url(#SVGID_6_);}
	.st19{clip-path:url(#SVGID_8_);}
</style>
<g>
	<g>
		<g>
			<path class="st9" d="M18.7,26.9c0-1.1-0.5-1.7-1.4-1.9c-0.9-0.2-1.5,0.2-2,1.3c-1-0.2-2.1-0.3-3.1-0.5c0-0.3,0.1-0.6,0.1-0.8
				c0.4-2.5,0.8-5,1.2-7.5c0-0.1,0.1-0.3,0.3-0.4c0.3-0.2,0.6-0.4,0.9-0.6c0.3,0.3,0.5,0.7,0.8,1c0.4-0.2,0.7-0.5,1.1-0.7
				c0.3,0.3,0.5,0.7,0.8,1c0.4-0.2,0.7-0.5,1.1-0.7c0.3,0.3,0.5,0.7,0.8,1c0.4-0.2,0.7-0.5,1.1-0.7c0.3,0.3,0.5,0.7,0.8,1
				c0.4-0.2,0.7-0.5,1.1-0.7c0.3,0.3,0.5,0.6,0.7,0.9c0.1,0.1,0.1,0.2,0.1,0.3c-0.4,2.8-0.9,5.5-1.3,8.3c0,0,0,0,0,0.1
				C20.9,27.2,19.8,27.1,18.7,26.9z M16.6,20.5c0.2,0,0.3,0,0.4-0.1c0.7-0.1,0.9,0.1,1,0.8c0.1,0.9,0.3,1.8,0.4,2.7
				c0,0.3,0.1,0.5,0.4,0.4c0.3,0,0.3-0.3,0.3-0.5c-0.1-1-0.3-2-0.4-2.9c-0.1-0.8-0.7-1.3-1.5-1.2c-1,0.1-2,0.3-2.9,0.4
				c-0.2,0-0.4,0.2-0.3,0.4c0.2,1.3,0.4,2.7,0.6,4c0,0.1,0.2,0.3,0.4,0.3c0.2,0,0.3-0.2,0.3-0.4c0-0.1,0-0.1,0-0.2
				c-0.1-1-0.3-2-0.4-3.1c0-0.1,0-0.2-0.1-0.4c0.4-0.1,0.8-0.1,1.2-0.2c0,0.2,0,0.3,0.1,0.4c0.1,1,0.3,2.1,0.4,3.1
				c0,0.3,0.1,0.5,0.4,0.4c0.2,0,0.3-0.2,0.3-0.5C16.9,22.9,16.7,21.7,16.6,20.5z M20.8,22.1C20.8,22.1,20.7,22.1,20.8,22.1
				c-0.4-0.8-0.8-1.6-1.2-2.4c-0.1-0.2-0.2-0.5-0.5-0.3c-0.3,0.1-0.2,0.4-0.1,0.6c0.3,0.7,0.6,1.4,0.9,2c0.4,0.8,0.8,1.6,0.5,2.5
				c0,0,0,0,0,0c0,0.3-0.2,0.5-0.5,0.6c-0.3,0.1-0.4,0.2-0.3,0.5c0.1,0.3,0.3,0.3,0.5,0.2c0.6-0.2,0.9-0.6,1-1.1
				c0.1-1,0.3-1.9,0.4-2.9c0.1-0.8,0.2-1.6,0.4-2.3c0.1-0.4-0.2-0.6-0.4-0.5c-0.1,0.1-0.2,0.2-0.3,0.4C21,20.3,20.9,21.2,20.8,22.1z
				"/>
			<path class="st1" d="M16.6,20.5c0.2,1.2,0.3,2.4,0.5,3.6c0,0.2,0,0.4-0.3,0.5c-0.3,0.1-0.4-0.1-0.4-0.4c-0.1-1-0.3-2.1-0.4-3.1
				c0-0.1,0-0.3-0.1-0.4c-0.4,0.1-0.8,0.1-1.2,0.2c0,0.1,0,0.2,0.1,0.4c0.1,1,0.3,2,0.4,3.1c0,0.1,0,0.1,0,0.2
				c0,0.2-0.1,0.4-0.3,0.4c-0.1,0-0.4-0.2-0.4-0.3c-0.2-1.3-0.4-2.7-0.6-4c0-0.3,0.1-0.4,0.3-0.4c1-0.1,1.9-0.3,2.9-0.4
				c0.8-0.1,1.3,0.4,1.5,1.2c0.1,1,0.3,1.9,0.4,2.9c0,0.2,0,0.5-0.3,0.5c-0.3,0-0.4-0.2-0.4-0.4c-0.1-0.9-0.2-1.8-0.4-2.7
				c-0.1-0.7-0.3-0.9-1-0.8C16.8,20.4,16.7,20.4,16.6,20.5z"/>
			<path class="st1" d="M20.8,22.1c0.1-0.9,0.3-1.8,0.4-2.6c0-0.1,0.1-0.3,0.3-0.4c0.3-0.1,0.5,0.1,0.4,0.5
				c-0.1,0.8-0.2,1.6-0.4,2.3c-0.1,1-0.3,1.9-0.4,2.9c-0.1,0.6-0.4,1-1,1.1c-0.2,0.1-0.5,0.1-0.5-0.2c-0.1-0.3,0.1-0.4,0.3-0.5
				c0.3-0.1,0.5-0.3,0.5-0.6c0,0,0,0,0,0c0.4-0.9-0.1-1.7-0.5-2.5c-0.3-0.7-0.6-1.4-0.9-2c-0.1-0.2-0.2-0.5,0.1-0.6
				c0.3-0.1,0.4,0.1,0.5,0.3C20,20.5,20.3,21.3,20.8,22.1C20.7,22.1,20.8,22.1,20.8,22.1z"/>
		</g>
		<g>
			<defs>
				<polygon id="SVGID_1_" points="2.3,12.3 2.7,19.2 39.2,13.7 37.2,3.1 				"/>
			</defs>
			<clipPath id="SVGID_2_">
				<use xlink:href="#SVGID_1_"  style="overflow:visible;"/>
			</clipPath>
			<g class="st10">
				<path class="st11" d="M38.8,29.9c-0.1,0.3-0.1,0.6-0.3,0.9c-0.4,0.8-1.1,1.3-2,1.5c-9.4,1.3-18.7,2.6-28.1,3.9
					c-1.3,0.2-2.6,0.4-3.9,0.5c-1.3,0.2-2.2-0.3-2.8-1.5c0,0,0-0.1-0.1-0.1c-0.3-1.9-0.5-3.9-0.8-5.8C1,29,1.2,28.8,1.4,28.6
					c1.5-1.1,2.1-2.6,1.9-4.4c-0.3-1.8-1.3-3.1-3-3.7C0,20.4-0.2,20.1-0.5,20c-0.3-1.9-0.5-3.8-0.8-5.7c0.1-0.4,0.2-0.8,0.4-1.1
					c0.4-0.7,1-1.1,1.9-1.2c5.4-0.7,10.7-1.5,16.1-2.2C22.2,9,27.4,8.3,32.5,7.5c1.5-0.2,2.6,0.1,3.3,1.6c0.3,1.9,0.5,3.8,0.8,5.7
					c-0.2,0.2-0.4,0.5-0.6,0.7c-1.4,1.1-2.1,2.6-1.8,4.4c0.3,1.8,1.3,3,3,3.7c0.3,0.1,0.5,0.3,0.8,0.5C38.2,26,38.5,27.9,38.8,29.9z
					 M20.2,32.9c5.4-0.7,10.7-1.5,16.1-2.2c0.7-0.1,0.9-0.3,0.8-1c-0.2-1.4-0.4-2.8-0.6-4.2c0-0.3-0.2-0.4-0.4-0.5
					c-1.9-1-3.1-2.5-3.4-4.6c-0.4-2.2,0.4-4.1,2-5.7c0.1-0.1,0.3-0.3,0.2-0.4c-0.2-1.5-0.4-3-0.6-4.5C34.3,9.1,34,8.9,33.5,9
					c-0.7,0.1-1.5,0.2-2.2,0.3c-10.1,1.4-20.1,2.8-30.2,4.2c-0.7,0.1-0.9,0.3-0.8,1.1c0.2,1.4,0.4,2.8,0.6,4.2
					c0,0.3,0.2,0.4,0.4,0.5c1.8,0.9,3.1,2.4,3.4,4.5c0.4,2.3-0.3,4.2-2,5.8c-0.2,0.2-0.3,0.4-0.2,0.7c0.2,1.4,0.4,2.7,0.6,4.1
					c0.1,0.8,0.3,0.9,1.1,0.8C9.5,34.4,14.9,33.6,20.2,32.9z"/>
				<path class="st1" d="M38,24.1c-0.3-0.2-0.5-0.4-0.8-0.5c-1.7-0.7-2.7-1.9-3-3.7c-0.3-1.8,0.4-3.3,1.8-4.4
					c0.2-0.2,0.4-0.5,0.6-0.7C37.1,17.9,37.5,21,38,24.1z"/>
				<path class="st2" d="M4.2,14.6c0.5-0.1,0.9,0.2,1,0.7c0.1,0.5-0.3,0.8-0.8,0.9c-0.5,0.1-0.9-0.2-0.9-0.6
					C3.4,15.1,3.8,14.7,4.2,14.6z"/>
				<path class="st2" d="M13.7,14.9c-0.5,0.1-0.9-0.2-1-0.7c-0.1-0.5,0.3-0.8,0.8-0.9c0.5-0.1,0.9,0.2,0.9,0.7
					C14.5,14.4,14.2,14.8,13.7,14.9z"/>
				<path class="st2" d="M7.6,15.7c-0.5,0.1-0.9-0.2-1-0.7c-0.1-0.4,0.2-0.8,0.7-0.9c0.5-0.1,0.9,0.2,1,0.6
					C8.4,15.3,8.1,15.6,7.6,15.7z"/>
				<path class="st2" d="M10.6,15.3c-0.5,0.1-0.9-0.2-1-0.7c-0.1-0.5,0.3-0.8,0.8-0.9c0.5-0.1,0.9,0.2,0.9,0.7
					C11.5,14.9,11.1,15.2,10.6,15.3z"/>
				<path class="st2" d="M16.1,31.9c-0.5,0.1-0.9-0.2-1-0.6c-0.1-0.4,0.2-0.8,0.7-0.9c0.5-0.1,0.9,0.2,1,0.7
					C16.9,31.4,16.6,31.8,16.1,31.9z"/>
				<path class="st2" d="M16.8,14.4c-0.5,0.1-0.9-0.2-1-0.6c-0.1-0.5,0.2-0.8,0.7-0.9c0.5-0.1,0.9,0.2,0.9,0.6
					C17.6,14,17.4,14.4,16.8,14.4z"/>
				<path class="st2" d="M19.9,14c-0.5,0.1-0.9-0.2-1-0.7c0-0.5,0.3-0.8,0.8-0.9c0.5-0.1,0.9,0.2,0.9,0.7
					C20.7,13.6,20.4,13.9,19.9,14z"/>
				<path class="st2" d="M23,13.6c-0.5,0.1-0.9-0.2-1-0.7c-0.1-0.5,0.3-0.8,0.8-0.9c0.5-0.1,0.9,0.2,0.9,0.7
					C23.8,13.1,23.5,13.5,23,13.6z"/>
				<path class="st2" d="M6.8,33.2c-0.5,0.1-0.9-0.2-1-0.6c-0.1-0.5,0.2-0.8,0.7-0.9c0.5-0.1,0.9,0.2,1,0.7
					C7.6,32.7,7.3,33.1,6.8,33.2z"/>
				<path class="st2" d="M9.9,32.7C9.4,32.8,9,32.5,9,32.1c-0.1-0.5,0.2-0.8,0.8-0.9c0.5-0.1,0.9,0.2,0.9,0.7
					C10.7,32.3,10.4,32.7,9.9,32.7z"/>
				<path class="st2" d="M13,32.3c-0.5,0.1-0.9-0.2-1-0.7c-0.1-0.4,0.2-0.8,0.7-0.9c0.5-0.1,0.9,0.2,1,0.6
					C13.8,31.9,13.5,32.2,13,32.3z"/>
				<path class="st2" d="M34.4,27.8c0.5-0.1,0.9,0.2,1,0.6c0.1,0.5-0.2,0.8-0.7,0.9c-0.5,0.1-0.9-0.2-1-0.6
					C33.6,28.2,33.9,27.8,34.4,27.8z"/>
				<path class="st2" d="M22.3,31c-0.5,0.1-0.9-0.2-1-0.7c-0.1-0.4,0.2-0.8,0.7-0.9c0.5-0.1,0.9,0.2,1,0.6
					C23.1,30.6,22.8,31,22.3,31z"/>
				<path class="st2" d="M25.4,30.6c-0.5,0.1-0.9-0.2-1-0.6c-0.1-0.5,0.2-0.8,0.7-0.9c0.5-0.1,0.9,0.2,1,0.7
					C26.2,30.2,25.9,30.5,25.4,30.6z"/>
				<path class="st2" d="M28.3,28.6c0.5-0.1,0.9,0.2,1,0.6c0.1,0.4-0.2,0.8-0.7,0.9c-0.5,0.1-0.9-0.2-1-0.6
					C27.5,29.1,27.7,28.7,28.3,28.6z"/>
				<path class="st2" d="M19.2,31.5c-0.5,0.1-0.9-0.2-0.9-0.7c-0.1-0.5,0.2-0.8,0.8-0.9c0.5-0.1,0.9,0.2,0.9,0.7
					C20,31,19.7,31.4,19.2,31.5z"/>
				<path class="st2" d="M31.4,28.2c0.5-0.1,0.9,0.2,0.9,0.6c0.1,0.4-0.2,0.8-0.7,0.9c-0.5,0.1-0.9-0.2-1-0.7
					C30.6,28.6,30.9,28.3,31.4,28.2z"/>
				<path class="st1" d="M20.5,24c-0.3-0.2-0.6-0.3-0.9-0.5c-0.4-0.2-0.8-0.2-1.1,0.1c-0.3,0.3-0.6,0.5-0.9,0.7
					c0.1-0.3,0.1-0.6,0.2-1c0.1-0.7,0-0.9-0.6-1.2c-0.3-0.2-0.6-0.3-0.9-0.5c0,0,0-0.1,0-0.1c0.4-0.1,0.7-0.1,1.1-0.2
					c0.6-0.1,0.7-0.3,0.8-0.8c0.1-0.4,0.1-0.7,0.3-1.1c0.2,0.3,0.3,0.6,0.5,0.9c0.3,0.6,0.5,0.7,1.2,0.6c0.3,0,0.7-0.1,1-0.1
					c0,0,0,0.1,0,0.1c-0.2,0.2-0.4,0.4-0.6,0.6c-0.6,0.6-0.6,0.7-0.3,1.4C20.3,23.4,20.5,23.7,20.5,24C20.6,24,20.5,24,20.5,24z"/>
				<path class="st1" d="M36.2,24.9c-1.9-1-3.1-2.5-3.4-4.6c-0.4-2.2,0.4-4.1,2-5.7c0.1-0.1,0.3-0.3,0.2-0.4c-0.2-1.5-0.4-3-0.6-4.5
					C34.3,9.1,34,8.9,33.5,9c-0.7,0.1-1.5,0.2-2.2,0.3c-10.1,1.4-20.1,2.8-30.2,4.2c-0.7,0.1-0.9,0.3-0.8,1.1
					c0.2,1.4,0.4,2.8,0.6,4.2c0,0.3,0.2,0.4,0.4,0.5c1.8,0.9,3.1,2.4,3.4,4.5c0.4,2.3-0.3,4.2-2,5.8c-0.2,0.2-0.3,0.4-0.2,0.7
					c0.2,1.4,0.4,2.7,0.6,4.1c0.1,0.8,0.3,0.9,1.1,0.8c5.3-0.7,10.7-1.5,16-2.2c5.4-0.7,10.7-1.5,16.1-2.2c0.7-0.1,0.9-0.3,0.8-1
					c-0.2-1.4-0.4-2.8-0.6-4.2C36.5,25.1,36.4,25,36.2,24.9z M32.1,10.7c0.5-0.1,0.9,0.2,0.9,0.6c0.1,0.5-0.2,0.8-0.7,0.9
					c-0.5,0.1-0.9-0.2-1-0.6C31.3,11.2,31.6,10.8,32.1,10.7z M19.7,12.5c0.5-0.1,0.9,0.2,0.9,0.7c0.1,0.4-0.3,0.8-0.8,0.9
					c-0.5,0.1-0.9-0.2-1-0.7C18.9,12.9,19.2,12.5,19.7,12.5z M16.6,12.9c0.5-0.1,0.9,0.2,0.9,0.6c0.1,0.5-0.2,0.8-0.7,0.9
					c-0.5,0.1-0.9-0.2-1-0.6C15.8,13.3,16.1,13,16.6,12.9z M13.5,13.3c0.5-0.1,0.9,0.2,0.9,0.7c0.1,0.5-0.2,0.8-0.7,0.9
					c-0.5,0.1-0.9-0.2-1-0.7C12.7,13.7,13,13.4,13.5,13.3z M10.5,13.7c0.5-0.1,0.9,0.2,0.9,0.7c0.1,0.5-0.3,0.8-0.8,0.9
					c-0.5,0.1-0.9-0.2-1-0.7C9.6,14.2,10,13.8,10.5,13.7z M7.3,14.2c0.5-0.1,0.9,0.2,1,0.6c0.1,0.5-0.2,0.8-0.7,0.9
					c-0.5,0.1-0.9-0.2-1-0.7C6.5,14.6,6.8,14.2,7.3,14.2z M3.5,15.5c-0.1-0.4,0.3-0.8,0.7-0.9c0.5-0.1,0.9,0.2,1,0.7
					c0.1,0.5-0.3,0.8-0.8,0.9C4,16.2,3.6,15.9,3.5,15.5z M6.8,33.2c-0.5,0.1-0.9-0.2-1-0.6c-0.1-0.5,0.2-0.8,0.7-0.9
					c0.5-0.1,0.9,0.2,1,0.7C7.6,32.7,7.3,33.1,6.8,33.2z M9.9,32.7C9.4,32.8,9,32.5,9,32.1c-0.1-0.5,0.2-0.8,0.8-0.9
					c0.5-0.1,0.9,0.2,0.9,0.7C10.7,32.3,10.4,32.7,9.9,32.7z M13,32.3c-0.5,0.1-0.9-0.2-1-0.7c-0.1-0.4,0.2-0.8,0.7-0.9
					c0.5-0.1,0.9,0.2,1,0.6C13.8,31.9,13.5,32.2,13,32.3z M16.1,31.9c-0.5,0.1-0.9-0.2-1-0.6c-0.1-0.4,0.2-0.8,0.7-0.9
					c0.5-0.1,0.9,0.2,1,0.7C16.9,31.4,16.6,31.8,16.1,31.9z M19.2,31.5c-0.5,0.1-0.9-0.2-0.9-0.7c-0.1-0.5,0.2-0.8,0.8-0.9
					c0.5-0.1,0.9,0.2,0.9,0.7C20,31,19.7,31.4,19.2,31.5z M22.3,31c-0.5,0.1-0.9-0.2-1-0.7c-0.1-0.4,0.2-0.8,0.7-0.9
					c0.5-0.1,0.9,0.2,1,0.6C23.1,30.6,22.8,31,22.3,31z M25.4,30.6c-0.5,0.1-0.9-0.2-1-0.6c-0.1-0.5,0.2-0.8,0.7-0.9
					c0.5-0.1,0.9,0.2,1,0.7C26.2,30.2,25.9,30.5,25.4,30.6z M23,13.6c-0.5,0.1-0.9-0.2-1-0.7c-0.1-0.5,0.3-0.8,0.8-0.9
					c0.5-0.1,0.9,0.2,0.9,0.7C23.8,13.1,23.5,13.5,23,13.6z M25.9,11.6c0.5-0.1,0.9,0.2,1,0.6c0.1,0.5-0.2,0.8-0.7,0.9
					c-0.5,0.1-0.9-0.2-1-0.7C25.1,12,25.4,11.7,25.9,11.6z M28.5,30.2c-0.5,0.1-0.9-0.2-1-0.6c-0.1-0.5,0.2-0.8,0.7-0.9
					c0.5-0.1,0.9,0.2,1,0.6C29.3,29.7,29,30.1,28.5,30.2z M29,11.2c0.5-0.1,0.9,0.2,1,0.6c0.1,0.4-0.2,0.8-0.7,0.9
					c-0.5,0.1-0.9-0.2-1-0.6C28.2,11.6,28.5,11.2,29,11.2z M31.6,29.7c-0.5,0.1-0.9-0.2-1-0.7c-0.1-0.5,0.3-0.8,0.8-0.9
					c0.5-0.1,0.9,0.2,0.9,0.6C32.4,29.3,32.1,29.7,31.6,29.7z M34.7,29.3c-0.5,0.1-0.9-0.2-1-0.6c-0.1-0.5,0.2-0.8,0.7-0.9
					c0.5-0.1,0.9,0.2,1,0.6C35.5,28.9,35.2,29.2,34.7,29.3z"/>
			</g>
		</g>
		<rect x="24.5" y="10.7" class="st1" width="8.7" height="3.4"/>
	</g>
	<g>
		<g>
			<path class="st11" d="M38.3,34.9c-0.1,0.3-0.2,0.6-0.4,0.9c-0.5,0.8-1.2,1.2-2.2,1.2c-9.5,0-18.9,0-28.4,0c-1.3,0-2.6,0-3.9,0
				c-1.3,0-2.2-0.6-2.6-1.9c0,0,0-0.1-0.1-0.1c0-2,0-3.9,0-5.9c0.2-0.2,0.4-0.4,0.7-0.6c1.6-0.9,2.5-2.3,2.5-4.1
				c0-1.8-0.8-3.2-2.5-4.1c-0.2-0.1-0.4-0.4-0.6-0.6c0-1.9,0-3.9,0-5.8c0.2-0.4,0.3-0.7,0.5-1.1c0.5-0.7,1.2-1,2-1
				c5.4,0,10.8,0,16.2,0c5.2,0,10.4,0,15.6,0c1.5,0,2.6,0.5,3.1,2c0,1.9,0,3.9,0,5.8c-0.2,0.2-0.4,0.4-0.7,0.6
				c-1.6,0.9-2.4,2.3-2.4,4.1c0,1.8,0.8,3.2,2.4,4.1c0.3,0.1,0.5,0.4,0.7,0.6C38.3,31,38.3,32.9,38.3,34.9z M19.5,35.3
				c5.4,0,10.8,0,16.3,0c0.8,0,0.9-0.2,0.9-0.9c0-1.4,0-2.8,0-4.2c0-0.3-0.1-0.4-0.3-0.6c-1.7-1.2-2.7-2.9-2.8-5
				c-0.1-2.3,1-4,2.8-5.4c0.1-0.1,0.3-0.3,0.3-0.4c0-1.5,0-3.1,0-4.6c0-0.5-0.2-0.7-0.8-0.7c-0.7,0-1.5,0-2.2,0
				c-10.2,0-20.3,0-30.5,0c-0.7,0-0.9,0.2-0.9,0.9c0,1.4,0,2.8,0,4.2c0,0.3,0.1,0.4,0.3,0.6c1.7,1.2,2.7,2.8,2.8,4.9
				c0.1,2.3-0.9,4.1-2.8,5.5c-0.2,0.2-0.3,0.3-0.3,0.6c0,1.4,0,2.8,0,4.1c0,0.8,0.2,1,1,1C8.7,35.3,14.1,35.3,19.5,35.3z"/>
			<path class="st2" d="M6.2,15c0.5,0,0.9,0.3,0.9,0.8c0,0.5-0.4,0.8-0.9,0.8c-0.5,0-0.8-0.3-0.8-0.8C5.3,15.4,5.7,15,6.2,15z"/>
			<path class="st2" d="M15.6,16.6c-0.5,0-0.9-0.3-0.9-0.8c0-0.5,0.4-0.8,0.9-0.8c0.5,0,0.8,0.3,0.8,0.8
				C16.4,16.3,16.1,16.6,15.6,16.6z"/>
			<path class="st2" d="M9.3,16.6c-0.5,0-0.9-0.3-0.9-0.8c0-0.5,0.3-0.8,0.8-0.8c0.5,0,0.9,0.3,0.9,0.8C10.2,16.3,9.8,16.6,9.3,16.6
				z"/>
			<path class="st2" d="M12.4,16.6c-0.5,0-0.9-0.3-0.8-0.8c0-0.5,0.4-0.8,0.9-0.8c0.5,0,0.8,0.3,0.8,0.8
				C13.3,16.3,12.9,16.6,12.4,16.6z"/>
			<path class="st2" d="M15.6,33.8c-0.5,0-0.9-0.3-0.9-0.8c0-0.4,0.3-0.8,0.8-0.8c0.5,0,0.9,0.3,0.9,0.8
				C16.4,33.4,16.1,33.8,15.6,33.8z"/>
			<path class="st2" d="M18.7,16.6c-0.5,0-0.9-0.3-0.9-0.8c0-0.5,0.3-0.8,0.9-0.8c0.5,0,0.8,0.3,0.8,0.8
				C19.5,16.3,19.2,16.6,18.7,16.6z"/>
			<path class="st2" d="M21.8,16.6c-0.5,0-0.9-0.3-0.8-0.8c0-0.5,0.4-0.8,0.9-0.8c0.5,0,0.8,0.3,0.8,0.8
				C22.7,16.3,22.3,16.6,21.8,16.6z"/>
			<path class="st2" d="M24.9,16.6c-0.5,0-0.9-0.3-0.9-0.8c0-0.5,0.4-0.8,0.9-0.8c0.5,0,0.8,0.3,0.8,0.8
				C25.8,16.3,25.4,16.6,24.9,16.6z"/>
			<path class="st2" d="M34.3,16.6c-0.5,0-0.9-0.3-0.9-0.8c0-0.5,0.4-0.8,0.9-0.8c0.5,0,0.8,0.3,0.8,0.8
				C35.2,16.3,34.8,16.6,34.3,16.6z"/>
			<path class="st2" d="M6.2,33.8c-0.5,0-0.9-0.3-0.9-0.8c0-0.5,0.4-0.8,0.9-0.8c0.5,0,0.9,0.3,0.9,0.8C7,33.4,6.7,33.8,6.2,33.8z"
				/>
			<path class="st2" d="M9.3,33.8c-0.5,0-0.8-0.3-0.8-0.8c0-0.5,0.3-0.8,0.9-0.8c0.5,0,0.8,0.3,0.8,0.8C10.2,33.5,9.8,33.8,9.3,33.8
				z"/>
			<path class="st2" d="M12.4,33.8c-0.5,0-0.9-0.3-0.9-0.8c0-0.4,0.4-0.8,0.8-0.8c0.5,0,0.9,0.3,0.9,0.8
				C13.3,33.4,12.9,33.8,12.4,33.8z"/>
			<path class="st2" d="M34.3,32.2c0.5,0,0.9,0.3,0.9,0.8c0,0.5-0.3,0.8-0.9,0.8c-0.5,0-0.8-0.3-0.9-0.8
				C33.4,32.6,33.8,32.2,34.3,32.2z"/>
			<path class="st2" d="M21.8,33.8c-0.5,0-0.9-0.3-0.9-0.8c0-0.4,0.3-0.8,0.8-0.8c0.5,0,0.9,0.3,0.9,0.8
				C22.7,33.4,22.3,33.8,21.8,33.8z"/>
			<path class="st2" d="M25,33.8c-0.5,0-0.9-0.3-0.9-0.8c0-0.5,0.3-0.8,0.9-0.8c0.5,0,0.9,0.3,0.9,0.8C25.8,33.5,25.4,33.8,25,33.8z
				"/>
			<path class="st2" d="M28,32.2c0.5,0,0.9,0.3,0.9,0.8c0,0.4-0.3,0.8-0.8,0.8c-0.5,0-0.9-0.3-0.9-0.8C27.2,32.5,27.5,32.2,28,32.2z
				"/>
			<path class="st2" d="M28.1,16.6c-0.5,0-0.9-0.3-0.9-0.8c0-0.5,0.3-0.8,0.8-0.8c0.5,0,0.9,0.3,0.9,0.8
				C28.9,16.3,28.6,16.6,28.1,16.6z"/>
			<path class="st2" d="M31.2,16.6c-0.5,0-0.9-0.3-0.9-0.8c0-0.4,0.4-0.8,0.8-0.8c0.5,0,0.9,0.3,0.9,0.8
				C32.1,16.2,31.7,16.6,31.2,16.6z"/>
			<path class="st2" d="M18.7,33.8c-0.5,0-0.8-0.3-0.8-0.8c0-0.5,0.3-0.8,0.9-0.8c0.5,0,0.8,0.3,0.8,0.8
				C19.5,33.5,19.2,33.8,18.7,33.8z"/>
			<path class="st2" d="M31.2,32.2c0.5,0,0.8,0.3,0.8,0.8c0,0.5-0.4,0.8-0.9,0.8c-0.5,0-0.9-0.3-0.9-0.8
				C30.3,32.5,30.7,32.2,31.2,32.2z"/>
			<path class="st1" d="M21,26.6c-0.3-0.2-0.6-0.4-0.9-0.6c-0.4-0.3-0.7-0.3-1.1,0c-0.3,0.2-0.6,0.4-1,0.6c0.1-0.3,0.2-0.6,0.3-0.9
				c0.2-0.7,0.1-0.9-0.4-1.3c-0.3-0.2-0.5-0.4-0.8-0.6c0,0,0-0.1,0-0.1c0.4,0,0.7,0,1.1,0c0.6,0,0.8-0.2,0.9-0.7
				c0.1-0.3,0.2-0.7,0.4-1c0.1,0.3,0.2,0.6,0.3,1c0.2,0.6,0.4,0.8,1.1,0.8c0.3,0,0.7,0,1,0c0,0,0,0.1,0,0.1
				c-0.2,0.2-0.5,0.4-0.7,0.5c-0.6,0.5-0.7,0.6-0.5,1.4C20.9,26,21,26.3,21,26.6C21.1,26.6,21,26.6,21,26.6z"/>
			<path class="st1" d="M36.4,29.6c-1.7-1.2-2.7-2.9-2.8-5c-0.1-2.3,1-4,2.8-5.4c0.1-0.1,0.3-0.3,0.3-0.4c0-1.5,0-3.1,0-4.6
				c0-0.5-0.2-0.7-0.8-0.7c-0.7,0-1.5,0-2.2,0c-10.2,0-20.3,0-30.5,0c-0.7,0-0.9,0.2-0.9,0.9c0,1.4,0,2.8,0,4.2
				c0,0.3,0.1,0.4,0.3,0.6c1.7,1.2,2.7,2.8,2.8,4.9c0.1,2.3-0.9,4.1-2.8,5.5c-0.2,0.2-0.3,0.3-0.3,0.6c0,1.4,0,2.8,0,4.1
				c0,0.8,0.2,1,1,1c5.4,0,10.8,0,16.2,0c5.4,0,10.8,0,16.3,0c0.8,0,0.9-0.2,0.9-0.9c0-1.4,0-2.8,0-4.2
				C36.7,29.9,36.6,29.7,36.4,29.6z M34.3,15c0.5,0,0.8,0.3,0.8,0.8c0,0.5-0.3,0.8-0.8,0.8c-0.5,0-0.9-0.3-0.9-0.8
				C33.4,15.4,33.8,15,34.3,15z M21.8,15c0.5,0,0.8,0.3,0.8,0.8c0,0.5-0.4,0.8-0.9,0.8c-0.5,0-0.9-0.3-0.8-0.8
				C21,15.3,21.3,15,21.8,15z M18.7,15c0.5,0,0.8,0.3,0.8,0.8c0,0.5-0.3,0.8-0.8,0.8c-0.5,0-0.9-0.3-0.9-0.8
				C17.8,15.3,18.2,15,18.7,15z M15.6,15c0.5,0,0.8,0.3,0.8,0.8c0,0.5-0.4,0.8-0.9,0.8c-0.5,0-0.9-0.3-0.9-0.8
				C14.7,15.3,15.1,15,15.6,15z M12.5,15c0.5,0,0.8,0.3,0.8,0.8c0,0.5-0.4,0.8-0.9,0.8c-0.5,0-0.9-0.3-0.8-0.8
				C11.6,15.3,12,15,12.5,15z M9.3,15c0.5,0,0.9,0.3,0.9,0.8c0,0.5-0.3,0.8-0.9,0.8c-0.5,0-0.9-0.3-0.9-0.8C8.5,15.3,8.8,15,9.3,15z
				 M5.3,15.8c0-0.5,0.4-0.8,0.9-0.8c0.5,0,0.9,0.3,0.9,0.8c0,0.5-0.4,0.8-0.9,0.8C5.7,16.6,5.3,16.3,5.3,15.8z M6.2,33.8
				c-0.5,0-0.9-0.3-0.9-0.8c0-0.5,0.4-0.8,0.9-0.8c0.5,0,0.9,0.3,0.9,0.8C7,33.4,6.7,33.8,6.2,33.8z M9.3,33.8
				c-0.5,0-0.8-0.3-0.8-0.8c0-0.5,0.3-0.8,0.9-0.8c0.5,0,0.8,0.3,0.8,0.8C10.2,33.5,9.8,33.8,9.3,33.8z M12.4,33.8
				c-0.5,0-0.9-0.3-0.9-0.8c0-0.4,0.4-0.8,0.8-0.8c0.5,0,0.9,0.3,0.9,0.8C13.3,33.4,12.9,33.8,12.4,33.8z M15.6,33.8
				c-0.5,0-0.9-0.3-0.9-0.8c0-0.4,0.3-0.8,0.8-0.8c0.5,0,0.9,0.3,0.9,0.8C16.4,33.4,16.1,33.8,15.6,33.8z M18.7,33.8
				c-0.5,0-0.8-0.3-0.8-0.8c0-0.5,0.3-0.8,0.9-0.8c0.5,0,0.8,0.3,0.8,0.8C19.5,33.5,19.2,33.8,18.7,33.8z M21.8,33.8
				c-0.5,0-0.9-0.3-0.9-0.8c0-0.4,0.3-0.8,0.8-0.8c0.5,0,0.9,0.3,0.9,0.8C22.7,33.4,22.3,33.8,21.8,33.8z M25,33.8
				c-0.5,0-0.9-0.3-0.9-0.8c0-0.5,0.3-0.8,0.9-0.8c0.5,0,0.9,0.3,0.9,0.8C25.8,33.5,25.4,33.8,25,33.8z M24.9,16.6
				c-0.5,0-0.9-0.3-0.9-0.8c0-0.5,0.4-0.8,0.9-0.8c0.5,0,0.8,0.3,0.8,0.8C25.8,16.3,25.4,16.6,24.9,16.6z M28,15
				c0.5,0,0.9,0.3,0.9,0.8c0,0.5-0.3,0.8-0.8,0.8c-0.5,0-0.9-0.3-0.9-0.8C27.2,15.4,27.5,15,28,15z M28.1,33.8
				c-0.5,0-0.9-0.3-0.9-0.8c0-0.5,0.3-0.8,0.8-0.8c0.5,0,0.9,0.3,0.9,0.8C28.9,33.4,28.6,33.8,28.1,33.8z M31.2,15
				c0.5,0,0.9,0.3,0.9,0.8c0,0.5-0.4,0.8-0.9,0.8c-0.5,0-0.9-0.3-0.9-0.8C30.3,15.4,30.7,15,31.2,15z M31.2,33.8
				c-0.5,0-0.9-0.3-0.9-0.8c0-0.5,0.4-0.8,0.9-0.8c0.5,0,0.8,0.3,0.8,0.8C32.1,33.4,31.7,33.8,31.2,33.8z M34.3,33.8
				c-0.5,0-0.8-0.3-0.9-0.8c0-0.5,0.3-0.8,0.8-0.8c0.5,0,0.9,0.3,0.9,0.8C35.2,33.5,34.8,33.8,34.3,33.8z"/>
		</g>
		<g>
			<path class="st9" d="M19.9,29.3c0.1-1.1-0.3-1.8-1.1-2c-0.9-0.3-1.5,0-2.2,1c-1-0.3-2-0.6-3-0.9c0.1-0.3,0.2-0.6,0.2-0.8
				c0.7-2.4,1.5-4.8,2.2-7.3c0-0.1,0.2-0.3,0.3-0.4c0.3-0.2,0.6-0.3,1-0.5c0.2,0.4,0.4,0.7,0.7,1.1c0.4-0.2,0.8-0.4,1.2-0.6
				c0.2,0.4,0.4,0.7,0.7,1.1c0.4-0.2,0.8-0.4,1.2-0.6c0.2,0.4,0.5,0.7,0.7,1.1c0.4-0.2,0.8-0.4,1.2-0.6c0.2,0.4,0.4,0.7,0.7,1.1
				c0.4-0.2,0.8-0.4,1.2-0.6c0.2,0.3,0.4,0.7,0.6,1c0,0.1,0,0.2,0,0.3c-0.8,2.7-1.6,5.4-2.5,8c0,0,0,0-0.1,0.1
				C21.9,30,20.9,29.6,19.9,29.3z M18.6,22.7c0.2,0,0.3,0,0.4,0c0.7,0,0.9,0.2,0.9,0.9c0,0.9,0,1.8,0,2.7c0,0.3,0.1,0.5,0.4,0.5
				c0.3,0,0.3-0.2,0.3-0.5c0-1,0-2,0-3c0-0.8-0.5-1.3-1.3-1.4c-1,0-2,0-3,0c-0.2,0-0.4,0.1-0.4,0.4c0,1.3,0,2.7,0,4
				c0,0.1,0.2,0.3,0.3,0.4c0.2,0.1,0.4-0.1,0.4-0.4c0-0.1,0-0.1,0-0.2c0-1,0-2.1,0-3.1c0-0.1,0-0.2,0-0.4c0.4,0,0.8,0,1.3,0
				c0,0.2,0,0.3,0,0.4c0,1,0,2.1,0,3.1c0,0.3,0.1,0.5,0.4,0.5c0.3,0,0.3-0.2,0.3-0.4C18.6,25.1,18.6,23.9,18.6,22.7z M22.5,24.9
				C22.5,24.9,22.5,24.9,22.5,24.9c-0.3-0.8-0.6-1.7-0.8-2.5c-0.1-0.3-0.2-0.5-0.5-0.4C20.9,22,21,22.3,21,22.5
				c0.2,0.7,0.4,1.4,0.7,2.2c0.3,0.8,0.6,1.7,0.1,2.6c0,0,0,0,0,0c-0.1,0.3-0.3,0.5-0.6,0.5c-0.3,0-0.4,0.1-0.4,0.4
				c0.1,0.3,0.3,0.3,0.5,0.3c0.6-0.1,1-0.4,1.1-1c0.3-0.9,0.6-1.9,0.8-2.8c0.2-0.8,0.5-1.5,0.7-2.3c0.1-0.3-0.1-0.6-0.4-0.5
				c-0.1,0-0.3,0.2-0.3,0.4C23,23.1,22.8,24,22.5,24.9z"/>
			<path class="st1" d="M18.6,22.7c0,1.2,0,2.4,0,3.6c0,0.2-0.1,0.4-0.3,0.4c-0.3,0-0.4-0.2-0.4-0.5c0-1,0-2.1,0-3.1
				c0-0.1,0-0.3,0-0.4c-0.4,0-0.8,0-1.3,0c0,0.1,0,0.2,0,0.4c0,1,0,2.1,0,3.1c0,0.1,0,0.1,0,0.2c0,0.2-0.1,0.4-0.4,0.4
				c-0.1,0-0.3-0.2-0.3-0.4c0-1.3,0-2.7,0-4c0-0.3,0.1-0.4,0.4-0.4c1,0,2,0,3,0c0.8,0,1.3,0.6,1.3,1.4c0,1,0,2,0,3
				c0,0.2-0.1,0.5-0.3,0.5c-0.3,0-0.4-0.2-0.4-0.5c0-0.9,0-1.8,0-2.7c0-0.7-0.2-0.9-0.9-0.9C18.9,22.7,18.7,22.7,18.6,22.7z"/>
			<path class="st1" d="M22.5,24.9c0.3-0.9,0.5-1.7,0.8-2.6c0-0.1,0.2-0.3,0.3-0.4c0.3-0.1,0.5,0.2,0.4,0.5
				c-0.2,0.8-0.5,1.5-0.7,2.3c-0.3,0.9-0.6,1.9-0.8,2.8c-0.2,0.6-0.5,0.9-1.1,1c-0.2,0-0.5,0-0.5-0.3c-0.1-0.3,0.1-0.4,0.4-0.4
				c0.3,0,0.5-0.2,0.6-0.5c0,0,0,0,0,0c0.5-0.9,0.1-1.7-0.1-2.6c-0.2-0.7-0.4-1.4-0.7-2.2c-0.1-0.2-0.1-0.5,0.2-0.6
				c0.3-0.1,0.4,0.1,0.5,0.4C22,23.2,22.2,24,22.5,24.9C22.5,24.9,22.5,24.9,22.5,24.9z"/>
		</g>
	</g>
</g>
</svg>
