<?xml version="1.0" encoding="utf-8"?>
<!-- Generator: Adobe Illustrator 21.0.0, SVG Export Plug-In . SVG Version: 6.00 Build 0)  -->
<svg version="1.1" id="Layer_1" xmlns="http://www.w3.org/2000/svg" xmlns:xlink="http://www.w3.org/1999/xlink" x="0px" y="0px"
	 viewBox="0 0 40 40" style="enable-background:new 0 0 40 40;" xml:space="preserve">
<style type="text/css">
	.st0{fill:#F49D00;}
	.st1{fill:#FFFFFF;}
	.st2{fill:#EF7C00;}
	.st3{fill:#FFFFFF;stroke:#EF7C00;stroke-miterlimit:10;}
	.st4{fill:none;stroke:#EF7C00;stroke-miterlimit:10;}
	.st5{fill:#FFFFFF;stroke:#EF7C00;stroke-width:1.2;stroke-miterlimit:10;}
	.st6{fill:none;stroke:#EF7C00;stroke-width:0.8;stroke-miterlimit:10;}
	.st7{fill:#EF7C00;stroke:#EF7C00;stroke-width:1.5;stroke-miterlimit:10;}
	.st8{fill:#EF7C00;stroke:#EF7C00;stroke-width:0.4;stroke-miterlimit:10;}
	.st9{fill:#D81922;}
	.st10{clip-path:url(#SVGID_2_);}
	.st11{fill:#EF7C00;stroke:#EF7C00;stroke-miterlimit:10;}
	.st12{fill:#EF7C00;stroke:#EF7C00;stroke-width:0.8;stroke-miterlimit:10;}
	.st13{fill:#EF7C00;stroke:#EF7C00;stroke-width:0.2;stroke-miterlimit:10;}
	.st14{fill:#FFFFFF;stroke:#FFFFFF;stroke-width:0.3;stroke-miterlimit:10;}
	.st15{fill:#EF7C00;stroke:#EF7C00;stroke-width:0.3;stroke-miterlimit:10;}
	.st16{fill:#EF7C00;stroke:#EF7C00;stroke-width:0.5;stroke-miterlimit:10;}
	.st17{clip-path:url(#SVGID_4_);}
	.st18{clip-path:url(#SVGID_6_);}
	.st19{clip-path:url(#SVGID_8_);}
</style>
<g>
	<g>
		<path class="st7" d="M1.9,8.7C2,8.5,2,8.3,2.1,8.1C2.5,6.8,3.6,5.8,5,5.8c3.3,0,6.6,0,9.9,0c0.3,0,0.6-0.1,0.8-0.2
			C18.5,4,21.2,2.4,24,0.9c0.7-0.4,0.9-0.3,1.3,0.3c0.8,1.4,1.7,2.9,2.5,4.3c0.1,0.2,0.3,0.3,0.6,0.3c0.9,0,1.8,0,2.7,0
			c1.8,0,3.2,1.4,3.2,3.2c0,0.6,0,1.1,0,1.7c0,0.1,0.1,0.3,0.3,0.3c1.5,0.5,2.3,1.6,2.3,3.2c0,2.2,0,4.4,0,6.7c0,0.3,0,0.5,0.4,0.6
			c0.7,0.4,1,1,1,1.7c0,1.2,0,2.5,0,3.7c0,0.8-0.3,1.4-1.1,1.8c-0.2,0.1-0.2,0.3-0.2,0.5c0,2.2,0,4.5,0,6.7c0,2-1.4,3.4-3.4,3.4
			c-7,0-14,0-21,0c-2.3,0-4.6,0-6.9,0c-2,0-3.1-0.8-3.6-2.8c0,0,0-0.1-0.1-0.1C1.9,27.2,1.9,18,1.9,8.7z M3.2,11.7
			c0,0.2,0,0.4,0,0.6c0,5.6,0,11.1,0,16.7c0,2.3,0,4.7,0,7c0,1,0.6,1.8,1.5,2.1c0.3,0.1,0.7,0.1,1.1,0.1c4.9,0,9.8,0,14.7,0
			c4.3,0,8.6,0,12.9,0c1.4,0,2.2-0.8,2.2-2.2c0-2.1,0-4.3,0-6.4c0-0.2,0-0.3,0-0.5c-0.2,0-0.4,0-0.6,0c-1.7,0-3.4,0-5.1,0
			c-1.2,0-2-0.8-2-2c0-1.2,0-2.4,0-3.6c0-1.3,0.7-2.1,2.1-2.1c1.7,0,3.5,0,5.2,0c0.4,0,0.5-0.1,0.5-0.5c0-2.2,0-4.4,0-6.5
			c0-1.3-0.8-2.1-2.1-2.1c-9.3,0-18.7,0-28,0c-0.2,0-0.5,0-0.7-0.1C4.2,12,3.7,11.8,3.2,11.7z M9,10.9c0,0,0,0.1,0,0.1
			c0.6,0,1.3,0,1.9,0c0.3,0,0.7-0.1,0.9-0.2c3-1.7,6-3.4,9-5.1c0.5-0.3,0.8-0.3,1.1,0.2c0.6,0.8,1.5,1.1,2.5,0.7
			c0.6-0.3,0.8-0.2,1.1,0.3c0.7,1.3,1.5,2.5,2.2,3.8c0.1,0.1,0.2,0.3,0.3,0.3c0.5,0,0.9,0,1.5,0c-1.8-3-3.5-5.9-5.2-8.9
			C19.2,5,14.1,7.9,9,10.9z M32.9,27.8c1,0,2.1,0,3.1,0c0.5,0,0.8-0.2,0.8-0.7c0-1.2,0-2.5,0-3.7c0-0.5-0.3-0.8-0.8-0.8
			c-2.1,0-4.1,0-6.2,0c-0.6,0-0.8,0.3-0.8,0.8c0,1.2,0,2.4,0,3.6c0,0.6,0.2,0.8,0.8,0.8C30.9,27.8,31.9,27.8,32.9,27.8z M14.2,10.9
			C14.2,10.9,14.2,10.9,14.2,10.9c4.1,0.1,8.2,0.1,12.3,0.1c0-0.1,0-0.1,0-0.1c-0.6-1-1.1-1.9-1.7-2.9c-0.1-0.1-0.3-0.1-0.4-0.1
			c-1.1,0.2-2.1,0-2.9-0.8c-0.2-0.2-0.4-0.2-0.6-0.1c-1.8,1-3.6,2.1-5.4,3.1C15.1,10.3,14.6,10.6,14.2,10.9z M13,7.1
			C13,7.1,13,7.1,13,7.1C10.3,7.1,7.6,7,4.9,7.1c-1,0-1.8,1.2-1.7,2.2c0.3,1.7,2.2,2.1,3.4,1.5c2.1-1.1,4.1-2.3,6.2-3.5
			C12.8,7.3,12.9,7.2,13,7.1z M28.7,7.1c0.8,1.3,1.5,2.5,2.2,3.7c0.1,0.1,0.2,0.2,0.4,0.2c0.5,0,1,0,1.4,0c0.2,0,0.3-0.1,0.3-0.3
			c0-0.6,0-1.2,0-1.8c0-0.9-0.8-1.8-1.6-1.8C30.5,7,29.6,7.1,28.7,7.1z"/>
		<path class="st1" d="M3.2,11.7c0.6,0.2,1.1,0.4,1.6,0.5c0.2,0.1,0.5,0.1,0.7,0.1c9.3,0,18.7,0,28,0c1.3,0,2.1,0.8,2.1,2.1
			c0,2.2,0,4.4,0,6.5c0,0.4-0.1,0.5-0.5,0.5c-1.7,0-3.5,0-5.2,0c-1.3,0-2.1,0.8-2.1,2.1c0,1.2,0,2.4,0,3.6c0,1.2,0.8,2,2,2
			c1.7,0,3.4,0,5.1,0c0.2,0,0.4,0,0.6,0c0,0.2,0,0.3,0,0.5c0,2.1,0,4.3,0,6.4c0,1.4-0.8,2.2-2.2,2.2c-4.3,0-8.6,0-12.9,0
			c-4.9,0-9.8,0-14.7,0c-0.4,0-0.7,0-1.1-0.1c-0.9-0.2-1.5-1-1.5-2.1c0-2.3,0-4.7,0-7c0-5.6,0-11.1,0-16.7
			C3.2,12.1,3.2,11.9,3.2,11.7z M34.2,19.3c0-0.4-0.3-0.6-0.6-0.6c-0.3,0-0.6,0.3-0.6,0.6c0,0.3,0.3,0.6,0.6,0.6
			C33.9,20,34.2,19.7,34.2,19.3z M20.6,14.8c0.3,0,0.6-0.3,0.6-0.6c0-0.3-0.2-0.6-0.6-0.6c-0.4,0-0.6,0.2-0.6,0.6
			C20,14.5,20.3,14.8,20.6,14.8z M8.3,14.2c0-0.4-0.3-0.6-0.6-0.6c-0.3,0-0.6,0.3-0.6,0.6c0,0.3,0.3,0.6,0.6,0.6
			C8.1,14.8,8.3,14.5,8.3,14.2z M10.9,14.2c0-0.4-0.3-0.6-0.6-0.6c-0.3,0-0.6,0.3-0.6,0.6c0,0.3,0.3,0.6,0.6,0.6
			C10.7,14.8,10.9,14.5,10.9,14.2z M25.8,14.8c0.3,0,0.6-0.3,0.6-0.6c0-0.3-0.2-0.6-0.6-0.6c-0.4,0-0.6,0.2-0.6,0.6
			C25.2,14.5,25.5,14.8,25.8,14.8z M34.2,14.2c0-0.3-0.2-0.6-0.5-0.6c-0.4,0-0.7,0.2-0.7,0.6c0,0.3,0.3,0.6,0.6,0.6
			C33.9,14.8,34.2,14.5,34.2,14.2z M5.8,36.2c0-0.4-0.2-0.6-0.5-0.6c-0.4,0-0.7,0.2-0.7,0.6c0,0.3,0.3,0.6,0.6,0.6
			C5.5,36.8,5.7,36.5,5.8,36.2z M5.8,14.2c0-0.4-0.3-0.6-0.6-0.6c-0.3,0-0.6,0.3-0.6,0.6c0,0.3,0.3,0.6,0.6,0.6
			C5.5,14.8,5.8,14.5,5.8,14.2z M13.5,14.2c0-0.4-0.3-0.6-0.6-0.6c-0.3,0-0.6,0.3-0.6,0.6c0,0.3,0.3,0.6,0.6,0.6
			C13.2,14.8,13.5,14.5,13.5,14.2z M18.7,14.2c0-0.4-0.3-0.6-0.6-0.6c-0.3,0-0.6,0.3-0.6,0.6c0,0.3,0.3,0.6,0.6,0.6
			C18.4,14.8,18.7,14.5,18.7,14.2z M31,14.8c0.3,0,0.6-0.3,0.6-0.6c0-0.3-0.2-0.6-0.6-0.6c-0.4,0-0.6,0.2-0.6,0.6
			C30.4,14.5,30.6,14.8,31,14.8z M29,14.2c0-0.4-0.2-0.6-0.6-0.6c-0.3,0-0.6,0.2-0.6,0.6c0,0.3,0.3,0.6,0.6,0.6
			C28.7,14.8,29,14.5,29,14.2z M23.8,14.2c0-0.4-0.3-0.6-0.6-0.6c-0.3,0-0.6,0.3-0.6,0.6c0,0.3,0.3,0.6,0.6,0.6
			C23.6,14.8,23.8,14.5,23.8,14.2z M33.6,17.4c0.3,0,0.6-0.3,0.6-0.6c0-0.4-0.3-0.6-0.6-0.6c-0.3,0-0.6,0.3-0.6,0.6
			C33,17.1,33.2,17.4,33.6,17.4z M10.9,36.2c0-0.4-0.3-0.6-0.6-0.6c-0.3,0-0.6,0.3-0.6,0.6c0,0.3,0.3,0.7,0.6,0.6
			C10.7,36.8,10.9,36.5,10.9,36.2z M16.1,14.2c0-0.4-0.2-0.6-0.6-0.6c-0.3,0-0.6,0.3-0.6,0.6c0,0.3,0.3,0.6,0.6,0.6
			C15.8,14.8,16.1,14.5,16.1,14.2z M7.8,35.6c-0.3,0-0.6,0.3-0.6,0.6c0,0.3,0.3,0.6,0.6,0.6c0.3,0,0.6-0.3,0.6-0.6
			C8.4,35.8,8.1,35.6,7.8,35.6z M12.9,36.8c0.3,0,0.6-0.3,0.6-0.6c0-0.3-0.2-0.6-0.6-0.6c-0.3,0-0.6,0.2-0.7,0.6
			C12.3,36.5,12.6,36.8,12.9,36.8z M16.1,36.2c0-0.4-0.3-0.6-0.6-0.6c-0.3,0-0.6,0.3-0.6,0.6c0,0.3,0.3,0.6,0.6,0.6
			C15.8,36.8,16.1,36.5,16.1,36.2z M18.1,35.6c-0.3,0-0.6,0.3-0.6,0.6c0,0.3,0.3,0.6,0.6,0.6c0.3,0,0.6-0.3,0.6-0.6
			C18.7,35.8,18.4,35.6,18.1,35.6z M20.6,36.8c0.3,0,0.6-0.3,0.6-0.6c0-0.3-0.2-0.6-0.6-0.6c-0.3,0-0.6,0.3-0.6,0.6
			C20,36.5,20.3,36.8,20.6,36.8z M23.8,36.1c0-0.3-0.3-0.6-0.6-0.6c-0.3,0-0.6,0.3-0.6,0.6c0,0.3,0.3,0.6,0.6,0.6
			C23.6,36.8,23.8,36.5,23.8,36.1z M26.4,36.1c0-0.3-0.3-0.6-0.6-0.6c-0.3,0-0.6,0.3-0.6,0.6c0,0.3,0.3,0.6,0.6,0.6
			C26.2,36.8,26.4,36.5,26.4,36.1z M29,36.2c0-0.4-0.2-0.6-0.6-0.6c-0.3,0-0.6,0.3-0.6,0.6c0,0.3,0.3,0.6,0.6,0.6
			C28.7,36.8,29,36.5,29,36.2z M34.2,36.2c0-0.4-0.3-0.6-0.6-0.6c-0.3,0-0.6,0.2-0.6,0.6c0,0.3,0.3,0.6,0.6,0.6
			C33.9,36.8,34.2,36.5,34.2,36.2z M34.2,33.6c0-0.3-0.3-0.6-0.6-0.6c-0.3,0-0.6,0.2-0.6,0.6c0,0.3,0.3,0.6,0.6,0.6
			C33.9,34.2,34.2,33.9,34.2,33.6z M31,36.8c0.3,0,0.6-0.3,0.6-0.6c0-0.3-0.3-0.6-0.6-0.6c-0.3,0-0.6,0.3-0.6,0.6
			C30.4,36.5,30.7,36.8,31,36.8z M33.6,31.6c0.4,0,0.6-0.3,0.6-0.6c0-0.4-0.3-0.6-0.6-0.6c-0.3,0-0.6,0.3-0.6,0.6
			C33,31.3,33.2,31.6,33.6,31.6z"/>
		<path class="st1" d="M9,10.9C14.1,7.9,19.2,5,24.3,2.1C26.1,5,27.8,8,29.5,11c-0.5,0-1,0-1.5,0c-0.1,0-0.2-0.2-0.3-0.3
			c-0.7-1.3-1.5-2.5-2.2-3.8c-0.3-0.5-0.5-0.6-1.1-0.3c-0.9,0.4-1.9,0.2-2.5-0.7c-0.4-0.5-0.6-0.5-1.1-0.2c-3,1.7-6,3.4-9,5.1
			C11.6,10.9,11.3,11,11,11c-0.6,0-1.3,0-1.9,0C9,10.9,9,10.9,9,10.9z"/>
		<path class="st1" d="M32.9,27.8c-1,0-2,0-3.1,0c-0.6,0-0.8-0.2-0.8-0.8c0-1.2,0-2.4,0-3.6c0-0.6,0.3-0.8,0.8-0.8
			c2.1,0,4.1,0,6.2,0c0.5,0,0.8,0.2,0.8,0.8c0,1.2,0,2.5,0,3.7c0,0.5-0.3,0.7-0.8,0.7C35,27.8,33.9,27.8,32.9,27.8z M31.6,26.4
			c0.7,0,1.3-0.5,1.3-1.2c0-0.7-0.5-1.3-1.3-1.3c-0.7,0-1.3,0.5-1.3,1.2C30.4,25.9,30.9,26.4,31.6,26.4z"/>
		<path class="st2" d="M14.2,10.9c0.4-0.3,0.9-0.5,1.3-0.8c1.8-1,3.6-2,5.4-3.1c0.2-0.1,0.4-0.1,0.6,0.1c0.8,0.7,1.8,1,2.9,0.8
			c0.1,0,0.3,0,0.4,0.1c0.6,0.9,1.1,1.9,1.7,2.9c0,0,0,0.1,0,0.1C22.4,10.9,18.3,10.9,14.2,10.9C14.2,10.9,14.2,10.9,14.2,10.9z"/>
		<path class="st1" d="M13,7.1c-0.1,0.1-0.2,0.1-0.3,0.2c-2,1.2-4.1,2.4-6.2,3.5C5.4,11.4,3.5,11,3.2,9.3c-0.2-1,0.6-2.2,1.7-2.2
			C7.6,7,10.3,7.1,13,7.1C13,7.1,13,7.1,13,7.1z"/>
		<path class="st1" d="M28.7,7.1c0.9,0,1.8-0.1,2.7,0c0.9,0.1,1.6,0.9,1.6,1.8c0,0.6,0,1.2,0,1.8c0,0.2-0.1,0.3-0.3,0.3
			c-0.5,0-1,0-1.4,0c-0.1,0-0.3-0.1-0.4-0.2C30.1,9.6,29.4,8.4,28.7,7.1z"/>
		<g>
			<path class="st2" d="M34.2,19.3c0,0.3-0.3,0.6-0.6,0.6c-0.3,0-0.6-0.3-0.6-0.6c0-0.3,0.2-0.6,0.6-0.6
				C33.9,18.7,34.2,19,34.2,19.3z"/>
			<path class="st2" d="M20.6,14.8c-0.3,0-0.6-0.3-0.6-0.6c0-0.3,0.3-0.6,0.6-0.6c0.3,0,0.6,0.3,0.6,0.6
				C21.3,14.5,21,14.8,20.6,14.8z"/>
			<path class="st2" d="M8.3,14.2c0,0.3-0.3,0.6-0.6,0.6c-0.3,0-0.6-0.3-0.6-0.6c0-0.3,0.3-0.6,0.6-0.6C8.1,13.6,8.3,13.8,8.3,14.2z
				"/>
			<path class="st2" d="M10.9,14.2c0,0.3-0.3,0.6-0.6,0.6c-0.3,0-0.6-0.3-0.6-0.6c0-0.3,0.3-0.6,0.6-0.6
				C10.7,13.6,10.9,13.8,10.9,14.2z"/>
			<path class="st2" d="M25.8,14.8c-0.3,0-0.6-0.3-0.6-0.6c0-0.3,0.3-0.6,0.6-0.6c0.3,0,0.6,0.3,0.6,0.6
				C26.4,14.5,26.1,14.8,25.8,14.8z"/>
			<path class="st2" d="M34.2,14.2c0,0.3-0.3,0.6-0.6,0.6c-0.3,0-0.6-0.3-0.6-0.6c0-0.4,0.3-0.6,0.7-0.6
				C34,13.6,34.2,13.9,34.2,14.2z"/>
			<path class="st2" d="M5.8,36.2c0,0.3-0.3,0.6-0.6,0.6c-0.3,0-0.6-0.3-0.6-0.6c0-0.4,0.3-0.6,0.7-0.6C5.6,35.6,5.8,35.8,5.8,36.2z
				"/>
			<path class="st2" d="M5.8,14.2c0,0.4-0.3,0.6-0.6,0.6c-0.3,0-0.6-0.3-0.6-0.6c0-0.3,0.3-0.6,0.6-0.6C5.5,13.6,5.7,13.8,5.8,14.2z
				"/>
			<path class="st2" d="M13.5,14.2c0,0.3-0.3,0.6-0.6,0.6c-0.3,0-0.6-0.3-0.6-0.6c0-0.3,0.3-0.6,0.6-0.6
				C13.2,13.6,13.5,13.8,13.5,14.2z"/>
			<path class="st2" d="M18.7,14.2c0,0.3-0.3,0.6-0.6,0.6c-0.3,0-0.6-0.3-0.6-0.6c0-0.3,0.3-0.6,0.6-0.6
				C18.4,13.6,18.7,13.8,18.7,14.2z"/>
			<path class="st2" d="M31,14.8c-0.3,0-0.6-0.3-0.6-0.6c0-0.3,0.3-0.6,0.6-0.6c0.3,0,0.6,0.3,0.6,0.6C31.6,14.5,31.3,14.8,31,14.8z
				"/>
			<path class="st2" d="M29,14.2c0,0.3-0.3,0.6-0.6,0.6c-0.3,0-0.6-0.3-0.6-0.6c0-0.3,0.3-0.6,0.6-0.6C28.8,13.6,29,13.8,29,14.2z"
				/>
			<path class="st2" d="M23.8,14.2c0,0.3-0.3,0.6-0.6,0.6c-0.3,0-0.6-0.3-0.6-0.6c0-0.3,0.3-0.6,0.6-0.6
				C23.6,13.6,23.8,13.8,23.8,14.2z"/>
			<path class="st2" d="M33.6,17.4c-0.3,0-0.6-0.3-0.6-0.6c0-0.3,0.2-0.6,0.6-0.6c0.4,0,0.6,0.2,0.6,0.6
				C34.2,17.1,33.9,17.4,33.6,17.4z"/>
			<path class="st2" d="M10.9,36.2c0,0.3-0.3,0.6-0.6,0.6c-0.3,0-0.7-0.3-0.6-0.6c0-0.3,0.3-0.6,0.6-0.6
				C10.7,35.6,10.9,35.8,10.9,36.2z"/>
			<path class="st2" d="M16.1,14.2c0,0.3-0.3,0.6-0.6,0.6c-0.3,0-0.6-0.3-0.6-0.6c0-0.3,0.3-0.6,0.6-0.6
				C15.8,13.6,16.1,13.8,16.1,14.2z"/>
			<path class="st2" d="M7.8,35.6c0.4,0,0.6,0.3,0.6,0.6c0,0.3-0.3,0.6-0.6,0.6c-0.3,0-0.6-0.3-0.6-0.6C7.1,35.8,7.4,35.6,7.8,35.6z
				"/>
			<path class="st2" d="M12.9,36.8c-0.3,0-0.6-0.3-0.6-0.6c0-0.3,0.3-0.6,0.7-0.6c0.3,0,0.6,0.3,0.6,0.6
				C13.5,36.5,13.2,36.8,12.9,36.8z"/>
			<path class="st2" d="M16.1,36.2c0,0.3-0.3,0.6-0.6,0.6c-0.3,0-0.6-0.3-0.6-0.6c0-0.3,0.3-0.6,0.6-0.6
				C15.8,35.6,16.1,35.8,16.1,36.2z"/>
			<path class="st2" d="M18.1,35.6c0.4,0,0.6,0.3,0.6,0.6c0,0.3-0.3,0.6-0.6,0.6c-0.3,0-0.6-0.3-0.6-0.6
				C17.5,35.8,17.7,35.5,18.1,35.6z"/>
			<path class="st2" d="M20.6,36.8c-0.3,0-0.6-0.3-0.6-0.6c0-0.3,0.3-0.6,0.6-0.6c0.3,0,0.6,0.3,0.6,0.6
				C21.3,36.5,21,36.8,20.6,36.8z"/>
			<path class="st2" d="M23.8,36.1c0,0.3-0.3,0.6-0.6,0.6c-0.3,0-0.6-0.3-0.6-0.6c0-0.3,0.3-0.6,0.6-0.6
				C23.6,35.5,23.8,35.8,23.8,36.1z"/>
			<path class="st2" d="M26.4,36.1c0,0.3-0.3,0.6-0.6,0.6c-0.3,0-0.6-0.3-0.6-0.6c0-0.3,0.3-0.6,0.6-0.6
				C26.1,35.5,26.4,35.8,26.4,36.1z"/>
			<path class="st2" d="M29,36.2c0,0.3-0.3,0.6-0.6,0.6c-0.3,0-0.6-0.3-0.6-0.6c0-0.3,0.3-0.6,0.6-0.6C28.8,35.6,29,35.8,29,36.2z"
				/>
			<path class="st2" d="M34.2,36.2c0,0.3-0.3,0.6-0.6,0.6c-0.3,0-0.6-0.3-0.6-0.6c0-0.3,0.3-0.6,0.6-0.6
				C33.9,35.6,34.2,35.8,34.2,36.2z"/>
			<path class="st2" d="M34.2,33.6c0,0.3-0.3,0.6-0.6,0.6c-0.3,0-0.6-0.3-0.6-0.6c0-0.3,0.3-0.6,0.6-0.6
				C33.9,33,34.2,33.2,34.2,33.6z"/>
			<path class="st2" d="M31,36.8c-0.3,0-0.6-0.3-0.6-0.6c0-0.3,0.3-0.6,0.6-0.6c0.4,0,0.6,0.2,0.6,0.6C31.6,36.5,31.3,36.8,31,36.8z
				"/>
			<path class="st2" d="M33.6,31.6c-0.4,0-0.6-0.2-0.6-0.6c0-0.3,0.2-0.6,0.6-0.6c0.4,0,0.6,0.2,0.6,0.6
				C34.2,31.3,33.9,31.6,33.6,31.6z"/>
			<path class="st2" d="M31.6,26.4c-0.7,0-1.3-0.6-1.3-1.3c0-0.7,0.6-1.3,1.3-1.2c0.7,0,1.3,0.6,1.3,1.3
				C32.9,25.9,32.3,26.4,31.6,26.4z"/>
		</g>
	</g>
</g>
</svg>
