<?xml version="1.0" encoding="utf-8"?>
<!-- Generator: Adobe Illustrator 21.0.0, SVG Export Plug-In . SVG Version: 6.00 Build 0)  -->
<svg version="1.1" id="Layer_1" xmlns="http://www.w3.org/2000/svg" xmlns:xlink="http://www.w3.org/1999/xlink" x="0px" y="0px"
	 viewBox="0 0 40 40" style="enable-background:new 0 0 40 40;" xml:space="preserve">
<style type="text/css">
	.st0{fill:#EF7C00;}
	.st1{fill:#FFFFFF;stroke:#EF7C00;stroke-miterlimit:10;}
	.st2{fill:#FFFFFF;stroke:#EF7C00;stroke-width:1.2;stroke-miterlimit:10;}
	.st3{fill:#EF7C00;stroke:#EF7C00;stroke-width:1.5;stroke-miterlimit:10;}
	.st4{fill:#FFFFFF;}
	.st5{fill:#D81922;}
	.st6{clip-path:url(#SVGID_2_);}
	.st7{fill:#EF7C00;stroke:#EF7C00;stroke-miterlimit:10;}
	.st8{fill:#EF7C00;stroke:#EF7C00;stroke-width:0.8;stroke-miterlimit:10;}
	.st9{fill:#EF7C00;stroke:#EF7C00;stroke-width:0.2;stroke-miterlimit:10;}
	.st10{fill:#FFFFFF;stroke:#FFFFFF;stroke-width:0.3;stroke-miterlimit:10;}
	.st11{fill:#EF7C00;stroke:#EF7C00;stroke-width:0.5;stroke-miterlimit:10;}
	.st12{fill:#EF7C00;stroke:#EF7C00;stroke-width:0.4;stroke-miterlimit:10;}
	.st13{clip-path:url(#SVGID_4_);}
	.st14{fill:#EF7C00;stroke:#EF7C00;stroke-width:0.3;stroke-miterlimit:10;}
	.st15{clip-path:url(#SVGID_6_);}
	.st16{clip-path:url(#SVGID_8_);}
	.st17{fill:none;stroke:#EF7C00;stroke-width:0.8;stroke-miterlimit:10;}
</style>
<g>
	<g>
		<g>
			<path class="st0" d="M0.1,20.2c0-0.2,0.1-0.4,0.1-0.5c0.5-1.8,2-3,3.8-3c1.6,0,3.1,0,4.7,0c5,0,10,0,14.9,0c0.1,0,0.2,0,0.3,0
				c0,1.2,0,2.4,0,3.6c0,0.3-0.1,0.6-0.1,0.9c-0.3,1.9-1.1,3.6-2.4,5.1c-2.6,2.8-5.8,3.9-9.5,3.2c-2.8-0.6-5-2.1-6.5-4.6
				c-0.1-0.1-0.1-0.2-0.3-0.2c-0.4,0-0.8,0-1.2,0c-1.8,0-3.3-1.3-3.8-3c0-0.2-0.1-0.3-0.1-0.5C0.1,20.8,0.1,20.5,0.1,20.2z
				 M21.9,18.7c-5.3,0-10.6,0-15.9,0c-0.2,3.3,1,6,3.9,7.8c2.8,1.7,5.7,1.6,8.5-0.2C21,24.5,22.1,21.8,21.9,18.7z M4.5,22.6
				C4.1,21.3,4,20,4,18.6c-0.8,0-1.3,0.3-1.7,1c-0.4,0.7-0.4,1.4,0,2.1C2.9,22.5,3.6,22.7,4.5,22.6z"/>
			<path class="st0" d="M11.2,15.7c-0.2-0.1-0.3-0.2-0.4-0.3c-0.1-0.2-0.1-0.4,0.1-0.5c0.3-0.4,0.3-0.8,0-1.2
				c-0.1-0.1-0.3-0.3-0.4-0.4c-0.6-0.8-0.6-1.7,0-2.4c0.1-0.1,0.3-0.2,0.5-0.2c0.1,0,0.3,0.1,0.4,0.2c0,0.1,0,0.3-0.1,0.4
				c0,0.1-0.1,0.2-0.2,0.3c-0.2,0.4-0.1,0.8,0.3,1.1c0.9,0.6,1.1,1.8,0.4,2.7C11.6,15.5,11.4,15.6,11.2,15.7z"/>
			<path class="st0" d="M14.2,15.6c-0.2,0-0.4-0.1-0.4-0.2c-0.1-0.2,0-0.3,0.1-0.5c0.3-0.4,0.3-0.8,0-1.2c-0.1-0.1-0.3-0.3-0.4-0.4
				c-0.6-0.8-0.6-1.8,0-2.4c0.2-0.2,0.5-0.3,0.7-0.1c0.2,0.1,0.2,0.4,0.1,0.6c-0.2,0.2-0.3,0.5-0.3,0.8c0,0.3,0.2,0.4,0.4,0.6
				c0.9,0.6,1.1,1.8,0.4,2.6C14.6,15.6,14.4,15.7,14.2,15.6z"/>
			<path class="st0" d="M17.1,15.7c-0.1-0.1-0.3-0.2-0.4-0.3c-0.1-0.2-0.1-0.3,0.1-0.5c0.3-0.4,0.3-0.8,0-1.2
				c-0.1-0.1-0.2-0.2-0.3-0.4c-0.6-0.7-0.6-1.7,0-2.4c0.1-0.1,0.3-0.2,0.5-0.2c0.1,0,0.3,0.1,0.4,0.2c0.1,0.1,0,0.3-0.1,0.4
				c-0.1,0.1-0.2,0.2-0.2,0.4c-0.2,0.4-0.1,0.8,0.3,1c0.9,0.6,1.1,1.8,0.4,2.7C17.6,15.6,17.4,15.6,17.1,15.7
				C17.2,15.7,17.1,15.7,17.1,15.7z"/>
			<path class="st4" d="M22.5,18.3c0.2,3.4-0.9,6.3-3.8,8.2c-3,2-6.1,2-9.1,0.2c-3.1-1.9-4.4-4.8-4.2-8.4
				C11.1,18.3,16.8,18.3,22.5,18.3z"/>
			<path class="st4" d="M4.7,23.1C3.6,23.2,2.6,22.9,2,22c-0.5-0.8-0.6-1.7,0-2.6c0.5-0.8,1.2-1.2,2.1-1.2C4,19.8,4.2,21.5,4.7,23.1
				z"/>
		</g>
		<g>
			<path class="st4" d="M32.5,18c-1.6,0-3.1,0-4.7,0c-0.5,0-0.7-0.2-0.7-0.7c0-0.9,0-1.9,0-2.8c0-0.8,0.5-1.3,1.3-1.3
				c2.7,0,5.5,0,8.2,0c0.8,0,1.3,0.5,1.3,1.3c0,0.9,0,1.9,0,2.8c0,0.5-0.2,0.7-0.7,0.7C35.6,18,34,18,32.5,18z"/>
			<path class="st4" d="M27.8,26.3c0.3-0.5,0.7-1,1-1.4c0,0,0.1-0.1,0.2-0.1c1.9,0,3.8,0,5.8,0c0.4,0,0.8,0,1.3,0
				c0.1,0,0.1,0,0.2,0.1c0.3,0.5,0.6,0.9,1,1.4C34,26.3,30.9,26.3,27.8,26.3z"/>
			<path class="st0" d="M39.8,28c-0.7-1-1.4-2-2.1-3c0-0.1-0.1-0.1-0.1-0.2c0.2,0,0.3,0,0.5,0c0.9-0.1,1.6-0.9,1.6-1.8
				c0-2.4,0-4.8,0-7.2c0-0.8,0-1.5,0-2.3c0-1.8-1.3-3.3-3.1-3.6c0,0-0.1,0-0.1,0c-2.6,0-5.3,0-7.9,0c-0.2,0-0.3,0.1-0.5,0.1
				c-1.6,0.4-2.7,1.8-2.7,3.4c0,3.2,0,6.4,0,9.6c0,0.9,0.8,1.7,1.7,1.8c0.1,0,0.2,0,0.3,0c0,0.1-0.1,0.1-0.1,0.2c-0.7,1-1.4,2-2.1,3
				c-0.2,0.3-0.1,0.7,0.2,0.9c0.3,0.2,0.6,0.1,0.8-0.2c0.3-0.4,0.5-0.7,0.8-1.1c0.1-0.1,0.1-0.1,0.2-0.1c3.6,0,7.2,0,10.7,0
				c0.1,0,0.2,0,0.2,0.1c0.2,0.4,0.5,0.7,0.7,1.1c0.2,0.3,0.6,0.4,0.9,0.2C40,28.7,40,28.4,39.8,28z M27.1,14.5
				c0-0.8,0.5-1.3,1.3-1.3c2.7,0,5.5,0,8.2,0c0.8,0,1.3,0.5,1.3,1.3c0,0.9,0,1.9,0,2.8c0,0.5-0.2,0.7-0.7,0.7c-1.5,0-3.1,0-4.6,0
				c-1.6,0-3.1,0-4.7,0c-0.5,0-0.7-0.2-0.7-0.7C27.1,16.4,27.1,15.4,27.1,14.5z M27.1,21.3c0-0.6,0.6-1.2,1.2-1.2
				c0.7,0,1.2,0.5,1.2,1.2c0,0.7-0.5,1.2-1.2,1.2C27.6,22.5,27.1,21.9,27.1,21.3z M27.8,26.3c0.3-0.5,0.7-1,1-1.4
				c0,0,0.1-0.1,0.2-0.1c1.9,0,3.8,0,5.8,0c0.4,0,0.8,0,1.3,0c0.1,0,0.1,0,0.2,0.1c0.3,0.5,0.6,0.9,1,1.4
				C34,26.3,30.9,26.3,27.8,26.3z M36.7,22.5c-0.7,0-1.2-0.5-1.2-1.2c0-0.7,0.5-1.2,1.2-1.2c0.7,0,1.2,0.5,1.2,1.2
				C37.9,21.9,37.3,22.5,36.7,22.5z"/>
			<path class="st4" d="M29.5,21.3c0,0.7-0.5,1.2-1.2,1.2c-0.7,0-1.2-0.6-1.2-1.2c0-0.6,0.6-1.2,1.2-1.2
				C29,20.1,29.5,20.6,29.5,21.3z"/>
			<path class="st4" d="M36.7,20.1c0.7,0,1.2,0.5,1.2,1.2c0,0.6-0.5,1.2-1.2,1.2c-0.7,0-1.2-0.5-1.2-1.2
				C35.5,20.6,36,20.1,36.7,20.1z"/>
			<g>
				<polyline class="st17" points="28.5,6.5 36.5,6.5 37.2,8.4 				"/>
				<polyline class="st17" points="36.5,6.5 28.5,6.5 27.8,8.4 				"/>
			</g>
			<line class="st17" x1="32.5" y1="10" x2="32.5" y2="6.5"/>
		</g>
	</g>
	<path class="st0" d="M22.8,32.1H5.3c-0.3,0-0.5-0.2-0.5-0.5v-0.3c0-0.3,0.2-0.5,0.5-0.5h17.5c0.3,0,0.5,0.2,0.5,0.5v0.3
		C23.3,31.9,23.1,32.1,22.8,32.1z"/>
</g>
</svg>
