<?xml version="1.0" encoding="utf-8"?>
<!-- Generator: Adobe Illustrator 18.1.1, SVG Export Plug-In . SVG Version: 6.00 Build 0)  -->
<svg version="1.1" id="Layer_1" xmlns="http://www.w3.org/2000/svg" xmlns:xlink="http://www.w3.org/1999/xlink" x="0px" y="0px"
	 viewBox="0 0 35.9 31.4" enable-background="new 0 0 35.9 31.4" xml:space="preserve">
<g>
	<g>
		<polygon fill="#E67817" points="6.1,10.7 4.1,10.7 4.1,0.8 10.8,0.8 10.8,7.1 8.8,7.1 8.8,2.8 6.1,2.8 		"/>
	</g>
	<g>
		<polygon fill="#E67817" points="24.3,29.1 18.8,29.1 18.8,21.8 15.1,21.8 15.1,29.1 5.4,29.1 5.4,19.5 0,19.5 0,13.9 16.8,0 
			26.3,7.8 25,9.4 16.8,2.6 2,14.8 2,17.5 7.4,17.5 7.4,27.1 13.1,27.1 13.1,19.8 20.8,19.8 20.8,27.1 24.3,27.1 		"/>
	</g>
	<g>
		<g>
			<path fill="#E67817" d="M28.6,31.3l-0.8-1c-0.2-0.3-5-6.5-5.9-12c-0.3-2,0.3-4,1.6-5.6c1.3-1.5,3.1-2.3,5.1-2.3
				c2.3,0,4.5,1,5.9,2.7c1.2,1.4,1.6,3.2,1.3,4.9c-1.1,5.4-6.1,12-6.4,12.3L28.6,31.3z M28.6,12.4c-1.4,0-2.7,0.6-3.5,1.6
				c-0.9,1.1-1.3,2.5-1.1,4c0.6,3.7,3.3,8,4.7,10c1.4-2,4.4-6.6,5.2-10.3c0.3-1.5-0.3-2.6-0.9-3.3C32,13.2,30.3,12.4,28.6,12.4z"/>
		</g>
		<g>
			<circle fill="#E67817" cx="28.9" cy="16.9" r="2"/>
		</g>
	</g>
</g>
</svg>
