<?xml version="1.0" encoding="utf-8"?>
<!-- Generator: Adobe Illustrator 18.1.1, SVG Export Plug-In . SVG Version: 6.00 Build 0)  -->
<svg version="1.1" id="Layer_1" xmlns="http://www.w3.org/2000/svg" xmlns:xlink="http://www.w3.org/1999/xlink" x="0px" y="0px"
	 viewBox="0 0 31.6 16" enable-background="new 0 0 31.6 16" xml:space="preserve">
<path fill="#69675D" d="M31.6,6.1L25,0H12.3L6.6,5.6H0v7.3h2.2c0.2,1.7,1.6,3,3.4,3c1.7,0,3.2-1.3,3.4-3h11.9c0.2,1.7,1.6,3,3.4,3
	c1.7,0,3.2-1.3,3.4-3h4.1L31.6,6.1L31.6,6.1z M28.4,5.6l-7.8,0V1.8h3.7L28.4,5.6z M13,1.8h5.8v3.8l-9.7,0L13,1.8z M5.5,14.2
	c-0.9,0-1.6-0.7-1.6-1.6c0-0.9,0.7-1.6,1.6-1.6c0.9,0,1.6,0.7,1.6,1.6C7.2,13.5,6.4,14.2,5.5,14.2z M24.1,14.2
	c-0.9,0-1.6-0.7-1.6-1.6s0.7-1.6,1.6-1.6c0.9,0,1.6,0.7,1.6,1.6S25,14.2,24.1,14.2z M27.2,11.2c-0.5-1.1-1.7-1.9-3-1.9
	c-1.3,0-2.5,0.8-3,1.9H8.6c-0.5-1.1-1.7-1.9-3-1.9c-1.3,0-2.5,0.8-3,1.9H1.8V7.3h5.5l0,0l22.6,0v3.8C29.9,11.2,27.2,11.2,27.2,11.2z
	"/>
</svg>
