<?xml version="1.0" encoding="utf-8"?>
<!-- Generator: Adobe Illustrator 18.1.1, SVG Export Plug-In . SVG Version: 6.00 Build 0)  -->
<svg version="1.1" id="Layer_1" xmlns="http://www.w3.org/2000/svg" xmlns:xlink="http://www.w3.org/1999/xlink" x="0px" y="0px"
	 viewBox="0 0 47 47" enable-background="new 0 0 47 47" xml:space="preserve">
<g>
	<g>
		<g>
			<circle fill="#E37826" cx="23.5" cy="23.5" r="22.5"/>
		</g>
		<g>
			<path fill="#FFFFFF" d="M23.5,47C10.5,47,0,36.5,0,23.5C0,10.5,10.5,0,23.5,0C36.5,0,47,10.5,47,23.5C47,36.5,36.5,47,23.5,47z
				 M23.5,1.9c-11.9,0-21.6,9.7-21.6,21.6c0,11.9,9.7,21.6,21.6,21.6c11.9,0,21.6-9.7,21.6-21.6C45.1,11.6,35.4,1.9,23.5,1.9z"/>
		</g>
	</g>
	<g>
		<g>
			<path fill="#FFFFFF" d="M30.3,35.7h-18V15.6h18V35.7z M14.2,33.8h14.2V17.5H14.2V33.8z"/>
		</g>
		<g>
			<polygon fill="#FFFFFF" points="34.7,31.9 29.3,31.9 29.3,30 32.8,30 32.8,13.2 17.9,13.2 17.9,16.1 16,16.1 16,11.3 34.7,11.3 
							"/>
		</g>
		<g>
			<rect x="16.7" y="20.6" fill="#FFFFFF" width="9.2" height="1.9"/>
		</g>
		<g>
			<rect x="16.7" y="24.9" fill="#FFFFFF" width="9.2" height="1.9"/>
		</g>
		<g>
			<rect x="16.7" y="29" fill="#FFFFFF" width="9.2" height="1.9"/>
		</g>
	</g>
</g>
</svg>
