<?xml version="1.0" encoding="utf-8"?>
<!-- Generator: Adobe Illustrator 18.1.1, SVG Export Plug-In . SVG Version: 6.00 Build 0)  -->
<svg version="1.1" id="Layer_1" xmlns="http://www.w3.org/2000/svg" xmlns:xlink="http://www.w3.org/1999/xlink" x="0px" y="0px"
	 viewBox="0 0 36.8 18.6" enable-background="new 0 0 36.8 18.6" xml:space="preserve">
<g>
	<g>
		<g>
			<path fill="#E47825" d="M6.4,18.6c-2.2,0-3.9-1.8-3.9-3.9s1.8-3.9,3.9-3.9s3.9,1.8,3.9,3.9S8.6,18.6,6.4,18.6z M6.4,12.8
				c-1,0-1.9,0.8-1.9,1.9s0.8,1.9,1.9,1.9s1.9-0.8,1.9-1.9S7.5,12.8,6.4,12.8z"/>
		</g>
		<g>
			<path fill="#E47825" d="M28.1,18.6c-2.2,0-3.9-1.8-3.9-3.9s1.8-3.9,3.9-3.9c2.2,0,3.9,1.8,3.9,3.9S30.3,18.6,28.1,18.6z
				 M28.1,12.8c-1,0-1.9,0.8-1.9,1.9s0.8,1.9,1.9,1.9c1,0,1.9-0.8,1.9-1.9S29.1,12.8,28.1,12.8z"/>
		</g>
		<g>
			<rect x="9.5" y="13" fill="#E47825" width="15.7" height="2.1"/>
		</g>
		<g>
			<polygon fill="#E47825" points="36.8,15.1 31,15.1 31,13 34.8,13 34.8,8 28.3,2.1 15.2,2.1 8.5,8.6 2,8.6 2,13 3.5,13 3.5,15.1 
				-0.1,15.1 -0.1,6.5 7.6,6.5 14.3,0 29.1,0 36.8,7.1 			"/>
		</g>
		<g>
			<rect x="8.1" y="6.5" fill="#E47825" width="27.3" height="2.1"/>
		</g>
	</g>
	<g>
		<rect x="21.9" y="1" fill="#E47825" width="2.1" height="5.9"/>
	</g>
</g>
</svg>
