<?xml version="1.0" encoding="utf-8"?>
<!-- Generator: Adobe Illustrator 21.0.0, SVG Export Plug-In . SVG Version: 6.00 Build 0)  -->
<svg version="1.1" id="Layer_1" xmlns="http://www.w3.org/2000/svg" xmlns:xlink="http://www.w3.org/1999/xlink" x="0px" y="0px"
	 viewBox="0 0 32 32" style="enable-background:new 0 0 32 32;" xml:space="preserve">
<style type="text/css">
	.st0{fill-rule:evenodd;clip-rule:evenodd;fill:#053C6D;}
	.st1{fill-rule:evenodd;clip-rule:evenodd;fill:#E47826;}
</style>
<path class="st0" d="M16,1C7.7,1,1,7.7,1,16c0,8.3,6.7,15,15,15s15-6.7,15-15C31,7.7,24.3,1,16,1z M16,30C8.3,30,2,23.7,2,16
	S8.3,2,16,2s14,6.3,14,14S23.7,30,16,30z"/>
<path class="st1" d="M17.8,2.1C8.6,0.9,0.9,8.6,2.1,17.8c0.8,6.3,5.9,11.3,12.1,12.1c9.2,1.2,16.9-6.6,15.8-15.8
	C29.2,7.9,24.1,2.8,17.8,2.1z M24.6,13.6l-8,8c-0.4,0.4-1,0.4-1.3,0l-8-8c-0.4-0.4-0.4-1,0-1.3s1-0.4,1.3,0l7.3,7.3l7.3-7.3
	c0.4-0.4,1-0.4,1.3,0S25,13.3,24.6,13.6z"/>
</svg>
