<?xml version="1.0" encoding="utf-8"?>
<!-- Generator: Adobe Illustrator 18.1.1, SVG Export Plug-In . SVG Version: 6.00 Build 0)  -->
<svg version="1.1" id="Layer_1" xmlns="http://www.w3.org/2000/svg" xmlns:xlink="http://www.w3.org/1999/xlink" x="0px" y="0px"
	 viewBox="0 0 12.6 13.3" enable-background="new 0 0 12.6 13.3" xml:space="preserve">
<g>
	<g>
		<path fill="#333333" d="M12.2,13.3H0.3C0.1,13.3,0,13.2,0,13V2.8c0-0.2,0.1-0.3,0.3-0.3h11.9c0.2,0,0.3,0.1,0.3,0.3V13
			C12.6,13.2,12.4,13.3,12.2,13.3z M0.7,12.7h11.3V3.1H0.7V12.7z"/>
	</g>
	<g>
		<path fill="#333333" d="M3.4,3H3.1C2.8,3,2.6,2.7,2.6,2.5V0.6c0-0.3,0.2-0.5,0.5-0.5h0.3c0.3,0,0.5,0.2,0.5,0.5v1.9
			C3.9,2.7,3.7,3,3.4,3z"/>
	</g>
	<g>
		<path fill="#333333" d="M9.8,3.1H9.5C9.2,3.1,9,2.9,9,2.6V0.6c0-0.3,0.2-0.5,0.5-0.5h0.3c0.3,0,0.5,0.2,0.5,0.5v2.1
			C10.3,2.9,10.1,3.1,9.8,3.1z"/>
	</g>
	<g>
		<rect x="4.1" y="2.8" fill="#333333" width="0.7" height="10.2"/>
	</g>
	<g>
		<rect x="8" y="2.8" fill="#333333" width="0.7" height="10.2"/>
	</g>
	<g>
		<rect x="0.1" y="9.4" fill="#333333" width="12.1" height="0.7"/>
	</g>
	<g>
		<rect x="0.3" y="6" fill="#333333" width="11.9" height="0.7"/>
	</g>
</g>
</svg>
