<?xml version="1.0" encoding="utf-8"?>
<!-- Generator: Adobe Illustrator 18.1.1, SVG Export Plug-In . SVG Version: 6.00 Build 0)  -->
<svg version="1.1" xmlns="http://www.w3.org/2000/svg" xmlns:xlink="http://www.w3.org/1999/xlink" x="0px" y="0px"
	 viewBox="0 0 21 25.3" enable-background="new 0 0 21 25.3" xml:space="preserve">
<g id="Layer_1">
	<path fill="#FFFFFF" d="M19.4,10.9c-0.1-2.4-0.6-5.8-2.6-8.2c-1.5-1.7-3.6-2.6-6.1-2.6C8.3,0.1,6.4,0.9,5,2.5C2.7,4.9,2,8.5,1.8,11
		c-1,0.3-1.8,1.6-1.8,3.2c0,1.8,1,3.2,2.2,3.2c0.1,0,0.3,0,0.4-0.1c0.4,1.4,1,2.9,2.2,4.1c1.3,1.3,2.9,2.1,4.9,2.2
		c0.3,0.8,1,1.4,1.9,1.4c1.1,0,2-0.9,2-2s-0.9-2-2-2c-1,0-1.8,0.7-2,1.6c-1.7-0.2-3.1-1-4.2-2.1C4.6,19.6,4,19,3.7,17h0
		C4.1,17,4,17,4,16.6v-4.9c0-0.4-0.1-0.7-0.5-0.8c0.2-2.2,1-5.2,2.7-7.1c1.1-1.2,2.5-1.7,4.3-1.7c2,0,3.5,0.6,4.7,1.9
		c1.6,1.8,2.3,4.6,2.3,6.7c-0.4,0-0.6,0.4-0.6,0.8v4.9c0,0.4,0,0.6,0.4,0.6h0.9c0.1,0,0.1,0.1,0.2,0.1c0.1,0,0.2,0.1,0.3,0.1
		c1.2,0,2.2-1.4,2.2-3.2C21,12.4,20.3,11.2,19.4,10.9z"/>
</g>
<g id="Layer_2">
</g>
</svg>
