<?xml version="1.0" encoding="utf-8"?>
<!-- Generator: Adobe Illustrator 16.0.4, SVG Export Plug-In . SVG Version: 6.00 Build 0)  -->
<!DOCTYPE svg PUBLIC "-//W3C//DTD SVG 1.1//EN" "http://www.w3.org/Graphics/SVG/1.1/DTD/svg11.dtd">
<svg version="1.1" id="Layer_1" xmlns="http://www.w3.org/2000/svg" xmlns:xlink="http://www.w3.org/1999/xlink" x="0px" y="0px"
	 width="26.312px" height="19.375px" viewBox="0 0 26.312 19.375" enable-background="new 0 0 26.312 19.375" xml:space="preserve">
<g>
	<path fill="#333333" d="M13.197,19.208c-3.414,0-6.829-0.003-10.244-0.009c-1.608-0.004-2.734-1.126-2.74-2.729
		c-0.011-3.794-0.011-7.588,0-11.382C0.219,3.478,1.29,2.409,2.94,2.366l0.089-0.001c0.397-0.87,0.821-1.068,1.999-1.068
		c0.145,0,0.305,0.002,0.482,0.006c0.776,0.02,1.22,0.306,1.543,1.031c0.793-0.001,1.334-0.107,1.755-0.646
		c0.911-1.167,2.061-1.431,3.509-1.468c0.962-0.025,1.833-0.009,2.873,0.016c0.657,0.014,1.176,0.229,1.631,0.679l0.357,0.356
		C18.276,2.37,18.276,2.37,19.31,2.37l2.892-0.007c0.41,0,0.819,0.001,1.23,0.005c1.646,0.016,2.756,1.097,2.763,2.69
		c0.016,3.81,0.015,7.62,0,11.431c-0.005,1.594-1.141,2.709-2.761,2.711C20.021,19.205,16.609,19.208,13.197,19.208z M3.086,3.365
		L2.962,3.366C1.848,3.395,1.18,4.04,1.177,5.092c-0.011,3.792-0.011,7.582,0,11.374c0.003,1.051,0.702,1.731,1.779,1.733
		c6.826,0.011,13.65,0.01,20.476,0.001c1.107-0.002,1.797-0.658,1.799-1.715c0.016-3.809,0.017-7.615,0-11.423
		c-0.004-1.051-0.68-1.684-1.808-1.694c-0.407-0.004-0.814-0.005-1.222-0.005L19.31,3.37c-1.42,0-1.631-0.211-2.8-1.378
		l-0.354-0.354c-0.277-0.273-0.572-0.394-0.987-0.402c-1.027-0.023-1.878-0.04-2.829-0.016c-1.247,0.032-2.102,0.222-2.785,1.097
		C8.859,3.211,7.938,3.334,7.047,3.334L6.385,3.32L6.273,2.998C6.061,2.383,5.926,2.313,5.488,2.303
		c-0.169-0.004-0.322-0.006-0.46-0.006c-0.941,0-0.953,0.028-1.238,0.758L3.667,3.366L3.086,3.365z"/>
</g>
<g>
	<path fill="#333333" d="M13.242,16.812c-1.648,0-3.242-0.69-4.373-1.896c-1.047-1.117-1.624-2.573-1.621-4.103
		c0.003-3.297,2.685-5.989,5.978-6.001c1.668,0,3.263,0.695,4.397,1.906c1.051,1.119,1.628,2.577,1.625,4.103
		c-0.004,3.288-2.686,5.978-5.978,5.991H13.242z M13.246,5.884c-2.758,0.01-4.99,2.222-4.993,4.932
		c-0.001,1.241,0.47,2.43,1.328,3.344c0.943,1.006,2.278,1.583,3.661,1.583v0.535l0.024-0.535c2.741-0.013,4.972-2.222,4.976-4.924
		c0.002-1.237-0.47-2.426-1.33-3.344C15.964,6.463,14.629,5.884,13.246,5.884z"/>
</g>
<g>
	<path fill="#333333" d="M13.21,13.772c-1.662,0.003-3.002-1.329-3.005-2.989c-0.003-1.648,1.349-3.008,2.994-3.01
		c1.645-0.004,3,1.348,3.005,2.999C16.212,12.428,14.87,13.771,13.21,13.772"/>
</g>
<path fill="#333333" d="M6.609,6.293c0,0.237-0.248,0.428-0.553,0.428H3.959c-0.305,0-0.553-0.19-0.553-0.428V5.082
	c0-0.237,0.248-0.428,0.553-0.428h2.098c0.305,0,0.553,0.19,0.553,0.428V6.293z"/>
</svg>
