<?xml version="1.0" encoding="utf-8"?>
<!-- Generator: Adobe Illustrator 18.1.1, SVG Export Plug-In . SVG Version: 6.00 Build 0)  -->
<svg version="1.1" id="Layer_1" xmlns="http://www.w3.org/2000/svg" xmlns:xlink="http://www.w3.org/1999/xlink" x="0px" y="0px"
	 viewBox="0 0 24 14.1" enable-background="new 0 0 24 14.1" xml:space="preserve">
<g>
	<path fill="#E57426" d="M0,0v14.1h24V0H0z M22.8,1.2v1.7H1.2V1.2H22.8z M22.8,4v1.1H1.2V4C1.2,4,22.8,4,22.8,4z M1.2,12.9V6.3h21.6
		v6.6H1.2z"/>
	<path fill="#E57426" d="M5.1,8.2c0.3,0,0.5,0.1,0.7,0.1L6,8C5.8,7.9,5.5,7.8,5.1,7.8C4,7.8,3.2,8.5,3.2,9.6c0,1.1,0.8,1.7,1.8,1.7
		c0.4,0,0.8-0.1,1-0.2l-0.1-0.4C5.7,10.9,5.4,11,5.1,11c-0.9,0-1.4-0.5-1.4-1.4C3.7,8.7,4.3,8.2,5.1,8.2z"/>
</g>
</svg>
