<?xml version="1.0" encoding="utf-8"?>
<!-- Generator: Adobe Illustrator 19.1.0, SVG Export Plug-In . SVG Version: 6.00 Build 0)  -->
<svg version="1.1" id="Layer_1" xmlns="http://www.w3.org/2000/svg" xmlns:xlink="http://www.w3.org/1999/xlink" x="0px" y="0px"
	 viewBox="0 0 44 44" style="enable-background:new 0 0 44 44;" xml:space="preserve">
<style type="text/css">
	.st0{fill:#9B2D1E;}
	.st1{font-family:'Roboto-Black';}
	.st2{font-size:5px;}
	.st3{fill:none;stroke:#F98E2B;stroke-miterlimit:10;}
	.st4{fill:#053C6D;}
</style>
<g>
	<g>
		<text transform="matrix(1 0 0 1 8.7547 27.0701)" class="st0 st1 st2">+</text>
	</g>
	<g>
		<text transform="matrix(1 0 0 1 29.2258 6.972)" class="st0 st1 st2">+</text>
	</g>
	<g>
		<text transform="matrix(1 0 0 1 38.0575 36.3055)" class="st0 st1 st2">+</text>
	</g>
	<g>
		<line class="st3" x1="32.8" y1="36.3" x2="20.6" y2="36.3"/>
		<line class="st3" x1="32.1" y1="38.8" x2="21.4" y2="38.8"/>
		<line class="st3" x1="31.1" y1="41.3" x2="22.4" y2="41.3"/>
		<g>
			<line class="st3" x1="9.4" y1="7" x2="23.9" y2="7"/>
			<g>
				<path class="st3" d="M23.9,11.4C23.9,11.4,23.9,11.4,23.9,11.4L23.9,11.4c0-1.9,0-3.7,0-5.5c0-1.2-1.2-2.2-2.5-2.2
					c-5.2,0-10.4,0-15.5,0c-1.1,0-2.1,0.7-2.5,1.6c0,0.1-0.1,0.2-0.1,0.3c0,1.9,0,3.7,0,5.6c0,0.1,0,0.2,0,0.3c0,1.9,0,3.7,0,5.6
					c0,0.1,0.1,0.2,0.1,0.3c0.3,1,1.3,1.6,2.5,1.6c5.2,0,10.4,0,15.5,0c1.4,0,2.5-1,2.5-2.2C23.9,15.2,23.9,13.3,23.9,11.4
					L23.9,11.4C23.9,11.5,23.9,11.5,23.9,11.4z"/>
				<line class="st3" x1="3.3" y1="7" x2="8.1" y2="7"/>
				<line class="st3" x1="3.3" y1="9.2" x2="23.9" y2="9.2"/>
				<line class="st3" x1="5.1" y1="16" x2="8.8" y2="16"/>
			</g>
		</g>
	</g>
	<path class="st4" d="M26.7,10.9c-6.3,0-11.3,5.1-11.3,11.3s5.1,11.3,11.3,11.3s11.3-5.1,11.3-11.3S33,10.9,26.7,10.9z M32.2,23.6
		h-4v4.5h-3v-4.5h-4v-2.9h4v-4.3h3v4.3h4V23.6z"/>
</g>
</svg>
