<?xml version="1.0" encoding="utf-8"?>
<!-- Generator: Adobe Illustrator 19.1.0, SVG Export Plug-In . SVG Version: 6.00 Build 0)  -->
<svg version="1.1" id="Layer_1" xmlns="http://www.w3.org/2000/svg" xmlns:xlink="http://www.w3.org/1999/xlink" x="0px" y="0px"
	 viewBox="0 0 44 44" style="enable-background:new 0 0 44 44;" xml:space="preserve">
<style type="text/css">
	.st0{fill:#FFFFFF;}
	.st1{fill:#9B2D1E;}
	.st2{font-family:'Roboto-Black';}
	.st3{font-size:5px;}
	.st4{fill:none;stroke:#F98E2B;stroke-miterlimit:10;}
	.st5{fill:#053C6D;}
	.st6{fill:none;stroke:#053C6D;stroke-width:0.8;stroke-miterlimit:10;}
</style>
<g>
	<g>
		<text transform="matrix(1 0 0 1 33.9443 12.4462)" class="st1 st2 st3">+</text>
	</g>
	<g>
		<text transform="matrix(1 0 0 1 36.8645 40.5331)" class="st1 st2 st3">+</text>
	</g>
	<g>
		<text transform="matrix(1 0 0 1 14.1833 29.1928)" class="st1 st2 st3">+</text>
	</g>
	<g>
		<line class="st4" x1="14.6" y1="17.9" x2="4.5" y2="17.9"/>
		<line class="st4" x1="13.2" y1="20.4" x2="7.5" y2="20.4"/>
		<line class="st4" x1="17.2" y1="22.9" x2="7.5" y2="22.9"/>
		<path class="st4" d="M13.2,4.1c0.5,1.5,1.5,2.7,2.6,3.8c1,1.1,1.4,2.4,0.9,3.8c-0.5,1.4-1.5,2.2-2.9,2.4c-1.4,0.2-2.6-0.3-3.5-1.4
			c-0.9-1.2-1-2.4-0.4-3.8c0.2-0.4,0.4-0.8,0.7-1.1C11.7,6.8,12.7,5.6,13.2,4.1z"/>
	</g>
	<path class="st5" d="M17.3,38c0-0.6,0-1.1,0-1.7c0.6,0,1.2-0.1,1.9-0.1c0-0.4,0-0.8,0-1.2c0-6.6,0-13.2,0-19.8
		c0-2.1,0.6-2.7,2.7-2.7c2.9,0,5.8,0,8.8,0c1.7,0,2.3,0.7,2.3,2.3c0,2.6,0,5.3,0,7.9c0,0.3,0,0.7,0,1c2.3,0.5,2.8,1.1,2.8,3.4
		c0,1.8,0,3.5,0,5.3c0,0.3,0.3,0.6,0.5,0.8c0.2-0.3,0.5-0.6,0.5-0.8c0-4.5,0-8.9,0-13.4c0-1-0.6-1.6-1.6-1.6c-0.4,0-0.7,0-1.2-0.1
		c0-0.6,0-1.2,0-1.7c2.7-0.6,4.6,0.9,4.6,3.6c0,4.4,0,8.9,0,13.3c0,1.6-0.9,2.7-2.3,2.7c-1.4,0-2.5-1-2.5-2.7c0-1.9,0-3.8,0-5.7
		c0-0.5,0-1.1-0.9-1c0,3.5,0,6.9,0,10.4c0.6,0,1.2,0.1,1.9,0.1c0,0.6,0,1.1,0,1.8C29.1,38,23.3,38,17.3,38z M26.2,14.3c-1,0-2,0-3,0
		c-1.2,0-2,0.8-2,2c0,1.6,0,3.3,0,5c0,1.2,0.8,2,2,2c2,0,3.9,0,5.9,0c1.2,0,2-0.8,2.1-2c0-1.6,0-3.3,0-5c0-1.2-0.8-2-2-2
		C28.1,14.3,27.2,14.3,26.2,14.3z"/>
	<g>
		<line class="st6" x1="23.6" y1="19" x2="22.3" y2="18.3"/>
		<line class="st6" x1="28.8" y1="19" x2="30.1" y2="18.3"/>
		<line class="st6" x1="26.2" y1="17.6" x2="26.2" y2="16.1"/>
	</g>
</g>
</svg>
