<?xml version="1.0" encoding="utf-8"?>
<!-- Generator: Adobe Illustrator 19.1.0, SVG Export Plug-In . SVG Version: 6.00 Build 0)  -->
<svg version="1.1" id="Layer_1" xmlns="http://www.w3.org/2000/svg" xmlns:xlink="http://www.w3.org/1999/xlink" x="0px" y="0px"
	 viewBox="0 0 44 44" style="enable-background:new 0 0 44 44;" xml:space="preserve">
<style type="text/css">
	.st0{fill:#FFFFFF;}
	.st1{font-family:'Roboto-Black';}
	.st2{font-size:5px;}
	.st3{fill:none;stroke:#FFFFFF;stroke-miterlimit:10;}
</style>
<g>
	<text transform="matrix(1 0 0 1 1.0193 21.5239)" class="st0 st1 st2">+</text>
	<text transform="matrix(1 0 0 1 33.533 10.5617)" class="st0 st1 st2">+</text>
	<text transform="matrix(1 0 0 1 41.0331 33.6785)" class="st0 st1 st2">+</text>
	<line class="st3" x1="43.5" y1="37.2" x2="25.8" y2="37.2"/>
	<line class="st3" x1="41" y1="39.7" x2="23.8" y2="39.7"/>
	<line class="st3" x1="33" y1="42.2" x2="27.3" y2="42.2"/>
	<g>
		<path class="st3" d="M4.2,9.4c0.9-0.8,2.1-1.3,3.5-1.3c1.3,0,2.5,0.5,3.5,1.3"/>
		<path class="st3" d="M2.4,7.5c1.4-1.2,3.2-2,5.2-2s3.8,0.8,5.2,2"/>
		<path class="st3" d="M0.5,5.6c1.9-1.7,4.4-2.8,7.1-2.8c2.8,0,5.3,1.1,7.1,2.8"/>
		<circle class="st3" cx="7.7" cy="11.8" r="1.8"/>
	</g>
	<g>
		<path class="st0" d="M9.7,16.2c0-0.2,0.1-0.3,0.1-0.5c0.4-1.5,1.8-2.6,3.4-2.6c7.2,0,14.4,0,21.6,0c2,0,3.5,1.6,3.6,3.6
			c0,1.2,0,2.4,0,3.6c-9.6,0-19.2,0-28.7,0C9.7,18.9,9.7,17.5,9.7,16.2z"/>
		<path class="st0" d="M38.4,22c-9.6,0-19.1,0-28.7,0c0,3.1,0,6.3,0,9.4c0,0.2,0.1,0.3,0.1,0.5c0.4,1.5,1.8,2.6,3.4,2.6
			c7.2,0,14.4,0,21.7,0c1.9,0,3.5-1.6,3.5-3.5c0-3,0-6,0-8.9C38.4,22.1,38.4,22.1,38.4,22z M35.4,31.9H31V29h4.4V31.9z"/>
	</g>
</g>
</svg>
