<?xml version="1.0" encoding="utf-8"?>
<!-- Generator: Adobe Illustrator 19.1.0, SVG Export Plug-In . SVG Version: 6.00 Build 0)  -->
<svg version="1.1" id="Layer_1" xmlns="http://www.w3.org/2000/svg" xmlns:xlink="http://www.w3.org/1999/xlink" x="0px" y="0px"
	 viewBox="0 0 44 44" style="enable-background:new 0 0 44 44;" xml:space="preserve">
<style type="text/css">
	.st0{fill:#9B2D1E;}
	.st1{font-family:'Roboto-Black';}
	.st2{font-size:5px;}
	.st3{fill:#053C6D;}
	.st4{fill:none;stroke:#F98E2B;stroke-miterlimit:10;}
</style>
<g>
	<g>
		<text transform="matrix(1 0 0 1 36.6855 16.2594)" class="st0 st1 st2">+</text>
	</g>
	<g>
		<text transform="matrix(1 0 0 1 31.0224 10.6658)" class="st0 st1 st2">+</text>
	</g>
	<g>
		<text transform="matrix(1 0 0 1 4.6439 19.5816)" class="st0 st1 st2">+</text>
	</g>
	<g>
		<path class="st3" d="M29.5,20.3c-1.7,5.2-3.5,10.3-6,15.2c-2.5-4.9-4.3-10-6-15.2C21.4,20.1,25.4,20.1,29.5,20.3z"/>
		<path class="st3" d="M37,20.9c-3.1,5.6-7.3,10.1-12,14.3c0.3-0.6,0.5-1.1,0.8-1.7c1.7-3.7,3.1-7.6,4.4-11.5
			c0.2-0.5,0.3-0.9,0.5-1.4c0.1-0.2,0.2-0.3,0.4-0.2c1.1,0.1,2.1,0.1,3.2,0.2C35.2,20.7,36,20.8,37,20.9z"/>
		<path class="st3" d="M9.9,20.9c0.7-0.1,1.3-0.1,1.9-0.2c1.3-0.1,2.7-0.2,4-0.3c0.3,0,0.3,0.1,0.4,0.3c0.8,2.4,1.6,4.8,2.6,7.2
			c0.9,2.4,2,4.8,3.1,7.2c0,0,0,0.1,0.1,0.2C17.2,31,13,26.5,9.9,20.9z"/>
		<path class="st3" d="M18,19c1.7-2.3,3.4-4.7,5.5-6.7c2.1,2,3.8,4.4,5.5,6.7C25.3,19,21.6,19,18,19z"/>
		<path class="st3" d="M14.9,12.9c0.3,2.1,0.6,4.2,0.9,6.2c-1.9,0.2-3.9,0.3-5.9,0.5C11.2,17,12.9,14.8,14.9,12.9z"/>
		<path class="st3" d="M31,19.1c0.3-2.1,0.6-4.1,0.9-6.2c2,1.9,3.7,4.1,5,6.6C35,19.4,33,19.3,31,19.1z"/>
		<path class="st3" d="M25.2,12.1c1.1,0.1,2.2,0.1,3.3,0.2c0.6,0,1.2,0.1,1.9,0.1c0.3,0,0.4,0.1,0.3,0.4c-0.1,0.8-0.2,1.6-0.3,2.3
			c-0.1,0.9-0.3,1.8-0.4,2.7c0,0.1,0,0.1-0.1,0.2C28.3,16,26.8,14.1,25.2,12.1z"/>
		<path class="st3" d="M21.7,12.1c-1.6,2-3.1,3.9-4.7,5.9c-0.1-0.3-0.1-0.6-0.2-0.9c-0.2-1.3-0.4-2.7-0.5-4
			c-0.1-0.7-0.1-0.7,0.7-0.7c0.5,0,1.1-0.1,1.6-0.1c1-0.1,1.9-0.1,2.9-0.1C21.5,12.1,21.6,12.1,21.7,12.1z"/>
	</g>
	<g>
		<line class="st4" x1="28.3" y1="36.7" x2="19.6" y2="36.7"/>
		<line class="st4" x1="31.8" y1="39.2" x2="17.6" y2="39.2"/>
		<line class="st4" x1="23.8" y1="41.7" x2="15.1" y2="41.7"/>
		<polygon class="st4" points="11.7,4.9 14.5,3.3 14,6.5 16.4,8.8 13.2,9.3 11.8,12.2 10.3,9.3 7,8.9 9.3,6.6 8.7,3.4 		"/>
	</g>
</g>
</svg>
