<?xml version="1.0" encoding="utf-8"?>
<!-- Generator: Adobe Illustrator 19.1.0, SVG Export Plug-In . SVG Version: 6.00 Build 0)  -->
<svg version="1.1" id="Layer_1" xmlns="http://www.w3.org/2000/svg" xmlns:xlink="http://www.w3.org/1999/xlink" x="0px" y="0px"
	 viewBox="0 0 44 44" style="enable-background:new 0 0 44 44;" xml:space="preserve">
<style type="text/css">
	.st0{fill:#9B2D1E;}
	.st1{font-family:'Roboto-Black';}
	.st2{font-size:5px;}
	.st3{fill:#053C6D;}
	.st4{fill:none;stroke:#F98E2B;stroke-miterlimit:10;}
	.st5{fill:#F2EFDF;}
</style>
<g>
	<g>
		<text transform="matrix(1 0 0 1 1.0678 21.1447)" class="st0 st1 st2">+</text>
	</g>
	<g>
		<text transform="matrix(1 0 0 1 33.5815 10.1825)" class="st0 st1 st2">+</text>
	</g>
	<g>
		<text transform="matrix(1 0 0 1 41.0816 33.2993)" class="st0 st1 st2">+</text>
	</g>
	<g>
		<path class="st3" d="M9.7,31.1c0-3.1,0-6.3,0-9.4c9.6,0,19.1,0,28.7,0c0,0.1,0,0.1,0,0.1c0,3,0,6,0,8.9c0,1.9-1.6,3.5-3.5,3.5
			c-7.2,0-14.4,0-21.7,0c-1.6,0-3-1.1-3.4-2.6C9.8,31.4,9.8,31.2,9.7,31.1z"/>
		<path class="st3" d="M9.7,15.8c0-0.2,0.1-0.3,0.1-0.5c0.4-1.5,1.8-2.6,3.4-2.6c7.2,0,14.4,0,21.6,0c2,0,3.5,1.6,3.6,3.6
			c0,1.2,0,2.4,0,3.6c-9.6,0-19.2,0-28.7,0C9.7,18.5,9.7,17.2,9.7,15.8z"/>
	</g>
	<line class="st4" x1="43.5" y1="36.8" x2="25.9" y2="36.8"/>
	<line class="st4" x1="41.1" y1="39.3" x2="23.9" y2="39.3"/>
	<line class="st4" x1="33.1" y1="41.8" x2="27.4" y2="41.8"/>
	<g>
		<path class="st4" d="M4.2,9c0.9-0.8,2.1-1.3,3.5-1.3c1.3,0,2.5,0.5,3.5,1.3"/>
		<path class="st4" d="M2.5,7.1c1.4-1.2,3.2-2,5.2-2s3.8,0.8,5.2,2"/>
		<path class="st4" d="M0.6,5.3c1.9-1.7,4.4-2.8,7.1-2.8c2.8,0,5.3,1.1,7.1,2.8"/>
		<circle class="st4" cx="7.7" cy="11.4" r="1.8"/>
	</g>
	<rect x="31" y="28.6" class="st5" width="4.4" height="2.9"/>
</g>
</svg>
