<?xml version="1.0" encoding="utf-8"?>
<!-- Generator: Adobe Illustrator 19.1.0, SVG Export Plug-In . SVG Version: 6.00 Build 0)  -->
<svg version="1.1" id="Layer_1" xmlns="http://www.w3.org/2000/svg" xmlns:xlink="http://www.w3.org/1999/xlink" x="0px" y="0px"
	 viewBox="0 0 44 44" style="enable-background:new 0 0 44 44;" xml:space="preserve">
<style type="text/css">
	.st0{fill:#9B2D1E;}
	.st1{font-family:'Roboto-Black';}
	.st2{font-size:5px;}
	.st3{fill:#053C6D;}
	.st4{fill:none;stroke:#F98E2B;stroke-miterlimit:10;}
</style>
<g>
	<g>
		<text transform="matrix(1 0 0 1 9.3282 33.4023)" class="st0 st1 st2">+</text>
	</g>
	<g>
		<text transform="matrix(1 0 0 1 38.0157 16.1523)" class="st0 st1 st2">+</text>
	</g>
	<g>
		<text transform="matrix(1 0 0 1 3.3136 24.2461)" class="st0 st1 st2">+</text>
	</g>
	<path class="st3" d="M34.2,36.9c0.2,0.6,0.6,1.2,0.6,1.7c0,0.7-0.1,1.6-0.6,1.9c-0.8,0.5-1.5,0.1-1.9-0.8c0,0,0-0.1-0.1-0.1
		c-0.4-2.6-2-3.2-4.4-2.8c-0.6,0.1-1.2,0.1-1.8,0c-2.4-0.3-4.3,0-4.8,2.9c-0.1,0.9-1.1,1.4-1.9,0.9c-0.4-0.3-0.6-1.2-0.6-1.9
		c0-0.6,0.4-1.1,0.6-1.6c-0.1-0.1-0.2-0.2-0.3-0.2c-3.3,0-3.2-0.6-3.2-3.4c0-4.4,0-8.8,0-13.2c0-3.3,1.6-5,4.8-5c4,0,7.9,0,11.9,0
		c3.3,0,4.9,1.6,4.9,4.9c0,4.7,0,9.3,0,14c0,2.4-0.2,2.6-2.5,2.7C34.8,36.8,34.6,36.9,34.2,36.9z M35.7,25.8c0-2.1,0-3.9,0-5.9
		c-6,0-11.9,0-17.8,0c0,2,0,3.9,0,5.9C23.9,25.8,29.7,25.8,35.7,25.8z M20.4,28c-1.2,0-2.1,0.9-2.1,2.1c0,1.2,0.9,2.1,2.1,2
		c1.2-0.1,1.9-0.8,2-2C22.4,28.9,21.5,28,20.4,28z M35.3,30.1c0-1.2-0.8-2.1-2-2.1c-1.2,0-2.1,0.9-2.1,2.1c0.1,1.2,0.8,1.9,2,2
		C34.3,32.2,35.2,31.2,35.3,30.1z"/>
	<g>
		<line class="st4" x1="33.5" y1="7.5" x2="24.8" y2="7.5"/>
		<line class="st4" x1="37.1" y1="10" x2="22.8" y2="10"/>
		<line class="st4" x1="29.1" y1="12.5" x2="20.3" y2="12.5"/>
		<path class="st4" d="M11.5,14.1c-2.7,0-5.4,0-8.2,0c2.7-3.7,5.4-7.3,8-10.9c0,0,0.1,0,0.1,0c-0.4,2-0.7,4-1.1,6.1
			c2.7,0,5.4,0,8.2,0c-2.7,3.7-5.4,7.3-8.1,10.9c0,0-0.1,0-0.1-0.1C10.8,18.3,11.2,16.2,11.5,14.1z"/>
	</g>
</g>
</svg>
