<?xml version="1.0" encoding="utf-8"?>
<!-- Generator: Adobe Illustrator 18.1.1, SVG Export Plug-In . SVG Version: 6.00 Build 0)  -->
<svg version="1.1" id="Layer_1" xmlns="http://www.w3.org/2000/svg" xmlns:xlink="http://www.w3.org/1999/xlink" x="0px" y="0px"
	 viewBox="0 0 47 47" enable-background="new 0 0 47 47" xml:space="preserve">
<g>
	<g>
		<g>
			<circle fill="#E37826" cx="23.5" cy="23.5" r="22.5"/>
		</g>
		<g>
			<path fill="#FFFFFF" d="M23.5,47C10.5,47,0,36.5,0,23.5S10.5,0,23.5,0C36.5,0,47,10.5,47,23.5S36.5,47,23.5,47z M23.5,1.9
				c-11.9,0-21.6,9.7-21.6,21.6s9.7,21.6,21.6,21.6s21.6-9.7,21.6-21.6S35.4,1.9,23.5,1.9z"/>
		</g>
	</g>
	<g>
		<g>
			<path fill="#FFFFFF" d="M32.5,36.9H12.3V12.5h20.2V36.9z M14.2,34.9h16.3V14.4H14.2V34.9z"/>
		</g>
		<g>
			<circle fill="#FFFFFF" cx="17.7" cy="18.7" r="1.5"/>
		</g>
		<g>
			<circle fill="#FFFFFF" cx="17.7" cy="24.6" r="1.5"/>
		</g>
		<g>
			<circle fill="#FFFFFF" cx="17.7" cy="30.8" r="1.5"/>
		</g>
		<g>
			<polygon fill="#FFFFFF" points="27.6,30.1 22.7,25.3 24.1,24 27.6,27.5 37.1,18.3 38.4,19.7 			"/>
		</g>
	</g>
</g>
</svg>
