<?xml version="1.0" encoding="utf-8"?>
<!-- Generator: Adobe Illustrator 18.1.1, SVG Export Plug-In . SVG Version: 6.00 Build 0)  -->
<svg version="1.1" id="Layer_1" xmlns="http://www.w3.org/2000/svg" xmlns:xlink="http://www.w3.org/1999/xlink" x="0px" y="0px"
	 viewBox="0 0 148 148" enable-background="new 0 0 148 148" xml:space="preserve">
<g>
	<g>
		<g>
			<g>
				<path fill="#E37826" d="M54.5,112l-4.8,0c-2,0-4,0-6,0c-2,0-4,0-6,0c-1.4,0-4.7,0-4.7-3.5V71.2c0-2.6,1.8-4.2,4.7-4
					c3.6,0,7.5,0,11.3,0h1.2c2.5,0,5,0,7.5,0l0.5,0c0.6,0,1.1,0.1,1.6,0.2c1.8-3.8,5-10.8,7.2-15.5c0.1-0.2,0.2-0.6,0.2-0.9
					c0-2.9,0-5.9,0-8.8c0-1.9,0.8-3.3,2.4-4.3c4.4-2.7,8.7-2.2,12.4,1.3c4.4,4.2,6.1,9.6,4.9,15.8c-0.3,1.7-0.7,3.4-1.2,5.1
					c-0.1,0.3-0.2,0.6-0.2,0.9l8.8,0c2.2,0,4.4,0,6.7-0.1l0.3,0c4.5,0,7.7,1.7,9.6,5.2c1.8,3.3,1.7,6.7-0.2,9.9
					c1.3,2,1.7,4.2,1.3,6.4c-0.4,2.3-1.6,4.3-3.3,5.7c0,0.1,0,0.3,0,0.4c0,1.4,0.1,2.8-0.2,4.2c-0.5,2.4-1.6,3.5-2.4,4.4
					c-0.2,0.2-0.3,0.3-0.4,0.4c0,0,0,0,0,0.1c0.1,1,0.2,2.1,0.1,3.4c-0.6,4.4-4.3,7.7-8.7,7.7c-10,0.1-19.9,0.1-29.9,0
					c-1.7,0-3.2-0.5-4.6-0.9c-0.1,4.1-3.4,4.1-4.6,4.1L54.5,112z M37.4,107.5c0.1,0,0.2,0,0.3,0c2,0,4,0,6,0c2,0,4,0,6,0l4.8,0
					l3.3,0c0.1,0,0.2,0,0.2,0c0-0.8,0-1.9,0-2.6v-2.7l2.6,0.5c1,0.2,1.9,0.5,2.8,0.8c1.3,0.4,2.4,0.8,3.6,0.8
					c9.9,0.2,19.9,0.1,29.8,0c2.2,0,4-1.7,4.3-3.9c0.1-0.7,0-1.6-0.1-2.4c0-0.4-0.1-0.8-0.1-1.1l0-0.7l0.4-0.6
					c0.5-0.7,1-1.2,1.4-1.6c0.7-0.7,1-1,1.2-2.1c0.2-0.9,0.1-2,0.1-3.2c0-0.6,0-1.1,0-1.7v-1.3l1.1-0.6c1.3-0.8,2.1-1.9,2.3-3.4
					c0.2-1.4-0.2-2.8-1.4-4.2l-1.1-1.3l1.1-1.4c1.7-2.3,2-4.4,0.8-6.5c-1.1-2-2.8-2.9-5.7-2.9l-0.3,0c-2.3,0-4.5,0.1-6.8,0.1
					l-14.4,0l1-4.2c0.2-0.7,0.4-1.5,0.5-2.2c0.4-1.6,0.8-3.2,1.1-4.9c0.9-4.8-0.3-8.7-3.6-11.8c-2.3-2.2-4.3-2.3-7-0.7
					c-0.2,0.1-0.2,0.2-0.2,0.2l0,0c0,0,0,0.1,0,0.3c0,3,0,6,0,8.9c0,0.7-0.1,1.7-0.6,2.7c-0.1,0.2-8.1,17.7-8.8,18.7l-2.1,3.3
					l-1.7-3.6c-0.1-0.3-0.2-0.5-0.3-0.6l-0.1,0c-2.7,0-5.2,0-7.8,0H49c-3.8,0-7.7,0-11.5,0l-0.1,0L37.4,107.5z"/>
			</g>
		</g>
		<g>
			<g>
				<rect x="58.2" y="71.2" fill="#E37826" width="4.4" height="33.8"/>
			</g>
		</g>
	</g>
	<g>
		<g>
			<path fill="#E37826" d="M74,148c-40.8,0-74-33.2-74-74S33.2,0,74,0s74,33.2,74,74S114.8,148,74,148z M74,4.5
				C35.7,4.5,4.5,35.7,4.5,74s31.2,69.5,69.5,69.5s69.5-31.2,69.5-69.5S112.3,4.5,74,4.5z"/>
		</g>
	</g>
</g>
</svg>
