<?xml version="1.0" encoding="utf-8"?>
<!-- Generator: Adobe Illustrator 18.1.1, SVG Export Plug-In . SVG Version: 6.00 Build 0)  -->
<svg version="1.1" id="Layer_1" xmlns="http://www.w3.org/2000/svg" xmlns:xlink="http://www.w3.org/1999/xlink" x="0px" y="0px"
	 viewBox="0 0 44.2 27.5" enable-background="new 0 0 44.2 27.5" xml:space="preserve">
<g>
	<g>
		<g>
			<rect x="1.3" y="1.4" fill="none" stroke="#E47825" stroke-width="2" stroke-miterlimit="10" width="41.5" height="24.6"/>
			<line fill="none" stroke="#E47825" stroke-width="2" stroke-miterlimit="10" x1="43.1" y1="11.2" x2="1.5" y2="11.2"/>
			<line fill="none" stroke="#E47825" stroke-width="2" stroke-miterlimit="10" x1="1.5" y1="6.9" x2="43.1" y2="6.9"/>
		</g>
		<g>
			<path fill="#E47825" d="M11,21.7c-0.3,0.2-0.9,0.3-1.7,0.3c-1.8,0-3.2-1.2-3.2-3.3c0-2.1,1.4-3.4,3.4-3.4c0.8,0,1.3,0.2,1.6,0.3
				l-0.2,0.7c-0.3-0.2-0.8-0.3-1.3-0.3c-1.5,0-2.6,1-2.6,2.7c0,1.6,0.9,2.6,2.5,2.6c0.5,0,1.1-0.1,1.4-0.3L11,21.7z"/>
		</g>
	</g>
</g>
</svg>
