<?xml version="1.0" encoding="utf-8"?>
<!-- Generator: Adobe Illustrator 18.1.1, SVG Export Plug-In . SVG Version: 6.00 Build 0)  -->
<svg version="1.1" id="Layer_1" xmlns="http://www.w3.org/2000/svg" xmlns:xlink="http://www.w3.org/1999/xlink" x="0px" y="0px"
	 viewBox="0 0 39.5 28.8" enable-background="new 0 0 39.5 28.8" xml:space="preserve">
<g>
	<g>
		<g>
			<g>
				<path fill="#E47825" d="M5.1,12.3c0.4-0.1,0.9-0.1,1.5-0.1c1,0,1.7,0.2,2.2,0.7c0.5,0.4,0.8,1.1,0.8,1.9c0,0.9-0.3,1.6-0.8,2.1
					c-0.5,0.5-1.3,0.8-2.4,0.8c-0.5,0-0.9,0-1.3-0.1V12.3z M5.8,17.1c0.2,0,0.4,0,0.7,0c1.5,0,2.3-0.8,2.3-2.3
					c0-1.3-0.7-2.1-2.2-2.1c-0.4,0-0.6,0-0.8,0.1V17.1z"/>
			</g>
		</g>
	</g>
	<g>
		<ellipse fill="none" stroke="#E47825" stroke-width="2" stroke-miterlimit="10" cx="31.3" cy="14.8" rx="6.5" ry="2.2"/>
		<polyline fill="none" stroke="#E47825" stroke-width="2" stroke-miterlimit="10" points="21.9,20.8 1.4,20.8 1.4,1.5 34.1,1.5 
			34,9.2 33.3,9.2 1.4,9.2 1.4,5.7 34.1,5.7 		"/>
		<path fill="none" stroke="#E47825" stroke-width="2" stroke-miterlimit="10" d="M37.9,14.8v10.3c0,1.2-2.9,2.2-6.5,2.2
			s-6.5-1-6.5-2.2V14.8v3.5c0,1.2,2.9,2.2,6.5,2.2s6.5-1,6.5-2.2v3.5c0,1.2-2.9,2.2-6.5,2.2s-6.5-1-6.5-2.2"/>
	</g>
</g>
</svg>
