<?xml version="1.0" encoding="utf-8"?>
<!-- Generator: Adobe Illustrator 18.1.1, SVG Export Plug-In . SVG Version: 6.00 Build 0)  -->
<svg version="1.1" id="Layer_1" xmlns="http://www.w3.org/2000/svg" xmlns:xlink="http://www.w3.org/1999/xlink" x="0px" y="0px"
	 viewBox="0 0 15.3 15.7" enable-background="new 0 0 15.3 15.7" xml:space="preserve">
<g>
	<g>
		<path fill="#E77817" d="M4.7,7.8l2.9,2.9l6-6.1l-2.9-2.9L4.7,7.8z M14.7,1.4l-0.9-0.9c-0.5-0.5-1.3-0.5-1.9,0l-0.6,0.7l2.9,2.9
			l0.6-0.7C15.3,2.9,15.2,2,14.7,1.4z M4.3,8.4v2.9H7L4.3,8.4z M10.9,13.2H2v-9h4.7l1.9-1.9H1.5c-0.6,0-1.3,0.3-1.3,0.9v10.5
			c0,0.6,0.7,1.3,1.3,1.3h10.4c0.6,0,0.9-0.7,0.9-1.3V7.1l-1.9,1.9V13.2z"/>
	</g>
</g>
</svg>
