<?xml version="1.0" encoding="utf-8"?>
<!-- Generator: Adobe Illustrator 21.0.0, SVG Export Plug-In . SVG Version: 6.00 Build 0)  -->
<svg version="1.1" id="Layer_1" xmlns="http://www.w3.org/2000/svg" xmlns:xlink="http://www.w3.org/1999/xlink" x="0px" y="0px"
	 viewBox="0 0 41.4 41.4" style="enable-background:new 0 0 41.4 41.4;" xml:space="preserve">
<style type="text/css">
	.st0{display:none;fill:#542502;}
	.st1{fill:#FFFFFF;}
</style>
<rect x="-0.8" y="-0.6" class="st0" width="42.4" height="42.1"/>
<g>
	<g>
		<path class="st1" d="M17.3,17c-0.8,0-1.5,0.3-1.9,0.9c-0.4,0.6-0.6,1.5-0.6,2.7V22c0,1.1,0.2,2,0.6,2.6c0.4,0.6,1,0.9,1.9,0.9
			c0.8,0,1.5-0.3,1.9-0.9c0.4-0.6,0.6-1.5,0.6-2.7v-1.4c0-1.1-0.2-2-0.6-2.6C18.8,17.3,18.2,17,17.3,17z M18.5,22.2
			c0,0.7-0.1,1.3-0.3,1.6c-0.2,0.3-0.5,0.5-0.9,0.5c-0.4,0-0.7-0.2-0.9-0.6c-0.2-0.4-0.3-0.9-0.3-1.7v-1.9c0-0.7,0.1-1.3,0.3-1.6
			c0.2-0.3,0.5-0.5,0.9-0.5c0.4,0,0.7,0.2,0.9,0.5c0.2,0.4,0.3,0.9,0.3,1.7V22.2z M27.1,9.6h-1.6v2.1H14.8V9.6h-1.6v2.1H9.6v18.9h21
			V11.8h-3.5V9.6z M29.2,13.2v16.1H11V13.2h2.1v1.2h1.6v-1.2h10.7v1.2h1.6v-1.2H29.2z M20.6,0.6c-11,0-20,9-20,20c0,11,9,20,20,20
			c11,0,20-9,20-20C40.6,9.6,31.7,0.6,20.6,0.6z M20.6,39.1c-10.2,0-18.5-8.3-18.5-18.5S10.4,2.1,20.6,2.1s18.5,8.3,18.5,18.5
			S30.8,39.1,20.6,39.1z M21.2,18.3v1.2l1.9-0.7v6.6h1.3v-8.2h-0.2L21.2,18.3z"/>
	</g>
</g>
</svg>
