<?xml version="1.0" encoding="utf-8"?>
<!-- Generator: Adobe Illustrator 18.1.1, SVG Export Plug-In . SVG Version: 6.00 Build 0)  -->
<svg version="1.1" id="Layer_1" xmlns="http://www.w3.org/2000/svg" xmlns:xlink="http://www.w3.org/1999/xlink" x="0px" y="0px"
	 viewBox="0 0 33 32.8" enable-background="new 0 0 33 32.8" xml:space="preserve">
<g>
	<g>
		<g>
			<path fill="#E67817" d="M25.8,32.8l-0.8-1c-0.2-0.3-5-6.5-5.9-12c-0.3-2,0.3-4,1.6-5.6c1.3-1.5,3.1-2.3,5.1-2.3
				c2.3,0,4.4,1,5.8,2.7c1.2,1.4,1.6,3.2,1.3,4.9c-1.1,5.4-6.1,12-6.3,12.2L25.8,32.8z M25.8,13.9c-1.4,0-2.6,0.6-3.5,1.6
				c-0.9,1.1-1.3,2.5-1.1,4c0.6,3.7,3.3,8,4.7,10c1.4-2,4.4-6.6,5.2-10.3c0.3-1.5-0.3-2.6-0.9-3.3C29.1,14.6,27.5,13.9,25.8,13.9z"
				/>
		</g>
		<g>
			<circle fill="#E67817" cx="26.1" cy="18.3" r="2"/>
		</g>
	</g>
	<g>
		<polygon fill="#E67817" points="21.1,30.9 15.4,30.9 15.4,22.8 11.2,22.8 11.2,30.9 0,30.9 0,0 26.5,0 26.5,10.3 24.5,10.3 
			24.5,2 2,2 2,28.9 9.2,28.9 9.2,20.8 17.4,20.8 17.4,28.9 21.1,28.9 		"/>
	</g>
	<g>
		<rect x="5.6" y="13.2" fill="#E67817" width="11" height="2"/>
	</g>
	<g>
		<rect x="5.6" y="6.2" fill="#E67817" width="15" height="2"/>
	</g>
</g>
</svg>
