<?xml version="1.0" encoding="utf-8"?>
<!-- Generator: Adobe Illustrator 16.0.4, SVG Export Plug-In . SVG Version: 6.00 Build 0)  -->
<!DOCTYPE svg PUBLIC "-//W3C//DTD SVG 1.1//EN" "http://www.w3.org/Graphics/SVG/1.1/DTD/svg11.dtd">
<svg version="1.1" id="Layer_1" xmlns="http://www.w3.org/2000/svg" xmlns:xlink="http://www.w3.org/1999/xlink" x="0px" y="0px"
	 width="9.894px" height="7.606px" viewBox="0 0 9.894 7.606" enable-background="new 0 0 9.894 7.606" xml:space="preserve">
<path fill="#FFFFFF" d="M9.81,6.955l-4.513-6.82c-0.18-0.18-0.472-0.18-0.652,0l-4.513,6.82c-0.207,0.273-0.193,0.651,0.211,0.651
	l9.213-0.019C9.872,7.588,9.988,7.17,9.81,6.955z M5.374,1.952l-0.097,3.31h-0.66L4.52,1.952H5.374z M4.947,6.577
	c-0.282,0-0.494-0.22-0.494-0.513s0.212-0.514,0.494-0.514c0.29,0,0.493,0.211,0.493,0.514C5.44,6.361,5.233,6.577,4.947,6.577z"/>
<rect x="-18.138" y="-1.987" fill="#FFFFFF" width="10" height="10"/>
</svg>
