<?xml version="1.0" encoding="utf-8"?>
<!-- Generator: Adobe Illustrator 18.1.1, SVG Export Plug-In . SVG Version: 6.00 Build 0)  -->
<svg version="1.1" id="Layer_1" xmlns="http://www.w3.org/2000/svg" xmlns:xlink="http://www.w3.org/1999/xlink" x="0px" y="0px"
	 viewBox="0 0 27 27" enable-background="new 0 0 27 27" xml:space="preserve">
<path fill="#FFFFFF" d="M27,1.1C27,0.3,26.2,0,25.4,0H1.6C0.7,0,0,0.3,0,1.1V25c0,0.8,0.7,2,1.6,2h23.8c0.8,0,1.6-1.2,1.6-2V1.1z
	 M9,23H4V10h5V23z M6.1,8.1c-1.3,0-2.3-1-2.3-2.3s1-2.3,2.3-2.3s2.3,1,2.3,2.3S7.4,8.1,6.1,8.1z M22.7,23H19v-6.9
	c0-1.6-0.1-3.2-2-3.2c-3.4,0-3,3.1-3,3.4V23h-4v-9v-1.1V10h4v2c0-0.3,1-2.5,4.2-2.5c2.1,0,3.1,1,3.9,2.4c0.6,1.1,0.6,3.1,0.6,4.1h0
	L22.7,23z"/>
</svg>
