<?xml version="1.0" encoding="utf-8"?>
<!-- Generator: Adobe Illustrator 18.1.1, SVG Export Plug-In . SVG Version: 6.00 Build 0)  -->
<svg version="1.1" id="Layer_1" xmlns="http://www.w3.org/2000/svg" xmlns:xlink="http://www.w3.org/1999/xlink" x="0px" y="0px"
	 viewBox="0 0 27 27" enable-background="new 0 0 27 27" xml:space="preserve">
<path fill="#FFFFFF" d="M25.9,0h-24C1.1,0,0,0.6,0,1.4v24C0,26.2,1.1,27,1.9,27H14V16h-2v-3h2V9.4C14,5.9,16.4,4,19.5,4
	C21,4,22,3.9,23,4v4h-2c-1.7,0-2,0.6-2,1.8V13h4l-0.5,3H19v11h6.9c0.8,0,1.1-0.8,1.1-1.6v-24C27,0.6,26.7,0,25.9,0z"/>
</svg>
