<?xml version="1.0" encoding="utf-8"?>
<!-- Generator: Adobe Illustrator 18.1.1, SVG Export Plug-In . SVG Version: 6.00 Build 0)  -->
<svg version="1.1" id="Layer_1" xmlns="http://www.w3.org/2000/svg" xmlns:xlink="http://www.w3.org/1999/xlink" x="0px" y="0px"
	 viewBox="0 0 27 27" enable-background="new 0 0 27 27" xml:space="preserve">
<path fill="#FFFFFF" d="M27,1.5C27,0.7,26.3,0,25.5,0h-24C0.7,0,0,0.7,0,1.5v24C0,26.3,0.7,27,1.5,27h24c0.8,0,1.5-0.7,1.5-1.5V1.5z
	 M21.4,9.3c0,0.2,0,0.3,0,0.5c0,5.2-3.9,11.1-11.1,11.1c-2.2,0-4.3-0.6-6-1.8c0.3,0,0.6,0.1,0.9,0.1c1.8,0,3.5-0.6,4.9-1.7
	c-1.7,0-3.2-1.2-3.7-2.7c0.2,0,0.5,0.1,0.7,0.1c0.4,0,0.7,0,1-0.1C6.4,14.4,5,12.8,5,11c0,0,0,0,0,0c0,0.3,1.2,0.5,1.8,0.5
	c-1-0.7-1.7-1.9-1.7-3.3c0-0.7,0.2-1.4,0.5-2c1.9,2.4,4.8,3.9,8.1,4.1c-0.1-0.3-0.1-0.6-0.1-0.9c0-2.2,1.8-3.9,3.9-3.9
	c1.1,0,2.1,0.5,2.9,1.2c0.9-0.2,1.7-0.5,2.5-0.9c-0.3,0.9-0.9,1.7-1.7,2.2c0.8-0.1,1.5-0.3,2.2-0.6C22.8,8.1,22.2,8.8,21.4,9.3z"/>
</svg>
