<?xml version="1.0" encoding="utf-8"?>
<!-- Generator: Adobe Illustrator 18.1.1, SVG Export Plug-In . SVG Version: 6.00 Build 0)  -->
<svg version="1.1" xmlns="http://www.w3.org/2000/svg" xmlns:xlink="http://www.w3.org/1999/xlink" x="0px" y="0px"
	 viewBox="0 0 30 30" enable-background="new 0 0 30 30" xml:space="preserve">
<g id="Layer_1">
	<path id="Blue_2_" fill="#3B5998" d="M28.5,30c0.9,0,1.7-0.7,1.7-1.7V1.7c0-0.9-0.7-1.7-1.7-1.7H1.8C0.9,0,0.1,0.7,0.1,1.7v26.7
		c0,0.9,0.7,1.7,1.7,1.7H28.5z"/>
	<path id="f_1_" fill="#FFFFFF" d="M20.8,30V18.4h3.9l0.6-4.5h-4.5V11c0-1.3,0.4-2.2,2.2-2.2l2.4,0v-4C25,4.7,23.6,4.5,22,4.5
		c-3.5,0-5.8,2.1-5.8,6v3.3h-3.9v4.5h3.9V30H20.8z"/>
</g>
<g id="Layer_2">
</g>
</svg>
