<?xml version="1.0" encoding="utf-8"?>
<!-- Generator: Adobe Illustrator 16.0.4, SVG Export Plug-In . SVG Version: 6.00 Build 0)  -->
<!DOCTYPE svg PUBLIC "-//W3C//DTD SVG 1.1//EN" "http://www.w3.org/Graphics/SVG/1.1/DTD/svg11.dtd">
<svg version="1.1" id="Layer_1" xmlns="http://www.w3.org/2000/svg" xmlns:xlink="http://www.w3.org/1999/xlink" x="0px" y="0px"
	 width="18.667px" height="20.833px" viewBox="0 0 18.667 20.833" enable-background="new 0 0 18.667 20.833" xml:space="preserve">
<path fill="none" stroke="#333333" stroke-miterlimit="10" d="M2.864,13.169c0,0,0.597,0.06,1.213-0.026
	c1.198-0.169,5.907-4.016,7.729-7.357c0.311-0.571,4.527,2.984,2.971,8.338c-0.491,1.684-1.596,3.455-2.803,4.758l2.668,0.574
	c0,0,2.744-2.087,3.205-5.738c0.584-4.625-1.258-9.096-3.004-10.767c-2.063-1.974-3.24-1.046-3.24-1.046S8.136-0.974,3.807,3.017
	c-3.386,3.122-3.512,9.235-1.772,13.907c0.274,0.738,1.514,2.665,2.312,3.104c0,0,1.856-0.844,2.7-1.755c0,0-2.733-2.11-3.038-4.76"
	/>
</svg>
