<?xml version="1.0" encoding="utf-8"?>
<!-- Generator: Adobe Illustrator 18.1.1, SVG Export Plug-In . SVG Version: 6.00 Build 0)  -->
<svg version="1.1" id="Layer_1" xmlns="http://www.w3.org/2000/svg" xmlns:xlink="http://www.w3.org/1999/xlink" x="0px" y="0px"
	 viewBox="0 0 31.6 35.4" enable-background="new 0 0 31.6 35.4" xml:space="preserve">
<g>
	<path fill="#E47825" d="M6.9,35.4l-0.4-0.2c-1.7-1-4-4.6-4.5-5.9c-3-8-3.2-19.3,3.3-25.3c6.8-6.2,12.6-3.5,14.3-2.4
		c1.1-0.4,3.3-0.6,6.2,2.2c3.5,3.4,6.5,11.6,5.5,19.6c-0.8,6.7-5.8,10.5-6,10.7l-0.4,0.3l-6.8-1.5l1.2-1.3c2.2-2.3,3.9-5.3,4.7-7.9
		c1.3-4.4,0.1-7.9-1.1-10c-0.9-1.7-2-2.7-2.6-3.1c-3.1,5.2-10,11.3-13.1,12.5c0.6,4.1,4.9,7.4,4.9,7.4l0.8,0.7l-0.7,0.8
		c-1.6,1.7-4.9,3.2-5,3.3L6.9,35.4z M14.2,1.9c-2.1,0-4.7,0.8-7.6,3.4C1,10.5,1,20.9,3.8,28.6c0.4,1.1,2.1,3.7,3.2,4.6
		c0.7-0.4,2.1-1.1,3.1-1.9C8.7,29.9,6,27,5.4,23.4c-0.7,0-1.1,0-1.2,0l0.2-1.9c0,0,0.9,0.1,1.9,0C8,21.1,16,14.6,19.1,9
		c0.2-0.4,0.9-0.8,1.8-0.5c2.4,1,7.7,7.3,5.2,15.7c-0.7,2.4-2.2,5.1-4,7.4l2.6,0.6c1-0.9,4.3-4.2,4.9-9.1c1-8-2.4-15.5-4.9-17.9
		c-2.9-2.7-4.3-1.8-4.4-1.7l-0.6,0.4L19,3.5C18.8,3.4,17,1.9,14.2,1.9z"/>
</g>
</svg>
