<?xml version="1.0" encoding="utf-8"?>
<!-- Generator: Adobe Illustrator 18.1.1, SVG Export Plug-In . SVG Version: 6.00 Build 0)  -->
<svg version="1.1" id="Layer_1" xmlns="http://www.w3.org/2000/svg" xmlns:xlink="http://www.w3.org/1999/xlink" x="0px" y="0px"
	 viewBox="0 0 27 13.6" enable-background="new 0 0 27 13.6" xml:space="preserve">
<path fill="#FFFFFF" d="M27,5.2L21.3,0H10.5L5.6,4.8H0V11h1.9c0.1,1.4,1.4,2.6,2.8,2.6s2.7-1.1,2.8-2.6h10.2
	c0.1,1.4,1.4,2.6,2.8,2.6c1.5,0,2.7-1.1,2.8-2.6H27V5.2z M24.3,4.8l-6.7,0V1.5h3.1L24.3,4.8z M11.1,1.5h5v3.3l-8.3,0L11.1,1.5z
	 M4.7,12.1c-0.8,0-1.4-0.6-1.4-1.4C3.4,10,4,9.4,4.7,9.4c0.8,0,1.4,0.6,1.4,1.4C6.1,11.5,5.5,12.1,4.7,12.1z M20.6,12.1
	c-0.8,0-1.4-0.6-1.4-1.4c0-0.8,0.6-1.4,1.4-1.4c0.8,0,1.4,0.6,1.4,1.4C22,11.5,21.3,12.1,20.6,12.1z M23.2,9.5
	c-0.5-1-1.4-1.7-2.6-1.7c-1.1,0-2.1,0.7-2.6,1.7H7.3c-0.5-1-1.4-1.7-2.6-1.7c-1.1,0-2.1,0.7-2.6,1.7H1.5V6.3l24,0v3.3H23.2z"/>
</svg>
