<?xml version="1.0" encoding="utf-8"?>
<!-- Generator: Adobe Illustrator 18.1.1, SVG Export Plug-In . SVG Version: 6.00 Build 0)  -->
<svg version="1.1" id="Layer_1" xmlns="http://www.w3.org/2000/svg" xmlns:xlink="http://www.w3.org/1999/xlink" x="0px" y="0px"
	 viewBox="0 0 26.8 23.3" enable-background="new 0 0 26.8 23.3" xml:space="preserve">
<g>
	<g>
		<path fill="#FFFFFF" d="M22.5,23.3H15v-5.8h-3l0,5.8H4.3l0-7.8l-4.4,0v-4.4L13.4,0l13.5,11.1v4.4l-4.4,0V23.3z M16.6,21.7h4.3
			l0-7.8l4.4,0v-2.1L13.4,2.1L1.6,11.8v2.1l4.4,0l0,7.8h4.5l0-5.8h6.1V21.7z"/>
	</g>
	<g>
		<polygon fill="#FFFFFF" points="5.2,8.2 3.6,8.2 3.6,1.3 8.6,1.3 8.6,5.8 7.1,5.8 7.1,2.9 5.2,2.9 		"/>
	</g>
</g>
</svg>
