<?xml version="1.0" encoding="utf-8"?>
<!-- Generator: Adobe Illustrator 18.1.1, SVG Export Plug-In . SVG Version: 6.00 Build 0)  -->
<svg version="1.1" id="Layer_1" xmlns="http://www.w3.org/2000/svg" xmlns:xlink="http://www.w3.org/1999/xlink" x="0px" y="0px"
	 viewBox="0 0 27 16.5" enable-background="new 0 0 27 16.5" xml:space="preserve">
<g>
	<g>
		<g>
			<path fill="#FFFFFF" d="M27,16.5H0.1V0H27V16.5z M1.4,15.2h24.2V1.4H1.4V15.2z"/>
		</g>
		<g>
			<rect x="0.9" y="6" fill="#FFFFFF" width="25.6" height="1.4"/>
		</g>
		<g>
			<rect x="0.9" y="3.4" fill="#FFFFFF" width="25.6" height="1.4"/>
		</g>
	</g>
	<g>
		<g>
			<path fill="#FFFFFF" d="M6.7,13.1c-0.2,0.1-0.6,0.2-1.1,0.2c-1.1,0-2-0.7-2-2c0-1.3,0.9-2.1,2.1-2.1c0.5,0,0.8,0.1,1,0.2L6.6,9.8
				C6.4,9.7,6.2,9.6,5.8,9.6c-0.9,0-1.6,0.6-1.6,1.7c0,1,0.6,1.6,1.5,1.6c0.3,0,0.6-0.1,0.9-0.2L6.7,13.1z"/>
		</g>
	</g>
</g>
</svg>
