<?xml version="1.0" encoding="utf-8"?>
<!-- Generator: Adobe Illustrator 18.1.1, SVG Export Plug-In . SVG Version: 6.00 Build 0)  -->
<svg version="1.1" id="Layer_1" xmlns="http://www.w3.org/2000/svg" xmlns:xlink="http://www.w3.org/1999/xlink" x="0px" y="0px"
	 viewBox="0 0 26.6 28.4" enable-background="new 0 0 26.6 28.4" xml:space="preserve">
<g>
	<g>
		<g>
			<path fill="#FFFFFF" d="M17,20c-2.9,0-5.3-2.4-5.3-5.3s2.4-5.3,5.3-5.3s5.3,2.4,5.3,5.3S20,20,17,20z M17,11.2
				c-1.9,0-3.4,1.5-3.4,3.4S15.2,18,17,18s3.4-1.5,3.4-3.4S18.9,11.2,17,11.2z"/>
		</g>
		<g>
			<path fill="#FFFFFF" d="M26.6,28.4H7.2l0.1-1.1c0.4-3.2,2.9-9.3,9.6-9.3c7.2,0,9.5,6.1,9.6,9.4L26.6,28.4z M9.4,26.4h15
				C24,24.4,22.5,20,16.9,20C11.7,20,10,24.3,9.4,26.4z"/>
		</g>
	</g>
	<g>
		<polygon fill="#FFFFFF" points="12,21.7 0,21.7 0,0 18.6,0 18.6,10.5 16.7,10.5 16.7,2 2,2 2,19.7 12,19.7 		"/>
	</g>
	<g>
		<rect x="3.7" y="4.4" fill="#FFFFFF" width="11.2" height="2"/>
	</g>
	<g>
		<rect x="3.7" y="9.9" fill="#FFFFFF" width="6" height="2"/>
	</g>
</g>
</svg>
