<?xml version="1.0" encoding="utf-8"?>
<!-- Generator: Adobe Illustrator 18.1.1, SVG Export Plug-In . SVG Version: 6.00 Build 0)  -->
<svg version="1.1" id="Layer_1" xmlns="http://www.w3.org/2000/svg" xmlns:xlink="http://www.w3.org/1999/xlink" x="0px" y="0px"
	 viewBox="0 0 20 23.6" enable-background="new 0 0 20 23.6" xml:space="preserve">
<g>
	<g>
		<path fill="#FFFFFF" d="M18,23.6H2.3c-1,0-1.5-0.4-1.8-0.7c-0.5-0.7-0.3-1.5-0.3-1.6L4.2,8.4C4.3,8.1,4.7,7.8,5,7.8h10
			c0.4,0,0.7,0.2,0.8,0.6c0,0.1,3.6,11,4.1,12.4c0,0.1,0.1,0.2,0.1,0.3c0,1.7-1.2,2.3-1.9,2.4C18.1,23.6,18.1,23.6,18,23.6z
			 M5.7,9.5L1.9,21.7c0,0,0,0.1,0,0.2c0,0,0.1,0.1,0.4,0.1h15.6c0.2-0.1,0.4-0.2,0.4-0.6c-0.6-1.7-3.2-9.5-3.9-11.8H5.7z"/>
	</g>
	<g>
		<rect x="4.4" y="5.1" fill="#FFFFFF" width="11.3" height="1.7"/>
	</g>
	<g>
		<rect x="7" y="10.9" fill="#FFFFFF" width="7" height="0.8"/>
	</g>
	<g>
		<rect x="7" y="13.4" fill="#FFFFFF" width="7" height="0.8"/>
	</g>
	<g>
		<path fill="#FFFFFF" d="M12.5,20.6L7.1,16C7,15.9,6.9,15.7,7,15.5c0.1-0.2,0.2-0.3,0.4-0.3c1.3,0,3.2-0.2,3.6-0.8
			c0.6-1.1-1-2.8-1-2.8l0.6-0.6c0.1,0.1,2.1,2.1,1.1,3.8c-0.5,0.9-2.1,1.2-3.2,1.3l4.5,3.8L12.5,20.6z"/>
	</g>
	<g>
		<path fill="#FFFFFF" d="M12.4,6.4H7.8c-0.1,0-0.1,0-0.2,0c0,0-4.2-1.8-4.5-3.9C3,2,3.1,1.2,4.1,0.6c0.4-0.2,0.8-0.4,1.3-0.4
			c2.2,0,4.1,3,4.8,4.3c0.7-1.5,2.3-4.3,4.5-4.3c0.5,0,0.9,0.1,1.3,0.4c1,0.5,1.1,1.2,1.1,1.7c-0.1,1.9-3.4,3.5-4.5,4
			C12.6,6.3,12.5,6.4,12.4,6.4z M11.6,4.9h0.6c1.7-0.8,3.5-2.1,3.5-2.7c0-0.2-0.3-0.3-0.4-0.4c-0.2-0.1-0.4-0.2-0.6-0.2
			C13.5,1.6,12.3,3.5,11.6,4.9z M7.9,4.9h0.8C7.8,3.4,6.5,1.7,5.4,1.7C5.2,1.7,5,1.8,4.8,1.9C4.5,2.1,4.5,2.2,4.5,2.2
			C4.6,3.1,7.1,4.6,7.9,4.9z"/>
	</g>
</g>
</svg>
