<?xml version="1.0" encoding="utf-8"?>
<!-- Generator: Adobe Illustrator 18.1.1, SVG Export Plug-In . SVG Version: 6.00 Build 0)  -->
<svg version="1.1" id="Layer_1" xmlns="http://www.w3.org/2000/svg" xmlns:xlink="http://www.w3.org/1999/xlink" x="0px" y="0px"
	 viewBox="0 0 22 19.5" enable-background="new 0 0 22 19.5" xml:space="preserve">
<g>
	<g>
		<path fill="#E47826" d="M18.5,19.5h-6.2v-4.9H9.9v4.9H3.6v-6.6H0V9.2L11,0L22,9.3V13h-3.6L18.5,19.5L18.5,19.5z M13.6,18.2h3.6
			v-6.5h3.6V9.9L11,1.7L1.3,9.9v1.8h3.6v6.5h3.7v-4.9h5C13.6,13.3,13.6,18.2,13.6,18.2z"/>
	</g>
	<g>
		<polygon fill="#E47826" points="4.4,7.1 3.1,7.1 3.1,1.3 7.2,1.3 7.2,4.8 5.9,5.1 5.9,2.6 4.4,2.6 		"/>
	</g>
</g>
</svg>
