<?xml version="1.0" encoding="utf-8"?>
<!-- Generator: Adobe Illustrator 18.1.1, SVG Export Plug-In . SVG Version: 6.00 Build 0)  -->
<svg version="1.1" id="Layer_1" xmlns="http://www.w3.org/2000/svg" xmlns:xlink="http://www.w3.org/1999/xlink" x="0px" y="0px"
	 viewBox="0 0 36.8 31.9" enable-background="new 0 0 36.8 31.9" xml:space="preserve">
<g>
	<g>
		<path fill="#063B6D" d="M30.8,32H20.5v-8h-4.1l0,8H6L6,21.2l-6,0v-6.1L18.3,0l18.4,15.3v6.1l-6,0V32z M22.7,29.8h6l0-10.6l6,0
			v-2.9L18.3,2.8L2.2,16.2v2.9l6,0l0,10.7h6.1l0-8h8.4V29.8z"/>
	</g>
	<g>
		<polygon fill="#063B6D" points="7.4,11.6 5.2,11.6 5.2,2.2 12,2.2 12,7.8 9.9,8.3 9.9,4.3 7.4,4.3 		"/>
	</g>
</g>
</svg>
