<?xml version="1.0" encoding="utf-8"?>
<!-- Generator: Adobe Illustrator 21.0.0, SVG Export Plug-In . SVG Version: 6.00 Build 0)  -->
<svg version="1.1" id="Layer_1" xmlns="http://www.w3.org/2000/svg" xmlns:xlink="http://www.w3.org/1999/xlink" x="0px" y="0px"
	 viewBox="0 0 101 99" style="enable-background:new 0 0 101 99;" xml:space="preserve">
<style type="text/css">
	.st0{opacity:0.15;clip-path:url(#SVGID_2_);}
	.st1{fill:#F26725;}
	.st2{fill:#FFFFFF;}
</style>
<g>
	<defs>
		<rect id="SVGID_1_" width="101" height="99"/>
	</defs>
	<clipPath id="SVGID_2_">
		<use xlink:href="#SVGID_1_"  style="overflow:visible;"/>
	</clipPath>
	<g class="st0">
		<g>
			<path class="st1" d="M34.1,117.5c-0.8-0.3-1.6-0.6-2.4-0.8c-1.9-1.2-3.3-2.9-4.3-5c-8.4-17.5-16.8-35-25.3-52.6
				c-1-2.1-1.4-4.4-1.3-6.7C0.9,51.7,1,51,1,50.3C4.7,39.9,8.3,29.4,12,19c0.1-0.2,0.3-0.3,0.4-0.5c1.8-2.7,4.3-4.1,7.6-4.2
				c0.5,0,1,0,1.5,0.1c10.4,3.6,20.8,7.3,31.2,10.9c0.1,0.1,0.2,0.2,0.3,0.2c2.8,1.5,4.8,3.8,6.2,6.7c8.1,17,16.3,33.9,24.5,50.8
				c1.2,2.5,2.3,4.9,1.9,7.7c-0.3,0.8-0.6,1.6-0.8,2.4c-1.4,2.5-3.8,3.7-6.2,4.9c-12.2,5.8-24.5,11.7-36.7,17.7
				C39.3,116.9,36.9,118,34.1,117.5z M12,36.6c-1.6,4.7-3.3,9.3-4.9,14c-0.7,2.1-0.6,4.1,0.3,6.1C16,74.4,24.5,92.1,33,109.8
				c0.9,1.9,2.5,2.5,4.3,1.5c13.5-6.5,26.9-13,40.4-19.5c1.9-0.9,2.4-2.4,1.5-4.4C70.7,69.8,62.2,52,53.6,34.3
				c-0.9-1.9-2.4-3.3-4.4-4c-9.3-3.3-18.6-6.5-28-9.8c-2.2-0.8-3.6-0.1-4.4,2.1C15.2,27.3,13.6,31.9,12,36.6z"/>
		</g>
		<g>
			<path class="st2" d="M79.3,87.5C70.7,69.8,62.2,52,53.6,34.3c-0.9-1.9-2.4-3.3-4.4-4c-9.3-3.3-18.6-6.5-28-9.8
				c-2.2-0.8-3.6-0.1-4.4,2.1c-1.6,4.6-3.2,9.3-4.9,13.9c-1.6,4.7-3.3,9.3-4.9,14c-0.7,2.1-0.6,4.1,0.3,6.1
				C16,74.4,24.5,92.1,33,109.8c0.9,1.9,2.5,2.5,4.3,1.5c13.5-6.5,26.9-13,40.4-19.5C79.7,91,80.2,89.4,79.3,87.5z"/>
		</g>
		<g>
			<path class="st1" d="M68.6,110.2c-0.9,0-1.7,0-2.6,0c-2.3-0.5-4.2-1.7-5.9-3.4C46,92.6,31.8,78.4,17.7,64.3
				c-1.7-1.7-2.9-3.7-3.5-6.1c-0.2-0.7-0.4-1.4-0.6-2.1c0-11.3,0-22.7,0-34c0.1-0.2,0.2-0.4,0.2-0.6c0.8-3.3,2.8-5.5,6-6.6
				c0.5-0.2,1-0.3,1.5-0.5c11.3,0,22.7,0,34,0c0.1,0.1,0.2,0.1,0.3,0.1c3.2,0.5,5.9,2,8.3,4.4c13.7,13.7,27.3,27.4,41,41
				c2,2,3.9,4,4.4,6.8c0,0.9,0,1.7,0,2.6c-0.5,2.9-2.4,4.9-4.4,6.8c-9.9,9.8-19.8,19.7-29.6,29.6C73.4,107.8,71.4,109.6,68.6,110.2z
				 M19.6,39.1c0,5.1,0,10.2,0,15.2c0,2.3,0.8,4.2,2.4,5.8C36.3,74.4,50.6,88.7,64.9,103c1.5,1.5,3.2,1.5,4.7,0
				c10.9-10.9,21.7-21.7,32.6-32.6c1.5-1.5,1.5-3.2,0-4.7c-14.3-14.3-28.6-28.7-43-43c-1.5-1.5-3.4-2.3-5.6-2.3
				c-10.2,0-20.3,0-30.5,0c-2.4,0-3.5,1.1-3.5,3.5C19.5,29,19.6,34,19.6,39.1z"/>
		</g>
		<g>
			<path class="st2" d="M19.6,39.1c0-5,0-10.1,0-15.1c0-2.4,1.1-3.5,3.5-3.5c10.2,0,20.3,0,30.5,0c2.2,0,4.1,0.8,5.6,2.3
				c14.3,14.3,28.7,28.6,43,43c1.5,1.5,1.5,3.2,0,4.7C91.3,81.3,80.5,92.2,69.6,103c-1.5,1.5-3.2,1.5-4.7,0
				C50.6,88.7,36.3,74.4,22,60.1c-1.6-1.6-2.4-3.5-2.4-5.8C19.5,49.2,19.6,44.2,19.6,39.1z M27.6,32.9c0,2.5,2,4.5,4.4,4.5
				c2.5,0,4.5-2,4.6-4.5c0-2.4-2-4.5-4.4-4.5C29.6,28.4,27.6,30.4,27.6,32.9z"/>
		</g>
		<g>
			<path class="st1" d="M30.8,35.9C7.2,25.7,10.3,0.7,10.3,0.4l6.5,0.9c-0.1,0.8-2.4,20.4,16.6,28.6L30.8,35.9z"/>
		</g>
		<g>
			<g>
				<path class="st1" d="M44.5,74.2c-1.7-1.8-2.6-3.8-2.5-6c0.1-2.2,1-4.3,2.9-6.1c1.9-1.9,4-2.8,6.2-2.9c2.2,0,4.3,0.9,6.1,2.7
					l1.4,1.4c1.8,1.8,2.6,3.8,2.5,6c-0.1,2.2-1.1,4.3-2.9,6.1c-1.9,1.9-3.9,2.8-6.2,2.9c-2.2,0.1-4.3-0.9-6.1-2.7L44.5,74.2z
					 M49.9,72c0.8,0.8,1.6,1.2,2.6,1.3c0.9,0,1.8-0.3,2.5-1c0.7-0.7,1.1-1.6,1-2.5c-0.1-0.9-0.5-1.8-1.3-2.6l-1.5-1.5
					c-0.8-0.8-1.6-1.2-2.6-1.3c-0.9-0.1-1.8,0.3-2.5,1c-0.7,0.7-1.1,1.5-1.1,2.5c0,0.9,0.5,1.8,1.3,2.7L49.9,72z M72.8,88.1
					l-4.3,1.3l-8.1-36.5l4.3-1.2L72.8,88.1z M74.4,76.9c-1.8-1.8-2.6-3.8-2.5-6c0.1-2.2,1.1-4.3,2.9-6.1c1.9-1.9,3.9-2.8,6.2-2.9
					c2.2-0.1,4.3,0.9,6.1,2.7l1.4,1.4c1.7,1.8,2.6,3.8,2.5,6c-0.1,2.2-1,4.3-2.9,6.1c-1.9,1.9-4,2.8-6.2,2.9c-2.2,0-4.2-0.9-6-2.7
					L74.4,76.9z M79.8,74.7c0.7,0.7,1.6,1.1,2.6,1.2c1,0,1.8-0.3,2.6-1c1.6-1.6,1.5-3.3-0.2-5.1l-1.5-1.5c-0.8-0.8-1.6-1.2-2.6-1.3
					c-0.9,0-1.8,0.3-2.5,1S77,69.6,77,70.5c0,0.9,0.5,1.8,1.3,2.7L79.8,74.7z"/>
			</g>
		</g>
		<g>
			<circle class="st1" cx="32.1" cy="32.9" r="5.4"/>
		</g>
	</g>
</g>
</svg>
