<?xml version="1.0" encoding="utf-8"?>
<!-- Generator: Adobe Illustrator 21.0.0, SVG Export Plug-In . SVG Version: 6.00 Build 0)  -->
<svg version="1.1" id="Layer_1" xmlns="http://www.w3.org/2000/svg" xmlns:xlink="http://www.w3.org/1999/xlink" x="0px" y="0px"
	 viewBox="0 0 55 54" style="enable-background:new 0 0 55 54;" xml:space="preserve">
<style type="text/css">
	.st0{fill:#F26725;}
	.st1{fill:#FFFFFF;}
	.st2{fill:none;stroke:#F26725;stroke-width:3;stroke-miterlimit:10;}
</style>
<path class="st0" d="M17.7,54c-0.4-0.1-0.7-0.3-1.1-0.4c-0.9-0.6-1.5-1.3-2-2.3C10.8,43.2,6.9,35.1,3,27c-0.5-1-0.7-2-0.6-3.1
	c0-0.3,0.1-0.7,0.1-1c1.7-4.8,3.4-9.6,5-14.4c0.1-0.1,0.1-0.1,0.2-0.2c0.8-1.3,2-1.9,3.5-1.9c0.2,0,0.5,0,0.7,0
	c4.8,1.7,9.6,3.4,14.4,5c0,0,0.1,0.1,0.1,0.1c1.3,0.7,2.2,1.7,2.9,3.1c3.7,7.8,7.5,15.6,11.3,23.4c0.5,1.1,1,2.2,0.9,3.5
	c-0.1,0.4-0.3,0.7-0.4,1.1c-0.7,1.1-1.7,1.7-2.9,2.2c-5.6,2.7-11.3,5.4-16.9,8.1C20.1,53.7,19,54.1,17.7,54z M7.5,16.6
	c-0.8,2.1-1.5,4.3-2.3,6.4C4.9,24,5,25,5.4,25.9c3.9,8.2,7.9,16.3,11.8,24.5c0.4,0.9,1.1,1.1,2,0.7c6.2-3,12.4-6,18.6-9
	c0.9-0.4,1.1-1.1,0.7-2c-3.9-8.2-7.9-16.4-11.8-24.5c-0.4-0.9-1.1-1.5-2-1.8c-4.3-1.5-8.6-3-12.9-4.5c-1-0.4-1.7-0.1-2,1
	C9,12.4,8.3,14.5,7.5,16.6z"/>
<path class="st1" d="M38.5,40.1c-3.9-8.2-7.9-16.4-11.8-24.5c-0.4-0.9-1.1-1.5-2-1.8c-4.3-1.5-8.6-3-12.9-4.5c-1-0.4-1.7-0.1-2,1
	c-0.7,2.1-1.5,4.3-2.2,6.4c-0.8,2.1-1.5,4.3-2.3,6.4C4.9,24,5,25,5.4,25.9c3.9,8.2,7.9,16.3,11.8,24.5c0.4,0.9,1.1,1.1,2,0.7
	c6.2-3,12.4-6,18.6-9C38.7,41.7,39,41,38.5,40.1z"/>
<path class="st0" d="M33.6,50.6c-0.4,0-0.8,0-1.2,0c-1.1-0.2-1.9-0.8-2.7-1.6c-6.5-6.5-13-13-19.5-19.6c-0.8-0.8-1.3-1.7-1.6-2.8
	c-0.1-0.3-0.2-0.7-0.3-1c0-5.2,0-10.5,0-15.7c0-0.1,0.1-0.2,0.1-0.3c0.4-1.5,1.3-2.5,2.8-3.1c0.2-0.1,0.5-0.1,0.7-0.2
	c5.2,0,10.5,0,15.7,0c0.1,0,0.1,0.1,0.2,0.1c1.5,0.2,2.7,0.9,3.8,2c6.3,6.3,12.6,12.6,18.9,18.9c0.9,0.9,1.8,1.8,2,3.2
	c0,0.4,0,0.8,0,1.2c-0.3,1.3-1.1,2.2-2,3.2c-4.6,4.5-9.1,9.1-13.6,13.6C35.8,49.5,34.9,50.3,33.6,50.6z M11,17.8c0,2.3,0,4.7,0,7
	c0,1,0.4,1.9,1.1,2.7c6.6,6.6,13.2,13.2,19.8,19.8c0.7,0.7,1.5,0.7,2.2,0c5-5,10-10,15-15c0.7-0.7,0.7-1.5,0-2.2
	c-6.6-6.6-13.2-13.2-19.8-19.8c-0.7-0.7-1.6-1.1-2.6-1.1c-4.7,0-9.4,0-14,0c-1.1,0-1.6,0.5-1.6,1.6C11,13.1,11,15.5,11,17.8z"/>
<path class="st1" d="M11,17.8c0-2.3,0-4.7,0-7c0-1.1,0.5-1.6,1.6-1.6c4.7,0,9.4,0,14,0c1,0,1.9,0.4,2.6,1.1
	c6.6,6.6,13.2,13.2,19.8,19.8c0.7,0.7,0.7,1.5,0,2.2c-5,5-10,10-15,15c-0.7,0.7-1.5,0.7-2.2,0c-6.6-6.6-13.2-13.2-19.8-19.8
	c-0.7-0.7-1.1-1.6-1.1-2.7C11,22.5,11,20.1,11,17.8z M14.7,14.9c0,1.1,0.9,2.1,2,2.1c1.1,0,2.1-0.9,2.1-2.1c0-1.1-0.9-2.1-2-2.1
	C15.7,12.9,14.7,13.8,14.7,14.9z"/>
<path class="st2" d="M8.2,0.2c0,0-1.4,10.4,8.5,14.8"/>
<g>
	<path class="st0" d="M22.5,34c-0.8-0.8-1.2-1.7-1.2-2.8c0-1,0.5-2,1.3-2.8c0.9-0.9,1.8-1.3,2.8-1.3c1,0,2,0.4,2.8,1.3L29,29
		c0.8,0.8,1.2,1.7,1.2,2.8c0,1-0.5,2-1.3,2.8c-0.9,0.9-1.8,1.3-2.8,1.3c-1,0-2-0.4-2.8-1.2L22.5,34z M25,33c0.4,0.4,0.8,0.6,1.2,0.6
		c0.4,0,0.8-0.1,1.2-0.5c0.3-0.3,0.5-0.7,0.5-1.1c0-0.4-0.2-0.8-0.6-1.2L26.5,30c-0.4-0.4-0.8-0.6-1.2-0.6c-0.4,0-0.8,0.1-1.2,0.5
		c-0.3,0.3-0.5,0.7-0.5,1.1c0,0.4,0.2,0.8,0.6,1.2L25,33z M35.6,40.4l-2,0.6l-3.8-16.8l2-0.6L35.6,40.4z M36.3,35.2
		c-0.8-0.8-1.2-1.8-1.2-2.8c0-1,0.5-2,1.3-2.8c0.9-0.9,1.8-1.3,2.8-1.3c1,0,2,0.4,2.8,1.3l0.6,0.7C43.6,31,44,32,43.9,33
		c0,1-0.5,2-1.4,2.8c-0.9,0.9-1.8,1.3-2.9,1.3c-1,0-2-0.4-2.8-1.2L36.3,35.2z M38.7,34.2c0.3,0.3,0.7,0.5,1.2,0.5
		c0.5,0,0.8-0.1,1.2-0.5c0.7-0.7,0.7-1.5-0.1-2.3l-0.7-0.7c-0.4-0.4-0.8-0.6-1.2-0.6c-0.4,0-0.8,0.1-1.2,0.5s-0.5,0.7-0.5,1.1
		c0,0.4,0.2,0.8,0.6,1.2L38.7,34.2z"/>
</g>
<circle class="st0" cx="16.8" cy="15" r="2.5"/>
</svg>
