<?xml version="1.0" encoding="utf-8"?>
<!-- Generator: Adobe Illustrator 18.1.1, SVG Export Plug-In . SVG Version: 6.00 Build 0)  -->
<svg version="1.1" id="Layer_1" xmlns="http://www.w3.org/2000/svg" xmlns:xlink="http://www.w3.org/1999/xlink" x="0px" y="0px"
	 viewBox="0 0 30.5 30.4" enable-background="new 0 0 30.5 30.4" xml:space="preserve">
<g>
	<path fill="#FFFFFF" d="M15,18.5h-1.5c0-0.2,0-0.3,0-0.4c0-0.5,0.1-0.9,0.2-1.2s0.5-0.7,1-1.1s0.8-0.6,0.9-0.8
		c0.1-0.2,0.2-0.4,0.2-0.6c0-0.3-0.1-0.6-0.4-0.8s-0.6-0.3-1-0.3c-0.4,0-0.8,0.1-1,0.4s-0.5,0.6-0.6,1.1l-1.5-0.2
		c0-0.7,0.3-1.3,0.9-1.8s1.3-0.7,2.2-0.7c0.9,0,1.7,0.2,2.3,0.7s0.8,1.1,0.8,1.7c0,0.4-0.1,0.7-0.3,1s-0.6,0.8-1.3,1.3
		C15.4,17.1,15,17.5,15,18.5z M13.5,20.7V19h1.6v1.6H13.5z"/>
</g>
<g>
	<path fill="#0274B3" d="M28.9,30.1H1.6c-0.7,0-1.2-0.5-1.2-1.2V1.6c0-0.7,0.5-1.2,1.2-1.2h27.3c0.7,0,1.2,0.5,1.2,1.2v27.3
		C30.1,29.5,29.6,30.1,28.9,30.1z"/>
	<g>
		<rect x="5.1" y="11.7" fill="#FFFFFF" width="4.4" height="14.3"/>
		<path fill="#FFFFFF" d="M21.1,11.4h-0.6c-1.7,0-3.2,0.9-4.1,2.2h0v-1.9h-4.1v1.9V16v10h4.4v-3.5v-4.1c0-1.4,1.1-3.1,2.5-3.1
			c1.4,0,2.5,0.6,2.5,2.5v0.7v5.9V26H26v-6.7v-2.9C26,16.4,26,11.4,21.1,11.4z"/>
		<circle fill="#FFFFFF" cx="7.3" cy="7.2" r="2.8"/>
	</g>
</g>
</svg>
