<?xml version="1.0" encoding="utf-8"?>
<!-- Generator: Adobe Illustrator 18.1.1, SVG Export Plug-In . SVG Version: 6.00 Build 0)  -->
<svg version="1.1" id="Layer_1" xmlns="http://www.w3.org/2000/svg" xmlns:xlink="http://www.w3.org/1999/xlink" x="0px" y="0px"
	 viewBox="0 0 44.2 27.5" enable-background="new 0 0 44.2 27.5" xml:space="preserve">
<g>
	<g>
		<rect x="1.3" y="1.5" fill="none" stroke="#E47825" stroke-width="2" stroke-miterlimit="10" width="41.5" height="24.8"/>
		<g>
			<path fill="#E47825" d="M9.4,17l-0.8-1.4c-0.3-0.5-0.5-0.9-0.7-1.2h0c-0.2,0.4-0.4,0.7-0.7,1.2L6.5,17H5.6l1.9-3.1l-1.8-3h0.9
				l0.8,1.4c0.2,0.4,0.4,0.7,0.6,1h0c0.2-0.4,0.3-0.6,0.6-1l0.8-1.4h0.9l-1.9,3l1.9,3.1H9.4z"/>
			<path fill="#E47825" d="M14.5,17l-0.8-1.4c-0.3-0.5-0.5-0.9-0.7-1.2h0c-0.2,0.4-0.4,0.7-0.7,1.2L11.6,17h-0.9l1.9-3.1l-1.8-3h0.9
				l0.8,1.4c0.2,0.4,0.4,0.7,0.6,1h0c0.2-0.4,0.3-0.6,0.6-1l0.8-1.4h0.9l-1.9,3l1.9,3.1H14.5z"/>
			<path fill="#E47825" d="M19.5,17l-0.8-1.4c-0.3-0.5-0.5-0.9-0.7-1.2h0c-0.2,0.4-0.4,0.7-0.7,1.2L16.6,17h-0.9l1.9-3.1l-1.8-3h0.9
				l0.8,1.4c0.2,0.4,0.4,0.7,0.6,1h0c0.2-0.4,0.3-0.6,0.6-1l0.8-1.4h0.9l-1.9,3l1.9,3.1H19.5z"/>
			<path fill="#E47825" d="M24.6,11.8h-2.3l-0.2,1.5c0.1,0,0.3,0,0.5,0c0.5,0,0.9,0.1,1.3,0.3c0.5,0.3,0.8,0.8,0.8,1.5
				c0,1.2-0.9,2-2.2,2c-0.6,0-1.2-0.2-1.5-0.4l0.2-0.6c0.2,0.1,0.7,0.3,1.3,0.3c0.7,0,1.4-0.5,1.4-1.3c0-0.8-0.5-1.3-1.7-1.3
				c-0.3,0-0.6,0-0.8,0.1l0.4-2.8h2.8V11.8z"/>
			<path fill="#E47825" d="M26,16.1c0.2,0.1,0.7,0.4,1.3,0.4c1,0,1.3-0.6,1.3-1.1c0-0.8-0.8-1.2-1.5-1.2h-0.4v-0.6h0.4
				c0.6,0,1.3-0.3,1.3-1c0-0.5-0.3-0.9-1-0.9c-0.5,0-0.9,0.2-1.2,0.4L26,11.5c0.3-0.2,0.9-0.5,1.6-0.5c1.2,0,1.7,0.7,1.7,1.4
				c0,0.6-0.4,1.1-1.1,1.4v0c0.7,0.1,1.3,0.7,1.3,1.5c0,0.9-0.7,1.8-2.2,1.8c-0.7,0-1.2-0.2-1.5-0.4L26,16.1z"/>
			<path fill="#E47825" d="M33.8,11.7c-0.2,0-0.4,0-0.6,0c-1.3,0.2-1.9,1.1-2.1,2.1h0c0.3-0.4,0.8-0.7,1.4-0.7c1,0,1.8,0.8,1.8,1.9
				c0,1.1-0.7,2.1-2,2.1c-1.3,0-2.1-1-2.1-2.5c0-1.2,0.4-2.1,1-2.7c0.5-0.5,1.1-0.8,1.9-0.9c0.2,0,0.4,0,0.6,0V11.7z M33.6,15.1
				c0-0.8-0.5-1.4-1.2-1.4c-0.5,0-0.9,0.3-1.2,0.7c0,0.1-0.1,0.2-0.1,0.3c0,1,0.5,1.7,1.3,1.7C33.1,16.5,33.6,16,33.6,15.1z"/>
			<path fill="#E47825" d="M36.2,13.9c-0.7-0.3-0.9-0.8-0.9-1.3c0-0.9,0.8-1.6,1.8-1.6c1.1,0,1.7,0.7,1.7,1.5c0,0.5-0.3,1-1,1.4v0
				c0.7,0.3,1.2,0.8,1.2,1.5c0,1-0.9,1.7-2,1.7c-1.2,0-2-0.7-2-1.6C35,14.8,35.5,14.3,36.2,13.9L36.2,13.9z M38.2,15.5
				c0-0.7-0.5-1.1-1.3-1.3c-0.7,0.2-1.1,0.7-1.1,1.2c0,0.6,0.4,1.1,1.2,1.1C37.7,16.6,38.2,16.1,38.2,15.5z M36,12.6
				c0,0.6,0.4,0.9,1.1,1.1c0.5-0.2,0.9-0.5,0.9-1.1c0-0.5-0.3-1-1-1C36.4,11.6,36,12,36,12.6z"/>
		</g>
	</g>
</g>
</svg>
