<?xml version="1.0" encoding="utf-8"?>
<!-- Generator: Adobe Illustrator 18.1.1, SVG Export Plug-In . SVG Version: 6.00 Build 0)  -->
<svg version="1.1" id="Layer_1" xmlns="http://www.w3.org/2000/svg" xmlns:xlink="http://www.w3.org/1999/xlink" x="0px" y="0px"
	 viewBox="0 0 27 21.1" enable-background="new 0 0 27 21.1" xml:space="preserve">
<g>
	<g>
		<path fill="#FFFFFF" d="M8.7,21.1c-1.3,0-2.6-0.7-2.7-2.2c-0.1-2.2,0-5.6,0-5.7l1.7,0c0,0-0.1,3.5,0,5.6c0,0.5,1,0.5,1,0.5
			c0.1,0,12.6,0,15.3,0c0.5,0,0.9-0.1,1.1-0.3c0.2-0.2,0.2-0.5,0.2-0.5l0-16.4c0-0.2,0-0.2-0.1-0.2c-0.1-0.1-0.5-0.2-0.7-0.1l-0.1,0
			c0,0-12.9,0-15.6,0c0,0,0,0,0,0c-0.9,0-1,0.4-1,0.4l0,5.8H6.1V2c0.1-0.8,0.7-2,2.7-2c0,0,0,0,0,0c2.6,0,14.8,0,15.6,0
			c0.3,0,1.3,0,2,0.6C26.6,0.9,27,1.3,27,2.1v16.3c0,0.3,0,1.1-0.6,1.8c-0.5,0.6-1.4,0.9-2.4,0.9C21.3,21,8.9,21.1,8.7,21.1
			C8.7,21.1,8.7,21.1,8.7,21.1z"/>
	</g>
	<g>
		<rect x="0.1" y="9.6" fill="#FFFFFF" width="19.5" height="1.7"/>
	</g>
	<g>
		<polygon fill="#FFFFFF" points="15.6,15.5 14.4,14.3 18.3,10.5 14.4,7.1 15.5,5.8 20.9,10.5 		"/>
	</g>
</g>
</svg>
