<?xml version="1.0" encoding="utf-8"?>
<!-- Generator: Adobe Illustrator 18.1.1, SVG Export Plug-In . SVG Version: 6.00 Build 0)  -->
<svg version="1.1" id="Layer_1" xmlns="http://www.w3.org/2000/svg" xmlns:xlink="http://www.w3.org/1999/xlink" x="0px" y="0px"
	 viewBox="0 0 38.3 27.8" enable-background="new 0 0 38.3 27.8" xml:space="preserve">
<g>
	<g>
		<g>
			<polygon fill="#E47825" points="24.2,18.9 2.5,18.9 2.5,0.6 32.3,0.6 32.3,7.3 30.4,7.3 30.4,2.4 4.3,2.4 4.3,17.1 24.2,17.1 			
				"/>
		</g>
	</g>
</g>
<g>
	<path fill="#E47825" d="M36.4,27.2H27c-0.8,0-1.5-0.7-1.5-1.5V10.3c0-0.8,0.7-1.5,1.5-1.5h9.4c0.8,0,1.5,0.7,1.5,1.5v15.3
		C37.9,26.5,37.2,27.2,36.4,27.2z M27.4,25.3H36V10.7h-8.6V25.3z"/>
</g>
<g>
	<rect x="27.3" y="24.8" fill="#E47825" width="10" height="2"/>
</g>
<circle fill="#FFFFFF" cx="31.7" cy="25.8" r="0.7"/>
<g>
	<rect x="0.3" y="19.8" fill="#E47825" width="24" height="2"/>
</g>
</svg>
