<?xml version="1.0" encoding="utf-8"?>
<!-- Generator: Adobe Illustrator 18.1.1, SVG Export Plug-In . SVG Version: 6.00 Build 0)  -->
<svg version="1.1" id="Layer_1" xmlns="http://www.w3.org/2000/svg" xmlns:xlink="http://www.w3.org/1999/xlink" x="0px" y="0px"
	 viewBox="0 0 47 47" enable-background="new 0 0 47 47" xml:space="preserve">
<g>
	<g>
		<g>
			<circle fill="#E37826" cx="23.5" cy="23.5" r="22.5"/>
		</g>
		<g>
			<path fill="#FFFFFF" d="M23.5,47C10.5,47,0,36.5,0,23.5S10.5,0,23.5,0S47,10.5,47,23.5S36.5,47,23.5,47z M23.5,1.9
				c-11.9,0-21.6,9.7-21.6,21.6s9.7,21.6,21.6,21.6s21.6-9.7,21.6-21.6S35.4,1.9,23.5,1.9z"/>
		</g>
	</g>
	<g>
		<g>
			<path fill="#FFFFFF" d="M33.7,36.7H14v-13h19.7V36.7z M15.9,34.7h15.8v-9.1H15.9V34.7z"/>
		</g>
		<g>
			<path fill="#FFFFFF" d="M35.2,25.6H11.8v-7.2h23.5V25.6z M13.7,23.7h19.6v-3.4H13.7V23.7z"/>
		</g>
		<g>
			<rect x="25.5" y="19.3" fill="#FFFFFF" width="1.9" height="16.4"/>
		</g>
		<g>
			<rect x="19.4" y="19.3" fill="#FFFFFF" width="1.9" height="16.4"/>
		</g>
		<g>
			<path fill="#FFFFFF" d="M23,20.2l0.5-1.5c0.2-0.6,2.1-5.8,5.3-6c1.8-0.1,3.2,0.9,3.3,2.3c0.1,1.1-0.5,3.7-7.5,4.9L23,20.2z
				 M29.1,14.6l-0.1,0c-1.1,0.1-2.2,1.6-2.9,3.1c3.4-0.9,4.2-2.1,4.2-2.5C30.2,14.9,29.8,14.6,29.1,14.6z"/>
		</g>
		<g>
			<path fill="#FFFFFF" d="M24.5,20.2L22.9,20c-7.1-1.2-7.6-3.8-7.5-4.9c0.1-1.4,1.5-2.4,3.3-2.3c3.2,0.2,5.1,5.4,5.3,6L24.5,20.2z
				 M18.4,14.6c-0.7,0-1.1,0.3-1.1,0.6c0,0.4,0.7,1.6,4.2,2.5c-0.7-1.4-1.8-3-2.9-3.1L18.4,14.6z"/>
		</g>
	</g>
</g>
</svg>
