<?xml version="1.0" encoding="utf-8"?>
<!-- Generator: Adobe Illustrator 18.1.1, SVG Export Plug-In . SVG Version: 6.00 Build 0)  -->
<svg version="1.1" id="Layer_1" xmlns="http://www.w3.org/2000/svg" xmlns:xlink="http://www.w3.org/1999/xlink" x="0px" y="0px"
	 viewBox="0 0 47 47" enable-background="new 0 0 47 47" xml:space="preserve">
<circle fill="#D0CFB9" cx="23.4" cy="23.4" r="22.5"/>
<g>
	<g>
		<path fill="#1B3D6C" d="M33.6,36.6H13.9v-13h19.7V36.6z M15.9,34.7h15.8v-9.1H15.9V34.7z"/>
	</g>
	<g>
		<path fill="#1B3D6C" d="M35.2,25.5H11.7v-7.2h23.5V25.5z M13.6,23.6h19.6v-3.4H13.6V23.6z"/>
	</g>
	<g>
		<rect x="25.4" y="19.3" fill="#1B3D6C" width="1.9" height="16.4"/>
	</g>
	<g>
		<rect x="19.4" y="19.3" fill="#1B3D6C" width="1.9" height="16.4"/>
	</g>
	<g>
		<path fill="#1B3D6C" d="M23,20.2l0.5-1.5c0.2-0.6,2.1-5.8,5.3-6c1.8-0.1,3.2,0.9,3.3,2.3c0.1,1.1-0.5,3.7-7.5,4.9L23,20.2z
			 M29.1,14.6l-0.1,0c-1.1,0.1-2.2,1.6-2.9,3.1c3.4-0.9,4.2-2.1,4.2-2.5C30.2,14.9,29.7,14.6,29.1,14.6z"/>
	</g>
	<g>
		<path fill="#1B3D6C" d="M24.4,20.2l-1.6-0.3c-7.1-1.2-7.6-3.8-7.5-4.9c0.1-1.4,1.5-2.4,3.3-2.3c3.2,0.2,5.1,5.4,5.3,6L24.4,20.2z
			 M18.3,14.6c-0.7,0-1.1,0.3-1.1,0.6c0,0.4,0.7,1.6,4.2,2.5c-0.7-1.4-1.8-3-2.9-3.1L18.3,14.6z"/>
	</g>
</g>
</svg>
