<?xml version="1.0" encoding="utf-8"?>
<!-- Generator: Adobe Illustrator 18.1.1, SVG Export Plug-In . SVG Version: 6.00 Build 0)  -->
<svg version="1.1" id="Layer_1" xmlns="http://www.w3.org/2000/svg" xmlns:xlink="http://www.w3.org/1999/xlink" x="0px" y="0px"
	 viewBox="0 0 30 30" enable-background="new 0 0 30 30" xml:space="preserve">
<polygon fill="#E77817" points="16.8,19.3 16.8,15.9 14.6,15.9 14.6,19.3 12.3,19.3 15.7,23.4 19.2,19.3 "/>
<path fill="#E77817" d="M12.4,9.9c-0.2,0-0.3,0-0.3,0v1c0.1,0,0.1,0,0.3,0c0.4,0,0.6-0.2,0.6-0.5C13,10.1,12.7,9.9,12.4,9.9z"/>
<path fill="#E77817" d="M15.5,9.9c-0.2,0-0.3,0-0.3,0v2.2c0.1,0,0.2,0,0.3,0c0.7,0,1.1-0.4,1.1-1.2C16.6,10.3,16.2,9.9,15.5,9.9z"/>
<path fill="#E77817" d="M22.5,7.4V5.6c0-0.1,0-0.2-0.1-0.3L18,0.8c-0.1-0.1-0.2-0.1-0.3-0.1H9.3c-0.2,0-0.4,0.2-0.4,0.4v6.3H7.8v7.3
	h1.2v3.1c0,0.2,0.2,0.4,0.4,0.4H14v-0.7H9.7v-2.7h12.1v2.7h-4.4v0.7h4.8c0.2,0,0.4-0.2,0.4-0.4v-3.1h1.1V7.4
	C23.7,7.4,22.5,7.4,22.5,7.4z M18.1,2l3.2,3.2h-3.2V2z M13.4,11.2c-0.3,0.2-0.6,0.3-1.1,0.3c-0.1,0-0.2,0-0.3,0v1.2h-0.7V9.4
	c0.2,0,0.6-0.1,1-0.1c0.5,0,0.8,0.1,1,0.3c0.2,0.2,0.4,0.4,0.4,0.8C13.7,10.7,13.6,11,13.4,11.2z M16.8,12.3
	c-0.3,0.3-0.9,0.4-1.5,0.4c-0.4,0-0.7,0-0.9,0V9.4c0.3,0,0.6-0.1,1-0.1c0.6,0,1,0.1,1.4,0.4c0.3,0.3,0.6,0.7,0.6,1.3
	C17.4,11.6,17.1,12,16.8,12.3z M20.1,10h-1.3v0.8H20v0.6h-1.2v1.3h-0.8V9.4h2L20.1,10L20.1,10z M21.8,7.4H9.7V1.5h7.7v4.1
	c0,0.2,0.2,0.4,0.4,0.4h4.1V7.4z"/>
</svg>
