<?xml version="1.0" encoding="utf-8"?>
<!-- Generator: Adobe Illustrator 18.1.1, SVG Export Plug-In . SVG Version: 6.00 Build 0)  -->
<svg version="1.1" id="Layer_1" xmlns="http://www.w3.org/2000/svg" xmlns:xlink="http://www.w3.org/1999/xlink" x="0px" y="0px"
	 viewBox="0 0 35.9 35.6" enable-background="new 0 0 35.9 35.6" xml:space="preserve">
<g>
	<g>
		<path fill="#E67817" d="M18.2,19.1c-5.3,0-9.5-4.3-9.5-9.5s4.3-9.5,9.5-9.5c5.2,0,9.5,4.3,9.5,9.5S23.5,19.1,18.2,19.1z M18.2,2.1
			c-4.1,0-7.5,3.4-7.5,7.5s3.4,7.5,7.5,7.5s7.5-3.4,7.5-7.5S22.4,2.1,18.2,2.1z"/>
	</g>
	<g>
		<path fill="#E67817" d="M35.9,35.6H0l0.1-1.1c0-0.2,2.2-17.3,17.9-17.3c16.8,0,17.9,17.2,17.9,17.4L35.9,35.6z M2.3,33.6h31.5
			c-0.5-3.5-3-14.5-15.8-14.5C6.2,19.1,3,30,2.3,33.6z"/>
	</g>
</g>
</svg>
