<?xml version="1.0" encoding="utf-8"?>
<!-- Generator: Adobe Illustrator 16.0.4, SVG Export Plug-In . SVG Version: 6.00 Build 0)  -->
<!DOCTYPE svg PUBLIC "-//W3C//DTD SVG 1.1//EN" "http://www.w3.org/Graphics/SVG/1.1/DTD/svg11.dtd">
<svg version="1.1" id="Layer_1" xmlns="http://www.w3.org/2000/svg" xmlns:xlink="http://www.w3.org/1999/xlink" x="0px" y="0px"
	 width="100.877px" height="100.526px" viewBox="0 0 100.877 100.526" enable-background="new 0 0 100.877 100.526"
	 xml:space="preserve">
<circle fill="#E57425" cx="50.506" cy="50.204" r="49.5"/>
<g>
	<path fill="#FFFFFF" d="M70.498,69.602c-1.094-2.828-8.339-25.013-8.412-25.236c-0.229-0.702-0.884-1.177-1.623-1.177H40.176
		c-0.749,0-1.411,0.488-1.631,1.204l-8.014,25.963c-0.054,0.192-0.488,1.913,0.589,3.329c0.521,0.684,1.562,1.501,3.576,1.501
		h31.838c0.104,0,0.21-0.01,0.313-0.028c1.304-0.243,3.769-1.591,3.766-4.94C70.613,70.007,70.573,69.799,70.498,69.602z
		 M66.308,71.77H34.696c-0.569,0-0.819-0.116-0.856-0.149c-0.033-0.059-0.036-0.257-0.031-0.304l7.628-24.713h17.787
		c1.483,4.532,6.695,20.438,7.963,23.893C67.104,71.333,66.652,71.65,66.308,71.77z"/>
	<path fill="#FFFFFF" d="M43.398,51.23h7.372c0.486,0.533,1.613,1.89,1.969,3.328h-9.341v1.707h9.299
		c-0.044,0.121-0.09,0.24-0.155,0.357c-0.74,1.318-4.731,1.795-7.3,1.713c-0.369-0.007-0.692,0.207-0.826,0.547
		c-0.13,0.338-0.031,0.723,0.244,0.957l10.887,9.255l1.107-1.302l-9.168-7.791c2.304-0.15,5.509-0.701,6.543-2.542
		c0.222-0.394,0.356-0.794,0.438-1.194h3.146v-1.707h-3.138c-0.224-1.274-0.887-2.455-1.513-3.328h4.65v-1.708H43.398V51.23z"/>
	<path fill="#FFFFFF" d="M40.771,37.783H39.03v3.416h22.952v-3.416h-1.913c3.146-1.843,6.931-4.676,7.044-7.681
		c0.042-1.134-0.387-2.753-2.673-4.027c-1.016-0.567-2.075-0.854-3.149-0.854c-5.178,0-9.004,6.661-10.67,10.195
		c-1.688-3.024-6.17-10.067-11.308-10.067c-1.062,0-2.078,0.292-3.027,0.867c-2.358,1.435-2.486,3.295-2.354,4.278
		C34.327,33.414,37.89,36.079,40.771,37.783z M61.291,28.637c0.492,0,0.978,0.139,1.484,0.42c0.221,0.124,0.938,0.552,0.924,0.917
		c-0.055,1.498-4.312,4.508-8.229,6.379h-1.499C55.581,33.13,58.447,28.637,61.291,28.637z M38.061,29.135
		c0.41-0.25,0.82-0.37,1.253-0.37c2.595,0,5.863,4.115,7.912,7.588h-1.948c-1.895-0.784-7.759-4.333-7.964-6.342
		C37.304,29.913,37.273,29.614,38.061,29.135z"/>
</g>
</svg>
