<?xml version="1.0" encoding="utf-8"?>
<!-- Generator: Adobe Illustrator 18.1.1, SVG Export Plug-In . SVG Version: 6.00 Build 0)  -->
<svg version="1.1" id="Layer_1" xmlns="http://www.w3.org/2000/svg" xmlns:xlink="http://www.w3.org/1999/xlink" x="0px" y="0px"
	 viewBox="0 0 25.7 31.9" enable-background="new 0 0 25.7 31.9" xml:space="preserve">
<g>
	<g>
		<path fill="#E47825" d="M23.1,31.9H2.7c-1.3,0-2-0.5-2.3-1c-0.7-0.9-0.4-2-0.4-2.1l5.1-16.6c0.1-0.5,0.6-0.8,1-0.8h13
			c0.5,0,0.9,0.3,1,0.8c0,0.1,4.7,14.3,5.4,16.1c0,0.1,0.1,0.3,0.1,0.4c0,2.1-1.6,3-2.4,3.2C23.2,31.9,23.2,31.9,23.1,31.9z
			 M7.1,13.7L2.2,29.5c0,0,0,0.2,0,0.2c0,0,0.2,0.1,0.5,0.1H23c0.2-0.1,0.5-0.3,0.6-0.8c-0.8-2.2-4.1-12.4-5.1-15.3H7.1z"/>
	</g>
	<g>
		<rect x="5.5" y="8" fill="#E47825" width="14.7" height="2.2"/>
	</g>
	<g>
		<rect x="8.8" y="15.5" fill="#E47825" width="9.1" height="1.1"/>
	</g>
	<g>
		<rect x="8.8" y="18.8" fill="#E47825" width="9.1" height="1.1"/>
	</g>
	<g>
		<path fill="#E47825" d="M15.9,28l-7-5.9c-0.2-0.2-0.2-0.4-0.2-0.6c0.1-0.2,0.3-0.4,0.5-0.3c1.6,0,4.2-0.3,4.7-1.1
			c0.8-1.5-1.3-3.6-1.3-3.6l0.8-0.8c0.1,0.1,2.7,2.7,1.5,4.9c-0.7,1.2-2.7,1.5-4.2,1.6l5.9,5L15.9,28z"/>
	</g>
	<g>
		<path fill="#E47825" d="M16.2,9.3h-7c-0.1,0-0.2,0-0.3,0c-0.1,0-6.3-2.7-6.8-5.9c-0.1-0.6,0-1.8,1.5-2.7c0.6-0.4,1.3-0.6,1.9-0.6
			c3.3,0,6.1,4.5,7.2,6.4C13.9,4.3,16.3,0,19.7,0c0.7,0,1.4,0.2,2,0.5c1.5,0.8,1.7,1.9,1.7,2.6c-0.1,2.8-5.2,5.4-6.7,6.1
			C16.5,9.3,16.3,9.3,16.2,9.3z M15,7.1h1C18.4,5.9,21.2,4,21.2,3c0-0.2-0.4-0.5-0.6-0.6c-0.3-0.2-0.6-0.3-0.9-0.3
			C17.8,2.2,16,5.1,15,7.1z M9.4,7.1h1.2C9.4,4.9,7.3,2.3,5.6,2.3c-0.3,0-0.5,0.1-0.8,0.2C4.3,2.8,4.3,3,4.3,3.1
			C4.5,4.3,8.2,6.6,9.4,7.1z"/>
	</g>
</g>
</svg>
