<?xml version="1.0" encoding="utf-8"?>
<!-- Generator: Adobe Illustrator 18.1.1, SVG Export Plug-In . SVG Version: 6.00 Build 0)  -->
<svg version="1.1" id="Layer_1" xmlns="http://www.w3.org/2000/svg" xmlns:xlink="http://www.w3.org/1999/xlink" x="0px" y="0px"
	 viewBox="0 0 16.5 20" enable-background="new 0 0 16.5 20" xml:space="preserve">
<g>
	<path fill="#E47826" d="M16.2,17.8c-0.4-1.1-3.3-10-3.4-10.1c-0.1-0.3-0.4-0.5-0.6-0.5H4.1c-0.3,0-0.6,0.2-0.7,0.5L0.2,18.1
		c0,0.1-0.2,0.8,0.2,1.3C0.7,19.7,1.1,20,1.9,20h12.7c0,0,0.1,0,0.1,0c0.5-0.1,1.5-0.6,1.5-2C16.3,17.9,16.3,17.8,16.2,17.8z
		 M14.6,18.6H1.9c-0.2,0-0.3,0-0.3-0.1c0,0,0-0.1,0-0.1l3.1-9.9h7.1c0.6,1.8,2.7,8.2,3.2,9.6C14.9,18.5,14.7,18.6,14.6,18.6z"/>
	<path fill="#E47826" d="M5.4,10.4h3c0.2,0.2,0.6,0.8,0.8,1.3H5.4v0.7h3.7c0,0,0,0.1-0.1,0.1c-0.3,0.5-1.9,0.7-2.9,0.7
		c-0.1,0-0.3,0.1-0.3,0.2c-0.1,0.1,0,0.3,0.1,0.4l4.4,3.7l0.4-0.5L7,13.9c0.9-0.1,2.2-0.3,2.6-1c0.1-0.2,0.1-0.3,0.2-0.5h1.3v-0.7
		H9.8c-0.1-0.5-0.4-1-0.6-1.3h1.9V9.7H5.4V10.4z"/>
	<path fill="#E47826" d="M4.3,5H3.7v1.4h9.2V5h-0.8c1.3-0.7,2.8-1.9,2.8-3.1c0-0.5-0.2-1.1-1.1-1.6C13.4,0.1,13,0,12.6,0
		C10.5,0,9,2.7,8.3,4.1c-0.7-1.2-2.5-4-4.5-4c-0.4,0-0.8,0.1-1.2,0.3C1.6,1,1.6,1.7,1.6,2.1C1.8,3.3,3.2,4.3,4.3,5z M12.6,1.4
		c0.2,0,0.4,0.1,0.6,0.2c0.1,0,0.4,0.2,0.4,0.4c0,0.6-1.7,1.8-3.3,2.6H9.6C10.3,3.2,11.4,1.4,12.6,1.4z M3.3,1.6
		c0.2-0.1,0.3-0.1,0.5-0.1c1,0,2.3,1.6,3.2,3H6.2C5.4,4.1,3,2.7,3,1.9C3,1.9,2.9,1.8,3.3,1.6z"/>
</g>
</svg>
