<?xml version="1.0" encoding="utf-8"?>
<!-- Generator: Adobe Illustrator 18.1.1, SVG Export Plug-In . SVG Version: 6.00 Build 0)  -->
<svg version="1.1" id="Layer_1" xmlns="http://www.w3.org/2000/svg" xmlns:xlink="http://www.w3.org/1999/xlink" x="0px" y="0px"
	 viewBox="0 0 36.8 33.4" enable-background="new 0 0 36.8 33.4" xml:space="preserve">
<g>
	<g>
		<g>
			<path fill="#E47825" d="M15.2,16c-4.4,0-8-3.6-8-8s3.6-8,8-8s8,3.6,8,8S19.6,16,15.2,16z M15.2,1.9c-3.3,0-6.1,2.7-6.1,6.1
				s2.7,6.1,6.1,6.1s6.1-2.7,6.1-6.1S18.6,1.9,15.2,1.9z"/>
		</g>
		<g>
			<path fill="#E47825" d="M18.2,29.6H0l0.1-1.1C0.2,28.3,2,14,15,14c4.1,0,7.4,1.2,10,3.7l-1.3,1.4C21.5,17,18.6,16,15,16
				C5.5,16,2.9,24.5,2.3,27.6h15.9V29.6z"/>
		</g>
	</g>
	<g>
		<g>
			<path fill="#E47825" d="M19.2,33.4c-0.3,0-0.5-0.1-0.7-0.3c-0.3-0.3-0.3-0.7-0.2-1l1.7-3.9c0-0.1,0.1-0.2,0.2-0.3l11.6-11.6
				c0.2-0.1,1.2-1,2.4-1c0.7,0,1.3,0.3,1.8,0.8c1.5,1.5,0.4,3.3-0.3,4.1L24.1,31.7c-0.1,0.1-0.2,0.2-0.4,0.2l-4.2,1.4
				C19.4,33.4,19.3,33.4,19.2,33.4z M21.7,29l-0.7,1.8l1.9-0.7l11.5-11.5c0,0,0.8-0.9,0.3-1.4c-0.5-0.5-1.3,0.1-1.5,0.3L21.7,29z"/>
		</g>
		<g>
			<path fill="#E47825" d="M23.1,23.4c-0.2,0-0.5-0.1-0.7-0.3c-0.4-0.4-0.4-1,0-1.4l6.8-6.8c0.4-0.4,1-0.4,1.4,0l1.9,1.9
				c0.4,0.4,0.4,1,0,1.4s-1,0.4-1.4,0L29.9,17l-6.1,6.1C23.6,23.3,23.4,23.4,23.1,23.4z"/>
		</g>
	</g>
</g>
</svg>
