<?xml version="1.0" encoding="utf-8"?>
<!-- Generator: Adobe Illustrator 18.1.1, SVG Export Plug-In . SVG Version: 6.00 Build 0)  -->
<svg version="1.1" id="Layer_1" xmlns="http://www.w3.org/2000/svg" xmlns:xlink="http://www.w3.org/1999/xlink" x="0px" y="0px"
	 viewBox="0 0 17 17" enable-background="new 0 0 17 17" xml:space="preserve">
<g>
	<g>
		<g>
			<path fill="#A9A9A9" d="M8.5,17C3.8,17,0,13.2,0,8.5S3.8,0,8.5,0c1.7,0,3.3,0.5,4.7,1.4c1.1,0.7,2,1.7,2.7,2.9l-1.7,1
				C13.7,4.4,13,3.6,12.1,3C11,2.3,9.8,2,8.5,2C4.9,2,2,4.9,2,8.5S4.9,15,8.5,15c1.7,0,3.4-0.7,4.6-1.9c0.6-0.6,1.1-1.3,1.4-2.1
				c0.3-0.8,0.5-1.7,0.5-2.6h2c0,1.1-0.2,2.3-0.7,3.3c-0.4,1-1,1.9-1.8,2.7C12.9,16.1,10.8,17,8.5,17z"/>
		</g>
	</g>
	<g>
		<g>
			<polygon fill="#A9A9A9" points="11.2,6.4 17,6.4 17,0.7 			"/>
		</g>
	</g>
</g>
</svg>
