<?xml version="1.0" encoding="utf-8"?>
<!-- Generator: Adobe Illustrator 21.0.0, SVG Export Plug-In . SVG Version: 6.00 Build 0)  -->
<svg version="1.1" id="Layer_1" xmlns="http://www.w3.org/2000/svg" xmlns:xlink="http://www.w3.org/1999/xlink" x="0px" y="0px"
	 viewBox="0 0 110 92" style="enable-background:new 0 0 110 92;" xml:space="preserve">
<style type="text/css">
	.st0{opacity:0.15;clip-path:url(#SVGID_2_);}
	.st1{fill:#F26725;}
	.st2{fill:#FFFFFF;}
</style>
<g>
	<defs>
		<rect id="SVGID_1_" width="110" height="92"/>
	</defs>
	<clipPath id="SVGID_2_">
		<use xlink:href="#SVGID_1_"  style="overflow:visible;"/>
	</clipPath>
	<g class="st0">
		<g>
			<g>
				<g>
					<path class="st1" d="M44.7,32.8c0,5.3-4.5,9.8-9.8,9.7c-5.4-0.1-9.7-4.6-9.6-9.9c0.1-5.2,4.6-9.6,9.8-9.5
						C40.3,23.1,44.7,27.6,44.7,32.8z M34.9,41.3c4.8,0,8.5-3.7,8.5-8.5c0-4.8-3.7-8.5-8.5-8.6c-4.7,0-8.5,3.7-8.5,8.5
						C26.4,37.5,30.1,41.3,34.9,41.3z"/>
				</g>
			</g>
			<g>
				<circle class="st2" cx="34.9" cy="32.7" r="8.6"/>
				<path class="st1" d="M34.9,42.1c-5.2,0-9.4-4.2-9.4-9.3s4.2-9.3,9.4-9.3c5.2,0,9.3,4.2,9.3,9.3S40.1,42.1,34.9,42.1z M34.9,25
					c-4.3,0-7.8,3.5-7.8,7.8s3.5,7.8,7.8,7.8s7.8-3.5,7.8-7.8S39.2,25,34.9,25z"/>
			</g>
		</g>
		<g>
			<g>
				<g>
					<path class="st1" d="M29.2,18.2c0,5.3-4.5,9.8-9.8,9.7C14,27.9,9.7,23.4,9.7,18c0.1-5.2,4.6-9.6,9.8-9.5
						C24.9,8.6,29.2,13,29.2,18.2z M19.5,26.8c4.8,0,8.5-3.7,8.5-8.5c0-4.8-3.7-8.5-8.5-8.6c-4.7,0-8.5,3.7-8.5,8.5
						C10.9,22.9,14.6,26.7,19.5,26.8z"/>
				</g>
			</g>
			<g>
				<circle class="st2" cx="19.5" cy="18.2" r="8.6"/>
				<path class="st1" d="M19.5,27.6c-5.2,0-9.4-4.2-9.4-9.3s4.2-9.3,9.4-9.3c5.2,0,9.3,4.2,9.3,9.3S24.6,27.6,19.5,27.6z M19.5,10.4
					c-4.3,0-7.8,3.5-7.8,7.8s3.5,7.8,7.8,7.8s7.8-3.5,7.8-7.8S23.8,10.4,19.5,10.4z"/>
			</g>
		</g>
		<g>
			<g>
				<g>
					<path class="st1" d="M49.8,11.9c0,5.3-4.5,9.8-9.8,9.7c-5.4-0.1-9.7-4.6-9.6-9.9C30.5,6.4,35,2,40.2,2.1
						C45.5,2.2,49.8,6.7,49.8,11.9z M40.1,20.4c4.8,0,8.5-3.7,8.5-8.5c0-4.8-3.7-8.5-8.5-8.6c-4.7,0-8.5,3.7-8.5,8.5
						C31.5,16.6,35.3,20.4,40.1,20.4z"/>
				</g>
			</g>
			<g>
				<circle class="st2" cx="40.1" cy="11.8" r="8.6"/>
				<path class="st1" d="M40.1,21.2c-5.2,0-9.3-4.2-9.3-9.3s4.2-9.3,9.3-9.3c5.2,0,9.4,4.2,9.4,9.3S45.3,21.2,40.1,21.2z M40.1,4.1
					c-4.3,0-7.8,3.5-7.8,7.8s3.5,7.8,7.8,7.8s7.8-3.5,7.8-7.8S44.4,4.1,40.1,4.1z"/>
			</g>
		</g>
		<g>
			<path class="st1" d="M25.2,7.4c-2.3,0-4.1-1.8-4.1-4.1s1.8-4.1,4.1-4.1s4.1,1.8,4.1,4.1S27.5,7.4,25.2,7.4z M25.2,0.8
				c-1.4,0-2.5,1.1-2.5,2.5s1.1,2.5,2.5,2.5c1.4,0,2.5-1.1,2.5-2.5S26.6,0.8,25.2,0.8z"/>
		</g>
		<g>
			<path class="st1" d="M49.8,30.2c-2.3,0-4.1-1.8-4.1-4.1s1.8-4.1,4.1-4.1c2.3,0,4.1,1.8,4.1,4.1S52.1,30.2,49.8,30.2z M49.8,23.5
				c-1.4,0-2.5,1.1-2.5,2.5c0,1.4,1.1,2.5,2.5,2.5c1.4,0,2.5-1.1,2.5-2.5C52.4,24.6,51.2,23.5,49.8,23.5z"/>
		</g>
		<g>
			<path class="st1" d="M75.7,101.3H6c-1,0-1.9-0.8-1.9-1.9v-55h73.4v55C77.6,100.4,76.7,101.3,75.7,101.3z"/>
		</g>
		<g>
			<rect x="0" y="40.2" class="st1" width="79.6" height="4.1"/>
		</g>
		<g>
			<g>
				<path class="st2" d="M24.3,97.3h-15c-0.6,0-1.1-0.9-1.1-1.9v-51h16V97.3z"/>
			</g>
			<g>
				<path class="st2" d="M58,97.3h14.4c0.6,0,1-0.9,1-1.9v-51H58V97.3z"/>
			</g>
			<g>
				<rect x="28.5" y="44.4" class="st2" width="25.4" height="53"/>
			</g>
		</g>
		<g>
			<g>
				<path class="st1" d="M94.5,101L53.5,12.5c-0.4-0.9,0-2.1,0.9-2.5l15.3-7.1c0.9-0.4,2.1,0,2.5,0.9l41.1,88.5
					c0.4,0.9,0,2.1-0.9,2.5l-15.3,7.1C96.1,102.3,95,101.9,94.5,101z"/>
			</g>
			<g>
				<path class="st1" d="M86.4,36.5c0.1-0.4,0.1-0.7,0.1-1c-0.1-3.4-0.4-6.8-0.4-10.2c0.2-8.1,10.2-13.8,17.9-9.7
					c5.8,3.1,9.2,12.1,3.7,18.6c-3.2,3.8-6.8,7.2-10.5,10.6c-0.3,0.3-0.6,0.5-1.1,1c0.7-0.1,1.1-0.1,1.5-0.2
					c5.2-0.7,10.3-1.4,15.6-1.2c5.4,0.2,9.3,4,10.8,8.7c1.7,5.4-0.2,10.5-4.9,13.6c-4.1,2.7-9.8,3.4-14.4-0.5
					c-2.3-1.9-4.4-4-6.6-6.1c-0.3-0.3-0.7-0.7-1-1c0,0-0.1,0.1-0.1,0.1"/>
			</g>
			<g>
				<g>
					<path class="st2" d="M70.8,9.7l11.6,25l-11.8,5.5l-11.6-25c-0.7-1.5-0.1-3.2,1.3-3.9L67,8.3C68.4,7.6,70.1,8.3,70.8,9.7z"/>
				</g>
				<g>
					<path class="st2" d="M84.6,70.3l11.8-5.5l11.4,24.5c0.7,1.6,0.1,3.4-1.4,4.1l-6.3,2.9c-1.5,0.7-3.4,0-4.1-1.5L84.6,70.3z"/>
				</g>
				<g>
					
						<rect x="77" y="39.6" transform="matrix(0.9065 -0.4221 0.4221 0.9065 -14.386 40.1606)" class="st2" width="13" height="25.9"/>
				</g>
			</g>
			<g>
				<path class="st2" d="M93.2,49.8c1.5-0.2,2.8-0.5,4.2-0.7c4.5-0.5,9-0.9,13.5-1.2c3-0.2,5.6,0.9,7.6,3.3
					c2.8,3.5,2.2,9.2-1.7,12.4c-2.8,2.2-7.6,1.9-10.4-0.2c-2.1-1.6-4-3.4-5.9-5.3c-2.4-2.4-4.5-4.9-6.7-7.4
					C93.6,50.4,93.5,50.2,93.2,49.8z"/>
			</g>
			<g>
				<path class="st2" d="M91.2,45.8c-1-6.7-2.3-13-1.8-19.5c0.3-4.3,3.8-7.6,8-7.7c5.8-0.2,10.6,4.9,8.9,10.9
					c-0.4,1.3-1.1,2.5-2,3.4c-2.4,2.7-4.9,5.3-7.5,7.8C95.1,42.5,93.2,44,91.2,45.8z"/>
			</g>
		</g>
		<g>
			<g>
				<path class="st1" d="M38.2,27.8l-0.7,1h-1.4c0.1,0.2,0.3,0.3,0.4,0.6c0.1,0.2,0.2,0.4,0.2,0.7h1.5l-0.7,1h-0.8
					c-0.1,0.3-0.2,0.6-0.3,0.9c-0.2,0.3-0.4,0.5-0.6,0.7c-0.3,0.2-0.6,0.4-0.9,0.5c-0.4,0.1-0.8,0.2-1.2,0.2l4.1,4.3h-1.8L32,33.4
					v-1h1c0.3,0,0.6,0,0.9-0.1c0.3-0.1,0.5-0.1,0.7-0.3c0.2-0.1,0.4-0.3,0.5-0.4c0.1-0.2,0.2-0.4,0.3-0.6h-3.7l0.7-1h3
					c-0.1-0.4-0.3-0.7-0.7-0.9c-0.3-0.2-0.8-0.3-1.4-0.3h-1.6l0.7-1H38.2z"/>
			</g>
		</g>
		<g>
			<g>
				<path class="st1" d="M22.7,13.3l-0.7,1h-1.4c0.1,0.2,0.3,0.3,0.4,0.6c0.1,0.2,0.2,0.4,0.2,0.7h1.5l-0.7,1h-0.8
					c-0.1,0.3-0.2,0.6-0.3,0.9c-0.2,0.3-0.4,0.5-0.6,0.7c-0.3,0.2-0.6,0.4-0.9,0.5c-0.4,0.1-0.8,0.2-1.2,0.2l4.1,4.3h-1.8l-3.9-4.2
					v-1h1c0.3,0,0.6,0,0.9-0.1c0.3-0.1,0.5-0.1,0.7-0.3c0.2-0.1,0.4-0.3,0.5-0.4c0.1-0.2,0.2-0.4,0.3-0.6h-3.7l0.7-1h3
					c-0.1-0.4-0.3-0.7-0.7-0.9c-0.3-0.2-0.8-0.3-1.4-0.3h-1.6l0.7-1H22.7z"/>
			</g>
		</g>
		<g>
			<g>
				<path class="st1" d="M43.4,6.9l-0.7,1h-1.4c0.1,0.2,0.3,0.3,0.4,0.6c0.1,0.2,0.2,0.4,0.2,0.7h1.5l-0.7,1h-0.8
					c-0.1,0.3-0.2,0.6-0.3,0.9c-0.2,0.3-0.4,0.5-0.6,0.7c-0.3,0.2-0.6,0.4-0.9,0.5c-0.4,0.1-0.8,0.2-1.2,0.2l4.1,4.3h-1.8l-3.9-4.2
					v-1h1c0.3,0,0.6,0,0.9-0.1c0.3-0.1,0.5-0.1,0.7-0.3c0.2-0.1,0.4-0.3,0.5-0.4c0.1-0.2,0.2-0.4,0.3-0.6h-3.7l0.7-1h3
					c-0.1-0.4-0.3-0.7-0.7-0.9C39.5,8,39,7.9,38.5,7.9h-1.6l0.7-1H43.4z"/>
			</g>
		</g>
	</g>
</g>
</svg>
