<?xml version="1.0" encoding="utf-8"?>
<!-- Generator: Adobe Illustrator 21.0.0, SVG Export Plug-In . SVG Version: 6.00 Build 0)  -->
<svg version="1.1" id="Layer_1" xmlns="http://www.w3.org/2000/svg" xmlns:xlink="http://www.w3.org/1999/xlink" x="0px" y="0px"
	 viewBox="0 0 55 49" style="enable-background:new 0 0 55 49;" xml:space="preserve">
<style type="text/css">
	.st0{clip-path:url(#SVGID_2_);}
	.st1{fill:#F26725;}
	.st2{fill:#FFFFFF;}
	.st3{clip-path:url(#SVGID_4_);}
	.st4{fill:none;}
	.st5{fill:#FFFFFF;stroke:#F26725;stroke-width:0.5;stroke-miterlimit:10;}
	.st6{fill:none;stroke:#F26725;stroke-width:0.5;stroke-miterlimit:10;}
	.st7{fill:#89726A;}
	.st8{fill:#FFFFFF;stroke:#F26725;stroke-width:0.8;stroke-miterlimit:10;}
	.st9{fill:none;stroke:#F26725;stroke-width:0.7;stroke-miterlimit:10;}
</style>
<g>
	<g>
		<g>
			<path class="st1" d="M19.7,16.6c0,2.4-2,4.3-4.3,4.3c-2.4,0-4.3-2-4.3-4.4c0-2.3,2-4.2,4.3-4.2C17.8,12.3,19.7,14.3,19.7,16.6z
				 M15.4,20.4c2.1,0,3.8-1.6,3.8-3.8c0-2.1-1.6-3.8-3.8-3.8c-2.1,0-3.8,1.6-3.8,3.7C11.6,18.7,13.3,20.4,15.4,20.4z"/>
		</g>
		<circle class="st8" cx="15.4" cy="16.6" r="3.8"/>
	</g>
	<g>
		<g>
			<path class="st1" d="M12.9,10.2c0,2.4-2,4.3-4.3,4.3c-2.4,0-4.3-2-4.3-4.4c0-2.3,2-4.2,4.3-4.2C11,5.9,12.9,7.9,12.9,10.2z
				 M8.6,14c2.1,0,3.8-1.6,3.8-3.8c0-2.1-1.6-3.8-3.8-3.8c-2.1,0-3.8,1.6-3.8,3.7C4.8,12.3,6.5,13.9,8.6,14z"/>
		</g>
		<circle class="st8" cx="8.6" cy="10.2" r="3.8"/>
	</g>
	<g>
		<g>
			<path class="st1" d="M22,7.4c0,2.4-2,4.3-4.3,4.3c-2.4,0-4.3-2-4.3-4.4c0-2.3,2-4.2,4.3-4.2C20.1,3.1,22,5.1,22,7.4z M17.7,11.1
				c2.1,0,3.8-1.6,3.8-3.8c0-2.1-1.6-3.8-3.8-3.8c-2.1,0-3.8,1.6-3.8,3.7C13.9,9.5,15.6,11.1,17.7,11.1z"/>
		</g>
		<circle class="st8" cx="17.7" cy="7.4" r="3.8"/>
	</g>
	<circle class="st9" cx="11.1" cy="3.6" r="1.5"/>
	<circle class="st9" cx="22" cy="13.6" r="1.5"/>
	<path class="st1" d="M32.4,46.9H3.7c-1,0-1.9-0.8-1.9-1.9V21.6h32.4V45C34.3,46,33.4,46.9,32.4,46.9z"/>
	<rect x="0" y="19.9" class="st1" width="35.2" height="1.8"/>
	<path class="st2" d="M10.7,45.1H4.1c-0.3,0-0.5-0.4-0.5-0.9V21.7h7.1V45.1z"/>
	<path class="st2" d="M25.6,45.1H32c0.2,0,0.4-0.4,0.4-0.9V21.7h-6.8V45.1z"/>
	<rect x="12.6" y="21.7" class="st2" width="11.2" height="23.4"/>
	<g>
		<path class="st1" d="M41.3,45.8L24.1,8.6c-0.4-0.9,0-2.1,0.9-2.5l4.9-2.3c0.9-0.4,2.1,0,2.5,0.9l17.2,37.2c0.4,0.9,0,2.1-0.9,2.5
			l-4.9,2.3C42.9,47.1,41.7,46.7,41.3,45.8z"/>
		<path class="st1" d="M38.1,18.3c0.1-0.2,0-0.3,0-0.4c-0.1-1.5-0.2-3-0.2-4.5c0.1-3.6,4.5-6.1,7.9-4.3c2.6,1.4,4.1,5.3,1.7,8.2
			c-1.4,1.7-3,3.2-4.6,4.7c-0.1,0.1-0.3,0.2-0.5,0.5c0.3,0,0.5-0.1,0.6-0.1c2.3-0.3,4.6-0.6,6.9-0.5c2.4,0.1,4.1,1.8,4.8,3.8
			c0.7,2.4-0.1,4.6-2.1,6c-1.8,1.2-4.3,1.5-6.3-0.2c-1-0.9-1.9-1.8-2.9-2.7c-0.2-0.1-0.3-0.3-0.4-0.4c0,0,0,0-0.1,0"/>
		<g>
			<path class="st2" d="M31.3,6.4l5.1,11l-5.2,2.4L26,8.9c-0.3-0.6,0-1.4,0.6-1.7l3-1.4C30.2,5.5,30.9,5.8,31.3,6.4z"/>
			<path class="st2" d="M37.4,33.2l5.2-2.4l5,10.8c0.3,0.7,0,1.5-0.6,1.8l-2.8,1.3c-0.7,0.3-1.5,0-1.8-0.7L37.4,33.2z"/>
			<rect x="34" y="19.7" transform="matrix(0.9065 -0.4221 0.4221 0.9065 -7.259 17.935)" class="st2" width="5.7" height="11.4"/>
		</g>
		<path class="st2" d="M41.2,24.1c0.7-0.1,1.3-0.2,1.9-0.3c2-0.2,4-0.4,6-0.6c1.3-0.1,2.5,0.4,3.3,1.5c1.2,1.6,1,4.1-0.8,5.5
			c-1.2,1-3.3,0.9-4.6-0.1c-0.9-0.7-1.8-1.5-2.6-2.3c-1-1-2-2.2-3-3.3C41.3,24.4,41.3,24.3,41.2,24.1z"/>
		<path class="st2" d="M40.3,22.4c-0.4-2.9-1-5.7-0.8-8.6c0.1-1.9,1.7-3.3,3.5-3.4c2.5-0.1,4.7,2.1,3.9,4.8
			c-0.2,0.6-0.5,1.1-0.9,1.5c-1.1,1.2-2.2,2.3-3.3,3.5C42,20.9,41.2,21.6,40.3,22.4z"/>
	</g>
	<g>
		<path class="st1" d="M16.3,7.3c0.5,0,1.1,0.1,1.4-0.6c-0.5,0-0.9,0-1.4,0c0-0.1,0-0.3,0-0.4c0.4,0,0.9,0,1.4,0
			c-0.3-0.6-0.9-0.4-1.4-0.5c0-0.2,0-0.4,0-0.5c0.9,0,1.9,0,2.8,0c0,0.1,0,0.2,0,0.4c-0.3,0-0.6,0-1,0c0.1,0.2,0.2,0.4,0.3,0.6
			c0.2,0,0.4,0,0.7,0c0,0.1,0,0.2,0,0.4c-0.2,0-0.5,0-0.7,0C18.4,7,18.3,7.3,18,7.4c-0.3,0.2-0.5,0.2-0.8,0.4
			c0.2,0.2,0.5,0.5,0.7,0.8c0.2,0.3,0.5,0.6,0.8,0.9c-0.3,0-0.6,0-0.8,0c0,0-0.1-0.1-0.1-0.1c-0.4-0.5-0.9-1-1.3-1.5
			c0,0-0.1-0.1-0.1-0.1C16.3,7.6,16.3,7.4,16.3,7.3z"/>
	</g>
	<g>
		<path class="st1" d="M14,16.5c0.5,0,1.1,0.1,1.4-0.6c-0.5,0-0.9,0-1.4,0c0-0.1,0-0.3,0-0.4c0.4,0,0.9,0,1.4,0
			C15,14.9,14.5,15.1,14,15c0-0.2,0-0.4,0-0.5c0.9,0,1.9,0,2.8,0c0,0.1,0,0.2,0,0.4c-0.3,0-0.6,0-1,0c0.1,0.2,0.2,0.4,0.3,0.6
			c0.2,0,0.4,0,0.7,0c0,0.1,0,0.2,0,0.4c-0.2,0-0.5,0-0.7,0c-0.1,0.3-0.2,0.6-0.4,0.8c-0.3,0.2-0.5,0.2-0.8,0.4
			c0.2,0.2,0.5,0.5,0.7,0.8c0.2,0.3,0.5,0.6,0.8,0.9c-0.3,0-0.6,0-0.8,0c0,0-0.1-0.1-0.1-0.1c-0.4-0.5-0.9-1-1.3-1.5
			c0,0-0.1-0.1-0.1-0.1C14,16.8,14,16.7,14,16.5z"/>
	</g>
	<g>
		<path class="st1" d="M7.2,10.1c0.5,0,1.1,0.1,1.4-0.6c-0.5,0-0.9,0-1.4,0c0-0.1,0-0.3,0-0.4c0.4,0,0.9,0,1.4,0
			C8.2,8.5,7.7,8.7,7.2,8.6c0-0.2,0-0.4,0-0.5c0.9,0,1.9,0,2.8,0c0,0.1,0,0.2,0,0.4c-0.3,0-0.6,0-1,0c0.1,0.2,0.2,0.4,0.3,0.6
			c0.2,0,0.4,0,0.7,0c0,0.1,0,0.2,0,0.4c-0.2,0-0.5,0-0.7,0c-0.1,0.3-0.2,0.6-0.4,0.8c-0.3,0.2-0.5,0.2-0.8,0.4
			c0.2,0.2,0.5,0.5,0.7,0.8C9,11.7,9.2,12,9.5,12.3c-0.3,0-0.6,0-0.8,0c0,0-0.1-0.1-0.1-0.1c-0.4-0.5-0.9-1-1.3-1.5
			c0,0-0.1-0.1-0.1-0.1C7.2,10.4,7.2,10.2,7.2,10.1z"/>
	</g>
</g>
</svg>
