<?xml version="1.0" encoding="utf-8"?>
<!-- Generator: Adobe Illustrator 21.0.0, SVG Export Plug-In . SVG Version: 6.00 Build 0)  -->
<svg version="1.1" id="Layer_1" xmlns="http://www.w3.org/2000/svg" xmlns:xlink="http://www.w3.org/1999/xlink" x="0px" y="0px"
	 viewBox="0 0 55 103" style="enable-background:new 0 0 55 103;" xml:space="preserve">
<style type="text/css">
	.st0{opacity:0.15;clip-path:url(#SVGID_2_);}
	.st1{fill:#FFFFFF;}
	.st2{fill:#F26725;}
	.st3{clip-path:url(#SVGID_4_);}
	.st4{opacity:0.15;clip-path:url(#SVGID_6_);}
	.st5{clip-path:url(#SVGID_4_);fill:none;}
</style>
<g>
	<defs>
		<rect id="SVGID_3_" x="0" width="55" height="103"/>
	</defs>
	<clipPath id="SVGID_2_">
		<use xlink:href="#SVGID_3_"  style="overflow:visible;"/>
	</clipPath>
	<g style="clip-path:url(#SVGID_2_);">
		<defs>
			<rect id="SVGID_5_" width="84" height="103"/>
		</defs>
		<clipPath id="SVGID_4_">
			<use xlink:href="#SVGID_5_"  style="overflow:visible;"/>
		</clipPath>
		<g style="opacity:0.15;clip-path:url(#SVGID_4_);">
			<g>
				<g>
					<rect x="6.8" y="53.8" class="st1" width="64.3" height="55.8"/>
				</g>
				<g>
					<path class="st2" d="M67,25.2C66.6,11.2,54.2,0,38.9,0S11.3,11.2,10.8,25.2h0v29.1h56.3L67,25.2L67,25.2z"/>
				</g>
				<g>
					<path class="st1" d="M61.1,25.6C60.7,14.6,51,5.8,38.9,5.8s-21.8,8.8-22.1,19.8h0v22.9h44.3L61.1,25.6L61.1,25.6z"/>
				</g>
				<g>
					<path class="st2" d="M75.1,115.4H2.8c-1.5,0-2.6-1.2-2.6-2.6v-62c0-1.5,1.2-2.6,2.6-2.6h72.4c1.5,0,2.6,1.2,2.6,2.6v62
						C77.8,114.2,76.6,115.4,75.1,115.4z"/>
				</g>
				<g>
					<path class="st1" d="M70.5,110.6H7.4c-1,0-1.7-0.8-1.7-1.7V54.6c0-1,0.8-1.7,1.7-1.7h63.1c1,0,1.7,0.8,1.7,1.7v54.3
						C72.2,109.8,71.5,110.6,70.5,110.6z"/>
				</g>
			</g>
			<g>
				<path class="st1" d="M30,70.9h-6.7v-2.4c0-0.3,0.2-0.5,0.5-0.5H30V70.9z"/>
			</g>
			<g>
				<path class="st1" d="M48.1,70.9h6.7v-2.4c0-0.3-0.2-0.5-0.5-0.5h-6.3V70.9z"/>
			</g>
			<g>
				<g>
					<path class="st1" d="M57,96.8H19.8c-1.2,0-2.2-1-2.2-2.2V68.9c0-1.2,1-2.2,2.2-2.2H57c1.2,0,2.2,1,2.2,2.2v25.7
						C59.2,95.8,58.3,96.8,57,96.8z"/>
					<path class="st2" d="M54.6,98.6H22.2c-3.6,0-6.5-2.9-6.5-6.5V71.3c0-3.6,2.9-6.5,6.5-6.5h32.4c3.6,0,6.5,2.9,6.5,6.5v20.8
						C61.1,95.7,58.2,98.6,54.6,98.6z M22.2,68.6c-1.5,0-2.7,1.2-2.7,2.7v20.8c0,1.5,1.2,2.7,2.7,2.7h32.4c1.5,0,2.7-1.2,2.7-2.7
						V71.3c0-1.5-1.2-2.7-2.7-2.7H22.2z"/>
				</g>
				<g>
					<path class="st1" d="M45,71.8c-3.3-1.4,0.3-5.1,0.3-5.1H31.6c2.1,2.5,1.4,4.5,0.3,5.1c-0.8,0.4-1.7,0.7-1.7,1.7V90
						c0,0.9,0.8,1.3,1.7,1.7c3,1.3-0.3,5.1-0.3,5.1h13.8c-2.5-2.6-1.4-4.6-0.3-5.1c0.8-0.4,1.7-0.7,1.7-1.7V73.5
						C46.7,72.6,45.9,72.2,45,71.8z"/>
					<path class="st2" d="M49.7,98.6H27.4l2.7-3.1c0.6-0.7,1.1-1.8,1.1-2.1c-1.1-0.5-2.9-1.3-2.9-3.4V73.5c0-2,1.6-2.8,2.4-3.2
						l0.2-0.1c0,0,0,0,0,0c0,0,0.1-0.1,0.1-0.3c0-0.2,0-0.9-0.9-1.9l-2.7-3.1h22.4L46.7,68c-0.6,0.6-1.1,1.6-1.1,1.9
						c0,0,0.1,0.1,0.3,0.1l0,0c0.8,0.4,2.8,1.2,2.8,3.4V90c0,2.1-1.9,3-2.8,3.4l0,0c0,0-0.1,0.1-0.1,0.2c-0.1,0.3,0.2,1,1,1.8
						L49.7,98.6z M34.7,94.9H42c-0.2-0.8-0.2-1.5-0.1-2c0.3-1.3,1.1-2.4,2.3-2.9c0.2-0.1,0.4-0.2,0.5-0.3V73.8
						c-0.2-0.1-0.4-0.2-0.5-0.2l0,0c-1.7-0.7-2.3-1.9-2.5-2.8c-0.1-0.7-0.1-1.5,0.2-2.1h-7.3c0.2,0.9,0.2,1.6,0.1,2
						c-0.2,1.3-1,2.3-2,2.9l-0.3,0.1c-0.1,0.1-0.2,0.1-0.4,0.2v15.9c0.2,0.1,0.4,0.2,0.5,0.2c1.6,0.7,2.1,1.8,2.3,2.7
						C35.1,93.4,35,94.1,34.7,94.9z"/>
				</g>
				<g>
					<g>
						<rect x="17.6" y="75.7" class="st2" width="13.1" height="3.7"/>
					</g>
					<g>
						<rect x="17.6" y="84.1" class="st2" width="13.1" height="3.8"/>
					</g>
					<g>
						<rect x="47.1" y="84.1" class="st2" width="13.1" height="3.8"/>
					</g>
					<g>
						<rect x="47.1" y="75.6" class="st2" width="13.1" height="3.7"/>
					</g>
				</g>
			</g>
		</g>
	</g>
	<rect x="0" style="clip-path:url(#SVGID_2_);fill:none;" width="55" height="103"/>
</g>
</svg>
