<?xml version="1.0" encoding="utf-8"?>
<!-- Generator: Adobe Illustrator 19.1.0, SVG Export Plug-In . SVG Version: 6.00 Build 0)  -->
<svg version="1.1" id="Layer_1" xmlns="http://www.w3.org/2000/svg" xmlns:xlink="http://www.w3.org/1999/xlink" x="0px" y="0px"
	 viewBox="-283 407.7 27.3 26.2" style="enable-background:new -283 407.7 27.3 26.2;" xml:space="preserve">
<style type="text/css">
	.st0{enable-background:new    ;}
	.st1{fill:#E67925;}
</style>
<g class="st0">
	<path class="st1" d="M-256.4,418.6l-5.7,5.5l1.3,7.8c0,0.1,0,0.2,0,0.3c0,0.4-0.2,0.8-0.6,0.8c-0.2,0-0.4-0.1-0.6-0.2l-7-3.7
		l-7,3.7c-0.2,0.1-0.4,0.2-0.6,0.2c-0.5,0-0.7-0.4-0.7-0.8c0-0.1,0-0.2,0-0.3l1.3-7.8l-5.7-5.5c-0.2-0.2-0.4-0.5-0.4-0.8
		c0-0.5,0.5-0.7,0.9-0.7l7.8-1.1l3.5-7.1c0.1-0.3,0.4-0.6,0.8-0.6s0.6,0.3,0.8,0.6l3.5,7.1l7.8,1.1c0.4,0.1,0.9,0.3,0.9,0.7
		C-256,418.1-256.2,418.4-256.4,418.6z"/>
</g>
</svg>
