<?xml version="1.0" encoding="utf-8"?>
<!-- Generator: Adobe Illustrator 16.0.4, SVG Export Plug-In . SVG Version: 6.00 Build 0)  -->
<!DOCTYPE svg PUBLIC "-//W3C//DTD SVG 1.1//EN" "http://www.w3.org/Graphics/SVG/1.1/DTD/svg11.dtd">
<svg version="1.1" id="Layer_1" xmlns="http://www.w3.org/2000/svg" xmlns:xlink="http://www.w3.org/1999/xlink" x="0px" y="0px"
	 width="21.232px" height="22px" viewBox="0 0 21.232 22" enable-background="new 0 0 21.232 22" xml:space="preserve">
<g>
	<path fill="#FFFFFF" d="M5.866,22h15.065l-0.042-0.798c-0.107-2.026-1.259-5.505-4.638-6.776c0.866-0.761,1.417-1.873,1.417-3.114
		c0-1.969-1.381-3.619-3.225-4.039V0H0v16.803h7.702c-1.075,1.453-1.599,3.155-1.737,4.35L5.866,22z M16.153,11.312
		c0,1.451-1.179,2.63-2.629,2.63s-2.629-1.179-2.629-2.63c0-1.45,1.179-2.628,2.629-2.628S16.153,9.862,16.153,11.312z M1.516,1.517
		h11.413v5.698c-2.004,0.29-3.549,2.015-3.549,4.097c0,1.232,0.544,2.338,1.399,3.098c-0.589,0.226-1.108,0.529-1.577,0.878H1.516
		V1.517z M13.425,15.457c4.346,0,5.526,3.425,5.84,5.027H7.639C8.052,18.854,9.398,15.457,13.425,15.457z"/>
	<rect x="2.884" y="3.396" fill="#FFFFFF" width="8.677" height="1.516"/>
	<rect x="2.884" y="7.642" fill="#FFFFFF" width="4.669" height="1.516"/>
</g>
</svg>
