<?xml version="1.0" encoding="utf-8"?>
<!-- Generator: Adobe Illustrator 21.0.0, SVG Export Plug-In . SVG Version: 6.00 Build 0)  -->
<svg version="1.1" id="Layer_1" xmlns="http://www.w3.org/2000/svg" xmlns:xlink="http://www.w3.org/1999/xlink" x="0px" y="0px"
	 viewBox="0 0 55 55" style="enable-background:new 0 0 55 55;" xml:space="preserve">
<style type="text/css">
	.st0{fill:#F26725;}
	.st1{fill:#FFFFFF;stroke:#F26725;stroke-width:2;stroke-miterlimit:10;}
</style>
<g>
	<path class="st0" d="M14.6,11.8L14.6,11.8c-0.4-0.3-0.5-1-0.1-1.4l3.7-4.3c0.3-0.4,1-0.5,1.4-0.1l0,0c0.4,0.3,0.5,1,0.1,1.4
		L16,11.7C15.6,12.1,15,12.1,14.6,11.8z"/>
	<path class="st0" d="M42.4,40.7L42.4,40.7c-0.4-0.3-0.5-1-0.1-1.4L46,35c0.3-0.4,1-0.5,1.4-0.1v0c0.4,0.3,0.5,1,0.1,1.4l-3.7,4.3
		C43.4,41,42.8,41,42.4,40.7z"/>
	<path class="st0" d="M24.8,14L24.8,14c-0.4-0.4-0.5-1-0.1-1.4l3.7-4.3c0.4-0.4,1-0.5,1.4-0.1l0,0c0.4,0.4,0.5,1,0.1,1.4l-3.7,4.3
		C25.9,14.3,25.2,14.4,24.8,14z"/>
	<path class="st0" d="M40.7,30.4L40.7,30.4c-0.4-0.4-0.5-1-0.1-1.4l3.7-4.3c0.4-0.4,1-0.5,1.4-0.1v0c0.4,0.4,0.5,1,0.1,1.4l-3.7,4.3
		C41.8,30.7,41.2,30.7,40.7,30.4z"/>
	<g>
		<path class="st0" d="M29.7,31.8c-1.1,1-2.1,1.9-3.1,2.9c-0.8,0.8-1.6,1.6-2.4,2.4c-1,0.9-1.9,1.9-2.8,2.8
			c-0.2,0.2-0.3,0.6-0.3,0.8c0.2,2.8,0.5,5.6,0.7,8.4c0,0.4-0.3,0.8-0.6,1.1c-1,0.9-2,1.8-3,2.7c-0.4,0.3-0.8,0.1-1-0.4
			c-0.4-1.4-0.8-2.9-1.2-4.3c-0.6-2.2-1.4-4.4-1.9-6.7c-0.3-1.1-1-1.5-1.9-1.8c-2.4-0.8-4.8-1.5-7.1-2.3c-1.2-0.4-2.4-0.7-3.6-1.2
			c-0.7-0.2-0.7-0.5-0.2-1c1-1.1,2.1-2.1,3.2-3.2c0.2-0.2,0.6-0.2,0.9-0.2c1.9,0.2,3.8,0.5,5.7,0.7c0.8,0.1,1.7,0.3,2.5,0.3
			c0.3,0,0.7-0.1,0.9-0.3c2.2-2.1,4.5-4.3,6.7-6.4c0.5-0.5,1-1,1.7-1.6c-0.8-0.4-1.5-0.7-2.2-1c-3-1.4-6-2.8-9-4.1
			c-3.2-1.5-6.5-3-9.7-4.4c-0.9-0.4-1-0.7-0.3-1.4c1.6-1.7,3.2-3.5,4.8-5.2c0.2-0.2,0.6-0.3,0.8-0.2c4.3,0.9,8.5,1.7,12.8,2.6
			c3.5,0.7,7.1,1.4,10.7,2.1c1,0.2,1.9,0.4,2.9,0.6c0.3,0,0.6-0.1,0.8-0.3c1.6-1.4,3.1-2.9,4.6-4.4c1.8-1.8,3.5-3.6,5.4-5.3
			c1.8-1.5,3.8-2.6,6.3-2.3c1.9,0.2,3.2,1.7,3.1,4c-0.1,1.8-0.8,3.3-2,4.6c-1.6,1.7-3.4,3.3-5.1,5c-1.8,1.8-3.7,3.6-5.5,5.4
			c-0.2,0.2-0.3,0.8-0.3,1.1c0.8,4.7,1.6,9.4,2.4,14c0.7,4,1.3,8.1,2,12.1c0,0.3,0,0.7-0.2,0.9c-1.5,1.4-3.1,2.7-4.6,4.1
			c-0.3,0.3-0.5,0.6-0.8,0.8c-0.5,0.4-0.9,0.2-1.1-0.3c-1.3-3-2.6-6-3.8-9c-1.1-2.6-2.2-5.3-3.3-8C31,34.8,30.3,33.3,29.7,31.8z
			 M39.5,52.2c1.5-1.3,2.9-2.5,4.3-3.7c0.4-0.3,0.7-0.6,0.6-1.3c-0.7-4.2-1.4-8.5-2.1-12.8c-0.8-4.5-1.5-9.1-2.2-13.6
			c0-0.3,0.1-0.7,0.3-0.9c1.3-1.3,2.6-2.5,3.9-3.7c0.7-0.7,1.4-1.3,2-2c1.4-1.4,2.7-2.7,4.1-4c1.3-1.2,2.4-2.6,2.6-4.4
			c0.2-1.3-0.5-3.2-2.4-3.3C48.8,2.3,47.3,3,46.1,4c-1.6,1.2-3,2.7-4.4,4.1c-1.9,1.8-3.8,3.7-5.6,5.6c-0.9,0.8-1.7,1.4-3.1,1.1
			c-2.5-0.7-5-1-7.6-1.5c-2.3-0.5-4.7-1-7-1.4c-3-0.6-6-1.2-9-1.8c-1.3-0.3-2.6-0.6-3.4,1c0,0.1-0.2,0.1-0.2,0.2c-1,1-2,2.1-3.1,3.3
			c0.7,0.3,1.4,0.6,2,0.9c3.8,1.8,7.6,3.6,11.5,5.3c2.5,1.2,5.1,2.3,7.7,3.5c0.6,0.3,0.7,0.7,0.2,1.1c-1.2,1.2-2.5,2.4-3.7,3.6
			c-1.5,1.4-2.9,2.9-4.4,4.3c-0.6,0.6-1.1,1.4-2.2,1.2c-2.6-0.4-5.2-0.7-7.8-1c-0.3,0-0.8-0.1-1,0.1c-0.8,0.7-1.5,1.4-2.3,2.2
			c0.3,0.2,0.5,0.3,0.6,0.4c1.5,0.5,3.1,1,4.6,1.5c2.1,0.7,4.1,1.3,6.2,2c0.3,0.1,0.5,0.4,0.6,0.7c0.3,0.8,0.5,1.6,0.7,2.5
			c0.6,2,1.1,4,1.7,6c0.3,1,0.6,1.9,0.9,3.1c0.6-0.6,1.1-1.2,1.7-1.6c0.9-0.6,0.9-1.4,0.8-2.2c0-0.2-0.1-0.4-0.1-0.6
			c-0.2-2-0.4-4.1-0.6-6.1c-0.1-0.8-0.1-1.6,0.8-2.2c0.7-0.5,1.3-1.2,2-1.9c2-2,4.1-4,6.1-6c1.3-1.3,1.4-1,2,0.5
			c1.4,3.3,2.7,6.5,4.1,9.8c0.9,2.1,1.8,4.2,2.7,6.3C38.2,49.1,38.8,50.6,39.5,52.2z"/>
		<path class="st1" d="M39.5,52.2c-0.7-1.6-1.3-3.1-1.9-4.6c-0.9-2.1-1.8-4.2-2.7-6.3c-1.4-3.3-2.7-6.5-4.1-9.8
			c-0.6-1.5-0.7-1.8-2-0.5c-2,2-4.1,4-6.1,6c-0.6,0.6-1.2,1.4-2,1.9c-0.9,0.6-0.9,1.3-0.8,2.2c0.2,2,0.4,4.1,0.6,6.1
			c0,0.2,0.1,0.4,0.1,0.6c0.1,0.9,0.2,1.7-0.8,2.2c-0.6,0.4-1.1,1-1.7,1.6c-0.3-1.1-0.7-2.1-0.9-3.1c-0.6-2-1.1-4-1.7-6
			c-0.2-0.8-0.4-1.6-0.7-2.5c-0.1-0.3-0.4-0.6-0.6-0.7c-2-0.7-4.1-1.3-6.2-2c-1.6-0.5-3.1-1-4.6-1.5c-0.2-0.1-0.3-0.2-0.6-0.4
			C3.5,34.8,4.2,34,5,33.3c0.2-0.2,0.6-0.1,1-0.1c2.6,0.3,5.2,0.6,7.8,1c1.1,0.2,1.6-0.7,2.2-1.2c1.5-1.4,2.9-2.9,4.4-4.3
			c1.2-1.2,2.5-2.4,3.7-3.6c0.5-0.4,0.4-0.9-0.2-1.1c-2.6-1.2-5.1-2.3-7.7-3.5c-3.8-1.8-7.6-3.5-11.5-5.3c-0.6-0.3-1.3-0.6-2-0.9
			c1.1-1.2,2.1-2.2,3.1-3.3C5.9,10.9,6,10.9,6,10.8c0.8-1.6,2.1-1.2,3.4-1c3,0.6,6,1.2,9,1.8c3.6,0.7,7.2,1.5,10.8,2.2
			c1.3,0.2,2.6,0.6,4,0.9c1.3,0.3,2.1-0.3,2.9-1.1c1.9-1.9,3.7-3.7,5.6-5.6c1.4-1.4,2.8-2.8,4.4-4.1c1.3-1,2.7-1.7,4.4-1.5
			c1.9,0.1,2.6,2,2.4,3.3c-0.3,1.8-1.3,3.2-2.6,4.4c-1.4,1.3-2.8,2.7-4.1,4c-0.7,0.7-1.3,1.4-2,2c-1.3,1.2-2.6,2.4-3.9,3.7
			c-0.2,0.2-0.4,0.6-0.3,0.9c0.7,4.5,1.5,9.1,2.2,13.6c0.7,4.3,1.4,8.5,2.1,12.8c0.1,0.7-0.2,1-0.6,1.3C42.4,49.7,41,50.9,39.5,52.2
			z"/>
	</g>
</g>
</svg>
