<?xml version="1.0" encoding="utf-8"?>
<!-- Generator: Adobe Illustrator 21.0.0, SVG Export Plug-In . SVG Version: 6.00 Build 0)  -->
<svg version="1.1" id="Layer_1" xmlns="http://www.w3.org/2000/svg" xmlns:xlink="http://www.w3.org/1999/xlink" x="0px" y="0px"
	 viewBox="0 0 128 101" style="enable-background:new 0 0 128 101;" xml:space="preserve">
<style type="text/css">
	.st0{opacity:0.15;clip-path:url(#SVGID_2_);}
	.st1{fill:#F26725;}
	.st2{fill:#FFFFFF;stroke:#F26725;stroke-width:2;stroke-miterlimit:10;}
	.st3{opacity:0.15;clip-path:url(#SVGID_4_);}
	.st4{fill:#FFFFFF;}
</style>
<g>
	<defs>
		<rect id="SVGID_3_" width="128" height="101"/>
	</defs>
	<clipPath id="SVGID_2_">
		<use xlink:href="#SVGID_3_"  style="overflow:visible;"/>
	</clipPath>
	<g class="st0">
		<g>
			<path class="st1" d="M37.3,28.4l-2.4-2c-0.4-0.3-0.5-1-0.1-1.4l11.7-13.7c0.3-0.4,1-0.5,1.4-0.1l2.4,2c0.4,0.3,0.5,1,0.1,1.4
				L38.7,28.2C38.3,28.7,37.7,28.7,37.3,28.4z"/>
		</g>
		<g>
			<path class="st1" d="M110.2,104.1l-2.4-2c-0.4-0.3-0.5-1-0.1-1.4l11.7-13.7c0.3-0.4,1-0.5,1.4-0.1l2.4,2c0.4,0.3,0.5,1,0.1,1.4
				l-11.7,13.7C111.2,104.4,110.6,104.4,110.2,104.1z"/>
		</g>
		<g>
			<path class="st1" d="M64.2,34.3l-2.4-2.1c-0.4-0.4-0.5-1-0.1-1.4l11.7-13.7c0.4-0.4,1-0.5,1.4-0.1l2.4,2.1c0.4,0.4,0.5,1,0.1,1.4
				L65.5,34.2C65.2,34.6,64.6,34.6,64.2,34.3z"/>
		</g>
		<g>
			<path class="st1" d="M105.8,77.1l-2.4-2.1c-0.4-0.4-0.5-1-0.1-1.4L115,60c0.4-0.4,1-0.5,1.4-0.1l2.4,2.1c0.4,0.4,0.5,1,0.1,1.4
				L107.2,77C106.9,77.4,106.3,77.5,105.8,77.1z"/>
		</g>
		<g>
			<g>
				<path class="st1" d="M75.6,79.7c-2.8,2.7-5.5,5.1-8.1,7.6c-2.2,2.1-4.3,4.2-6.4,6.4c-2.5,2.5-5,4.9-7.5,7.5
					c-0.5,0.5-0.8,1.5-0.7,2.2c0.6,7.4,1.4,14.7,1.9,22.1c0.1,0.9-0.7,2.1-1.5,2.9c-2.5,2.5-5.1,4.8-7.8,7.1c-1,0.9-2.2,0.4-2.6-1
					c-1.1-3.7-2.1-7.5-3.2-11.2c-1.7-5.8-3.6-11.6-5-17.5c-0.7-3-2.5-3.9-4.9-4.6c-6.2-2-12.5-4-18.7-6c-3.2-1-6.3-2-9.4-3.1
					c-1.7-0.6-1.8-1.4-0.5-2.7c2.7-2.8,5.4-5.6,8.3-8.3c0.5-0.5,1.5-0.6,2.3-0.5c5,0.6,10,1.2,15,1.9c2.2,0.3,4.4,0.7,6.7,0.8
					c0.8,0,1.9-0.3,2.5-0.9c5.9-5.6,11.7-11.3,17.6-16.9c1.3-1.3,2.7-2.5,4.4-4.1c-2.2-1-4-1.7-5.8-2.6c-7.8-3.6-15.6-7.2-23.5-10.8
					C20.2,44,11.8,40.2,3.3,36.3c-2.4-1.1-2.6-1.9-0.9-3.7c4.2-4.5,8.4-9.1,12.7-13.6c0.5-0.5,1.5-0.8,2.2-0.6
					c11.2,2.2,22.3,4.6,33.5,6.8c9.3,1.9,18.6,3.6,27.9,5.5c2.5,0.5,5,1.1,7.5,1.5c0.7,0.1,1.6-0.2,2.1-0.7
					c4.1-3.8,8.2-7.6,12.2-11.5c4.7-4.6,9.1-9.5,14.1-13.8c4.6-3.9,10-6.8,16.4-6c5,0.6,8.5,4.6,8.2,10.5c-0.2,4.7-2.1,8.7-5.3,12
					c-4.3,4.5-8.8,8.7-13.3,13.1c-4.8,4.7-9.6,9.4-14.3,14.2c-0.6,0.6-0.9,2-0.7,2.9c2,12.3,4.2,24.5,6.3,36.8
					c1.8,10.6,3.5,21.2,5.1,31.8c0.1,0.8-0.1,1.9-0.7,2.4c-4,3.6-8.1,7.1-12.2,10.6c-0.8,0.7-1.4,1.5-2.2,2.1
					c-1.2,1-2.3,0.6-2.9-0.8c-3.3-7.8-6.7-15.7-10-23.5c-2.9-6.9-5.7-13.9-8.6-20.9C79,87.6,77.4,83.8,75.6,79.7z M101.4,133.1
					c3.9-3.4,7.5-6.5,11.1-9.6c1-0.9,1.9-1.6,1.6-3.4c-1.9-11.1-3.7-22.3-5.5-33.4c-2-11.9-4-23.8-5.9-35.7
					c-0.1-0.8,0.2-1.9,0.8-2.4c3.3-3.3,6.7-6.5,10.1-9.7c1.8-1.7,3.5-3.5,5.3-5.3c3.6-3.5,7.2-7.1,10.8-10.6
					c3.4-3.2,6.3-6.8,6.9-11.6c0.5-3.4-1.4-8.3-6.4-8.6c-4.5-0.3-8.3,1.5-11.6,4c-4.1,3.2-7.8,7-11.6,10.6c-5,4.8-9.8,9.7-14.8,14.5
					c-2.2,2.2-4.4,3.8-8.1,2.8c-6.5-1.7-13.2-2.7-19.8-4c-6.1-1.2-12.2-2.6-18.3-3.8c-7.8-1.6-15.7-3-23.6-4.7
					c-3.5-0.7-6.8-1.6-8.9,2.5c-0.1,0.2-0.4,0.3-0.6,0.5c-2.6,2.7-5.1,5.5-8,8.6c1.9,0.9,3.7,1.6,5.4,2.4c10,4.6,20,9.3,30,13.9
					c6.7,3.1,13.4,6,20.1,9.1c1.6,0.7,1.8,1.8,0.6,3c-3.2,3.2-6.6,6.3-9.8,9.5c-3.9,3.8-7.6,7.6-11.5,11.3c-1.6,1.5-2.9,3.7-5.8,3.2
					c-6.7-1-13.5-1.7-20.3-2.5c-0.8-0.1-2-0.3-2.5,0.2c-2.1,1.8-4,3.7-6.1,5.8c0.8,0.5,1.2,0.8,1.6,1c4.1,1.3,8.1,2.6,12.2,3.9
					c5.4,1.7,10.8,3.4,16.2,5.2c0.7,0.2,1.4,1.1,1.6,1.9c0.7,2.1,1.2,4.3,1.9,6.4c1.5,5.2,3,10.4,4.5,15.6c0.7,2.5,1.6,5.1,2.5,8
					c1.7-1.6,2.9-3.2,4.5-4.2c2.4-1.5,2.3-3.6,2-5.8c-0.1-0.6-0.2-1.1-0.2-1.7c-0.5-5.3-1-10.6-1.6-15.9c-0.2-2.2-0.2-4.2,2-5.7
					c1.9-1.3,3.5-3.2,5.2-4.9c5.4-5.2,10.7-10.5,16-15.7c3.5-3.4,3.6-2.7,5.2,1.3c3.6,8.5,7.1,17.1,10.7,25.6c2.3,5.5,4.7,11,7,16.5
					C97.9,125.1,99.6,129,101.4,133.1z"/>
			</g>
			<g>
				<path class="st4" d="M101.4,133.1c-1.8-4.1-3.4-8-5.1-11.9c-2.3-5.5-4.7-11-7-16.5c-3.6-8.5-7.2-17.1-10.7-25.6
					c-1.7-4-1.7-4.7-5.2-1.3c-5.3,5.2-10.7,10.5-16,15.7c-1.7,1.7-3.2,3.5-5.2,4.9c-2.3,1.5-2.2,3.5-2,5.7c0.5,5.3,1,10.6,1.6,15.9
					c0.1,0.6,0.1,1.1,0.2,1.7c0.3,2.3,0.4,4.3-2,5.8c-1.6,1-2.8,2.6-4.5,4.2c-0.9-3-1.7-5.5-2.5-8c-1.5-5.2-3-10.4-4.5-15.6
					c-0.6-2.1-1.1-4.3-1.9-6.4c-0.3-0.7-0.9-1.7-1.6-1.9c-5.4-1.8-10.8-3.5-16.2-5.2c-4.1-1.3-8.1-2.6-12.2-3.9
					c-0.5-0.1-0.9-0.5-1.6-1c2.1-2.1,4-4.1,6.1-5.8c0.5-0.4,1.7-0.3,2.5-0.2c6.8,0.8,13.6,1.5,20.3,2.5c3,0.5,4.2-1.7,5.8-3.2
					c4-3.6,7.7-7.5,11.5-11.3c3.3-3.2,6.6-6.3,9.8-9.5c1.2-1.2,1-2.2-0.6-3c-6.7-3-13.4-6-20.1-9.1c-10-4.6-20-9.3-30-13.9
					c-1.7-0.8-3.4-1.5-5.4-2.4c2.9-3.1,5.5-5.9,8-8.6c0.2-0.2,0.5-0.3,0.6-0.5c2-4.1,5.4-3.3,8.9-2.5c7.8,1.7,15.7,3.1,23.6,4.7
					c9.4,1.9,18.8,4,28.3,5.7c3.5,0.6,6.9,1.6,10.4,2.3c3.4,0.7,5.4-0.8,7.5-2.9c4.9-4.9,9.8-9.8,14.8-14.5
					c3.8-3.6,7.5-7.4,11.6-10.6c3.3-2.6,7.1-4.4,11.6-4c4.9,0.4,6.9,5.2,6.4,8.6c-0.7,4.8-3.5,8.4-6.9,11.6
					c-3.7,3.5-7.2,7.1-10.8,10.6c-1.8,1.8-3.5,3.5-5.3,5.3c-3.4,3.2-6.8,6.4-10.1,9.7c-0.6,0.6-0.9,1.7-0.8,2.5
					c1.9,11.9,3.9,23.8,5.9,35.7c1.8,11.1,3.6,22.3,5.5,33.4c0.3,1.7-0.6,2.5-1.6,3.4C108.9,126.7,105.3,129.8,101.4,133.1z"/>
				<path class="st1" d="M100.4,137.4l-8.2-19.2c-1.8-4.2-3.6-8.4-5.4-12.6c-3-7.1-6-14.3-9-21.4l-2-4.7c-0.1-0.1-0.1-0.3-0.2-0.4
					c-0.2,0.2-0.4,0.3-0.6,0.6l-16,15.7c-0.5,0.5-0.9,0.9-1.4,1.4c-1.3,1.3-2.6,2.7-4.2,3.8c-0.9,0.6-1.1,1.1-0.9,3.3l1.6,15.9
					c0,0.3,0.1,0.6,0.1,0.9l0.1,0.7c0.3,2.2,0.7,5.9-3.2,8.4c-0.8,0.5-1.6,1.3-2.4,2.2c-0.5,0.5-1,1.1-1.6,1.6l-3.1,2.9l-2.1-6.9
					c-0.6-1.8-1.1-3.6-1.6-5.3c-1.3-4.4-2.5-8.8-3.8-13.1l-0.7-2.5c-0.2-0.7-0.4-1.4-0.6-2.1c-0.4-1.4-0.8-2.8-1.2-4.2
					c0-0.1-0.1-0.3-0.2-0.3c-3.8-1.3-7.7-2.5-11.5-3.7L17.9,97c-4.1-1.3-8.1-2.6-12.2-3.9c-0.6-0.2-1.1-0.5-1.5-0.8
					c-0.2-0.1-0.4-0.2-0.6-0.4l-2.9-1.8l4.2-4.1c1.5-1.5,3-2.9,4.5-4.3c1.4-1.2,3.2-0.9,4.5-0.8l4.3,0.5c5.3,0.6,10.8,1.2,16.2,2.1
					c1,0.1,1.4-0.2,2.6-1.5c0.3-0.4,0.7-0.7,1-1c2.6-2.4,5.1-4.9,7.5-7.3c1.3-1.3,2.6-2.6,4-3.9c1.5-1.5,3-2.9,4.6-4.4
					c1.5-1.4,2.9-2.8,4.4-4.2L52,58.4c-4.2-1.9-8.5-3.8-12.7-5.7c-6.5-3-13-6-19.6-9.1L9.3,38.7c-1.2-0.5-2.3-1.1-3.6-1.6l-5.1-2.3
					l10.5-11.3c0.1-0.1,0.3-0.3,0.4-0.4c2.9-5.3,7.9-4.2,11.2-3.5l0.3,0.1c4.8,1,9.6,1.9,14.4,2.9c3,0.6,6.1,1.2,9.1,1.8
					c3.1,0.6,6.2,1.3,9.3,1.9c6.2,1.3,12.6,2.6,18.9,3.7c2.2,0.4,4.3,0.9,6.4,1.4c1.4,0.3,2.7,0.6,4.1,0.9c1.9,0.4,3-0.1,5.1-2.2
					l3.9-3.9c3.6-3.6,7.2-7.2,10.9-10.7l2.1-2c3.1-3,6.3-6.1,9.7-8.8c4.4-3.4,8.8-4.9,13.5-4.6c2.6,0.2,4.9,1.4,6.5,3.4
					c1.8,2.2,2.6,5.4,2.2,8.2c-0.8,5.9-4.4,10-7.7,13.1c-2.7,2.6-5.3,5.2-8,7.8l-2.8,2.8c-0.7,0.7-1.4,1.4-2.1,2.1
					c-1.1,1.1-2.1,2.1-3.2,3.2c-1.2,1.1-2.4,2.3-3.5,3.4c-2.2,2.1-4.4,4.1-6.5,6.3c0,0,0,0.2,0,0.3c1.3,7.9,2.6,15.9,3.9,23.9
					l3.7,22.3c1.2,7.6,2.5,15.2,3.8,22.8c0.6,3.2-1.3,4.8-2.4,5.8c-2.6,2.2-5.1,4.4-7.8,6.7L100.4,137.4z M76.3,73
					c0.2,0,0.5,0,0.7,0.1c2,0.4,2.8,2.2,3.7,4.4l2,4.7c3,7.1,6,14.3,9,21.4c1.8,4.2,3.6,8.4,5.3,12.6l5.4,12.6l0.7-0.6
					c2.6-2.3,5.2-4.4,7.7-6.6c0.3-0.3,0.7-0.6,0.8-0.7c-1.4-7.8-2.6-15.4-3.8-23.1L104,75.5c-1.3-8-2.7-16-4-24
					c-0.3-1.6,0.4-3.6,1.5-4.7c2.2-2.2,4.4-4.3,6.6-6.4c1.2-1.1,2.4-2.2,3.5-3.3c1.1-1,2.1-2.1,3.1-3.1c0.7-0.7,1.5-1.5,2.2-2.2
					l2.8-2.8c2.7-2.6,5.3-5.3,8.1-7.8c2.8-2.7,5.5-5.8,6.1-10.1c0.2-1.2-0.1-3-1.1-4.2c-0.7-0.9-1.6-1.4-2.8-1.4
					c-3.4-0.2-6.5,0.9-9.8,3.5c-3.2,2.5-6.3,5.6-9.3,8.5l-2.1,2c-3.6,3.5-7.2,7.1-10.8,10.6l-3.9,3.9c-1.7,1.6-4.7,4.7-9.9,3.6
					c-1.4-0.3-2.8-0.6-4.2-0.9c-2-0.5-4.1-1-6.1-1.3c-6.4-1.1-12.8-2.5-19.1-3.8c-3.1-0.6-6.2-1.3-9.3-1.9c-3-0.6-6-1.2-9.1-1.8
					c-4.8-0.9-9.7-1.9-14.5-2.9l-0.3-0.1C18,24,17,24,16,26c-0.3,0.7-0.8,1.1-1.1,1.3L9.5,33c0.7,0.3,1.4,0.6,2,0.9L22,38.8
					c6.5,3,13,6.1,19.5,9.1c4.2,1.9,8.4,3.8,12.6,5.7l7.4,3.3c2,0.9,2.7,2.3,2.8,3.3c0.1,0.8,0.1,2.4-1.5,3.9
					c-1.7,1.7-3.5,3.4-5.3,5.1c-1.5,1.5-3,2.9-4.5,4.4c-1.3,1.3-2.6,2.6-3.9,3.9c-2.5,2.5-5,5-7.7,7.4c-0.3,0.3-0.5,0.5-0.8,0.8
					c-1.4,1.4-3.5,3.6-7.2,3.1c-5.3-0.8-10.7-1.4-16-2l-4.2-0.5c-0.3,0-0.7-0.1-0.9-0.1c-1,0.8-1.9,1.7-2.8,2.7
					c3.3,1.1,6.7,2.2,10,3.2l4.4,1.4c4,1.2,7.9,2.5,11.8,3.8c1.6,0.5,2.8,2.1,3.3,3.5c0.5,1.5,1,3.1,1.4,4.6c0.2,0.7,0.4,1.3,0.5,2
					l0.7,2.5c1.2,4.4,2.5,8.7,3.8,13.1c0.4,1.3,0.8,2.5,1.2,3.8c0.6-0.5,1.2-1,1.9-1.4c0.9-0.5,1.1-0.9,0.8-3.3l-0.1-0.6
					c-0.1-0.4-0.1-0.7-0.1-1.1l-1.6-15.9c-0.2-2-0.6-5.6,3.1-8.1c1.2-0.8,2.2-1.9,3.3-3.1c0.5-0.5,1-1,1.5-1.5l16-15.7
					C73,74.5,74.5,73,76.3,73z"/>
			</g>
		</g>
	</g>
</g>
</svg>
