<?xml version="1.0" encoding="utf-8"?>
<!-- Generator: Adobe Illustrator 18.1.1, SVG Export Plug-In . SVG Version: 6.00 Build 0)  -->
<svg version="1.1" xmlns="http://www.w3.org/2000/svg" xmlns:xlink="http://www.w3.org/1999/xlink" x="0px" y="0px"
	 viewBox="0 0 30 30" enable-background="new 0 0 30 30" xml:space="preserve">
<g id="Layer_1">
	<g>
		<path id="Blue_1_" fill="#5FA9DD" d="M28.3,30c0.9,0,1.7-0.7,1.7-1.7V1.7C30,0.7,29.3,0,28.3,0H1.7C0.7,0,0,0.7,0,1.7v26.7
			C0,29.3,0.7,30,1.7,30H28.3z"/>
		<path fill="#FFFFFF" d="M25.5,8.5c-0.8,0.3-1.6,0.6-2.5,0.7c0.9-0.5,1.6-1.4,1.9-2.4c-0.8,0.5-1.8,0.9-2.7,1
			C21.4,7,20.3,6.5,19,6.5c-2.4,0-4.3,1.9-4.3,4.3c0,0.3,0,0.7,0.1,1C11.3,11.6,8.1,9.9,6,7.3C5.6,7.9,5.4,8.6,5.4,9.4
			c0,1.5,0.8,2.8,1.9,3.6c-0.7,0-1.4-0.2-2-0.5c0,0,0,0,0,0.1c0,2.1,1.5,3.8,3.5,4.2c-0.4,0.1-0.7,0.2-1.1,0.2c-0.3,0-0.5,0-0.8-0.1
			c0.5,1.7,2.1,3,4,3c-1.5,1.2-3.3,1.8-5.4,1.8c-0.3,0-0.7,0-1-0.1c1.9,1.2,4.2,1.9,6.6,1.9c7.9,0,12.3-6.6,12.3-12.3
			c0-0.2,0-0.4,0-0.6C24.2,10.1,24.9,9.4,25.5,8.5z"/>
	</g>
</g>
<g id="Layer_2">
</g>
</svg>
