<?xml version="1.0" encoding="utf-8"?>
<!-- Generator: Adobe Illustrator 18.1.1, SVG Export Plug-In . SVG Version: 6.00 Build 0)  -->
<svg version="1.1" id="Layer_1" xmlns="http://www.w3.org/2000/svg" xmlns:xlink="http://www.w3.org/1999/xlink" x="0px" y="0px"
	 viewBox="0 0 47 47" enable-background="new 0 0 47 47" xml:space="preserve">
<g>
	<g>
		<circle fill="#E37826" cx="23.4" cy="23.4" r="22.5"/>
	</g>
	<g>
		<path fill="#FFFFFF" d="M23.4,46.9c-13,0-23.5-10.5-23.5-23.5S10.4-0.1,23.4-0.1s23.5,10.5,23.5,23.5S36.3,46.9,23.4,46.9z
			 M23.4,1.8c-11.9,0-21.6,9.7-21.6,21.6S11.5,45,23.4,45s21.6-9.7,21.6-21.6S35.3,1.8,23.4,1.8z"/>
	</g>
</g>
<g>
	<g>
		<g>
			<rect x="20.1" y="20" fill="#FFFFFF" width="1.9" height="8.2"/>
		</g>
		<g>
			<polygon fill="#FFFFFF" points="23.6,24.3 21,21.5 18.5,24.3 17.1,23 21,18.6 25,23 			"/>
		</g>
	</g>
	<g>
		<path fill="#FFFFFF" d="M30.3,35.7H11.8V15.4h18.5V35.7z M13.7,33.8h14.7V17.3H13.7V33.8z"/>
	</g>
	<g>
		<polygon fill="#FFFFFF" points="34.9,32.6 29.9,32.6 29.9,30.7 33,30.7 33,13 17.6,13 17.6,16.3 15.7,16.3 15.7,11.1 34.9,11.1 		
			"/>
	</g>
	<g>
		<rect x="16.6" y="29.6" fill="#FFFFFF" width="8" height="2"/>
	</g>
</g>
</svg>
