<?xml version="1.0" encoding="utf-8"?>
<!-- Generator: Adobe Illustrator 18.1.1, SVG Export Plug-In . SVG Version: 6.00 Build 0)  -->
<svg version="1.1" id="Layer_1" xmlns="http://www.w3.org/2000/svg" xmlns:xlink="http://www.w3.org/1999/xlink" x="0px" y="0px"
	 viewBox="0 0 36 34.5" enable-background="new 0 0 36 34.5" xml:space="preserve">
<g>
	<path fill="none" stroke="#37648B" stroke-width="2" stroke-miterlimit="10" d="M1,16.2c0-0.6,0.4-0.9,1.1-0.8c3.1,0,6.1,0,9.2,0
		c0.6,0,0.8-0.1,1.2,0.8c0.2-0.3,2.7-5.7,3.9-8.4c0.1-0.2,0.2-0.5,0.2-0.8c0-1.3,0-2.7,0-4c0-0.5,0.2-0.8,0.6-1.1
		c1.6-1,3-0.8,4.4,0.5c1.8,1.7,2.4,3.9,1.9,6.3c-0.2,1.1-0.5,2.2-0.8,3.3c0,0.2-0.1,0.4-0.2,0.7c0.3,0,0.5,0,0.8,0c2.5,0,5,0,7.5,0
		c1.6,0,2.8,0.4,3.6,1.8c0.8,1.4,0.5,2.8-0.4,4c0.7,0.8,1,1.7,0.8,2.7c-0.2,1-0.7,1.8-1.5,2.2c0.5,0.5,0.9,1.3,0.5,2.8
		c-0.3,1.2-1.2,1.6-1.9,1.7c0,0.5,0.2,1.1,0.1,1.7c-0.2,1.5-1.5,2.6-2.9,2.6c-4.5,0-9,0-13.5,0c-1.1,0-2-0.5-3.1-0.7
		c0,0.3,0,0.9,0,1.2c0,0.8-0.3,0.9-1.1,0.9c-1.2,0-2.5,0-3.7,0c-1.8,0-3.6,0-5.4,0c-0.8,0-1.1,0-1.1-0.6C1,27.2,1,22,1,16.2z"/>
	<line fill="none" stroke="#37648B" stroke-width="2" stroke-miterlimit="10" x1="12.5" y1="16.2" x2="12.5" y2="31.5"/>
</g>
</svg>
