<?xml version="1.0" encoding="utf-8"?>
<!-- Generator: Adobe Illustrator 19.1.0, SVG Export Plug-In . SVG Version: 6.00 Build 0)  -->
<svg version="1.1" id="Layer_1" xmlns="http://www.w3.org/2000/svg" xmlns:xlink="http://www.w3.org/1999/xlink" x="0px" y="0px"
	 viewBox="0 0 30 30" style="enable-background:new 0 0 30 30;" xml:space="preserve">
<style type="text/css">
	.st0{fill:none;stroke:#1E1B1B;stroke-miterlimit:10;}
	.st1{fill:none;stroke:#E77817;stroke-miterlimit:10;}
	.st2{fill:#E77817;}
	.st3{fill:#FFFFFF;}
</style>
<polyline class="st1" points="20.9,22.7 20.9,29.1 1.2,29.1 1.2,0.9 14.8,0.9 20.9,7 20.9,13 "/>
<polyline class="st1" points="20.9,7 14.8,7 14.8,0.9 "/>
<rect x="13" y="14" class="st2" width="15.7" height="7.7"/>
<g>
	<path class="st3" d="M15.9,20.2v-0.8l2.3-2.8h-2v-0.7h3.2v0.7L17,19.5h2.5v0.7H15.9z"/>
	<path class="st3" d="M20.3,20.2v-4.4h0.9v4.4H20.3z"/>
	<path class="st3" d="M22.3,20.2v-4.4h1.4c0.5,0,0.9,0,1,0.1c0.3,0.1,0.5,0.2,0.6,0.4c0.2,0.2,0.3,0.5,0.3,0.8c0,0.3,0,0.5-0.1,0.7
		c-0.1,0.2-0.2,0.3-0.4,0.4c-0.1,0.1-0.3,0.2-0.5,0.2c-0.2,0-0.5,0.1-0.9,0.1h-0.6v1.6H22.3z M23.2,16.6v1.2h0.5
		c0.3,0,0.6,0,0.7-0.1c0.1,0,0.2-0.1,0.3-0.2c0.1-0.1,0.1-0.2,0.1-0.3c0-0.2,0-0.3-0.1-0.4c-0.1-0.1-0.2-0.2-0.4-0.2
		c-0.1,0-0.3,0-0.6,0H23.2z"/>
</g>
</svg>
